<svg xmlns="http://www.w3.org/2000/svg" viewBox="0 0 503.57 436.11"><defs><style>.cls-1{fill:#3db2ff;}.cls-2{font-size:21.81px;font-family:Sarabun-Regular, Sarabun;}.cls-3{letter-spacing:-0.02em;}.cls-4{letter-spacing:0.02em;}.cls-5{letter-spacing:-0.01em;}.cls-6{letter-spacing:0.02em;}.cls-7{letter-spacing:-0.03em;}.cls-8{letter-spacing:-0.03em;}.cls-9{fill:#ffb830;}.cls-10{fill:#ff2442;}</style></defs><g id="Calque_2" data-name="Calque 2"><g id="Calque_1-2" data-name="Calque 1"><polygon class="cls-1" points="125.89 436.11 0 218.05 125.89 0 377.68 0 503.57 218.05 377.68 436.11 125.89 436.11"/><text class="cls-2" transform="translate(105.78 337.48) scale(0.97 1)"><tspan class="cls-3">L</tspan><tspan class="cls-4" x="11.52" y="0">e</tspan><tspan x="23.25" y="0">s ref</tspan><tspan class="cls-5" x="63.77" y="0">r</tspan><tspan x="71.19" y="0">oidis</tspan><tspan class="cls-6" x="114.91" y="0">s</tspan><tspan x="124.42" y="0">ement d</tspan><tspan class="cls-4" x="202.63" y="0">e</tspan><tspan x="214.36" y="0">s centra</tspan><tspan class="cls-7" x="289.39" y="0">l</tspan><tspan class="cls-4" x="295.08" y="0">e</tspan><tspan x="306.81" y="0">s </tspan><tspan x="46.92" y="48.37">é</tspan><tspan class="cls-8" x="58.22" y="48.37">l</tspan><tspan x="63.91" y="48.37">ectriqu</tspan><tspan class="cls-4" x="130.65" y="48.37">e</tspan><tspan x="142.38" y="48.37">s sont à 30 %</tspan></text><polygon class="cls-9" points="219.47 146.7 209.05 139.72 205.77 132.16 209.05 124.6 203.41 116.57 205.77 111.84 213.33 111.84 211.44 92.95 219.47 84.44 235.53 84.44 240.91 79.25 254.43 82.55 262.93 73.11 274.74 73.11 281.83 73.11 297.89 73.11 297.89 76.89 304.03 80.67 312.06 82.55 314.43 93.89 305.92 103.81 292.64 104.29 286.08 101.45 286.08 107.12 292.64 109.25 292.64 119.4 286.08 125.07 272.62 117.51 264.35 123.18 264.82 128.38 250.18 131.21 255.37 132.63 265.29 135.47 263.88 140.66 267.18 142.55 266.71 145.39 219.47 146.7"/><polygon class="cls-10" points="193.96 248.87 286.08 248.87 282.46 236.68 280.5 230.09 270.49 196.43 266.24 175.88 265.53 161.71 272.62 144 209.55 144 216.63 163.84 213.8 185.81 206.71 209.19 201.88 229.61 200 234.19 193.96 248.87"/><polyline class="cls-1" points="201.88 229.61 280.5 230.09 281.83 234.56 200 234.19 201.88 229.61"/><polyline class="cls-1" points="210.58 196.43 209.05 201.48 271.99 201.48 270.49 196.43 210.58 196.43"/><polyline class="cls-1" points="211.87 150.49 270.02 150.49 272.62 144 209.55 144 211.87 150.49"/><polygon class="cls-9" points="145.06 160.41 132.46 151.96 128.49 142.82 132.46 133.68 125.63 123.97 128.49 118.25 137.63 118.25 135.35 95.39 145.06 85.11 164.49 85.11 170.99 78.82 187.34 82.82 197.63 71.4 211.91 71.4 220.48 71.4 239.91 71.4 239.91 75.97 247.34 80.54 257.06 82.82 259.91 96.54 249.63 108.54 233.56 109.11 225.63 105.68 225.63 112.54 233.56 115.11 233.56 127.39 225.63 134.25 209.34 125.11 199.34 131.97 199.91 138.25 182.2 141.68 188.49 143.39 200.49 146.82 198.77 153.11 202.77 155.39 202.2 158.82 145.06 160.41"/><polygon class="cls-10" points="114.2 283.99 225.63 283.99 221.25 269.25 218.87 261.27 206.77 220.56 201.63 195.71 200.77 178.57 209.34 157.14 133.06 157.14 141.63 181.14 138.2 207.71 129.63 235.99 123.78 260.7 121.51 266.23 114.2 283.99"/><polyline class="cls-1" points="123.78 260.7 218.87 261.27 220.48 266.68 121.51 266.23 123.78 260.7"/><polyline class="cls-1" points="134.31 220.56 132.46 226.67 208.59 226.67 206.77 220.56 134.31 220.56"/><polyline class="cls-1" points="135.87 164.99 206.2 164.99 209.34 157.14 133.06 157.14 135.87 164.99"/><polygon class="cls-9" points="292.96 162.12 280.36 153.68 276.39 144.53 280.36 135.39 273.53 125.68 276.39 119.96 285.53 119.96 283.25 97.11 292.96 86.82 312.39 86.82 318.89 80.53 335.24 84.53 345.53 73.11 359.81 73.11 368.38 73.11 387.81 73.11 387.81 77.68 395.24 82.25 404.95 84.53 407.81 98.25 397.53 110.25 381.46 110.82 373.53 107.39 373.53 114.25 381.46 116.82 381.46 129.1 373.53 135.96 357.24 126.82 347.24 133.68 347.81 139.96 330.1 143.39 336.38 145.1 348.38 148.53 346.67 154.82 350.67 157.1 350.1 160.53 292.96 162.12"/><polygon class="cls-10" points="262.1 285.7 373.53 285.7 369.14 270.96 366.77 262.98 354.67 222.28 349.53 197.42 348.67 180.28 357.24 158.85 280.96 158.85 289.53 182.85 286.1 209.42 277.53 237.7 271.68 262.41 269.41 267.94 262.1 285.7"/><polyline class="cls-1" points="271.68 262.41 366.77 262.98 368.38 268.39 269.41 267.94 271.68 262.41"/><polyline class="cls-1" points="282.21 222.28 280.36 228.38 356.49 228.38 354.67 222.28 282.21 222.28"/><polyline class="cls-1" points="283.76 166.7 354.1 166.7 357.24 158.85 280.96 158.85 283.76 166.7"/></g></g></svg>