<?xml version="1.0" encoding="UTF-8"?><svg id="Calque_2" xmlns="http://www.w3.org/2000/svg" xmlns:xlink="http://www.w3.org/1999/xlink" viewBox="0 0 514.33 554.26"><defs><style>.cls-1{fill:#895c3d;}.cls-2{fill:#a16e45;}.cls-3{fill:#ffdec0;}.cls-4{fill:url(#Dégradé_sans_nom_74);}.cls-5{fill:#a50000;}.cls-6{fill:#ccbeb8;}.cls-7{fill:#c4815a;}.cls-8{fill:#e19663;}.cls-9{fill:url(#Dégradé_sans_nom_66);}.cls-10{fill:#3db2ff;}</style><linearGradient id="Dégradé_sans_nom_74" x1="310.51" y1="240.8" x2="356.83" y2="240.8" gradientUnits="userSpaceOnUse"><stop offset=".23" stop-color="#e19663"/><stop offset=".72" stop-color="#c4815a"/></linearGradient><linearGradient id="Dégradé_sans_nom_66" x1="312.38" y1="119.73" x2="354.97" y2="119.73" gradientUnits="userSpaceOnUse"><stop offset=".61" stop-color="#e19663"/><stop offset=".82" stop-color="#c4815a"/></linearGradient></defs><g id="flaque_d_eau"><path class="cls-10" d="m83.61,488.23c20.27-3.11,43.05-20.7,69.96-28.98,26.91-8.28,47.61-9.89,72.98-11.39,25.36-1.49,101.96-6.73,131.47-3.11s77.12,10.35,76.09,25.88c-1.04,15.53-18.12,12.53-12.94,20.7,5.18,8.17,93.17-8.8,93.17,20.7s-93.17,25.43-93.17,25.43c0,0-74.53-11.97-81.26-8.86s-7.25,6.73-7.25,6.73c0,0,7.76,3.65,3.62,9.38s-14.49,5.73-14.49,5.73c0,0-45.01-2.14-62.37-5.73-17.36-3.59-30.65-7.25-48.39-7.25-17.75,0-11.17,3.69-17.75,7.25-6.58,3.56-24.69,8.09-43.85,8.73-19.15.64-19.71,1.45-35.2,0-15.48-1.45-21.14-1.66-25.88-3s-13.65-1.14-12.71-5.73,12.19-5.56,11.16-12.49-13.77-2.07-27.5-3.11c-13.74-1.03-41.33-3.11-41.33-3.11,0,0-17.64-5.69-17.96-18.12-.33-12.42,34.99-17.08,34.99-17.08,0,0,28.36.52,48.63-2.59Z"/></g><g id="usine"><g><path d="m147.7,514.32v-24.77h-46.34v-24.41l29.56-107.24h48.65v105.55h8.34v26.1h-8.34v24.77h-31.87Zm-18.46-50.87h18.46v-78.74l-18.46,78.74Z"/><path d="m228.04,467.36c-11.01,0-19.54-3.39-25.61-10.16s-9.1-15.82-9.1-27.12v-32.22c0-11.95,2.87-21.13,8.61-27.52,5.74-6.39,14.44-9.59,26.1-9.59s20.37,3.2,26.14,9.59c5.77,6.39,8.66,15.56,8.66,27.52v32.22c0,11.3-3.03,20.34-9.1,27.12s-14.63,10.16-25.7,10.16Zm0-23.26c2.31,0,4.26-.84,5.86-2.53s2.4-3.77,2.4-6.26v-43.14c0-3.49-.5-6.24-1.51-8.26s-3.25-3.02-6.75-3.02-5.67,1.02-6.7,3.06-1.55,4.78-1.55,8.21v43.14c0,2.49.8,4.57,2.4,6.26s3.55,2.53,5.86,2.53Zm20.15,70.13l47.94-156.86h28.76l-48.03,156.86h-28.67Zm94.98,1.6c-11.01,0-19.54-3.39-25.61-10.16-6.07-6.78-9.1-15.82-9.1-27.12v-32.22c0-11.95,2.87-21.13,8.61-27.52,5.74-6.39,14.44-9.59,26.1-9.59s20.37,3.2,26.14,9.59,8.66,15.56,8.66,27.52v32.22c0,11.3-3.03,20.34-9.1,27.12s-14.63,10.16-25.7,10.16Zm0-23.26c2.31,0,4.26-.84,5.86-2.53s2.4-3.77,2.4-6.26v-43.14c0-3.49-.5-6.24-1.51-8.26s-3.25-3.02-6.75-3.02-5.67,1.02-6.7,3.06-1.55,4.78-1.55,8.21v43.14c0,2.49.8,4.57,2.4,6.26s3.55,2.53,5.86,2.53Z"/></g><g><rect class="cls-4" x="310.51" y="124.23" width="46.32" height="233.13"/><rect class="cls-9" x="312.38" y="115.23" width="42.59" height="9.01"/><rect class="cls-8" x="113.55" y="250.54" width="243.28" height="106.83"/><rect class="cls-2" x="108.4" y="242.44" width="205.91" height="8.11"/><rect class="cls-5" x="163.29" y="323.2" width="16.19" height="34.17"/><rect class="cls-5" x="120.36" y="297.4" width="22.26" height="11.46"/><rect class="cls-5" x="160.02" y="297.4" width="22.26" height="11.46"/><rect class="cls-5" x="199.68" y="297.4" width="22.26" height="11.46"/><rect class="cls-5" x="239.34" y="297.4" width="22.26" height="11.46"/><rect class="cls-5" x="279" y="297.4" width="22.26" height="11.46"/><rect class="cls-5" x="120.69" y="269.96" width="22.26" height="11.46"/><rect class="cls-5" x="160.35" y="269.96" width="22.26" height="11.46"/><rect class="cls-5" x="200.01" y="269.96" width="22.26" height="11.46"/><rect class="cls-5" x="239.67" y="269.96" width="22.26" height="11.46"/><rect class="cls-5" x="279.32" y="269.96" width="22.26" height="11.46"/><rect class="cls-5" x="120.36" y="323.2" width="22.26" height="11.46"/><rect class="cls-5" x="199.68" y="323.2" width="22.26" height="11.46"/><rect class="cls-5" x="239.34" y="323.2" width="22.26" height="11.46"/><rect class="cls-5" x="279" y="323.2" width="22.26" height="11.46"/><rect class="cls-7" x="310.51" y="250.54" width="46.32" height="106.83"/><rect class="cls-1" x="314.31" y="242.44" width="48.63" height="8.11"/><path class="cls-6" d="m464.91,8s-13.53-15.16-27.59-3.75c0,0-21.65-4.24-28.93,10.59,0,0-10.08-3.91-17.64,4.4,0,0-11.25-3.75-14.94,6.68,0,0-13.35-2.77-17.22,12.06,0,0-25.13.65-24.95,20.05,0,0-16.09,8.84-5.98,26.33,0,0-8.57,7.16.94,16.42,0,0-8.34,5.33-2.94,14.43h17.03s6.06-5.68,5-10.89c0,0,8.96,3.26,12.12-5.7,0,0,12.65-1.96,9.49-17.44,0,0,13.35,5.7,18.45-6.03,0,0,17.57,3.75,20.91-7.99,0,0,19.33,2.12,21.79-11.25,0,0,18.98,2.93,21.44-8.8,0,0,20.38-.98,17.92-17.44,0,0,8.79-12.39-4.92-21.68Z"/></g></g><g id="surplus_d_eau_lettres"><path class="cls-10" d="m141.88,512.3s1.37-13.27,7.59-12c6.65,1.35,6.6.7,7.68,0s1.65-1.42,5.91-1.41,5.74,1.43,8.45,1.41c3.97-.03,3.28-2.11,9.08-1.06s11.37,18.93,11.37,18.93l-44.26,3.11-9.23-5.22,3.41-3.76Z"/><path class="cls-10" d="m246.91,504.35l-1.03,13.64,41.47-2.17-4.65-15.53s-10.85-3.21-14.99-2.63-4.47,1.09-5.9,1.09-.96-1.09-4.56-1.09-5.87,2.6-5.87,2.6l-4.47,4.08Z"/><path class="cls-10" d="m311.32,497.35s2.28-1.75,6.93-1.12,8.67,2.96,12.94,3.09,5.63-1.55,10.09-1.07,2.07,1.27,6.73,1.07,3.09-2.16,8.6-2.59c4.08-.31,3.43,0,8.67.65s13.39-2.16,13.39-2.16l3.36,22.77-57.97.99-13.2-9.7.44-11.93Z"/></g><g id="herbe"><g id="herbe-2"><path class="cls-3" d="m411.61,495.28s.74-12.78-.84-23.84c-1.58-11.06-9.5-20.68-9.5-20.68,0,0,5.49,14.25,6.65,21.59,1.16,7.34,1.47,22.92,1.47,22.92h2.22Z"/><path class="cls-3" d="m418.37,495.28s-2.07-15.48-2.07-24.89,4.61-29.23,4.61-29.23c0,0-9.29,15.84-9.29,29.23v24.89h6.76Z"/><path class="cls-3" d="m423.29,495.28s-1.55-11.82-.49-22.11,4.75-25.17,4.75-25.17c0,0-8.55,15.71-8.87,26.47s-.32,20.8-.32,20.8h4.93Z"/><path class="cls-3" d="m430.61,495.28s-2.22-15.62-1.37-22.11c.84-6.49,4.75-17.47,4.75-17.47,0,0-2.85,7.72-1.48,19.32,1.37,11.6,4.96,20.26,4.96,20.26h-6.86Z"/><path class="cls-3" d="m439.69,495.24s1.01-5.06,1.42-18.24-1.94-18.22-1.94-18.22c0,0-1.31,14.09-2.22,19.86s-1.88,16.6-1.88,16.6h4.61Z"/><path class="cls-3" d="m446.61,495.24s2.37-6.43,4-19.61-6.31-23.48-6.31-23.48c0,0,5,11.29.7,25.52l-5.31,17.57h6.92Z"/><path class="cls-3" d="m456.6,495.28s-1.92-9.65-1.11-18.27,5.97-17.32,5.97-17.32c0,0-8.21,3.72-10.29,17.32s-.62,18.31-.62,18.31l6.05-.03Z"/></g></g></svg>