<?xml version="1.0" encoding="UTF-8"?><svg id="Calque_2" xmlns="http://www.w3.org/2000/svg" viewBox="0 0 328.41 446.32"><defs><style>.cls-1{fill:#fff;}.cls-2{fill:#ffedda;}</style></defs><g id="Calque_14"><rect class="cls-2" width="328.41" height="446.32"/><path d="m76.11,198.35c10.29-5.53,21.85-36.87,35.51-51.62,13.66-14.75,24.17-17.62,37.05-20.28,12.88-2.66,51.76-11.98,66.74-5.53s39.15,18.43,38.62,46.09c-.53,27.65-9.2,22.32-6.57,36.87,2.63,14.55,47.29-15.67,47.29,36.87s-47.29,45.28-47.29,45.28c0,0-37.84-21.31-41.25-15.78-3.42,5.53-3.68,11.98-3.68,11.98,0,0,3.94,6.5,1.84,16.7-2.1,10.21-7.36,10.21-7.36,10.21,0,0-22.85-3.82-31.66-10.21-8.81-6.39-15.56-12.91-24.57-12.91s-5.67,6.57-9.01,12.91-12.54,14.41-22.26,15.56c-9.72,1.15-10.01,2.58-17.87,0-7.86-2.58-10.73-2.96-13.14-5.35-2.41-2.38-6.93-2.03-6.45-10.21.48-8.18,6.19-9.9,5.66-22.23-.53-12.34-6.99-3.69-13.96-5.53-6.97-1.84-20.98-5.53-20.98-5.53,0,0-8.95-10.14-9.12-32.26-.17-22.12,17.76-30.42,17.76-30.42,0,0,14.39.92,24.68-4.61Z"/><path class="cls-1" d="m163.61,307.35c-14.6,0-26.52-3.61-35.76-10.84-9.24-7.23-13.86-18.32-13.86-33.28v-28.27h39.49v16.29c0,3.38.2,6.65.59,9.82.4,3.16,1.31,5.75,2.75,7.77,1.44,2.01,3.7,3.02,6.8,3.02,4.1,0,6.8-1.38,8.09-4.15s1.94-6.31,1.94-10.63v-37.33c0-3.09-.2-6.15-.59-9.17-.4-3.02-1.28-5.54-2.64-7.55-1.37-2.01-3.56-3.02-6.58-3.02-7.19,0-10.79,5.21-10.79,15.64h-34.85v-100.98h90.52v35.6h-54.48v26.76c1.87-2.3,4.41-4.33,7.61-6.1,3.2-1.76,6.96-2.64,11.27-2.64,8.63,0,15.66,1.65,21.09,4.96s9.6,7.91,12.51,13.81c2.91,5.9,4.93,12.73,6.04,20.5,1.11,7.77,1.67,16.11,1.67,25.03,0,11.44-.59,21.74-1.78,30.91-1.19,9.17-3.52,17.03-7.01,23.57-3.49,6.55-8.59,11.56-15.32,15.05s-15.63,5.23-26.7,5.23Z"/><g><path d="m83.81,386.05c-.65-.73-.97-1.82-.97-3.26v-6.54h1.43v6.51c0,2.15.81,3.22,2.44,3.22s2.44-1.07,2.44-3.22v-6.51h1.41v6.54c0,1.43-.32,2.52-.97,3.25-.65.74-1.61,1.11-2.88,1.11s-2.24-.37-2.89-1.1Z"/><path d="m93.86,386.49c-.39-.43-.58-1.04-.58-1.8v-4.36h-1.38v-1.01h1.38v-2.04l1.24-.38h.06v2.43h2.18v1.01h-2.18v4.24c0,.52.1.91.29,1.16.19.25.5.38.91.38.44,0,.8-.06,1.07-.17l.09.97c-.34.16-.83.25-1.49.25s-1.21-.22-1.6-.65Z"/><path d="m98.72,377.75c-.16-.15-.24-.36-.24-.63s.08-.48.24-.64.39-.24.68-.24.51.08.68.24.25.37.25.64-.08.48-.25.63-.4.23-.68.23-.51-.08-.68-.23Zm.03,1.57h1.31v7.68h-1.31v-7.68Z"/><path d="m102.36,385.2v-9.59h1.31v9.58c0,.36.06.61.18.76.12.15.32.22.61.22.22,0,.48-.06.77-.18l.2.78c-.39.25-.85.38-1.4.38-1.1,0-1.66-.65-1.66-1.95Z"/><path d="m106.95,377.75c-.16-.15-.24-.36-.24-.63s.08-.48.24-.64.39-.24.68-.24.51.08.68.24.25.37.25.64-.08.48-.25.63-.4.23-.68.23-.51-.08-.68-.23Zm.03,1.57h1.31v7.68h-1.31v-7.68Z"/><path d="m111.03,386.79c-.46-.23-.8-.55-.99-.94l.84-.58c.17.28.41.49.72.64s.64.23,1,.23c.43,0,.78-.12,1.07-.38.28-.25.42-.56.42-.94,0-.31-.11-.56-.34-.77-.22-.2-.62-.41-1.2-.63-.87-.32-1.48-.65-1.83-1-.35-.35-.53-.78-.53-1.29,0-.59.23-1.07.71-1.44.47-.36,1.09-.54,1.87-.54.5,0,.96.11,1.37.32s.73.51.96.89l-.8.58c-.36-.53-.87-.8-1.54-.8-.38,0-.69.09-.93.26-.24.17-.36.4-.36.67s.12.51.37.7c.24.19.7.41,1.37.67.79.3,1.35.62,1.67.97.33.35.49.8.49,1.34,0,.72-.26,1.29-.77,1.72-.51.43-1.19.64-2.03.64-.57,0-1.09-.12-1.56-.35Z"/><path d="m123.61,383.66h-5.53c.07.78.3,1.37.69,1.77.39.4.93.61,1.61.61.92,0,1.65-.36,2.2-1.09l.74.71c-.3.47-.71.84-1.24,1.1-.53.26-1.11.39-1.74.39-1.14,0-2.02-.35-2.64-1.04s-.94-1.67-.94-2.93.31-2.23.94-2.94c.63-.71,1.5-1.07,2.6-1.07,1.03,0,1.84.35,2.42,1.05s.88,1.68.88,2.94v.51Zm-1.2-1.08c0-.74-.19-1.31-.57-1.73-.38-.42-.91-.63-1.59-.63-.63,0-1.14.21-1.51.64s-.59,1.04-.65,1.83h4.33v-.11Z"/><path d="m125.19,381.19c0-.87-.01-1.49-.05-1.87h1.21c.04.41.06.86.06,1.35v.15h.05c.19-.53.51-.94.94-1.23.43-.29.94-.43,1.52-.43.16,0,.31.01.45.05v1.07c-.13-.03-.31-.05-.54-.05-.43,0-.82.13-1.18.39-.36.26-.64.62-.84,1.07-.2.45-.31.94-.31,1.47v3.82h-1.31v-5.8Z"/><path d="m134.66,386.04c-.58-.74-.87-1.74-.87-3.02,0-.78.13-1.46.4-2.03.27-.58.64-1.03,1.14-1.34.49-.32,1.06-.48,1.72-.48.94,0,1.7.39,2.27,1.18h.03v-4.74h1.29v9.46c0,.95.02,1.6.05,1.93h-1.2c-.02-.25-.03-.65-.03-1.21h-.03c-.23.41-.57.74-1.01.99-.44.25-.91.38-1.4.38-.99,0-1.78-.37-2.36-1.11Zm4.1-.53c.38-.39.58-.92.58-1.59v-1.4c0-.72-.19-1.29-.58-1.72-.39-.43-.91-.64-1.55-.64s-1.17.25-1.54.76c-.37.51-.56,1.22-.56,2.13s.19,1.7.56,2.24.89.81,1.54.81,1.17-.2,1.56-.59Z"/><path d="m143.21,386.29c-.45-.57-.68-1.42-.68-2.53v-4.44h1.3v4.45c0,1.56.55,2.33,1.66,2.33.43,0,.82-.11,1.17-.33.35-.22.62-.53.81-.92.19-.39.29-.84.29-1.33v-4.21h1.3v6.05c0,.51.05,1.05.14,1.63h-1.2c-.09-.45-.14-.91-.15-1.37h-.05c-.23.47-.57.84-1.04,1.11s-.98.41-1.56.41c-.88,0-1.55-.29-2-.86Z"/><path d="m154.76,381.25c0-.65-.02-1.3-.06-1.93h1.2c.03.38.05.78.05,1.21h.03c.21-.41.55-.74,1-.99.45-.25.94-.38,1.46-.38.99,0,1.77.35,2.33,1.06.56.71.84,1.68.84,2.93,0,.81-.13,1.51-.4,2.11-.27.6-.64,1.06-1.13,1.39s-1.05.49-1.7.49c-.53,0-1-.1-1.4-.31-.4-.2-.69-.49-.88-.86h-.04v4.73h-1.31v-9.46Zm4.97,4.08c.38-.55.57-1.29.57-2.22s-.18-1.65-.55-2.15-.89-.75-1.55-.75c-.62,0-1.14.2-1.54.61-.4.41-.6.93-.6,1.57v1.4c0,.71.19,1.28.58,1.71.39.43.9.65,1.53.65s1.17-.27,1.55-.82Z"/><path d="m163.49,386.48c-.48-.44-.72-1.01-.72-1.7,0-.77.29-1.36.87-1.78s1.4-.63,2.46-.63h1.58v-.4c0-.57-.15-1.01-.45-1.31-.3-.3-.74-.45-1.31-.45-.46,0-.88.09-1.27.28-.38.19-.7.46-.96.82l-.66-.8c.35-.44.77-.77,1.27-1,.5-.23,1.06-.35,1.67-.35.96,0,1.7.24,2.23.71.52.47.78,1.15.78,2.03v3.61c0,.4.06.9.18,1.49h-1.14c-.09-.23-.16-.59-.2-1.07h-.03c-.29.4-.64.7-1.06.91s-.89.31-1.4.31c-.76,0-1.38-.22-1.86-.66Zm3.13-.59c.33-.15.59-.35.77-.61.19-.26.28-.54.28-.84v-1.14h-1.63c-.64,0-1.14.13-1.49.38-.35.26-.52.62-.52,1.09,0,.41.14.73.41.97.27.24.64.36,1.1.36.39,0,.75-.07,1.07-.22Z"/><path d="m171.02,381.25c0-.65-.02-1.3-.06-1.93h1.2c.03.38.05.78.05,1.21h.03c.21-.41.55-.74,1-.99.45-.25.94-.38,1.46-.38.99,0,1.77.35,2.33,1.06.56.71.84,1.68.84,2.93,0,.81-.13,1.51-.4,2.11-.27.6-.64,1.06-1.13,1.39s-1.05.49-1.7.49c-.53,0-1-.1-1.4-.31-.4-.2-.69-.49-.88-.86h-.04v4.73h-1.31v-9.46Zm4.97,4.08c.38-.55.57-1.29.57-2.22s-.18-1.65-.55-2.15-.89-.75-1.55-.75c-.62,0-1.14.2-1.54.61-.4.41-.6.93-.6,1.57v1.4c0,.71.19,1.28.58,1.71.39.43.9.65,1.53.65s1.17-.27,1.55-.82Z"/><path d="m179.61,377.75c-.16-.15-.24-.36-.24-.63s.08-.48.24-.64.39-.24.68-.24.51.08.68.24.25.37.25.64-.08.48-.25.63-.4.23-.68.23-.51-.08-.68-.23Zm.03,1.57h1.31v7.68h-1.31v-7.68Z"/><path d="m189.58,383.66h-5.53c.07.78.3,1.37.69,1.77.39.4.93.61,1.61.61.92,0,1.65-.36,2.2-1.09l.74.71c-.3.47-.71.84-1.24,1.1-.53.26-1.11.39-1.74.39-1.14,0-2.02-.35-2.64-1.04s-.94-1.67-.94-2.93.31-2.23.94-2.94c.63-.71,1.5-1.07,2.6-1.07,1.03,0,1.84.35,2.42,1.05s.88,1.68.88,2.94v.51Zm-1.2-1.08c0-.74-.19-1.31-.57-1.73-.38-.42-.91-.63-1.59-.63-.63,0-1.14.21-1.51.64s-.59,1.04-.65,1.83h4.33v-.11Z"/><path d="m191.16,381.19c0-.87-.01-1.49-.05-1.87h1.21c.04.41.06.86.06,1.35v.15h.05c.19-.53.51-.94.94-1.23.43-.29.94-.43,1.52-.43.16,0,.31.01.45.05v1.07c-.13-.03-.31-.05-.54-.05-.43,0-.82.13-1.18.39-.36.26-.64.62-.84,1.07-.2.45-.31.94-.31,1.47v3.82h-1.31v-5.8Z"/><path d="m200.26,381.19c0-.87-.01-1.49-.05-1.87h1.21c.04.41.06.86.06,1.35v.15h.05c.19-.53.51-.94.94-1.23.43-.29.94-.43,1.52-.43.16,0,.31.01.45.05v1.07c-.13-.03-.31-.05-.54-.05-.43,0-.82.13-1.18.39-.36.26-.64.62-.84,1.07-.2.45-.31.94-.31,1.47v3.82h-1.31v-5.8Z"/><path d="m212.01,383.66h-5.53c.07.78.3,1.37.69,1.77.39.4.93.61,1.61.61.92,0,1.65-.36,2.2-1.09l.74.71c-.3.47-.71.84-1.24,1.1-.53.26-1.11.39-1.74.39-1.14,0-2.02-.35-2.64-1.04s-.94-1.67-.94-2.93.31-2.23.94-2.94c.63-.71,1.5-1.07,2.6-1.07,1.03,0,1.84.35,2.42,1.05s.88,1.68.88,2.94v.51Zm-1.2-1.08c0-.74-.19-1.31-.57-1.73-.38-.42-.91-.63-1.59-.63-.63,0-1.14.21-1.51.64s-.59,1.04-.65,1.83h4.33v-.11Z"/><path d="m214.03,386.09c-.63-.7-.94-1.68-.94-2.94s.31-2.24.94-2.94c.63-.7,1.51-1.05,2.65-1.05.64,0,1.22.13,1.71.38.5.25.89.61,1.17,1.08l-.78.71c-.23-.35-.52-.62-.88-.82-.36-.2-.75-.3-1.17-.3-.73,0-1.3.26-1.71.77-.41.52-.62,1.24-.62,2.17s.21,1.64.62,2.17c.41.52.98.78,1.71.78.42,0,.81-.1,1.17-.3.36-.2.66-.47.88-.82l.78.71c-.29.47-.68.83-1.17,1.08-.5.25-1.07.38-1.71.38-1.14,0-2.02-.35-2.65-1.05Z"/><path d="m226.74,379.32l-2.78,7.81c-.71,1.98-1.8,2.96-3.27,2.96-.27,0-.55-.04-.86-.11v-1c.18.06.41.09.68.09.52,0,.97-.19,1.34-.57.37-.38.72-1.02,1.06-1.92l-2.86-7.28h1.4l2.06,5.88,1.83-5.88h1.41Z"/><path d="m228.38,386.09c-.63-.7-.94-1.68-.94-2.94s.31-2.24.94-2.94c.63-.7,1.51-1.05,2.65-1.05.64,0,1.22.13,1.71.38.5.25.89.61,1.17,1.08l-.78.71c-.23-.35-.52-.62-.88-.82-.36-.2-.75-.3-1.17-.3-.73,0-1.3.26-1.71.77-.41.52-.62,1.24-.62,2.17s.21,1.64.62,2.17c.41.52.98.78,1.71.78.42,0,.81-.1,1.17-.3.36-.2.66-.47.88-.82l.78.71c-.29.47-.68.83-1.17,1.08-.5.25-1.07.38-1.71.38-1.14,0-2.02-.35-2.65-1.05Z"/><path d="m235.25,385.2v-9.59h1.31v9.58c0,.36.06.61.18.76.12.15.32.22.61.22.22,0,.48-.06.77-.18l.2.78c-.39.25-.85.38-1.4.38-1.1,0-1.66-.65-1.66-1.95Z"/><path d="m245.58,383.66h-5.53c.07.78.3,1.37.69,1.77.39.4.93.61,1.61.61.92,0,1.65-.36,2.2-1.09l.74.71c-.3.47-.71.84-1.24,1.1-.53.26-1.11.39-1.74.39-1.14,0-2.02-.35-2.64-1.04s-.94-1.67-.94-2.93.31-2.23.94-2.94c.63-.71,1.5-1.07,2.6-1.07,1.03,0,1.84.35,2.42,1.05s.88,1.68.88,2.94v.51Zm-1.2-1.08c0-.74-.19-1.31-.57-1.73-.38-.42-.91-.63-1.59-.63-.63,0-1.14.21-1.51.64s-.59,1.04-.65,1.83h4.33v-.11Zm-1.38-6.34h1.34l-1.49,2.24h-1.04l1.2-2.24Z"/><path d="m115.45,402.08h-5.53c.07.78.3,1.37.69,1.77.39.4.93.61,1.61.61.92,0,1.65-.36,2.2-1.09l.74.71c-.3.47-.71.84-1.24,1.1-.53.26-1.11.39-1.74.39-1.14,0-2.02-.35-2.64-1.04s-.94-1.67-.94-2.93.31-2.23.94-2.94c.63-.71,1.5-1.07,2.6-1.07,1.03,0,1.84.35,2.42,1.05s.88,1.68.88,2.94v.51Zm-1.2-1.08c0-.74-.19-1.31-.57-1.73-.38-.42-.91-.63-1.59-.63-.63,0-1.14.21-1.51.64s-.59,1.04-.65,1.83h4.33v-.11Z"/><path d="m118.12,404.91c-.39-.43-.58-1.04-.58-1.8v-4.36h-1.38v-1.01h1.38v-2.04l1.24-.38h.06v2.43h2.18v1.01h-2.18v4.24c0,.52.1.91.29,1.16.19.25.5.38.91.38.44,0,.8-.06,1.07-.17l.09.97c-.34.16-.83.25-1.49.25s-1.21-.22-1.6-.65Z"/><path d="m126.46,399.67c0-.78-.03-1.42-.08-1.93h1.17c.04.41.06.86.06,1.37h.05c.2-.47.53-.84.97-1.11s.93-.41,1.47-.41,1.01.14,1.4.41.65.66.78,1.15c.21-.48.54-.86.98-1.14s.94-.42,1.49-.42c.84,0,1.5.27,1.97.81.48.54.71,1.3.71,2.27v4.74h-1.29v-4.64c0-.7-.14-1.23-.44-1.6-.29-.37-.71-.55-1.27-.55s-.99.2-1.34.61c-.35.4-.52.92-.52,1.56v4.62h-1.29v-4.58c0-.75-.13-1.3-.4-1.67s-.67-.54-1.21-.54c-.34,0-.65.1-.95.31-.3.2-.53.48-.71.81-.18.34-.27.7-.27,1.09v4.58h-1.29v-5.74Z"/><path d="m140.7,405.08c-.56-.32-.99-.79-1.29-1.39-.3-.6-.45-1.31-.45-2.12s.15-1.51.45-2.12c.3-.6.73-1.07,1.29-1.39.56-.32,1.22-.48,1.97-.48,1.15,0,2.06.36,2.72,1.07.67.72,1.01,1.69,1.01,2.92s-.33,2.2-1.01,2.92c-.67.72-1.58,1.07-2.72,1.07-.76,0-1.42-.16-1.97-.48Zm3.75-1.31c.43-.53.65-1.26.65-2.2s-.21-1.66-.65-2.2c-.43-.53-1.02-.8-1.78-.8s-1.34.27-1.77.8-.64,1.26-.64,2.2.21,1.66.64,2.2,1.02.8,1.77.8,1.35-.27,1.78-.8Z"/><path d="m148.15,396.17c-.16-.15-.24-.36-.24-.63s.08-.48.24-.64.39-.24.68-.24.51.08.68.24.25.37.25.64-.08.48-.25.63-.4.23-.68.23-.51-.08-.68-.23Zm.03,1.57h1.31v7.68h-1.31v-7.68Z"/><path d="m151.63,399.67c0-.97-.02-1.62-.06-1.93h1.21c.04.34.06.79.06,1.37h.05c.22-.47.57-.84,1.04-1.11s.99-.41,1.56-.41c.9,0,1.58.29,2.03.88.45.58.67,1.45.67,2.61v4.35h-1.3v-4.36c0-.82-.14-1.43-.41-1.83-.28-.4-.7-.6-1.26-.6-.43,0-.82.11-1.17.33-.35.22-.62.53-.81.92-.19.39-.29.84-.29,1.33v4.21h-1.31v-5.74Z"/><path d="m160.65,405.21c-.46-.23-.8-.55-.99-.94l.84-.58c.17.28.41.49.72.64s.64.23,1,.23c.43,0,.78-.12,1.07-.38.28-.25.42-.56.42-.94,0-.31-.11-.56-.34-.77-.22-.2-.62-.41-1.2-.63-.87-.32-1.48-.65-1.83-1-.35-.35-.53-.78-.53-1.29,0-.59.23-1.07.71-1.44.47-.36,1.09-.54,1.87-.54.5,0,.96.11,1.37.32s.73.51.96.89l-.8.58c-.36-.53-.87-.8-1.54-.8-.38,0-.69.09-.93.26-.24.17-.36.4-.36.67s.12.51.37.7c.24.19.7.41,1.37.67.79.3,1.35.62,1.67.97.33.35.49.8.49,1.34,0,.72-.26,1.29-.77,1.72-.51.43-1.19.64-2.03.64-.57,0-1.09-.12-1.56-.35Z"/><path d="m170.65,404.46c-.58-.74-.87-1.74-.87-3.02,0-.78.13-1.46.4-2.03.27-.58.64-1.03,1.14-1.34.49-.32,1.06-.48,1.72-.48.94,0,1.7.39,2.27,1.18h.03v-4.74h1.29v9.46c0,.95.02,1.6.05,1.93h-1.2c-.02-.25-.03-.65-.03-1.21h-.03c-.23.41-.57.74-1.01.99-.44.25-.91.38-1.4.38-.99,0-1.78-.37-2.36-1.11Zm4.1-.53c.38-.39.58-.92.58-1.59v-1.4c0-.72-.19-1.29-.58-1.72-.39-.43-.91-.64-1.55-.64s-1.17.25-1.54.76c-.37.51-.56,1.22-.56,2.13s.19,1.7.56,2.24.89.81,1.54.81,1.17-.2,1.56-.59Z"/><path d="m180.95,394.68c.19.23.29.57.29,1,0,.54-.14,1.12-.43,1.72-.29.6-.68,1.11-1.17,1.52l-.55-.63c.25-.25.47-.55.66-.9.18-.34.31-.69.38-1.05-.04,0-.11.01-.2.01-.23,0-.43-.09-.59-.27s-.24-.41-.24-.68c0-.32.1-.58.29-.77.19-.2.45-.3.77-.3s.59.12.78.35Z"/><path d="m190.17,402.08h-5.53c.07.78.3,1.37.69,1.77.39.4.93.61,1.61.61.92,0,1.65-.36,2.2-1.09l.74.71c-.3.47-.71.84-1.24,1.1-.53.26-1.11.39-1.74.39-1.14,0-2.02-.35-2.64-1.04s-.94-1.67-.94-2.93.31-2.23.94-2.94c.63-.71,1.5-1.07,2.6-1.07,1.03,0,1.84.35,2.42,1.05s.88,1.68.88,2.94v.51Zm-1.2-1.08c0-.74-.19-1.31-.57-1.73-.38-.42-.91-.63-1.59-.63-.63,0-1.14.21-1.51.64s-.59,1.04-.65,1.83h4.33v-.11Z"/><path d="m191.64,399.67c0-.97-.02-1.62-.06-1.93h1.21c.04.34.06.79.06,1.37h.05c.22-.47.57-.84,1.04-1.11s.99-.41,1.56-.41c.9,0,1.58.29,2.03.88.45.58.67,1.45.67,2.61v4.35h-1.3v-4.36c0-.82-.14-1.43-.41-1.83-.28-.4-.7-.6-1.26-.6-.43,0-.82.11-1.17.33-.35.22-.62.53-.81.92-.19.39-.29.84-.29,1.33v4.21h-1.31v-5.74Z"/><path d="m200.61,404.51c-.63-.7-.94-1.68-.94-2.94s.31-2.24.94-2.94c.63-.7,1.51-1.05,2.65-1.05.64,0,1.22.13,1.71.38.5.25.89.61,1.17,1.08l-.78.71c-.23-.35-.52-.62-.88-.82-.36-.2-.75-.3-1.17-.3-.73,0-1.3.26-1.71.77-.41.52-.62,1.24-.62,2.17s.21,1.64.62,2.17c.41.52.98.78,1.71.78.42,0,.81-.1,1.17-.3.36-.2.66-.47.88-.82l.78.71c-.29.47-.68.83-1.17,1.08-.5.25-1.07.38-1.71.38-1.14,0-2.02-.35-2.65-1.05Z"/><path d="m207.44,399.61c0-.87-.01-1.49-.05-1.87h1.21c.04.41.06.86.06,1.35v.15h.05c.19-.53.51-.94.94-1.23.43-.29.94-.43,1.52-.43.16,0,.31.01.45.05v1.07c-.13-.03-.31-.05-.54-.05-.43,0-.82.13-1.18.39-.36.26-.64.62-.84,1.07-.2.45-.31.94-.31,1.47v3.82h-1.31v-5.8Z"/><path d="m219.18,402.08h-5.53c.07.78.3,1.37.69,1.77.39.4.93.61,1.61.61.92,0,1.65-.36,2.2-1.09l.74.71c-.3.47-.71.84-1.24,1.1-.53.26-1.11.39-1.74.39-1.14,0-2.02-.35-2.64-1.04s-.94-1.67-.94-2.93.31-2.23.94-2.94c.63-.71,1.5-1.07,2.6-1.07,1.03,0,1.84.35,2.42,1.05s.88,1.68.88,2.94v.51Zm-1.2-1.08c0-.74-.19-1.31-.57-1.73-.38-.42-.91-.63-1.59-.63-.63,0-1.14.21-1.51.64s-.59,1.04-.65,1.83h4.33v-.11Z"/></g><g><path d="m18.06,14.59v5.77h-.75l-2.79-4.56v4.56h-.76v-5.77h.8l2.74,4.51v-4.51h.76Z"/><path d="m19.95,20.18c-.3-.17-.53-.42-.69-.75-.16-.32-.24-.7-.24-1.14s.08-.81.24-1.14c.16-.32.39-.57.69-.75.3-.17.65-.26,1.06-.26.61,0,1.1.19,1.46.58.36.38.54.91.54,1.57s-.18,1.18-.54,1.57c-.36.38-.85.58-1.46.58-.41,0-.76-.09-1.06-.26Zm2.01-.7c.23-.29.35-.68.35-1.18s-.12-.89-.35-1.18c-.23-.29-.55-.43-.96-.43s-.72.14-.95.43-.35.68-.35,1.18.12.89.35,1.18.55.43.95.43.72-.14.96-.43Z"/><path d="m23.81,17.28c0-.42-.01-.76-.04-1.04h.63c.02.22.03.46.03.73h.02c.11-.25.28-.45.52-.6s.5-.22.79-.22.54.07.75.22.35.35.42.62c.12-.26.29-.46.53-.61s.5-.23.8-.23c.45,0,.8.15,1.06.44.26.29.38.7.38,1.22v2.55h-.69v-2.49c0-.37-.08-.66-.23-.86-.16-.2-.38-.3-.68-.3s-.53.11-.72.33c-.19.22-.28.5-.28.84v2.48h-.69v-2.46c0-.4-.07-.7-.21-.89s-.36-.29-.65-.29c-.18,0-.35.05-.51.16-.16.11-.29.26-.38.44-.1.18-.14.38-.14.58v2.46h-.69v-3.08Z"/></g><g><path d="m13.79,25.95h1.7c.64,0,1.12.15,1.45.45s.49.73.49,1.3c0,.6-.17,1.07-.51,1.39s-.83.48-1.47.48h-.9v2.15h-.76v-5.77Zm1.76,2.99c.37,0,.65-.1.85-.31s.3-.51.3-.89-.1-.67-.31-.86-.51-.3-.91-.3h-.93v2.36h1Z"/><path d="m18.39,28.61c0-.47,0-.8-.02-1.01h.65c.02.22.03.46.03.72v.08h.02c.1-.29.27-.5.5-.66.23-.15.5-.23.82-.23.09,0,.17,0,.24.02v.58c-.07-.02-.17-.02-.29-.02-.23,0-.44.07-.63.21-.19.14-.34.33-.45.57-.11.24-.16.5-.16.79v2.05h-.7v-3.11Z"/><path d="m24.7,29.93h-2.97c.04.42.16.73.37.95.21.22.5.33.86.33.49,0,.89-.2,1.18-.58l.39.38c-.16.25-.38.45-.66.59-.28.14-.59.21-.94.21-.61,0-1.08-.19-1.42-.56s-.5-.9-.5-1.57.17-1.2.51-1.58c.34-.38.8-.57,1.4-.57.55,0,.99.19,1.3.56s.47.9.47,1.58v.27Zm-.64-.58c0-.39-.1-.71-.31-.93-.21-.23-.49-.34-.85-.34-.34,0-.61.12-.81.35s-.32.56-.35.98h2.32v-.06Z"/><path d="m25.49,28.64c0-.52-.01-.87-.03-1.04h.65c.02.18.03.43.03.73h.02c.12-.25.31-.45.56-.6s.53-.22.84-.22c.48,0,.85.16,1.09.47.24.31.36.78.36,1.4v2.33h-.7v-2.34c0-.44-.07-.77-.22-.98-.15-.21-.37-.32-.68-.32-.23,0-.44.06-.63.18-.19.12-.33.28-.44.49-.1.21-.16.45-.16.71v2.26h-.7v-3.08Z"/><path d="m30.75,31.54c-.3-.17-.53-.42-.69-.75-.16-.32-.24-.7-.24-1.14s.08-.81.24-1.14c.16-.32.39-.57.69-.75.3-.17.65-.26,1.06-.26.61,0,1.1.19,1.46.58.36.38.54.91.54,1.57s-.18,1.18-.54,1.57c-.36.38-.85.58-1.46.58-.41,0-.76-.09-1.06-.26Zm2.01-.7c.23-.29.35-.68.35-1.18s-.12-.89-.35-1.18c-.23-.29-.55-.43-.96-.43s-.72.14-.95.43-.35.68-.35,1.18.12.89.35,1.18.55.43.95.43.72-.14.96-.43Z"/><path d="m34.61,28.64c0-.42-.01-.76-.04-1.04h.63c.02.22.03.46.03.73h.02c.11-.25.28-.45.52-.6s.5-.22.79-.22.54.07.75.22.35.35.42.62c.12-.26.29-.46.53-.61s.5-.23.8-.23c.45,0,.8.15,1.06.44.26.29.38.7.38,1.22v2.55h-.69v-2.49c0-.37-.08-.66-.23-.86-.16-.2-.38-.3-.68-.3s-.53.11-.72.33c-.19.22-.28.5-.28.84v2.48h-.69v-2.46c0-.4-.07-.7-.21-.89s-.36-.29-.65-.29c-.18,0-.35.05-.51.16-.16.11-.29.26-.38.44-.1.18-.14.38-.14.58v2.46h-.69v-3.08Z"/></g><path d="m217.92,202.5s-14.3-3.06-21.19-3.06-7.72,4.79-6.89,6.64c.83,1.85,3.32,4.75,6.64,6.55s1.96,2.13,6.55,2.13,5.19,9.57,6.47,12,6.38,4.6,6.38,4.6l6.64-10.47-4.6-18.38Z"/><path d="m122.18,219.35l7.79-8.34s4.47-6.98,2.94-9.28-3.57-4.21-4.09-7.79-5.72-4.72-8.17-6.13c-2.45-1.4-3.45,1.4-3.45,1.4l-7.4,16.72,6.77,15.19,5.62-1.79Z"/><path d="m184.86,156.93s-12-11.62-12.64-16.09,3.7-5.11,7.02-8.43c3.32-3.32,8.3-5.11,10.85-3.32s-.13,6.86,3.45,10.21,9.7,4.36,9.7,7.66-3.7,5.87-3.7,5.87l-14.68,4.09Z"/><path d="m110.52,280.8s9.53-11.23,15.49-11.23,2,6.92,5.62,7.49,7.66-2.38,8.68,1.36c1.02,3.74-2.47,6.55-5.45,6.81s-6.3-3.23-7.32,0-3.91,4.94-3.91,4.94l-11.91,2.38-1.19-11.74Z"/><path d="m175.18,277.4c0-4.8,4.55-7.83,10.36-7.83s9.35.88,8.84,3.92,4.04,2.27,4.04,5.94-1.52,10.87-7.58,8.59-8.97-1.26-8.84-4.8c.13-3.54-6.82-1.01-6.82-5.81Z"/><path d="m137.23,239.19c0-4.8,4.55-7.83,10.36-7.83s9.35.88,8.84,3.92,4.04,2.27,4.04,5.94-1.52,10.87-7.58,8.59c-6.06-2.27-8.97-1.26-8.84-4.8.13-3.54-6.82-1.01-6.82-5.81Z"/><path d="m148.86,141.05c0-4.8-4.55-7.83-10.36-7.83-5.81,0-9.35.88-8.84,3.92.51,3.03-4.04,2.27-4.04,5.94,0,3.66,1.52,10.87,7.58,8.59,6.06-2.27,8.97-1.26,8.84-4.8s6.82-1.01,6.82-5.81Z"/></g></svg>