<?xml version="1.0" encoding="UTF-8"?><svg id="Calque_2" xmlns="http://www.w3.org/2000/svg" viewBox="0 0 567.24 539.91"><defs><style>.cls-1{fill:#fff;}.cls-2{fill:#ffb830;}.cls-3{fill:#f7dcb7;}.cls-4{fill:#ff2442;}.cls-5{fill:#f7cc94;}.cls-6{fill:#ffbc50;}.cls-7{stroke:#000;}.cls-7,.cls-8,.cls-9{fill:#ffedda;}.cls-7,.cls-9{stroke-miterlimit:10;}.cls-10{fill:#f7e8d2;}.cls-11{fill:#3db2ff;}.cls-9{stroke:#fff;}.cls-12{fill:#f9c273;}</style></defs><g id="machine_a_laver"><g><polygon class="cls-10" points="186.69 0 186.69 66.83 336.43 66.83 367.37 33.41 337.05 0 186.69 0"/><polygon class="cls-3" points="186.69 78.59 186.69 145.42 377.97 145.42 417.5 112 378.76 78.59 186.69 78.59"/><polygon class="cls-5" points="186.69 157.17 186.69 224 412.55 224 445.96 190.59 412.55 157.17 186.69 157.17"/><polygon class="cls-12" points="186.69 236.15 186.69 302.98 434.65 302.98 471.33 269.56 434.65 236.15 186.69 236.15"/><polygon class="cls-6" points="186.69 315.13 186.69 381.96 468.24 381.96 505.36 348.54 467.62 315.13 186.69 315.13"/><polygon class="cls-2" points="186.69 394.1 186.69 460.93 499.8 460.93 536.3 427.52 499.8 394.1 186.69 394.1"/><polygon class="cls-4" points="186.69 473.08 186.69 539.91 533.21 539.91 567.24 506.49 530.74 473.08 186.69 473.08"/></g><rect class="cls-8" y="45.57" width="328.41" height="446.32"/><path class="cls-7" d="m275.09,296.04c0,61.44-49.81,111.25-111.25,111.25s-111.24-49.81-111.24-111.25,49.81-111.24,111.24-111.24,111.25,49.81,111.25,111.24Z"/><path class="cls-11" d="m275.09,296.04c0,61.44-49.81,111.25-111.25,111.25s-111.24-49.81-111.24-111.25,49.81-111.24,111.24-111.24,111.25,49.81,111.25,111.24Z"/><path d="m164.2,394.09c-16.91,0-29.21-4.46-36.9-13.39s-11.54-22.39-11.54-40.39v-20.03h39.3v20.14c0,5.08.64,9.38,1.91,12.9,1.27,3.52,4.12,5.28,8.55,5.28s7.37-1.91,8.6-5.72c1.23-3.81,1.85-10.03,1.85-18.67v-4.79c0-6.6-1.11-12.37-3.32-17.31s-6.55-7.4-13.01-7.4c-.8,0-1.51.02-2.12.05s-1.14.09-1.58.16v-34.4c6.6,0,11.65-1.47,15.13-4.41,3.48-2.94,5.23-7.86,5.23-14.75,0-10.81-3.12-16.22-9.36-16.22-4.06,0-6.8,1.58-8.22,4.74-1.42,3.16-2.12,7.17-2.12,12.03v5.77h-39.62c-.07-.87-.13-1.92-.16-3.16-.04-1.23-.05-2.43-.05-3.59,0-17.56,4.1-30.44,12.3-38.64,8.2-8.2,20.76-12.3,37.67-12.3,32.66,0,48.99,16.98,48.99,50.95,0,9.43-1.27,17.22-3.81,23.35-2.54,6.13-7.26,10.43-14.15,12.9,5.44,2.61,9.47,5.95,12.08,10.01s4.32,9.11,5.12,15.13,1.2,13.32,1.2,21.88c0,19.16-4.01,33.93-12.03,44.31-8.02,10.38-21.32,15.57-39.9,15.57Z"/><path class="cls-9" d="m163.68,160.81c-75.23,0-136.23,61-136.23,136.23s61,136.23,136.23,136.23,136.23-61,136.23-136.23-61-136.23-136.23-136.23Zm.16,246.48c-61.43,0-111.24-49.81-111.24-111.25s49.81-111.24,111.24-111.24,111.25,49.81,111.25,111.24-49.81,111.25-111.25,111.25Z"/><path d="m9.99,86.21h88.6v-21.32s-1.5-3.16-4.66-5.33-6.66-3.33-6.66-3.33H23.32s-6.83,1.17-9.33,3.33-4,6-4,6v20.65Z"/><circle cx="272.04" cy="82.13" r="23.9"/><rect x="117.39" y="55.4" width="92.6" height="34.31" rx="6.19" ry="6.19"/><circle cx="134.12" cy="104.97" r="5"/><circle cx="173.2" cy="104.97" r="5"/><circle cx="153.66" cy="104.97" r="5"/><circle cx="193.07" cy="104.97" r="5"/><path class="cls-9" d="m245.81,240.98c6.22,0,36.42,3.11,36.42,55.07s-22.21,55.07-31.09,55.07-14.66,1.33-14.66-5.33,3.11-35.08,4-54.62c.89-19.54-5.77-37.3-4-42.19s3.11-7.99,9.33-7.99Z"/><g><path d="m71.09,459.7c-.81-.91-1.21-2.26-1.21-4.05v-8.11h1.77v8.08c0,2.67,1.01,4,3.03,4s3.03-1.33,3.03-4v-8.08h1.75v8.11c0,1.78-.4,3.12-1.21,4.04-.81.91-2,1.37-3.57,1.37s-2.78-.45-3.59-1.36Z"/><path d="m83.56,460.25c-.48-.54-.72-1.29-.72-2.24v-5.41h-1.71v-1.26h1.71v-2.53l1.54-.48h.08v3.01h2.7v1.26h-2.7v5.26c0,.65.12,1.13.36,1.44.24.31.62.47,1.12.47.55,0,.99-.07,1.33-.21l.11,1.2c-.42.2-1.04.3-1.85.3s-1.5-.27-1.98-.81Z"/><path d="m89.6,449.4c-.2-.19-.3-.45-.3-.78s.1-.59.3-.79.48-.3.84-.3.64.1.85.3.31.46.31.79-.11.59-.31.78-.49.29-.85.29-.64-.1-.84-.29Zm.04,1.94h1.62v9.52h-1.62v-9.52Z"/><path d="m94.11,458.64v-11.9h1.62v11.88c0,.44.07.76.22.94.15.18.4.28.75.28.28,0,.6-.08.95-.23l.25.97c-.48.32-1.06.48-1.73.48-1.37,0-2.06-.81-2.06-2.42Z"/><path d="m99.81,449.4c-.2-.19-.3-.45-.3-.78s.1-.59.3-.79.48-.3.84-.3.64.1.85.3.31.46.31.79-.11.59-.31.78-.49.29-.85.29-.64-.1-.84-.29Zm.04,1.94h1.62v9.52h-1.62v-9.52Z"/><path d="m104.86,460.62c-.58-.29-.99-.68-1.23-1.16l1.05-.72c.22.34.51.61.89.8.38.19.79.29,1.24.29.53,0,.97-.16,1.32-.47.35-.31.52-.7.52-1.17,0-.38-.14-.7-.42-.95-.28-.25-.77-.51-1.48-.78-1.08-.39-1.84-.81-2.28-1.24-.44-.43-.66-.96-.66-1.6,0-.74.29-1.33.88-1.78.58-.45,1.36-.68,2.32-.68.62,0,1.19.13,1.71.4s.91.64,1.19,1.11l-.99.72c-.44-.66-1.08-.99-1.9-.99-.47,0-.85.11-1.15.32-.3.22-.45.5-.45.84s.15.63.46.87c.3.23.87.51,1.69.83.98.37,1.67.77,2.08,1.21.41.44.61.99.61,1.67,0,.89-.32,1.6-.95,2.13-.64.53-1.47.8-2.51.8-.71,0-1.36-.15-1.93-.44Z"/><path d="m120.48,456.73h-6.86c.09.96.38,1.7.86,2.2.48.5,1.15.75,2,.75,1.14,0,2.05-.45,2.72-1.35l.91.88c-.37.58-.88,1.04-1.53,1.36s-1.37.49-2.16.49c-1.41,0-2.5-.43-3.28-1.3s-1.16-2.08-1.16-3.64.39-2.77,1.17-3.65c.78-.88,1.86-1.32,3.23-1.32,1.28,0,2.28.44,3.01,1.31.72.87,1.09,2.09,1.09,3.65v.63Zm-1.49-1.33c0-.91-.24-1.63-.71-2.15-.48-.52-1.13-.78-1.97-.78-.79,0-1.41.27-1.88.8s-.73,1.29-.81,2.27h5.37v-.13Z"/><path d="m122.44,453.67c0-1.08-.02-1.85-.06-2.32h1.51c.05.51.08,1.07.08,1.68v.19h.06c.24-.66.63-1.17,1.16-1.52.53-.35,1.16-.53,1.88-.53.2,0,.39.02.55.06v1.33c-.17-.04-.39-.06-.67-.06-.53,0-1.02.16-1.47.49-.44.32-.79.77-1.05,1.32-.25.56-.38,1.17-.38,1.83v4.74h-1.62v-7.2Z"/><path d="m134.11,460.24c-.6-.55-.89-1.25-.89-2.11,0-.95.36-1.69,1.08-2.21.72-.52,1.74-.78,3.06-.78h1.96v-.5c0-.71-.19-1.25-.56-1.63-.38-.37-.92-.56-1.63-.56-.57,0-1.1.12-1.57.35s-.87.58-1.19,1.02l-.82-.99c.43-.55.96-.96,1.58-1.25.62-.29,1.31-.43,2.08-.43,1.19,0,2.11.29,2.76.88.65.58.97,1.42.97,2.51v4.48c0,.5.08,1.11.23,1.85h-1.41c-.11-.29-.2-.74-.25-1.33h-.04c-.35.5-.79.87-1.31,1.13s-1.1.39-1.73.39c-.94,0-1.71-.27-2.3-.82Zm3.89-.73c.41-.18.73-.43.96-.75.24-.32.35-.67.35-1.05v-1.41h-2.02c-.8,0-1.42.16-1.85.48-.43.32-.65.77-.65,1.35,0,.51.17.91.51,1.21s.79.45,1.36.45c.48,0,.93-.09,1.33-.28Z"/><path d="m144.12,460.62c-.58-.29-.99-.68-1.23-1.16l1.05-.72c.22.34.51.61.89.8.38.19.79.29,1.24.29.53,0,.97-.16,1.32-.47.35-.31.52-.7.52-1.17,0-.38-.14-.7-.42-.95-.28-.25-.77-.51-1.48-.78-1.08-.39-1.84-.81-2.28-1.24-.44-.43-.66-.96-.66-1.6,0-.74.29-1.33.88-1.78.58-.45,1.36-.68,2.32-.68.62,0,1.19.13,1.71.4s.91.64,1.19,1.11l-.99.72c-.44-.66-1.08-.99-1.9-.99-.47,0-.85.11-1.15.32-.3.22-.45.5-.45.84s.15.63.46.87c.3.23.87.51,1.69.83.98.37,1.67.77,2.08,1.21.41.44.61.99.61,1.67,0,.89-.32,1.6-.95,2.13-.64.53-1.47.8-2.51.8-.71,0-1.36-.15-1.93-.44Z"/><path d="m152.8,460.25c-.48-.54-.72-1.29-.72-2.24v-5.41h-1.71v-1.26h1.71v-2.53l1.54-.48h.08v3.01h2.7v1.26h-2.7v5.26c0,.65.12,1.13.36,1.44.24.31.62.47,1.12.47.55,0,.99-.07,1.33-.21l.11,1.2c-.42.2-1.04.3-1.85.3s-1.5-.27-1.98-.81Z"/><path d="m159.36,459.99c-.56-.71-.85-1.76-.85-3.14v-5.5h1.62v5.52c0,1.93.69,2.9,2.06,2.9.53,0,1.02-.14,1.45-.41.43-.27.77-.65,1.01-1.14.24-.49.36-1.04.36-1.65v-5.22h1.62v7.5c0,.63.06,1.31.17,2.02h-1.49c-.11-.56-.18-1.12-.19-1.69h-.06c-.28.58-.71,1.04-1.29,1.38-.58.34-1.22.51-1.93.51-1.09,0-1.92-.36-2.49-1.07Z"/><path d="m169.68,459.75c-.78-.87-1.17-2.09-1.17-3.65s.39-2.78,1.17-3.65c.78-.87,1.88-1.31,3.28-1.31.8,0,1.51.16,2.12.47.62.31,1.1.76,1.46,1.34l-.97.88c-.28-.43-.64-.77-1.1-1.02-.45-.25-.94-.37-1.46-.37-.9,0-1.61.32-2.12.96-.51.64-.77,1.54-.77,2.7s.26,2.04.77,2.69c.51.65,1.22.97,2.12.97.52,0,1.01-.12,1.46-.37.45-.25.82-.59,1.1-1.02l.97.88c-.35.58-.84,1.03-1.46,1.34-.62.31-1.32.47-2.12.47-1.41,0-2.5-.43-3.28-1.31Z"/><path d="m178.36,449.4c-.2-.19-.3-.45-.3-.78s.1-.59.3-.79.48-.3.84-.3.64.1.85.3.31.46.31.79-.11.59-.31.78-.49.29-.85.29-.64-.1-.84-.29Zm.04,1.94h1.62v9.52h-1.62v-9.52Z"/><path d="m190.72,456.73h-6.86c.09.96.38,1.7.86,2.2.48.5,1.15.75,2,.75,1.14,0,2.05-.45,2.72-1.35l.91.88c-.37.58-.88,1.04-1.53,1.36s-1.37.49-2.16.49c-1.41,0-2.5-.43-3.28-1.3s-1.16-2.08-1.16-3.64.39-2.77,1.17-3.65c.78-.88,1.86-1.32,3.23-1.32,1.28,0,2.28.44,3.01,1.31s1.09,2.09,1.09,3.65v.63Zm-1.49-1.33c0-.91-.24-1.63-.71-2.15-.48-.52-1.13-.78-1.97-.78-.79,0-1.41.27-1.88.8s-.73,1.29-.81,2.27h5.37v-.13Z"/><path d="m193.41,459.99c-.56-.71-.85-1.76-.85-3.14v-5.5h1.62v5.52c0,1.93.69,2.9,2.06,2.9.53,0,1.02-.14,1.45-.41.43-.27.77-.65,1.01-1.14.24-.49.36-1.04.36-1.65v-5.22h1.62v7.5c0,.63.06,1.31.17,2.02h-1.49c-.11-.56-.18-1.12-.19-1.69h-.06c-.28.58-.71,1.04-1.29,1.38-.58.34-1.22.51-1.93.51-1.09,0-1.92-.36-2.49-1.07Z"/><path d="m203.79,460.62c-.58-.29-.99-.68-1.23-1.16l1.05-.72c.22.34.51.61.89.8.38.19.79.29,1.24.29.53,0,.97-.16,1.32-.47.35-.31.52-.7.52-1.17,0-.38-.14-.7-.42-.95-.28-.25-.77-.51-1.48-.78-1.08-.39-1.84-.81-2.28-1.24-.44-.43-.66-.96-.66-1.6,0-.74.29-1.33.88-1.78.58-.45,1.36-.68,2.32-.68.62,0,1.19.13,1.71.4s.91.64,1.19,1.11l-.99.72c-.44-.66-1.08-.99-1.9-.99-.47,0-.85.11-1.15.32-.3.22-.45.5-.45.84s.15.63.46.87c.3.23.87.51,1.69.83.98.37,1.67.77,2.08,1.21.41.44.61.99.61,1.67,0,.89-.32,1.6-.95,2.13-.64.53-1.47.8-2.51.8-.71,0-1.36-.15-1.93-.44Z"/><path d="m219.4,456.73h-6.86c.09.96.38,1.7.86,2.2.48.5,1.15.75,2,.75,1.14,0,2.05-.45,2.72-1.35l.91.88c-.37.58-.88,1.04-1.53,1.36s-1.37.49-2.16.49c-1.41,0-2.5-.43-3.28-1.3s-1.16-2.08-1.16-3.64.39-2.77,1.17-3.65c.78-.88,1.86-1.32,3.23-1.32,1.28,0,2.28.44,3.01,1.31s1.09,2.09,1.09,3.65v.63Zm-1.49-1.33c0-.91-.24-1.63-.71-2.15-.48-.52-1.13-.78-1.97-.78-.79,0-1.41.27-1.88.8s-.73,1.29-.81,2.27h5.37v-.13Z"/><path d="m221.25,453.74c0-.96-.03-1.77-.1-2.4h1.45c.05.51.08,1.07.08,1.69h.06c.25-.58.65-1.04,1.2-1.38s1.16-.51,1.83-.51,1.25.17,1.73.51c.48.34.81.82.97,1.43.27-.6.67-1.07,1.22-1.42.55-.35,1.16-.52,1.85-.52,1.04,0,1.86.34,2.45,1.01s.89,1.61.89,2.82v5.89h-1.6v-5.75c0-.86-.18-1.52-.54-1.98-.36-.46-.89-.69-1.57-.69s-1.22.25-1.66.75c-.43.5-.65,1.15-.65,1.93v5.73h-1.6v-5.68c0-.93-.16-1.62-.49-2.07s-.83-.68-1.51-.68c-.42,0-.81.13-1.18.38s-.66.59-.89,1.01c-.22.42-.33.87-.33,1.35v5.68h-1.6v-7.12Z"/><path d="m245.25,456.73h-6.86c.09.96.38,1.7.86,2.2.48.5,1.15.75,2,.75,1.14,0,2.05-.45,2.72-1.35l.91.88c-.37.58-.88,1.04-1.53,1.36s-1.37.49-2.16.49c-1.41,0-2.5-.43-3.28-1.3s-1.16-2.08-1.16-3.64.39-2.77,1.17-3.65c.78-.88,1.86-1.32,3.23-1.32,1.28,0,2.28.44,3.01,1.31.72.87,1.09,2.09,1.09,3.65v.63Zm-1.49-1.33c0-.91-.24-1.63-.71-2.15-.48-.52-1.13-.78-1.97-.78-.79,0-1.41.27-1.88.8s-.73,1.29-.81,2.27h5.37v-.13Z"/><path d="m247.07,453.74c0-1.21-.02-2.01-.08-2.4h1.51c.05.42.08.98.08,1.69h.06c.28-.58.71-1.04,1.28-1.38s1.22-.51,1.93-.51c1.12,0,1.95.36,2.51,1.09.56.72.84,1.8.84,3.24v5.39h-1.62v-5.41c0-1.02-.17-1.77-.51-2.27s-.86-.74-1.56-.74c-.53,0-1.02.14-1.45.41-.43.27-.77.65-1.01,1.14-.24.49-.36,1.04-.36,1.65v5.22h-1.62v-7.12Z"/><path d="m259.02,460.25c-.48-.54-.72-1.29-.72-2.24v-5.41h-1.71v-1.26h1.71v-2.53l1.54-.48h.08v3.01h2.7v1.26h-2.7v5.26c0,.65.12,1.13.36,1.44.24.31.62.47,1.12.47.55,0,.99-.07,1.33-.21l.11,1.2c-.42.2-1.04.3-1.85.3s-1.5-.27-1.98-.81Z"/><path d="m85.24,482.85c-.56-.71-.85-1.76-.85-3.14v-5.5h1.62v5.52c0,1.93.69,2.9,2.06,2.9.53,0,1.02-.14,1.45-.41.43-.27.77-.65,1.01-1.14.24-.49.36-1.04.36-1.65v-5.22h1.62v7.5c0,.63.06,1.31.17,2.02h-1.49c-.11-.56-.18-1.12-.19-1.69h-.06c-.28.58-.71,1.04-1.29,1.38-.58.34-1.22.51-1.93.51-1.09,0-1.92-.36-2.49-1.07Z"/><path d="m94.89,476.6c0-1.21-.02-2.01-.08-2.4h1.51c.05.42.08.98.08,1.69h.06c.28-.58.71-1.04,1.28-1.38s1.22-.51,1.93-.51c1.12,0,1.95.36,2.51,1.09.56.72.84,1.8.84,3.24v5.39h-1.62v-5.41c0-1.02-.17-1.77-.51-2.27s-.86-.74-1.56-.74c-.53,0-1.02.14-1.45.41-.43.27-.77.65-1.01,1.14-.24.49-.36,1.04-.36,1.65v5.22h-1.62v-7.12Z"/><path d="m113.39,479.59h-6.86c.09.96.38,1.7.86,2.2.48.5,1.15.75,2,.75,1.14,0,2.05-.45,2.72-1.35l.91.88c-.37.58-.88,1.04-1.53,1.36s-1.37.49-2.16.49c-1.41,0-2.5-.43-3.28-1.3-.78-.86-1.16-2.08-1.16-3.64s.39-2.77,1.17-3.65c.78-.88,1.86-1.32,3.23-1.32,1.28,0,2.28.44,3.01,1.31.72.87,1.09,2.09,1.09,3.65v.63Zm-1.49-1.33c0-.91-.24-1.63-.71-2.15-.48-.52-1.13-.78-1.97-.78-.79,0-1.41.27-1.88.8-.46.53-.73,1.29-.81,2.27h5.37v-.13Z"/><path d="m119.86,476.6c0-.96-.03-1.77-.1-2.4h1.45c.05.51.08,1.07.08,1.69h.06c.25-.58.65-1.04,1.2-1.38s1.16-.51,1.83-.51,1.25.17,1.73.51c.48.34.81.82.97,1.43.27-.6.67-1.07,1.22-1.42.55-.35,1.16-.52,1.85-.52,1.04,0,1.86.34,2.45,1.01s.89,1.61.89,2.82v5.89h-1.6v-5.75c0-.86-.18-1.52-.54-1.98-.36-.46-.89-.69-1.57-.69s-1.22.25-1.66.75c-.43.5-.65,1.15-.65,1.93v5.73h-1.6v-5.68c0-.93-.16-1.62-.49-2.07s-.83-.68-1.51-.68c-.42,0-.81.13-1.18.38s-.66.59-.89,1.01c-.22.42-.33.87-.33,1.35v5.68h-1.6v-7.12Z"/><path d="m136.34,483.09c-.6-.55-.89-1.25-.89-2.11,0-.95.36-1.69,1.08-2.21.72-.52,1.74-.78,3.06-.78h1.96v-.5c0-.71-.19-1.25-.56-1.63-.38-.37-.92-.56-1.63-.56-.57,0-1.1.12-1.57.35s-.87.58-1.19,1.02l-.82-.99c.43-.55.96-.96,1.58-1.25.62-.29,1.31-.43,2.08-.43,1.19,0,2.11.29,2.76.88.65.58.97,1.42.97,2.51v4.48c0,.5.08,1.11.23,1.85h-1.41c-.11-.29-.2-.74-.25-1.33h-.04c-.35.5-.79.87-1.31,1.13s-1.1.39-1.73.39c-.94,0-1.71-.27-2.3-.82Zm3.89-.73c.41-.18.73-.43.96-.75.24-.32.35-.67.35-1.05v-1.41h-2.02c-.8,0-1.42.16-1.85.48-.43.32-.65.77-.65,1.35,0,.51.17.91.51,1.21s.79.45,1.36.45c.48,0,.93-.09,1.33-.28Z"/><path d="m146.29,482.61c-.78-.87-1.17-2.09-1.17-3.65s.39-2.78,1.17-3.65c.78-.87,1.88-1.31,3.28-1.31.8,0,1.51.16,2.12.47.62.31,1.1.76,1.46,1.34l-.97.88c-.28-.43-.64-.77-1.1-1.02-.45-.25-.94-.37-1.46-.37-.9,0-1.61.32-2.12.96-.51.64-.77,1.54-.77,2.7s.26,2.04.77,2.69c.51.65,1.22.97,2.12.97.52,0,1.01-.12,1.46-.37.45-.25.82-.59,1.1-1.02l.97.88c-.35.58-.84,1.03-1.46,1.34-.62.31-1.32.47-2.12.47-1.41,0-2.5-.43-3.28-1.31Z"/><path d="m154.64,469.59h1.62v6.09c.29-.52.72-.93,1.28-1.23.57-.3,1.2-.45,1.9-.45,1.12,0,1.98.37,2.59,1.11.61.74.91,1.79.91,3.15v5.45h-1.62v-5.47c0-.98-.19-1.72-.56-2.24s-.91-.77-1.61-.77c-.55,0-1.04.14-1.49.42-.44.28-.79.67-1.04,1.17-.25.5-.37,1.06-.37,1.69v5.2h-1.62v-14.13Z"/><path d="m165.59,472.26c-.2-.19-.3-.45-.3-.78s.1-.59.3-.79.48-.3.84-.3.64.1.85.3.31.46.31.79-.11.59-.31.78-.49.29-.85.29-.64-.1-.84-.29Zm.04,1.94h1.62v9.52h-1.62v-9.52Z"/><path d="m169.92,476.6c0-1.21-.02-2.01-.08-2.4h1.51c.05.42.08.98.08,1.69h.06c.28-.58.71-1.04,1.28-1.38s1.22-.51,1.93-.51c1.12,0,1.95.36,2.51,1.09.56.72.84,1.8.84,3.24v5.39h-1.62v-5.41c0-1.02-.17-1.77-.51-2.27s-.86-.74-1.56-.74c-.53,0-1.02.14-1.45.41-.43.27-.77.65-1.01,1.14-.24.49-.36,1.04-.36,1.65v5.22h-1.62v-7.12Z"/><path d="m188.41,479.59h-6.86c.09.96.38,1.7.86,2.2.48.5,1.15.75,2,.75,1.14,0,2.05-.45,2.72-1.35l.91.88c-.37.58-.88,1.04-1.53,1.36s-1.37.49-2.16.49c-1.41,0-2.5-.43-3.28-1.3s-1.16-2.08-1.16-3.64.39-2.77,1.17-3.65c.78-.88,1.86-1.32,3.23-1.32,1.28,0,2.28.44,3.01,1.31s1.09,2.09,1.09,3.65v.63Zm-1.49-1.33c0-.91-.24-1.63-.71-2.15-.48-.52-1.13-.78-1.97-.78-.79,0-1.41.27-1.88.8s-.73,1.29-.81,2.27h5.37v-.13Z"/><path d="m195.38,483.09c-.6-.55-.89-1.25-.89-2.11,0-.95.36-1.69,1.08-2.21.72-.52,1.74-.78,3.06-.78h1.96v-.5c0-.71-.19-1.25-.56-1.63-.38-.37-.92-.56-1.63-.56-.57,0-1.1.12-1.57.35s-.87.58-1.19,1.02l-.82-.99c.43-.55.96-.96,1.58-1.25.62-.29,1.31-.43,2.08-.43,1.19,0,2.11.29,2.76.88.65.58.97,1.42.97,2.51v4.48c0,.5.08,1.11.23,1.85h-1.41c-.11-.29-.2-.74-.25-1.33h-.04c-.35.5-.79.87-1.31,1.13s-1.1.39-1.73.39c-.94,0-1.71-.27-2.3-.82Zm.69-12.7h1.66l1.49,2.78h-1.3l-1.85-2.78Zm3.2,11.97c.41-.18.73-.43.96-.75.24-.32.35-.67.35-1.05v-1.41h-2.02c-.8,0-1.42.16-1.85.48-.43.32-.65.77-.65,1.35,0,.51.17.91.51,1.21s.79.45,1.36.45c.48,0,.93-.09,1.33-.28Z"/><path d="m209.48,481.49v-11.9h1.62v11.88c0,.44.07.76.22.94.15.18.4.28.75.28.28,0,.6-.08.95-.23l.25.97c-.48.32-1.06.48-1.73.48-1.37,0-2.06-.81-2.06-2.42Z"/><path d="m215.34,483.09c-.6-.55-.89-1.25-.89-2.11,0-.95.36-1.69,1.08-2.21.72-.52,1.74-.78,3.06-.78h1.96v-.5c0-.71-.19-1.25-.56-1.63-.38-.37-.92-.56-1.63-.56-.57,0-1.1.12-1.57.35s-.87.58-1.19,1.02l-.82-.99c.43-.55.96-.96,1.58-1.25.62-.29,1.31-.43,2.08-.43,1.19,0,2.11.29,2.76.88.65.58.97,1.42.97,2.51v4.48c0,.5.08,1.11.23,1.85h-1.41c-.11-.29-.2-.74-.25-1.33h-.04c-.35.5-.79.87-1.31,1.13s-1.1.39-1.73.39c-.94,0-1.71-.27-2.3-.82Zm3.89-.73c.41-.18.73-.43.96-.75.24-.32.35-.67.35-1.05v-1.41h-2.02c-.8,0-1.42.16-1.85.48-.43.32-.65.77-.65,1.35,0,.51.17.91.51,1.21s.79.45,1.36.45c.48,0,.93-.09,1.33-.28Z"/><path d="m232.39,474.2l-3.62,9.52h-1.47l-3.62-9.52h1.68l2.68,7.62,2.67-7.62h1.68Z"/><path d="m241.4,479.59h-6.86c.09.96.38,1.7.86,2.2.48.5,1.15.75,2,.75,1.14,0,2.05-.45,2.72-1.35l.91.88c-.37.58-.88,1.04-1.53,1.36s-1.37.49-2.16.49c-1.41,0-2.5-.43-3.28-1.3s-1.16-2.08-1.16-3.64.39-2.77,1.17-3.65c.78-.88,1.86-1.32,3.23-1.32,1.28,0,2.28.44,3.01,1.31s1.09,2.09,1.09,3.65v.63Zm-1.49-1.33c0-.91-.24-1.63-.71-2.15-.48-.52-1.13-.78-1.97-.78-.79,0-1.41.27-1.88.8s-.73,1.29-.81,2.27h5.37v-.13Z"/><path d="m243.36,476.52c0-1.08-.02-1.85-.06-2.32h1.51c.05.51.08,1.07.08,1.68v.19h.06c.24-.66.63-1.17,1.16-1.52.53-.35,1.16-.53,1.88-.53.2,0,.39.02.55.06v1.33c-.17-.04-.39-.06-.67-.06-.53,0-1.02.16-1.47.49-.44.32-.79.77-1.05,1.32-.25.56-.38,1.17-.38,1.83v4.74h-1.62v-7.2Z"/></g><g><path class="cls-1" d="m44.46,72.99h-5.54v5.14h6.18v1.54h-8.02v-14.26h7.7v1.54h-5.86v4.51h5.54v1.52Z"/><path class="cls-1" d="m57.45,79.21c-.68.34-2.03.68-3.77.68-4.02,0-7.04-2.54-7.04-7.21s3.02-7.49,7.45-7.49c1.78,0,2.9.38,3.38.63l-.44,1.5c-.7-.34-1.69-.59-2.88-.59-3.34,0-5.56,2.14-5.56,5.88,0,3.49,2.01,5.73,5.48,5.73,1.12,0,2.26-.23,3-.59l.38,1.46Z"/><path class="cls-1" d="m71.51,72.39c0,4.91-2.98,7.51-6.62,7.51s-6.41-2.92-6.41-7.23c0-4.53,2.81-7.49,6.62-7.49s6.41,2.98,6.41,7.21Zm-11.06.23c0,3.05,1.65,5.77,4.55,5.77s4.57-2.69,4.57-5.92c0-2.84-1.48-5.8-4.55-5.8s-4.57,2.81-4.57,5.94Z"/></g><g><path class="cls-1" d="m145.71,76.37c0-2.05,1.22-3.49,3.22-4.34l-.03-.07c-1.8-.85-2.57-2.25-2.57-3.64,0-2.57,2.17-4.32,5.02-4.32,3.14,0,4.72,1.97,4.72,3.99,0,1.37-.67,2.84-2.67,3.79v.07c2.02.8,3.27,2.22,3.27,4.19,0,2.82-2.42,4.72-5.51,4.72-3.4,0-5.44-2.02-5.44-4.39Zm8.74-.1c0-1.97-1.37-2.92-3.57-3.54-1.9.55-2.92,1.8-2.92,3.34-.08,1.65,1.17,3.09,3.24,3.09s3.24-1.22,3.24-2.89Zm-6.04-8.11c0,1.62,1.22,2.5,3.09,3,1.4-.47,2.47-1.47,2.47-2.95,0-1.3-.77-2.64-2.75-2.64-1.82,0-2.82,1.2-2.82,2.59Z"/><path class="cls-1" d="m169.5,72.21c0,5.52-2.05,8.56-5.64,8.56-3.17,0-5.32-2.97-5.37-8.33,0-5.44,2.35-8.43,5.64-8.43s5.36,3.04,5.36,8.21Zm-8.81.25c0,4.22,1.3,6.61,3.29,6.61,2.25,0,3.32-2.62,3.32-6.76s-1.02-6.61-3.29-6.61c-1.92,0-3.32,2.35-3.32,6.76Z"/><path class="cls-1" d="m172.3,63.67h2.17v15h7.19v1.82h-9.36v-16.82Z"/></g><g><rect class="cls-4" x="159.39" y="56.7" width="1.61" height="31.32" transform="translate(98.09 -92.09) rotate(45)"/><rect class="cls-4" x="158.62" y="57.4" width="1.75" height="31.32" transform="translate(-4.94 134.18) rotate(-45)"/></g></g></svg>