<?xml version="1.0" encoding="UTF-8"?><svg id="Calque_2" xmlns="http://www.w3.org/2000/svg" viewBox="0 0 514.33 473.54"><defs><style>.cls-1{fill:#fff;}.cls-2{fill:#ffb830;}.cls-3{fill:#7a5417;}.cls-4{fill:#d88500;}.cls-5{fill:#ffdec0;}.cls-6{fill:#339ad3;}.cls-7{fill:#f4d0ae;}.cls-8{fill:#e0d0c1;}.cls-9{fill:#3db2ff;}.cls-10{fill:#ffedda;}.cls-11{fill:#ffca76;}</style></defs><g id="flaque_d_eau"><path class="cls-9" d="m83.61,407.51c20.27-3.11,43.05-20.7,69.96-28.98s47.61-9.89,72.98-11.39,101.96-6.73,131.47-3.11c29.5,3.62,77.12,10.35,76.09,25.88-1.04,15.53-18.12,12.53-12.94,20.7,5.18,8.17,93.17-8.8,93.17,20.7s-93.17,25.43-93.17,25.43c0,0-74.53-11.97-81.26-8.86s-7.25,6.73-7.25,6.73c0,0,7.76,3.65,3.62,9.38s-14.49,5.73-14.49,5.73c0,0-45.01-2.14-62.37-5.73s-30.65-7.25-48.39-7.25-11.17,3.69-17.75,7.25-24.69,8.09-43.85,8.73c-19.15.64-19.71,1.45-35.2,0-15.48-1.45-21.14-1.66-25.88-3s-13.65-1.14-12.71-5.73,12.19-5.56,11.16-12.49-13.77-2.07-27.5-3.11c-13.74-1.03-41.33-3.11-41.33-3.11,0,0-17.64-5.69-17.96-18.12-.33-12.42,34.99-17.08,34.99-17.08,0,0,28.36.52,48.63-2.59Z"/></g><g id="tracteur"><path class="cls-9" d="m355.56,67.59l-102.53,1.72-24.07,63.18s-19.74,2.76-38.89,6.66c-19.15,3.9-24.54,6.94-44.39,12.55-19.85,5.61-33.92,13.77-33.92,13.77l12.94-.52s.95,6.36-2.07,13.76-14.45,10.32-14.45,10.32c0,0-3.35.6-5.16,2.75s-2.75,7.57-2.75,7.57l35.78,1.72s8.83-9.98,24.08-9.29c15.25.69,24.43,9.29,24.43,9.29h74.31l6.2-12.73,10.67-23.74s-1.72.69-4.13,0c-2.41-.69-4.36-3.1-4.36-3.1,0,0,29.82-23.4,51.49-22.71,29.27.93,42.49,11.81,42.49,11.81l-5.68-83.03Zm-43.43,63.73h-65.54l18.84-53.16,46.71-1.03v54.19Zm12.64-4.39l-2.32-49.8h21.68l4.39,49.8h-23.74Z"/><polygon class="cls-10" points="253.04 69.3 246.59 54.94 355.74 54.94 355.56 67.59 253.04 69.3"/><path class="cls-8" d="m318.75,138.8c43.69-.57,62.27,31.22,62.27,31.22,0,0,2.58,3.87-1.55,6.97s-7.48-1.55-7.48-1.55c0,0-21.76-31.31-53.24-28.64s-43.01,17.81-43.01,17.81c0,0-1.94.65-4.13,0s-4.36-3.1-4.36-3.1c0,0,21.33-22.31,51.49-22.71Z"/><path class="cls-7" d="m291.46,155.09s6.42-2.75,11.93-4.59,11.81-2.41,11.81-2.41c0,0,1.15,3.67,5.16,3.5s5.5-3.5,5.5-3.5c0,0,9.17.92,14.68,2.98s9.4,4.47,9.4,4.47c0,0-1.83,3.56.92,5.73s7.23,0,7.23,0l8.03,7.57,5.62,7.34s-1.83,4.13,0,7.34,4.24,2.41,4.24,2.41c0,0,4.59,6.08,4.59,13.07s-1.83,11.01-1.83,11.01c0,0-4.82,0-4.82,4.47,0,4.47,2.18,4.82,2.18,4.82,0,0,0,2.64-1.38,9.29s-6.42,9.63-6.42,9.63c0,0-4.7-1.61-6.77,0s-1.38,5.62-1.38,5.62c0,0-2.06,3.33-6.88,6.42s-11.81,5.16-11.81,5.16c0,0-3.21-3.67-7.45-1.49-4.24,2.18-4.82,4.36-4.82,4.36,0,0-1.95,1.95-13.3,1.38-11.35-.57-12.39-2.29-12.39-2.29,0,0-.34-3.67-3.78-4.59s-5.96,2.06-5.96,2.06c0,0-6.65.11-12.27-3.1-5.62-3.21-8.14-6.54-8.14-6.54,0,0,1.83-5.85-1.49-8.72-3.33-2.87-5.73-1.49-5.73-1.49,0,0-6.38-7.38-7.11-11.7l-1.83-10.78s4.47-.92,4.47-6.08-3.67-6.42-3.67-6.42c0,0-.8-.69-.8-6.88s3.56-8.03,3.56-8.03c0,0,4.93,0,6.08-4.01,1.15-4.01-.34-6.88-.34-6.88,0,0,3.44-4.7,6.65-7.68s8.49-5.73,8.49-5.73c0,0,4.13,1.61,7.8-.34s2.06-5.39,2.06-5.39Z"/><path class="cls-7" d="m111.77,165.47l12.94-.52s1.46,6.28-2.07,13.76-15.31,10.54-15.31,10.54c0,0-4.38-3.05-3.26-11.4s7.7-12.39,7.7-12.39Z"/><circle class="cls-7" cx="160.04" cy="228.54" r="36.9"/><circle class="cls-9" cx="318.84" cy="205.48" r="36.9"/><circle class="cls-9" cx="160.13" cy="228.44" r="22.62"/><path class="cls-6" d="m100.28,199.36s-2.61,7.45-2.3,15.71.57,15.25.57,15.25c0,0,2.98,4.61,10.89,7.23s15.55,2.62,15.55,2.62c0,0-2.57-13.47-.17-22.72,2.39-9.25,10.55-16.36,10.55-16.36l-35.11-1.72Z"/><path class="cls-6" d="m184.57,201.08h74.31s2.75.57,2.75,5.39-4.47,6.08-4.47,6.08c0,0,1.03,8.03,1.83,10.78s2.81,5.97,2.81,5.97h-64.89s.89-5.74-2.75-14.78-9.61-13.44-9.61-13.44Z"/><path class="cls-8" d="m360.36,137.72l.88,12.9,11.55,9.33v-19.65s-.08-.42-.88-1.5-2.35-1.08-2.35-1.08h-9.2Z"/><path class="cls-10" d="m182.9,140.71l16.68-3.41v-2.97h5.64v-46.73s.11-2.7-1.2-3.67-4.82-.86-4.82-.86v-28.5s.33-2.44,1.37-3.63c1.44-1.64,3.62-2.1,3.62-2.1h3.61v-5.91l-7.74.06s-7.29.36-11.07,4.64c-2.98,3.38-2.7,7.31-2.7,7.31l-.17,28.81-3.22.17s-1.19.4-2.28,1.72-1.02,2.38-1.02,2.38l-.53,46.3h3.78l.04,6.38Z"/><g><path d="m128.83,402.62v-22.38h-41.87v-22.06l26.71-96.9h43.96v95.37h7.54v23.58h-7.54v22.38h-28.8Zm-16.68-45.96h16.68v-71.15l-16.68,71.15Z"/><path d="m207.28,404.54c-10.86,0-19.72-2.69-26.59-8.06s-10.31-13.62-10.31-24.75v-21.02h29.36v12.11c0,2.51.15,4.95.44,7.3s.98,4.28,2.05,5.78,2.75,2.25,5.05,2.25c3.05,0,5.05-1.03,6.02-3.09s1.44-4.69,1.44-7.9v-27.75c0-2.3-.15-4.57-.44-6.82s-.95-4.12-1.97-5.61-2.65-2.25-4.89-2.25c-5.35,0-8.02,3.88-8.02,11.63h-25.91v-75.08h67.3v26.47h-40.51v19.89c1.39-1.71,3.28-3.22,5.66-4.53s5.17-1.97,8.38-1.97c6.42,0,11.64,1.23,15.68,3.69s7.14,5.88,9.3,10.27,3.66,9.47,4.49,15.24,1.24,11.98,1.24,18.61c0,8.5-.44,16.16-1.32,22.98s-2.62,12.66-5.21,17.53-6.39,8.6-11.39,11.19-11.62,3.89-19.85,3.89Z"/><path d="m282.6,360.19c-9.95,0-17.66-3.06-23.14-9.18s-8.22-14.29-8.22-24.51v-29.12c0-10.8,2.59-19.09,7.78-24.87,5.19-5.78,13.05-8.66,23.58-8.66s18.41,2.89,23.62,8.66c5.21,5.78,7.82,14.06,7.82,24.87v29.12c0,10.21-2.74,18.38-8.22,24.51-5.48,6.12-13.22,9.18-23.22,9.18Zm0-21.02c2.09,0,3.85-.76,5.29-2.29s2.17-3.41,2.17-5.66v-38.98c0-3.16-.45-5.64-1.36-7.46s-2.94-2.73-6.1-2.73-5.12.92-6.06,2.77-1.4,4.32-1.4,7.42v38.98c0,2.25.72,4.13,2.17,5.66s3.21,2.29,5.29,2.29Zm18.21,63.37l43.31-141.74h25.99l-43.4,141.74h-25.91Zm85.83,1.44c-9.95,0-17.66-3.06-23.14-9.18-5.48-6.12-8.22-14.29-8.22-24.51v-29.12c0-10.8,2.59-19.09,7.78-24.87s13.05-8.66,23.58-8.66,18.41,2.89,23.62,8.66,7.82,14.06,7.82,24.87v29.12c0,10.21-2.74,18.38-8.22,24.51s-13.22,9.18-23.22,9.18Zm0-21.02c2.09,0,3.85-.76,5.29-2.29s2.17-3.41,2.17-5.66v-38.98c0-3.16-.45-5.64-1.36-7.46s-2.94-2.73-6.1-2.73-5.12.92-6.06,2.77-1.4,4.32-1.4,7.42v38.98c0,2.25.72,4.13,2.17,5.66s3.21,2.29,5.29,2.29Z"/></g></g><g id="gouttes_d_eau"><g id="Calque_4"><g><path class="cls-9" d="m116.68,11.14s-3.4,5.61-3.4,7.7,1.9,3.44,3.4,3.44,3.4-1.45,3.4-3.35-2.54-6.56-3.4-7.79Z"/><path class="cls-1" d="m116.58,21.73h-.14c-.09,0-.14-.05-.14-.14s.05-.14.14-.14h0s1.27.05,2.08-.68c.45-.41.68-1.04.72-1.77,0-.09.05-.14.14-.14s.14.05.14.14c-.05.81-.27,1.49-.77,1.95-.81.68-1.86.77-2.17.77h0Z"/></g></g><g id="Calque_4-2"><g><path class="cls-9" d="m156.74,22.28s-3.4,5.61-3.4,7.7,1.9,3.44,3.4,3.44,3.4-1.45,3.4-3.35-2.54-6.56-3.4-7.79Z"/><path class="cls-1" d="m156.65,32.87h-.14c-.09,0-.14-.05-.14-.14s.05-.14.14-.14h0s1.27.05,2.08-.68c.45-.41.68-1.04.72-1.77,0-.09.05-.14.14-.14s.14.05.14.14c-.05.81-.27,1.49-.77,1.95-.81.68-1.86.77-2.17.77h0Z"/></g></g><g id="Calque_4-3"><g><path class="cls-9" d="m193.43,0s-3.4,5.61-3.4,7.7,1.9,3.44,3.4,3.44,3.4-1.45,3.4-3.35-2.54-6.56-3.4-7.79Z"/><path class="cls-1" d="m193.34,10.59h-.14c-.09,0-.14-.05-.14-.14s.05-.14.14-.14h0s1.27.05,2.08-.68c.45-.41.68-1.04.72-1.77,0-.09.05-.14.14-.14s.14.05.14.14c-.05.81-.27,1.49-.77,1.95-.81.68-1.86.77-2.17.77h0Z"/></g></g><g id="Calque_4-4"><g><path class="cls-9" d="m230.76,16.71s-3.4,5.61-3.4,7.7,1.9,3.44,3.4,3.44,3.4-1.45,3.4-3.35-2.54-6.56-3.4-7.79Z"/><path class="cls-1" d="m230.67,27.3h-.14c-.09,0-.14-.05-.14-.14s.05-.14.14-.14h0s1.27.05,2.08-.68c.45-.41.68-1.04.72-1.77,0-.09.05-.14.14-.14s.14.05.14.14c-.05.81-.27,1.49-.77,1.95-.81.68-1.86.77-2.17.77h0Z"/></g></g><g id="Calque_4-5"><g><path class="cls-9" d="m279.36,11.14s-3.4,5.61-3.4,7.7,1.9,3.44,3.4,3.44,3.4-1.45,3.4-3.35-2.54-6.56-3.4-7.79Z"/><path class="cls-1" d="m279.27,21.73h-.14c-.09,0-.14-.05-.14-.14s.05-.14.14-.14h0s1.27.05,2.08-.68c.45-.41.68-1.04.72-1.77,0-.09.05-.14.14-.14s.14.05.14.14c-.05.81-.27,1.49-.77,1.95-.81.68-1.86.77-2.17.77h0Z"/></g></g><g id="Calque_4-6"><g><path class="cls-9" d="m267.26,33.96s-3.4,5.61-3.4,7.7,1.9,3.44,3.4,3.44,3.4-1.45,3.4-3.35-2.54-6.56-3.4-7.79Z"/><path class="cls-1" d="m267.17,44.56h-.14c-.09,0-.14-.05-.14-.14s.05-.14.14-.14h0s1.27.05,2.08-.68c.45-.41.68-1.04.72-1.77,0-.09.05-.14.14-.14s.14.05.14.14c-.05.81-.27,1.49-.77,1.95-.81.68-1.86.77-2.17.77h0Z"/></g></g><g id="Calque_4-7"><g><path class="cls-9" d="m338.88,0s-3.4,5.61-3.4,7.7,1.9,3.44,3.4,3.44,3.4-1.45,3.4-3.35-2.54-6.56-3.4-7.79Z"/><path class="cls-1" d="m338.78,10.59h-.14c-.09,0-.14-.05-.14-.14s.05-.14.14-.14h0s1.27.05,2.08-.68c.45-.41.68-1.04.72-1.77,0-.09.05-.14.14-.14s.14.05.14.14c-.05.81-.27,1.49-.77,1.95-.81.68-1.86.77-2.17.77h0Z"/></g></g><g id="Calque_4-8"><g><path class="cls-9" d="m393.62,77.13s-3.4,5.61-3.4,7.7,1.9,3.44,3.4,3.44,3.4-1.45,3.4-3.35-2.54-6.56-3.4-7.79Z"/><path class="cls-1" d="m393.53,87.73h-.14c-.09,0-.14-.05-.14-.14s.05-.14.14-.14h0s1.27.05,2.08-.68c.45-.41.68-1.04.72-1.77,0-.09.05-.14.14-.14s.14.05.14.14c-.05.81-.27,1.49-.77,1.95-.81.68-1.86.77-2.17.77h0Z"/></g></g><g id="Calque_4-9"><g><path class="cls-9" d="m372.79,31.79s-3.4,5.61-3.4,7.7,1.9,3.44,3.4,3.44,3.4-1.45,3.4-3.35-2.54-6.56-3.4-7.79Z"/><path class="cls-1" d="m372.7,42.39h-.14c-.09,0-.14-.05-.14-.14s.05-.14.14-.14h0s1.27.05,2.08-.68c.45-.41.68-1.04.72-1.77,0-.09.05-.14.14-.14s.14.05.14.14c-.05.81-.27,1.49-.77,1.95-.81.68-1.86.77-2.17.77h0Z"/></g></g><g id="Calque_4-10"><g><path class="cls-9" d="m326.69,27.84s-3.4,5.61-3.4,7.7,1.9,3.44,3.4,3.44,3.4-1.45,3.4-3.35-2.54-6.56-3.4-7.79Z"/><path class="cls-1" d="m326.6,38.44h-.14c-.09,0-.14-.05-.14-.14s.05-.14.14-.14h0s1.27.05,2.08-.68c.45-.41.68-1.04.72-1.77,0-.09.05-.14.14-.14s.14.05.14.14c-.05.81-.27,1.49-.77,1.95-.81.68-1.86.77-2.17.77h0Z"/></g></g><g id="Calque_4-11"><g><path class="cls-9" d="m223.19,62.02s-3.4,5.61-3.4,7.7,1.9,3.44,3.4,3.44,3.4-1.45,3.4-3.35-2.54-6.56-3.4-7.79Z"/><path class="cls-1" d="m223.1,72.61h-.14c-.09,0-.14-.05-.14-.14s.05-.14.14-.14h0s1.27.05,2.08-.68c.45-.41.68-1.04.72-1.77,0-.09.05-.14.14-.14s.14.05.14.14c-.05.81-.27,1.49-.77,1.95-.81.68-1.86.77-2.17.77h0Z"/></g></g><g id="Calque_4-12"><g><path class="cls-9" d="m156.38,71.57s-3.4,5.61-3.4,7.7,1.9,3.44,3.4,3.44,3.4-1.45,3.4-3.35-2.54-6.56-3.4-7.79Z"/><path class="cls-1" d="m156.29,82.16h-.14c-.09,0-.14-.05-.14-.14s.05-.14.14-.14h0s1.27.05,2.08-.68c.45-.41.68-1.04.72-1.77,0-.09.05-.14.14-.14s.14.05.14.14c-.05.81-.27,1.49-.77,1.95-.81.68-1.86.77-2.17.77h0Z"/></g></g><g id="Calque_4-13"><g><path class="cls-9" d="m125.01,56.45s-3.4,5.61-3.4,7.7,1.9,3.44,3.4,3.44,3.4-1.45,3.4-3.35-2.54-6.56-3.4-7.79Z"/><path class="cls-1" d="m124.92,67.04h-.14c-.09,0-.14-.05-.14-.14s.05-.14.14-.14h0s1.27.05,2.08-.68c.45-.41.68-1.04.72-1.77,0-.09.05-.14.14-.14s.14.05.14.14c-.05.81-.27,1.49-.77,1.95-.81.68-1.86.77-2.17.77h0Z"/></g></g><g id="Calque_4-14"><g><path class="cls-9" d="m380.56,104.23s-3.4,5.61-3.4,7.7,1.9,3.44,3.4,3.44,3.4-1.45,3.4-3.35-2.54-6.56-3.4-7.79Z"/><path class="cls-1" d="m380.47,114.82h-.14c-.09,0-.14-.05-.14-.14s.05-.14.14-.14h0s1.27.05,2.08-.68c.45-.41.68-1.04.72-1.77,0-.09.05-.14.14-.14s.14.05.14.14c-.05.81-.27,1.49-.77,1.95-.81.68-1.86.77-2.17.77h0Z"/></g></g><g id="Calque_4-15"><g><path class="cls-9" d="m230.76,96.47s-3.4,5.61-3.4,7.7,1.9,3.44,3.4,3.44,3.4-1.45,3.4-3.35-2.54-6.56-3.4-7.79Z"/><path class="cls-1" d="m230.67,107.06h-.14c-.09,0-.14-.05-.14-.14s.05-.14.14-.14h0s1.27.05,2.08-.68c.45-.41.68-1.04.72-1.77,0-.09.05-.14.14-.14s.14.05.14.14c-.05.81-.27,1.49-.77,1.95-.81.68-1.86.77-2.17.77h0Z"/></g></g><g id="Calque_4-16"><g><path class="cls-9" d="m168.89,109.8s-3.4,5.61-3.4,7.7,1.9,3.44,3.4,3.44,3.4-1.45,3.4-3.35-2.54-6.56-3.4-7.79Z"/><path class="cls-1" d="m168.8,120.39h-.14c-.09,0-.14-.05-.14-.14s.05-.14.14-.14h0s1.27.05,2.08-.68c.45-.41.68-1.04.72-1.77,0-.09.05-.14.14-.14s.14.05.14.14c-.05.81-.27,1.49-.77,1.95-.81.68-1.86.77-2.17.77h0Z"/></g></g><g id="Calque_4-17"><g><path class="cls-9" d="m135.39,111.97s-3.4,5.61-3.4,7.7,1.9,3.44,3.4,3.44,3.4-1.45,3.4-3.35-2.54-6.56-3.4-7.79Z"/><path class="cls-1" d="m135.3,122.56h-.14c-.09,0-.14-.05-.14-.14s.05-.14.14-.14h0s1.27.05,2.08-.68c.45-.41.68-1.04.72-1.77,0-.09.05-.14.14-.14s.14.05.14.14c-.05.81-.27,1.49-.77,1.95-.81.68-1.86.77-2.17.77h0Z"/></g></g><g id="Calque_4-18"><g><path class="cls-9" d="m113.28,135.14s-3.4,5.61-3.4,7.7,1.9,3.44,3.4,3.44,3.4-1.45,3.4-3.35-2.54-6.56-3.4-7.79Z"/><path class="cls-1" d="m113.19,145.74h-.14c-.09,0-.14-.05-.14-.14s.05-.14.14-.14h0s1.27.05,2.08-.68c.45-.41.68-1.04.72-1.77,0-.09.05-.14.14-.14s.14.05.14.14c-.05.81-.27,1.49-.77,1.95-.81.68-1.86.77-2.17.77h0Z"/></g></g><g id="Calque_4-19"><g><path class="cls-9" d="m100.28,86.25s-3.4,5.61-3.4,7.7,1.9,3.44,3.4,3.44,3.4-1.45,3.4-3.35-2.54-6.56-3.4-7.79Z"/><path class="cls-1" d="m100.19,96.85h-.14c-.09,0-.14-.05-.14-.14s.05-.14.14-.14h0s1.27.05,2.08-.68c.45-.41.68-1.04.72-1.77,0-.09.05-.14.14-.14s.14.05.14.14c-.05.81-.27,1.49-.77,1.95-.81.68-1.86.77-2.17.77h0Z"/></g></g></g><g id="badge_1er"><polygon class="cls-2" points="342.88 39.16 351.47 47.34 363.17 45.58 364.93 57.38 375.59 62.76 370 73.63 375.59 84.19 365.03 89.78 363.27 101.68 353.75 99.82 330.67 99.61 322.18 102.1 321.25 89.26 309.14 84.6 316.18 73.63 308.62 62.45 321.35 57.79 321.87 44.86 334.4 48.17 342.88 39.16"/><path class="cls-4" d="m330.57,89.78s.47,15.32.41,18.01-.41,18.63-.41,18.63c0,0,3.41-4.97,6.21-7.76l5.49-5.49s3.61,3.44,5.89,6.21l5.8,7.04s-.21-10.56-.41-18.32.41-18.32.41-18.32h-23.39Z"/><circle class="cls-11" cx="342.88" cy="74.25" r="23.6"/><path class="cls-3" d="m340.56,87.78v-20.83c-.37.44-.88.8-1.52,1.07s-1.25.41-1.83.41v-4.32c.54-.08,1.13-.26,1.75-.53s1.21-.65,1.74-1.12.95-1.05,1.24-1.73h4.35v27.05h-5.73Z"/></g><g id="surplus_d_eau_lettres"><path class="cls-9" d="m127.37,399.34s.73-6.24,7.85-5.03,5.81,2.65,9.88,3.34,6.49-1.73,10.78-1.09,4.1,3.81,4.1,3.81l-.02,2.53h-32.35l-.24-3.57Z"/><path class="cls-9" d="m174.47,391.29s9.66-2.17,18.12-1.59,6.56,4.46,16.39,4.46,13.28-7.16,21.22-7.16,13.11,3.58,13.11,3.58l-13.8,15.05-37.27,1.9-17.77-16.24Z"/><path class="cls-9" d="m299.9,389.69s11.72-7.22,17.37-6.22c5.66,1,11.87,9.79,11.87,9.79l-3.19,11.08-26.07-1-2.22-7.94,2.24-5.71Z"/><path class="cls-9" d="m358.38,387s11.47-3.63,15.27-2.59,1.64,5.3,5.52,5.3,4.83-2.59,8.97-2.65,4.4,4.51,9.32,2.01,8.85-6.42,13.63-4.66,5.61,5.82,5.61,5.82l-21.13,22.13-34.68-5.61-2.5-19.75Z"/></g><g id="herbe"><g id="herbe-2"><path class="cls-5" d="m373.4,391.93s2.47-12.43,2.2-18.01c-.27-5.58-6.28-17.8-6.28-17.8,0,0,10.51,10.07,11.74,19.26,1.23,9.2.77,16.54.77,16.54h-8.43Z"/><path class="cls-5" d="m386.76,391.93s2.25-7.79-.75-17.75-9.01-15.81-9.01-15.81c0,0,4.84,7.88,6.01,17.91s-1.19,15.64-1.19,15.64h4.94Z"/><path class="cls-5" d="m393.32,391.93h-6.55s1.1-10.01,1.99-20.26-4.57-21.97-4.57-21.97c0,0,8.86,13.31,9.71,22.42s-.58,19.81-.58,19.81Z"/><path class="cls-5" d="m402.35,391.93s-5.01-15.64-6.31-22.18-2.14-22.21-2.14-22.21c0,0-1.86,12.56-1.36,24.8.5,12.24.78,19.59.78,19.59h9.03Z"/><path class="cls-5" d="m404.94,391.93s1.91-7.8,2.37-16.62-4.47-22.37-4.47-22.37c0,0,1.76,16.19,1.31,22.9-.45,6.71-1.8,16.09-1.8,16.09h2.59Z"/><path class="cls-5" d="m414.74,391.93s.79-13.64-.9-25.43c-1.69-11.8-10.14-22.06-10.14-22.06,0,0,5.86,15.2,7.1,23.04s1.57,24.45,1.57,24.45h2.37Z"/><path class="cls-5" d="m421.95,391.93s-2.21-16.51-2.21-26.55,4.92-31.18,4.92-31.18c0,0-9.91,16.9-9.91,31.18v26.55h7.21Z"/><path class="cls-5" d="m427.2,391.93s-1.65-12.61-.52-23.59c1.13-10.98,5.07-26.85,5.07-26.85,0,0-9.12,16.76-9.46,28.24-.34,11.48-.34,22.19-.34,22.19h5.25Z"/></g></g></svg>