<?xml version="1.0" encoding="UTF-8"?><svg id="Calque_2" xmlns="http://www.w3.org/2000/svg" viewBox="0 0 514.33 439.78"><defs><style>.cls-1{fill:#ffdec0;}.cls-2{fill:#ff2442;}.cls-3{fill:#8e162a;}.cls-4{fill:#600f21;}.cls-5{fill:#3db2ff;}</style></defs><g id="flaque_d_eau"><path class="cls-5" d="m430.72,373.76c-20.27-3.11-43.05-20.7-69.96-28.98-26.91-8.28-47.61-9.89-72.98-11.39-25.36-1.49-101.96-6.73-131.47-3.11-29.5,3.62-77.12,10.35-76.09,25.88,1.04,15.53,18.12,12.53,12.94,20.7C87.99,385.03,0,368.06,0,397.56c0,29.5,93.17,25.43,93.17,25.43,0,0,74.53-11.97,81.26-8.86,6.73,3.11,7.25,6.73,7.25,6.73,0,0-7.76,3.65-3.62,9.38,4.14,5.73,14.49,5.73,14.49,5.73,0,0,45.01-2.14,62.37-5.73s30.65-7.25,48.39-7.25c17.75,0,11.17,3.69,17.75,7.25,6.58,3.56,24.69,8.09,43.85,8.73s19.71,1.45,35.2,0c15.48-1.45,21.14-1.66,25.88-3,4.74-1.34,13.65-1.14,12.71-5.73-.94-4.59-12.19-5.56-11.16-12.49s13.77-2.07,27.5-3.11c13.74-1.03,41.33-3.11,41.33-3.11,0,0,17.64-5.69,17.96-18.12.33-12.42-34.99-17.08-34.99-17.08,0,0-28.36.52-48.63-2.59Z"/></g><g id="centrale_nucléaire"><g><path d="m103.61,396.38c-13.27,0-22.93-3.5-28.97-10.51-6.04-7.01-9.06-17.58-9.06-31.7v-15.72h30.85v15.81c0,3.99.5,7.36,1.5,10.13s3.23,4.14,6.71,4.14,5.78-1.5,6.75-4.49c.97-2.99,1.45-7.88,1.45-14.66v-3.76c0-5.18-.87-9.71-2.61-13.59s-5.14-5.81-10.21-5.81c-.63,0-1.18.01-1.67.04s-.9.07-1.24.13v-27c5.18,0,9.14-1.15,11.88-3.46s4.1-6.17,4.1-11.58c0-8.49-2.45-12.73-7.35-12.73-3.19,0-5.34,1.24-6.45,3.72-1.11,2.48-1.67,5.63-1.67,9.44v4.53h-31.11c-.06-.68-.1-1.51-.13-2.48s-.04-1.91-.04-2.82c0-13.79,3.22-23.9,9.66-30.34,6.44-6.44,16.29-9.66,29.57-9.66,25.64,0,38.46,13.33,38.46,39.99,0,7.41-1,13.52-2.99,18.33-1.99,4.81-5.7,8.19-11.11,10.13,4.27,2.05,7.43,4.67,9.49,7.86,2.05,3.19,3.39,7.15,4.02,11.88.63,4.73.94,10.45.94,17.18,0,15.04-3.15,26.63-9.44,34.78-6.3,8.15-16.74,12.22-31.32,12.22Z"/><path d="m191.98,396.04c-12.7,0-22.52-3.56-29.44-10.68-6.92-7.12-10.38-17.38-10.38-30.76v-67.85c0-14.13,3.29-24.97,9.87-32.52,6.58-7.55,16.56-11.32,29.95-11.32s23.44,3.77,30,11.32c6.55,7.55,9.83,18.39,9.83,32.52v67.85c0,13.39-3.45,23.64-10.34,30.76-6.89,7.12-16.72,10.68-29.48,10.68Zm0-27.69c2.34,0,4.16-1.05,5.47-3.16s1.97-4.47,1.97-7.09v-74.26c0-3.53-.38-6.62-1.15-9.27s-2.86-3.97-6.28-3.97-5.51,1.32-6.28,3.97c-.77,2.65-1.15,5.74-1.15,9.27v74.26c0,2.62.67,4.99,2.01,7.09s3.15,3.16,5.43,3.16Z"/><path d="m272.22,349.55c-10.6,0-18.81-3.26-24.65-9.78-5.84-6.52-8.76-15.23-8.76-26.11v-31.02c0-11.51,2.76-20.34,8.29-26.49,5.53-6.15,13.9-9.23,25.12-9.23s19.61,3.08,25.17,9.23c5.55,6.15,8.33,14.98,8.33,26.49v31.02c0,10.88-2.92,19.58-8.76,26.11-5.84,6.52-14.09,9.78-24.74,9.78Zm0-22.39c2.22,0,4.1-.81,5.64-2.44,1.54-1.62,2.31-3.63,2.31-6.02v-41.53c0-3.36-.48-6.01-1.45-7.95-.97-1.94-3.13-2.91-6.49-2.91s-5.46.98-6.45,2.95c-1,1.97-1.5,4.6-1.5,7.9v41.53c0,2.39.77,4.4,2.31,6.02s3.42,2.44,5.64,2.44Zm19.4,67.51l46.15-151h27.69l-46.23,151h-27.6Zm91.44,1.54c-10.6,0-18.81-3.26-24.65-9.78s-8.76-15.23-8.76-26.11v-31.02c0-11.51,2.76-20.34,8.29-26.49,5.53-6.15,13.9-9.23,25.12-9.23s19.61,3.08,25.17,9.23c5.55,6.15,8.33,14.98,8.33,26.49v31.02c0,10.88-2.92,19.58-8.76,26.11-5.84,6.52-14.09,9.78-24.74,9.78Zm0-22.39c2.22,0,4.1-.81,5.64-2.44s2.31-3.63,2.31-6.02v-41.53c0-3.36-.48-6.01-1.45-7.95-.97-1.94-3.13-2.91-6.49-2.91s-5.46.98-6.45,2.95-1.5,4.6-1.5,7.9v41.53c0,2.39.77,4.4,2.31,6.02s3.42,2.44,5.64,2.44Z"/></g><g><path class="cls-3" d="m56.68,241.47s22.23-65.23,26.73-92.64c4.49-27.42-12.57-61.18-12.57-61.18,0,0,6.89-13.56,50.16-13.56s48.88,14.14,48.88,14.14c0,0-16.28,31.17-11.48,62.05,4.81,30.88,21.44,91.2,21.44,91.2H56.68Z"/><path class="cls-4" d="m276.92,240.12L274.91,0s-2.27.76-6.27.76-5.74-.76-5.74-.76l-4.81,240.12h18.82Z"/><path class="cls-3" d="m272.89,246.92s18.3-59.01,22.79-87.75c4.49-28.75-8.64-73.53-8.64-73.53,0,0,6.89-14.22,50.16-14.22s48.88,14.83,48.88,14.83c0,0-14.05,31.77-9.24,64.15s35.77,95.02,35.77,95.02l-139.72,1.51Z"/><rect class="cls-2" x="106.28" y="189.7" width="218.29" height="57.22"/></g></g><g id="surplus_d_eau_lettres"><path class="cls-5" d="m71.14,387.52s8.63-6.89,15.87-6.89,4.14,2.75,13.11,2.4c8.97-.35,14.84-7.33,26.4-7.33s15.87,8.7,15.87,8.7l-11.39,24.68-73.32-4.66,13.46-16.91Z"/><path class="cls-5" d="m157.75,380.09s11.2-3.64,23.12-3.64,7.55,1.97,16.11,1.97,7.7-5.24,16.55-5.24,18.27,11.23,18.27,11.23l-16.68,21.06-52.37-6.9-8.97-16.83,3.97-1.64Z"/><path class="cls-5" d="m291.62,387s-3.95-20.76,20.55-10.55c24.5,10.21,19.84,15.9,19.84,15.9l-18.98,12.25-24.79-5.35,3.38-12.25Z"/><path class="cls-5" d="m354.09,384.4s9.32-3.84,17.43-2.67c8.11,1.16,13.28-4.43,23.64-1.64,10.35,2.78,21.41-2.78,21.41-2.78l2.75,18.91-55.9,10.11-18.12-13.46,8.8-8.46Z"/></g><g id="herbe"><g id="herbe-2"><path class="cls-1" d="m81.5,385.8s-2.61-12.83-2.33-18.59,6.65-18.37,6.65-18.37c0,0-11.13,10.39-12.43,19.88-1.3,9.49-.81,17.08-.81,17.08h8.92Z"/><path class="cls-1" d="m67.35,385.8s-2.38-8.04.79-18.32c3.17-10.27,9.54-16.32,9.54-16.32,0,0-5.12,8.13-6.36,18.49-1.24,10.36,1.26,16.15,1.26,16.15h-5.23Z"/><path class="cls-1" d="m60.42,385.8h6.94s-1.17-10.33-2.11-20.91,4.83-22.67,4.83-22.67c0,0-9.38,13.74-10.27,23.14-.9,9.4.62,20.45.62,20.45Z"/><path class="cls-1" d="m50.86,385.8s5.31-16.14,6.68-22.89c1.37-6.74,2.27-22.92,2.27-22.92,0,0,1.97,12.96,1.44,25.6-.53,12.63-.82,20.22-.82,20.22h-9.56Z"/><path class="cls-1" d="m48.12,385.8s-2.03-8.06-2.5-17.15c-.48-9.1,4.73-23.09,4.73-23.09,0,0-1.87,16.71-1.39,23.63s1.91,16.61,1.91,16.61h-2.74Z"/><path class="cls-1" d="m37.74,385.8s-.83-14.07.95-26.25c1.79-12.18,10.73-22.77,10.73-22.77,0,0-6.2,15.69-7.51,23.78s-1.66,25.24-1.66,25.24h-2.51Z"/><path class="cls-1" d="m30.11,385.8s2.34-17.04,2.34-27.41-5.2-32.19-5.2-32.19c0,0,10.49,17.44,10.49,32.19v27.41h-7.63Z"/><path class="cls-1" d="m24.55,385.8s1.75-13.01.55-24.35-5.36-27.71-5.36-27.71c0,0,9.66,17.3,10.01,29.15.36,11.85.36,22.91.36,22.91h-5.56Z"/></g></g></svg>