<?xml version="1.0" encoding="UTF-8"?><svg id="Calque_2" xmlns="http://www.w3.org/2000/svg" viewBox="0 0 514.33 500.64"><defs><style>.cls-1{fill:#ffb830;}.cls-2{fill:#ffdec0;}.cls-3{fill:#f4d0ae;}.cls-4{fill:#f7ab31;}.cls-5{fill:#3db2ff;}</style></defs><g id="flaque_d_eau"><path class="cls-5" d="m430.72,434.61c-20.27-3.11-43.05-20.7-69.96-28.98-26.91-8.28-47.61-9.89-72.98-11.39-25.36-1.49-101.96-6.73-131.47-3.11-29.5,3.62-77.12,10.35-76.09,25.88,1.04,15.53,18.12,12.53,12.94,20.7C87.99,445.89,0,428.92,0,458.42c0,29.5,93.17,25.43,93.17,25.43,0,0,74.53-11.97,81.26-8.86s7.25,6.73,7.25,6.73c0,0-7.76,3.65-3.62,9.38s14.49,5.73,14.49,5.73c0,0,45.01-2.14,62.37-5.73,17.36-3.59,30.65-7.25,48.39-7.25,17.75,0,11.17,3.69,17.75,7.25,6.58,3.56,24.69,8.09,43.85,8.73,19.15.64,19.71,1.45,35.2,0s21.14-1.66,25.88-3c4.74-1.34,13.65-1.14,12.71-5.73-.94-4.59-12.19-5.56-11.16-12.49s13.77-2.07,27.5-3.11c13.74-1.03,41.33-3.11,41.33-3.11,0,0,17.64-5.69,17.96-18.12.33-12.42-34.99-17.08-34.99-17.08,0,0-28.36.52-48.63-2.59Z"/></g><g id="robinet"><g><path d="m101.96,440.87v-7.19c0-7.47,1.15-14.18,3.46-20.14s5.29-11.49,8.94-16.59c3.65-5.1,7.5-10.11,11.55-15.01,3.93-4.79,7.68-9.71,11.25-14.76,3.56-5.05,6.47-10.52,8.72-16.42,2.25-5.9,3.38-12.53,3.38-19.89,0-3.54-.53-6.57-1.58-9.11-1.05-2.54-3.24-3.81-6.54-3.81-5.02,0-7.53,4.48-7.53,13.43v18.39h-31.65c-.06-1.31-.13-2.79-.21-4.45s-.13-3.25-.13-4.79c0-10.83,1.14-20.03,3.42-27.59,2.28-7.56,6.32-13.32,12.1-17.28,5.79-3.96,13.93-5.94,24.42-5.94,12.49,0,22.2,3.51,29.13,10.52,6.93,7.01,10.39,17.02,10.39,30.02,0,8.84-1.14,16.58-3.42,23.22-2.28,6.64-5.3,12.69-9.07,18.13-3.76,5.45-7.9,10.88-12.4,16.29-3.19,3.82-6.29,7.73-9.28,11.72-2.99,3.99-5.63,8.27-7.91,12.83h41.06v28.4h-78.09Z"/><path d="m204,440.87v-115.99c-2.05,2.45-4.88,4.43-8.47,5.94-3.59,1.51-6.99,2.27-10.18,2.27v-24.04c3.02-.46,6.27-1.44,9.75-2.95,3.48-1.51,6.71-3.59,9.71-6.24,2.99-2.65,5.29-5.86,6.89-9.62h24.21v150.63h-31.91Z"/><path d="m278.17,395.7c-10.61,0-18.83-3.26-24.68-9.79-5.84-6.53-8.77-15.24-8.77-26.13v-31.05c0-11.52,2.77-20.36,8.3-26.52,5.53-6.16,13.91-9.24,25.15-9.24s19.63,3.08,25.19,9.24c5.56,6.16,8.34,15,8.34,26.52v31.05c0,10.89-2.92,19.6-8.77,26.13-5.84,6.53-14.1,9.79-24.76,9.79Zm0-22.41c2.22,0,4.11-.81,5.65-2.44,1.54-1.63,2.31-3.64,2.31-6.03v-41.57c0-3.36-.48-6.02-1.45-7.95s-3.14-2.91-6.5-2.91-5.46.98-6.46,2.95c-1,1.97-1.5,4.6-1.5,7.91v41.57c0,2.4.77,4.41,2.31,6.03,1.54,1.63,3.42,2.44,5.65,2.44Zm19.42,67.57l46.19-151.14h27.71l-46.28,151.14h-27.63Zm91.52,1.54c-10.61,0-18.83-3.26-24.68-9.79s-8.77-15.24-8.77-26.13v-31.05c0-11.52,2.77-20.36,8.3-26.52,5.53-6.16,13.91-9.24,25.15-9.24s19.63,3.08,25.19,9.24c5.56,6.16,8.34,15,8.34,26.52v31.05c0,10.89-2.92,19.6-8.77,26.13s-14.1,9.79-24.76,9.79Zm0-22.41c2.22,0,4.11-.81,5.65-2.44,1.54-1.63,2.31-3.64,2.31-6.03v-41.57c0-3.36-.48-6.02-1.45-7.95s-3.14-2.91-6.5-2.91-5.46.98-6.46,2.95c-1,1.97-1.5,4.6-1.5,7.91v41.57c0,2.4.77,4.41,2.31,6.03,1.54,1.63,3.42,2.44,5.65,2.44Z"/></g><path class="cls-5" d="m342.08,295.27l12.67,1.9,14.34.38s-8.11,8.34-9.83,10.41c-1.73,2.07,1.36,8.96-.86,13.63-1.47,3.08-3.8,5.69-3.8,5.69,0,0-5.52,6.38-3.97,2.24,1.55-4.14,1.55-4.31,3.8-7.59s1.15-7.59,1.15-7.59c0,0-.85-5.72,0-7.94,2-5.22-1.5-3.28-1.5-3.28,0,0-9.66,6.21-9.66,10.52s-.8,4.23-1.14,6.81.77,9.06-1.2,5.61c-1.97-3.45,0-9.66,0-9.66,0,0,.09-5.26,1.4-7.85,1.31-2.59.91-4.08,1.81-5.26,1.81-2.37-1.09-2.15-2.55-3.06-.3-.19-1.82.36-3.04,2.83l2.38-7.79Z"/><path class="cls-1" d="m279.83,79.84v5.77s14.58,1.74,21,3.48c6.43,1.73,7.82,2.1,7.82,2.1v21.77s3.91.33,5.86,1.47c3.74,2.18,3.42,3.91,3.42,3.91,0,0,1.7,32.2.72,32.2s-12.41,2.16-12.41,2.16l.46,17.41s33.54-3.11,59.11,19.29c25.56,22.4,25.4,71.08,25.4,71.08,0,0,5.37,3.09,6.35,4.88s.98,4.4.98,4.4l-.98,19.05s-10.58,9.61-35.66,8.79c-25.08-.81-36.64-8.3-36.64-8.3l.49-21s.05-1.48,1.41-3.67c1.36-2.19,5.92-3.98,5.92-3.98,0,0-1.3-17.75-9.12-24.42-7.82-6.68-20.84-5.7-20.84-5.7,0,0-5.05,9.61-9.12,12.7-4.07,3.09-11.03,5.05-13.51,5.21-2.48.16-37.94.41-39.08.33s-10.58-2.44-15.79-7.65-6.84-10.1-6.84-10.1l-54.06-.16s-3.26,9.28-7,14.17c-3.74,4.88-8.3,5.21-8.3,5.21h-21.66s-21.66-11.07-18.56-53.41c3.09-42.33,16.61-44.45,16.61-44.45l23.45-.98s7.16,3.26,10.58,8.14,4.88,11.56,4.88,11.56l50.96-.33.49-18.24-12.7-1.95-.33-32.89s.49-1.79,3.74-3.42,5.54-1.3,5.54-1.3l-.16-20.52s4.56-3.58,11.72-4.56c7.16-.98,13.51-1.3,13.51-1.3l-.14-6.67,42.48-.07Z"/><g id="ombres_robinet"><polygon class="cls-4" points="237.35 79.91 240.8 79.91 240.8 86.19 237.5 86.58 237.35 79.91"/><polygon class="cls-4" points="214.97 90.77 214.97 113.14 212.42 112.96 212.26 92.45 214.97 90.77"/><polygon class="cls-4" points="203.14 117.68 203.47 150.57 205.07 150.82 205.07 115.38 203.86 116.51 203.14 117.68"/><polygon class="cls-4" points="216.17 152.53 216.81 152.53 217.93 170.77 215.68 170.76 216.17 152.53"/><polygon class="cls-4" points="215.68 170.76 164.71 171.09 164.71 172.26 217.93 170.77 215.68 170.76"/><path class="cls-4" d="m125.8,152.37s-13.84,1.56-16.61,44.45c-2.77,42.89,18.56,53.41,18.56,53.41,0,0-19.34-17.12-16.35-51.77s14.39-46.09,14.39-46.09Z"/><path class="cls-4" d="m303.12,230.52s16.88-1.11,22.61,7.53c5.72,8.64,7.35,22.6,7.35,22.6,0,0,1.05-13.25-6.06-23.35s-23.9-6.77-23.9-6.77Z"/><path class="cls-4" d="m325.75,268.3l-.49,21,2.01,1.09.54-26.57s-1.25,1.18-1.66,2.83l-.41,1.65Z"/></g><path class="cls-5" d="m389.11,339.68c12.11,0,17.08,3.29,17.08,3.29,0,0,.97,2.02-.97,3.7-1.94,1.68-1.75,1.45-5.24.28-3.54-1.18-2.5-.33-5.81-.67-4.13-.43-2.17-3.06-7.34-2.5-3.14.34-2.18.23-2.7.33-2.22.4-.98.29-3.13.54-1.12.13-.89,0-2.07-.3s-1.7,1.13-3.04-.19c-1.34-1.32-3.99-1.21-3.99-1.21,0,0,6.12-3.26,17.21-3.26Z"/><path class="cls-3" d="m215.68,170.76l.49-18.24-12.7-1.95-.33-32.89s.14-1.8,3.74-3.42,5.54-1.3,5.54-1.3l-.16-20.52s4.04-3.26,11.72-4.56c7.68-1.3,13.51-1.3,13.51-1.3l42.33-.98s9.59,1.22,13.58,1.95,15.24,3.63,15.24,3.63v21.77s2.33-.12,5.86,1.47c3.54,1.58,3.42,3.91,3.42,3.91,0,0,.64,12.96.79,17.87s-.07,14.34-.07,14.34l-12.41,2.16.46,17.41s.03,22.52-.8,31.18-2.79,29.23-2.79,29.23c0,0-4.93,9.22-9.12,12.7-4.19,3.48-13.51,5.21-13.51,5.21l-39.08.33s-10.45-.71-15.79-7.65c-5.34-6.95-6.84-10.1-6.84-10.1,0,0-.84-17.61-1.97-36.07s-1.13-24.18-1.13-24.18Z"/><path class="cls-3" d="m333.08,260.64l58.13-.16s5.37,2.2,6.35,4.88.98,4.4.98,4.4l-.98,19.05s-9.77,9.75-35.66,8.79c-25.89-.96-36.64-8.3-36.64-8.3l.49-21s-.05-2.36,2.06-4.47,5.26-3.18,5.26-3.18Z"/></g><g id="maison"><polygon class="cls-1" points="318.9 48.52 318.9 79.84 205.36 79.84 205.36 46.08 239.18 46.07 276.98 9.27 318.9 48.52"/><polygon class="cls-3" points="276.98 9.27 318.9 48.52 326.75 48.52 276.98 0 237.49 40.23 201.25 40.23 201.25 46.08 205.36 46.08 239.18 46.07 276.98 9.27"/><polyline class="cls-1" points="203.97 40.23 221.06 14 263.04 14.2 237.49 40.23 203.97 40.23"/><polygon class="cls-1" points="315.88 13.66 320.81 42.74 290.99 13.66 315.88 13.66"/><polygon class="cls-3" points="229.64 19 239.54 19 239.54 9.18 241.13 9.18 241.13 2.05 227.1 2.05 227.1 8.94 229.39 9.06 229.64 19"/><polygon class="cls-3" points="211.4 52.9 234.11 52.42 234.11 70.54 211.4 70.54 211.4 52.9"/><polygon class="cls-3" points="277.58 52.89 277.47 70.54 309.72 70.54 309.72 52.9 313.22 52.9 293.05 35.39 273.6 52.96 277.58 52.89"/><polygon class="cls-3" points="248.92 79.84 248.92 50.41 266.72 50.41 267.2 79.84 248.92 79.84"/></g><g id="surplus_d_eau_lettres"><path class="cls-5" d="m101.96,433.68s7.47-4.29,16.53-4.29,10.5,3.67,16.56,4.29c6.06.63,3.36-5.84,12.42-5.84s16.91-.63,21.76,2.92c4.85,3.55,14.46,2.92,14.46,2.92l-2.49,11.65-25.45,2.43h-57.97v-13.2l4.18-.88Z"/><path class="cls-5" d="m202.71,431.54s7.65-5.25,11.27-6,3.69,2.99,6.99,3,6.34-3,10.35-3c5.18,1.26,9.58,6,9.58,6l3.82,15.45h-33.21l-10.78-1.66,1.98-13.8h0"/><path class="cls-5" d="m298.39,430.5s11.16-4.27,18.89-6.22c7.73-1.95,12.9,9.79,12.9,9.79l-3.47,11.08-28.34-1-2.42-7.94,2.44-5.71Z"/><path class="cls-5" d="m361.49,431.2s4.63-3.11,14.09-3.11,7.85,2.42,14.29,3.11,6.04-3.11,14.89-3.11,11.88,4.66,11.88,4.66l8.86,11.21-38.24,3.62-30.6-7.76,4.83-8.63Z"/></g><g id="herbe"><g id="herbe-2"><path class="cls-2" d="m225.91,439.55s-3.69-14.66-3.29-21.25c.4-6.58,9.39-21,9.39-21,0,0-15.71,11.88-17.55,22.73-1.84,10.85-1.14,19.52-1.14,19.52h12.59Z"/><path class="cls-2" d="m205.93,439.55s-3.36-9.2,1.12-20.94c4.48-11.74,13.47-18.65,13.47-18.65,0,0-7.23,9.29-8.99,21.13-1.76,11.84,1.78,18.46,1.78,18.46h-7.39Z"/><path class="cls-2" d="m196.14,439.55h9.79s-1.65-11.81-2.98-23.9c-1.34-12.09,6.83-25.92,6.83-25.92,0,0-13.24,15.71-14.51,26.45-1.26,10.74.87,23.37.87,23.37Z"/><path class="cls-2" d="m182.64,439.55s7.49-18.45,9.43-26.16c1.94-7.71,3.2-26.2,3.2-26.2,0,0,2.78,14.82,2.03,29.26-.75,14.44-1.16,23.11-1.16,23.11h-13.5Z"/><path class="cls-2" d="m178.77,439.55s-2.86-9.21-3.54-19.61c-.67-10.4,6.68-26.39,6.68-26.39,0,0-2.63,19.1-1.96,27.01.67,7.92,2.69,18.99,2.69,18.99h-3.87Z"/><path class="cls-2" d="m164.12,439.55s-1.18-16.09,1.35-30.01c2.53-13.92,15.15-26.02,15.15-26.02,0,0-8.76,17.94-10.61,27.18-1.85,9.24-2.35,28.85-2.35,28.85h-3.55Z"/><path class="cls-2" d="m153.35,439.55s3.31-19.48,3.31-31.33-7.35-36.79-7.35-36.79c0,0,14.82,19.93,14.82,36.79v31.33h-10.78Z"/><path class="cls-2" d="m145.49,439.55s2.47-14.87.78-27.83c-1.68-12.95-7.58-31.68-7.58-31.68,0,0,13.64,19.78,14.14,33.32s.51,26.18.51,26.18h-7.85Z"/><path class="cls-2" d="m133.81,439.55s3.54-19.66,2.19-27.83c-1.35-8.17-7.58-21.99-7.58-21.99,0,0,4.55,9.71,2.36,24.32-2.19,14.61-7.91,25.5-7.91,25.5h10.94Z"/><path class="cls-2" d="m119.34,439.51s-1.62-6.37-2.27-22.96c-.66-16.59,3.09-22.93,3.09-22.93,0,0,2.08,17.73,3.53,24.99,1.45,7.26,3,20.89,3,20.89h-7.35Z"/><path class="cls-2" d="m108.31,439.51s-3.78-8.09-6.38-24.68c-2.6-16.59,10.06-29.56,10.06-29.56,0,0-7.97,14.22-1.11,32.12,6.86,17.91,8.47,22.12,8.47,22.12h-11.04Z"/><path class="cls-2" d="m92.38,439.55s3.06-12.15,1.78-23c-1.29-10.85-9.52-21.8-9.52-21.8,0,0,13.1,4.68,16.4,21.8s.99,23.04.99,23.04l-9.65-.04Z"/></g></g></svg>