<?xml version="1.0" encoding="UTF-8"?><svg xmlns="http://www.w3.org/2000/svg" xmlns:xlink="http://www.w3.org/1999/xlink" viewBox="0 0 1920 1080"><defs><style>.cls-1{fill:#895c3d;}.cls-2{fill:#fff;}.cls-3{fill:#a16e45;}.cls-4{fill:#ffb830;}.cls-5{fill:#7a5417;}.cls-6{fill:#d88500;}.cls-7{fill:#ffdec0;}.cls-8{fill:url(#Dégradé_sans_nom_74);}.cls-9{fill:#ff2442;}.cls-10{fill:#8e162a;}.cls-11{fill:#339ad3;}.cls-12{fill:#a50000;}.cls-13{fill:#ccbeb8;}.cls-14{fill:#c4815a;}.cls-15{fill:#e19663;}.cls-16{fill:#f4d0ae;}.cls-17{fill:#e0d0c1;}.cls-18{fill:#600f21;}.cls-19{fill:url(#Dégradé_sans_nom_66);}.cls-20{fill:#f7ab31;}.cls-21{fill:#3db2ff;}.cls-22{fill:#ffedda;}.cls-23{fill:#ffca76;}</style><linearGradient id="Dégradé_sans_nom_74" x1="612.6" y1="696.61" x2="658.91" y2="696.61" gradientUnits="userSpaceOnUse"><stop offset=".23" stop-color="#e19663"/><stop offset=".72" stop-color="#c4815a"/></linearGradient><linearGradient id="Dégradé_sans_nom_66" x1="614.46" y1="575.54" x2="657.05" y2="575.54" gradientUnits="userSpaceOnUse"><stop offset=".61" stop-color="#e19663"/><stop offset=".82" stop-color="#c4815a"/></linearGradient></defs><g id="flaque_d_eau"><path class="cls-21" d="m176.96,420.05c20.27-3.11,43.05-20.7,69.96-28.98s47.61-9.89,72.98-11.39,101.96-6.73,131.47-3.11c29.5,3.62,77.12,10.35,76.09,25.88-1.04,15.53-18.12,12.53-12.94,20.7,5.18,8.17,93.17-8.8,93.17,20.7s-93.17,25.43-93.17,25.43c0,0-74.53-11.97-81.26-8.86s-7.25,6.73-7.25,6.73c0,0,7.76,3.65,3.62,9.38s-14.49,5.73-14.49,5.73c0,0-45.01-2.14-62.37-5.73s-30.65-7.25-48.39-7.25-11.17,3.69-17.75,7.25-24.69,8.09-43.85,8.73c-19.15.64-19.71,1.45-35.2,0-15.48-1.45-21.14-1.66-25.88-3s-13.65-1.14-12.71-5.73,12.19-5.56,11.16-12.49-13.77-2.07-27.5-3.11c-13.74-1.03-41.33-3.11-41.33-3.11,0,0-17.64-5.69-17.96-18.12-.33-12.42,34.99-17.08,34.99-17.08,0,0,28.36.52,48.63-2.59Z"/><path class="cls-21" d="m1657.35,448.59c-20.27-3.11-43.05-20.7-69.96-28.98-26.91-8.28-47.61-9.89-72.98-11.39-25.36-1.49-101.96-6.73-131.47-3.11-29.5,3.62-77.12,10.35-76.09,25.88,1.04,15.53,18.12,12.53,12.94,20.7-5.18,8.17-93.17-8.8-93.17,20.7,0,29.5,93.17,25.43,93.17,25.43,0,0,74.53-11.97,81.26-8.86s7.25,6.73,7.25,6.73c0,0-7.76,3.65-3.62,9.38s14.49,5.73,14.49,5.73c0,0,45.01-2.14,62.37-5.73,17.36-3.59,30.65-7.25,48.39-7.25,17.75,0,11.17,3.69,17.75,7.25,6.58,3.56,24.69,8.09,43.85,8.73,19.15.64,19.71,1.45,35.2,0s21.14-1.66,25.88-3c4.74-1.34,13.65-1.14,12.71-5.73-.94-4.59-12.19-5.56-11.16-12.49s13.77-2.07,27.5-3.11c13.74-1.03,41.33-3.11,41.33-3.11,0,0,17.64-5.69,17.96-18.12.33-12.42-34.99-17.08-34.99-17.08,0,0-28.36.52-48.63-2.59Z"/><path class="cls-21" d="m1522.03,938.6c-20.27-3.11-43.05-20.7-69.96-28.98-26.91-8.28-47.61-9.89-72.98-11.39-25.36-1.49-101.96-6.73-131.47-3.11-29.5,3.62-77.12,10.35-76.09,25.88,1.04,15.53,18.12,12.53,12.94,20.7-5.18,8.17-93.17-8.8-93.17,20.7,0,29.5,93.17,25.43,93.17,25.43,0,0,74.53-11.97,81.26-8.86,6.73,3.11,7.25,6.73,7.25,6.73,0,0-7.76,3.65-3.62,9.38,4.14,5.73,14.49,5.73,14.49,5.73,0,0,45.01-2.14,62.37-5.73s30.65-7.25,48.39-7.25c17.75,0,11.17,3.69,17.75,7.25,6.58,3.56,24.69,8.09,43.85,8.73s19.71,1.45,35.2,0c15.48-1.45,21.14-1.66,25.88-3,4.74-1.34,13.65-1.14,12.71-5.73-.94-4.59-12.19-5.56-11.16-12.49s13.77-2.07,27.5-3.11c13.74-1.03,41.33-3.11,41.33-3.11,0,0,17.64-5.69,17.96-18.12.33-12.42-34.99-17.08-34.99-17.08,0,0-28.36.52-48.63-2.59Z"/><path class="cls-21" d="m385.7,944.04c20.27-3.11,43.05-20.7,69.96-28.98,26.91-8.28,47.61-9.89,72.98-11.39,25.36-1.49,101.96-6.73,131.47-3.11s77.12,10.35,76.09,25.88c-1.04,15.53-18.12,12.53-12.94,20.7,5.18,8.17,93.17-8.8,93.17,20.7s-93.17,25.43-93.17,25.43c0,0-74.53-11.97-81.26-8.86s-7.25,6.73-7.25,6.73c0,0,7.76,3.65,3.62,9.38s-14.49,5.73-14.49,5.73c0,0-45.01-2.14-62.37-5.73-17.36-3.59-30.65-7.25-48.39-7.25-17.75,0-11.17,3.69-17.75,7.25-6.58,3.56-24.69,8.09-43.85,8.73-19.15.64-19.71,1.45-35.2,0-15.48-1.45-21.14-1.66-25.88-3s-13.65-1.14-12.71-5.73,12.19-5.56,11.16-12.49-13.77-2.07-27.5-3.11c-13.74-1.03-41.33-3.11-41.33-3.11,0,0-17.64-5.69-17.96-18.12-.33-12.42,34.99-17.08,34.99-17.08,0,0,28.36.52,48.63-2.59Z"/><path class="cls-21" d="m582.42,562.87c37.51-5.75,79.66-38.31,129.47-53.64,49.81-15.33,88.12-18.31,135.06-21.07,46.94-2.77,188.7-12.45,243.3-5.75,54.6,6.7,142.72,19.16,140.8,47.89-1.92,28.74-33.52,23.19-23.95,38.31,9.58,15.12,172.41-16.28,172.41,38.31s-172.41,47.05-172.41,47.05c0,0-137.93-22.15-150.38-16.4-12.45,5.75-13.41,12.45-13.41,12.45,0,0,14.37,6.75,6.7,17.36s-26.82,10.61-26.82,10.61c0,0-83.3-3.97-115.42-10.61-32.12-6.64-56.72-13.41-89.56-13.41s-20.67,6.82-32.84,13.41c-12.18,6.59-45.7,14.97-81.14,16.17-35.44,1.19-36.48,2.68-65.13,0-28.65-2.68-39.11-3.08-47.89-5.56-8.78-2.48-25.26-2.11-23.53-10.61,1.73-8.5,22.57-10.29,20.65-23.11s-25.48-3.84-50.9-5.75c-25.42-1.91-76.49-5.75-76.49-5.75,0,0-32.64-10.54-33.25-33.52-.61-22.99,64.74-31.61,64.74-31.61,0,0,52.48.96,89.99-4.79Z"/></g><g id="tracteur"><path class="cls-21" d="m448.91,80.13l-102.53,1.72-24.07,63.18s-19.74,2.76-38.89,6.66c-19.15,3.9-24.54,6.94-44.39,12.55-19.85,5.61-33.92,13.77-33.92,13.77l12.94-.52s.95,6.36-2.07,13.76-14.45,10.32-14.45,10.32c0,0-3.35.6-5.16,2.75s-2.75,7.57-2.75,7.57l35.78,1.72s8.83-9.98,24.08-9.29c15.25.69,24.43,9.29,24.43,9.29h74.31l6.2-12.73,10.67-23.74s-1.72.69-4.13,0c-2.41-.69-4.36-3.1-4.36-3.1,0,0,29.82-23.4,51.49-22.71,29.27.93,42.49,11.81,42.49,11.81l-5.68-83.03Zm-43.43,63.73h-65.54l18.84-53.16,46.71-1.03v54.19Zm12.64-4.39l-2.32-49.8h21.68l4.39,49.8h-23.74Z"/><polygon class="cls-22" points="346.39 81.85 339.93 67.49 449.08 67.49 448.91 80.13 346.39 81.85"/><path class="cls-17" d="m412.1,151.35c43.69-.57,62.27,31.22,62.27,31.22,0,0,2.58,3.87-1.55,6.97s-7.48-1.55-7.48-1.55c0,0-21.76-31.31-53.24-28.64s-43.01,17.81-43.01,17.81c0,0-1.94.65-4.13,0s-4.36-3.1-4.36-3.1c0,0,21.33-22.31,51.49-22.71Z"/><path class="cls-16" d="m384.81,167.63s6.42-2.75,11.93-4.59,11.81-2.41,11.81-2.41c0,0,1.15,3.67,5.16,3.5s5.5-3.5,5.5-3.5c0,0,9.17.92,14.68,2.98s9.4,4.47,9.4,4.47c0,0-1.83,3.56.92,5.73s7.23,0,7.23,0l8.03,7.57,5.62,7.34s-1.83,4.13,0,7.34,4.24,2.41,4.24,2.41c0,0,4.59,6.08,4.59,13.07s-1.83,11.01-1.83,11.01c0,0-4.82,0-4.82,4.47,0,4.47,2.18,4.82,2.18,4.82,0,0,0,2.64-1.38,9.29s-6.42,9.63-6.42,9.63c0,0-4.7-1.61-6.77,0s-1.38,5.62-1.38,5.62c0,0-2.06,3.33-6.88,6.42s-11.81,5.16-11.81,5.16c0,0-3.21-3.67-7.45-1.49-4.24,2.18-4.82,4.36-4.82,4.36,0,0-1.95,1.95-13.3,1.38-11.35-.57-12.39-2.29-12.39-2.29,0,0-.34-3.67-3.78-4.59s-5.96,2.06-5.96,2.06c0,0-6.65.11-12.27-3.1-5.62-3.21-8.14-6.54-8.14-6.54,0,0,1.83-5.85-1.49-8.72-3.33-2.87-5.73-1.49-5.73-1.49,0,0-6.38-7.38-7.11-11.7l-1.83-10.78s4.47-.92,4.47-6.08-3.67-6.42-3.67-6.42c0,0-.8-.69-.8-6.88s3.56-8.03,3.56-8.03c0,0,4.93,0,6.08-4.01,1.15-4.01-.34-6.88-.34-6.88,0,0,3.44-4.7,6.65-7.68s8.49-5.73,8.49-5.73c0,0,4.13,1.61,7.8-.34s2.06-5.39,2.06-5.39Z"/><path class="cls-16" d="m205.12,178.01l12.94-.52s1.46,6.28-2.07,13.76-15.31,10.54-15.31,10.54c0,0-4.38-3.05-3.26-11.4s7.7-12.39,7.7-12.39Z"/><circle class="cls-16" cx="253.39" cy="241.08" r="36.9"/><circle class="cls-21" cx="412.19" cy="218.03" r="36.9"/><circle class="cls-21" cx="253.48" cy="240.98" r="22.62"/><path class="cls-11" d="m193.63,211.9s-2.61,7.45-2.3,15.71.57,15.25.57,15.25c0,0,2.98,4.61,10.89,7.23s15.55,2.62,15.55,2.62c0,0-2.57-13.47-.17-22.72,2.39-9.25,10.55-16.36,10.55-16.36l-35.11-1.72Z"/><path class="cls-11" d="m277.92,213.62h74.31s2.75.57,2.75,5.39-4.47,6.08-4.47,6.08c0,0,1.03,8.03,1.83,10.78s2.81,5.97,2.81,5.97h-64.89s.89-5.74-2.75-14.78-9.61-13.44-9.61-13.44Z"/><path class="cls-17" d="m453.71,150.26l.88,12.9,11.55,9.33v-19.65s-.08-.42-.88-1.5-2.35-1.08-2.35-1.08h-9.2Z"/><path class="cls-22" d="m276.24,153.26l16.68-3.41v-2.97h5.64v-46.73s.11-2.7-1.2-3.67-4.82-.86-4.82-.86v-28.5s.33-2.44,1.37-3.63c1.44-1.64,3.62-2.1,3.62-2.1h3.61v-5.91l-7.74.06s-7.29.36-11.07,4.64c-2.98,3.38-2.7,7.31-2.7,7.31l-.17,28.81-3.22.17s-1.19.4-2.28,1.72-1.02,2.38-1.02,2.38l-.53,46.3h3.78l.04,6.38Z"/><g><path d="m222.18,415.16v-22.38h-41.87v-22.06l26.71-96.9h43.96v95.37h7.54v23.58h-7.54v22.38h-28.8Zm-16.68-45.96h16.68v-71.15l-16.68,71.15Z"/><path d="m300.63,417.09c-10.86,0-19.72-2.69-26.59-8.06s-10.31-13.62-10.31-24.75v-21.02h29.36v12.11c0,2.51.15,4.95.44,7.3s.98,4.28,2.05,5.78,2.75,2.25,5.05,2.25c3.05,0,5.05-1.03,6.02-3.09s1.44-4.69,1.44-7.9v-27.75c0-2.3-.15-4.57-.44-6.82s-.95-4.12-1.97-5.61-2.65-2.25-4.89-2.25c-5.35,0-8.02,3.88-8.02,11.63h-25.91v-75.08h67.3v26.47h-40.51v19.89c1.39-1.71,3.28-3.22,5.66-4.53s5.17-1.97,8.38-1.97c6.42,0,11.64,1.23,15.68,3.69s7.14,5.88,9.3,10.27,3.66,9.47,4.49,15.24,1.24,11.98,1.24,18.61c0,8.5-.44,16.16-1.32,22.98s-2.62,12.66-5.21,17.53-6.39,8.6-11.39,11.19-11.62,3.89-19.85,3.89Z"/><path d="m375.95,372.73c-9.95,0-17.66-3.06-23.14-9.18s-8.22-14.29-8.22-24.51v-29.12c0-10.8,2.59-19.09,7.78-24.87,5.19-5.78,13.05-8.66,23.58-8.66s18.41,2.89,23.62,8.66c5.21,5.78,7.82,14.06,7.82,24.87v29.12c0,10.21-2.74,18.38-8.22,24.51-5.48,6.12-13.22,9.18-23.22,9.18Zm0-21.02c2.09,0,3.85-.76,5.29-2.29s2.17-3.41,2.17-5.66v-38.98c0-3.16-.45-5.64-1.36-7.46s-2.94-2.73-6.1-2.73-5.12.92-6.06,2.77-1.4,4.32-1.4,7.42v38.98c0,2.25.72,4.13,2.17,5.66s3.21,2.29,5.29,2.29Zm18.21,63.37l43.31-141.74h25.99l-43.4,141.74h-25.91Zm85.83,1.44c-9.95,0-17.66-3.06-23.14-9.18-5.48-6.12-8.22-14.29-8.22-24.51v-29.12c0-10.8,2.59-19.09,7.78-24.87s13.05-8.66,23.58-8.66,18.41,2.89,23.62,8.66,7.82,14.06,7.82,24.87v29.12c0,10.21-2.74,18.38-8.22,24.51s-13.22,9.18-23.22,9.18Zm0-21.02c2.09,0,3.85-.76,5.29-2.29s2.17-3.41,2.17-5.66v-38.98c0-3.16-.45-5.64-1.36-7.46s-2.94-2.73-6.1-2.73-5.12.92-6.06,2.77-1.4,4.32-1.4,7.42v38.98c0,2.25.72,4.13,2.17,5.66s3.21,2.29,5.29,2.29Z"/></g></g><g id="gouttes_d_eau"><g id="Calque_4"><g><path class="cls-21" d="m210.02,23.68s-3.4,5.61-3.4,7.7,1.9,3.44,3.4,3.44,3.4-1.45,3.4-3.35-2.54-6.56-3.4-7.79Z"/><path class="cls-2" d="m209.93,34.28h-.14c-.09,0-.14-.05-.14-.14s.05-.14.14-.14h0s1.27.05,2.08-.68c.45-.41.68-1.04.72-1.77,0-.09.05-.14.14-.14s.14.05.14.14c-.05.81-.27,1.49-.77,1.95-.81.68-1.86.77-2.17.77h0Z"/></g></g><g id="Calque_4-2"><g><path class="cls-21" d="m250.09,34.82s-3.4,5.61-3.4,7.7,1.9,3.44,3.4,3.44,3.4-1.45,3.4-3.35-2.54-6.56-3.4-7.79Z"/><path class="cls-2" d="m250,45.41h-.14c-.09,0-.14-.05-.14-.14s.05-.14.14-.14h0s1.27.05,2.08-.68c.45-.41.68-1.04.72-1.77,0-.09.05-.14.14-.14s.14.05.14.14c-.05.81-.27,1.49-.77,1.95-.81.68-1.86.77-2.17.77h0Z"/></g></g><g id="Calque_4-3"><g><path class="cls-21" d="m286.78,12.55s-3.4,5.61-3.4,7.7,1.9,3.44,3.4,3.44,3.4-1.45,3.4-3.35-2.54-6.56-3.4-7.79Z"/><path class="cls-2" d="m286.69,23.14h-.14c-.09,0-.14-.05-.14-.14s.05-.14.14-.14h0s1.27.05,2.08-.68c.45-.41.68-1.04.72-1.77,0-.09.05-.14.14-.14s.14.05.14.14c-.05.81-.27,1.49-.77,1.95-.81.68-1.86.77-2.17.77h0Z"/></g></g><g id="Calque_4-4"><g><path class="cls-21" d="m324.11,29.25s-3.4,5.61-3.4,7.7,1.9,3.44,3.4,3.44,3.4-1.45,3.4-3.35-2.54-6.56-3.4-7.79Z"/><path class="cls-2" d="m324.02,39.85h-.14c-.09,0-.14-.05-.14-.14s.05-.14.14-.14h0s1.27.05,2.08-.68c.45-.41.68-1.04.72-1.77,0-.09.05-.14.14-.14s.14.05.14.14c-.05.81-.27,1.49-.77,1.95-.81.68-1.86.77-2.17.77h0Z"/></g></g><g id="Calque_4-5"><g><path class="cls-21" d="m372.71,23.68s-3.4,5.61-3.4,7.7,1.9,3.44,3.4,3.44,3.4-1.45,3.4-3.35-2.54-6.56-3.4-7.79Z"/><path class="cls-2" d="m372.62,34.28h-.14c-.09,0-.14-.05-.14-.14s.05-.14.14-.14h0s1.27.05,2.08-.68c.45-.41.68-1.04.72-1.77,0-.09.05-.14.14-.14s.14.05.14.14c-.05.81-.27,1.49-.77,1.95-.81.68-1.86.77-2.17.77h0Z"/></g></g><g id="Calque_4-6"><g><path class="cls-21" d="m360.61,46.51s-3.4,5.61-3.4,7.7,1.9,3.44,3.4,3.44,3.4-1.45,3.4-3.35-2.54-6.56-3.4-7.79Z"/><path class="cls-2" d="m360.52,57.1h-.14c-.09,0-.14-.05-.14-.14s.05-.14.14-.14h0s1.27.05,2.08-.68c.45-.41.68-1.04.72-1.77,0-.09.05-.14.14-.14s.14.05.14.14c-.05.81-.27,1.49-.77,1.95-.81.68-1.86.77-2.17.77h0Z"/></g></g><g id="Calque_4-7"><g><path class="cls-21" d="m432.22,12.55s-3.4,5.61-3.4,7.7,1.9,3.44,3.4,3.44,3.4-1.45,3.4-3.35-2.54-6.56-3.4-7.79Z"/><path class="cls-2" d="m432.13,23.14h-.14c-.09,0-.14-.05-.14-.14s.05-.14.14-.14h0s1.27.05,2.08-.68c.45-.41.68-1.04.72-1.77,0-.09.05-.14.14-.14s.14.05.14.14c-.05.81-.27,1.49-.77,1.95-.81.68-1.86.77-2.17.77h0Z"/></g></g><g id="Calque_4-8"><g><path class="cls-21" d="m486.97,89.68s-3.4,5.61-3.4,7.7,1.9,3.44,3.4,3.44,3.4-1.45,3.4-3.35-2.54-6.56-3.4-7.79Z"/><path class="cls-2" d="m486.88,100.27h-.14c-.09,0-.14-.05-.14-.14s.05-.14.14-.14h0s1.27.05,2.08-.68c.45-.41.68-1.04.72-1.77,0-.09.05-.14.14-.14s.14.05.14.14c-.05.81-.27,1.49-.77,1.95-.81.68-1.86.77-2.17.77h0Z"/></g></g><g id="Calque_4-9"><g><path class="cls-21" d="m466.14,44.34s-3.4,5.61-3.4,7.7,1.9,3.44,3.4,3.44,3.4-1.45,3.4-3.35-2.54-6.56-3.4-7.79Z"/><path class="cls-2" d="m466.05,54.93h-.14c-.09,0-.14-.05-.14-.14s.05-.14.14-.14h0s1.27.05,2.08-.68c.45-.41.68-1.04.72-1.77,0-.09.05-.14.14-.14s.14.05.14.14c-.05.81-.27,1.49-.77,1.95-.81.68-1.86.77-2.17.77h0Z"/></g></g><g id="Calque_4-10"><g><path class="cls-21" d="m420.04,40.39s-3.4,5.61-3.4,7.7,1.9,3.44,3.4,3.44,3.4-1.45,3.4-3.35-2.54-6.56-3.4-7.79Z"/><path class="cls-2" d="m419.95,50.98h-.14c-.09,0-.14-.05-.14-.14s.05-.14.14-.14h0s1.27.05,2.08-.68c.45-.41.68-1.04.72-1.77,0-.09.05-.14.14-.14s.14.05.14.14c-.05.81-.27,1.49-.77,1.95-.81.68-1.86.77-2.17.77h0Z"/></g></g><g id="Calque_4-11"><g><path class="cls-21" d="m316.54,74.56s-3.4,5.61-3.4,7.7,1.9,3.44,3.4,3.44,3.4-1.45,3.4-3.35-2.54-6.56-3.4-7.79Z"/><path class="cls-2" d="m316.45,85.16h-.14c-.09,0-.14-.05-.14-.14s.05-.14.14-.14h0s1.27.05,2.08-.68c.45-.41.68-1.04.72-1.77,0-.09.05-.14.14-.14s.14.05.14.14c-.05.81-.27,1.49-.77,1.95-.81.68-1.86.77-2.17.77h0Z"/></g></g><g id="Calque_4-12"><g><path class="cls-21" d="m249.73,84.11s-3.4,5.61-3.4,7.7,1.9,3.44,3.4,3.44,3.4-1.45,3.4-3.35-2.54-6.56-3.4-7.79Z"/><path class="cls-2" d="m249.64,94.7h-.14c-.09,0-.14-.05-.14-.14s.05-.14.14-.14h0s1.27.05,2.08-.68c.45-.41.68-1.04.72-1.77,0-.09.05-.14.14-.14s.14.05.14.14c-.05.81-.27,1.49-.77,1.95-.81.68-1.86.77-2.17.77h0Z"/></g></g><g id="Calque_4-13"><g><path class="cls-21" d="m218.36,68.99s-3.4,5.61-3.4,7.7,1.9,3.44,3.4,3.44,3.4-1.45,3.4-3.35-2.54-6.56-3.4-7.79Z"/><path class="cls-2" d="m218.27,79.59h-.14c-.09,0-.14-.05-.14-.14s.05-.14.14-.14h0s1.27.05,2.08-.68c.45-.41.68-1.04.72-1.77,0-.09.05-.14.14-.14s.14.05.14.14c-.05.81-.27,1.49-.77,1.95-.81.68-1.86.77-2.17.77h0Z"/></g></g><g id="Calque_4-14"><g><path class="cls-21" d="m473.91,116.77s-3.4,5.61-3.4,7.7,1.9,3.44,3.4,3.44,3.4-1.45,3.4-3.35-2.54-6.56-3.4-7.79Z"/><path class="cls-2" d="m473.82,127.37h-.14c-.09,0-.14-.05-.14-.14s.05-.14.14-.14h0s1.27.05,2.08-.68c.45-.41.68-1.04.72-1.77,0-.09.05-.14.14-.14s.14.05.14.14c-.05.81-.27,1.49-.77,1.95-.81.68-1.86.77-2.17.77h0Z"/></g></g><g id="Calque_4-15"><g><path class="cls-21" d="m324.11,109.01s-3.4,5.61-3.4,7.7,1.9,3.44,3.4,3.44,3.4-1.45,3.4-3.35-2.54-6.56-3.4-7.79Z"/><path class="cls-2" d="m324.02,119.61h-.14c-.09,0-.14-.05-.14-.14s.05-.14.14-.14h0s1.27.05,2.08-.68c.45-.41.68-1.04.72-1.77,0-.09.05-.14.14-.14s.14.05.14.14c-.05.81-.27,1.49-.77,1.95-.81.68-1.86.77-2.17.77h0Z"/></g></g><g id="Calque_4-16"><g><path class="cls-21" d="m262.24,122.34s-3.4,5.61-3.4,7.7,1.9,3.44,3.4,3.44,3.4-1.45,3.4-3.35-2.54-6.56-3.4-7.79Z"/><path class="cls-2" d="m262.15,132.94h-.14c-.09,0-.14-.05-.14-.14s.05-.14.14-.14h0s1.27.05,2.08-.68c.45-.41.68-1.04.72-1.77,0-.09.05-.14.14-.14s.14.05.14.14c-.05.81-.27,1.49-.77,1.95-.81.68-1.86.77-2.17.77h0Z"/></g></g><g id="Calque_4-17"><g><path class="cls-21" d="m228.74,124.51s-3.4,5.61-3.4,7.7,1.9,3.44,3.4,3.44,3.4-1.45,3.4-3.35-2.54-6.56-3.4-7.79Z"/><path class="cls-2" d="m228.65,135.11h-.14c-.09,0-.14-.05-.14-.14s.05-.14.14-.14h0s1.27.05,2.08-.68c.45-.41.68-1.04.72-1.77,0-.09.05-.14.14-.14s.14.05.14.14c-.05.81-.27,1.49-.77,1.95-.81.68-1.86.77-2.17.77h0Z"/></g></g><g id="Calque_4-18"><g><path class="cls-21" d="m206.63,147.69s-3.4,5.61-3.4,7.7,1.9,3.44,3.4,3.44,3.4-1.45,3.4-3.35-2.54-6.56-3.4-7.79Z"/><path class="cls-2" d="m206.54,158.28h-.14c-.09,0-.14-.05-.14-.14s.05-.14.14-.14h0s1.27.05,2.08-.68c.45-.41.68-1.04.72-1.77,0-.09.05-.14.14-.14s.14.05.14.14c-.05.81-.27,1.49-.77,1.95-.81.68-1.86.77-2.17.77h0Z"/></g></g><g id="Calque_4-19"><g><path class="cls-21" d="m193.63,98.8s-3.4,5.61-3.4,7.7,1.9,3.44,3.4,3.44,3.4-1.45,3.4-3.35-2.54-6.56-3.4-7.79Z"/><path class="cls-2" d="m193.54,109.39h-.14c-.09,0-.14-.05-.14-.14s.05-.14.14-.14h0s1.27.05,2.08-.68c.45-.41.68-1.04.72-1.77,0-.09.05-.14.14-.14s.14.05.14.14c-.05.81-.27,1.49-.77,1.95-.81.68-1.86.77-2.17.77h0Z"/></g></g></g><g id="badge_1er"><polygon class="cls-4" points="436.23 51.71 444.82 59.88 456.52 58.13 458.28 69.93 468.94 75.31 463.35 86.18 468.94 96.73 458.38 102.32 456.62 114.23 447.1 112.36 424.02 112.16 415.53 114.64 414.6 101.81 402.49 97.15 409.53 86.18 401.97 75 414.7 70.34 415.22 57.4 427.74 60.71 436.23 51.71"/><path class="cls-6" d="m423.91,102.32s.47,15.32.41,18.01-.41,18.63-.41,18.63c0,0,3.41-4.97,6.21-7.76l5.49-5.49s3.61,3.44,5.89,6.21l5.8,7.04s-.21-10.56-.41-18.32.41-18.32.41-18.32h-23.39Z"/><circle class="cls-23" cx="436.23" cy="86.8" r="23.6"/><path class="cls-5" d="m433.91,100.32v-20.83c-.37.44-.88.8-1.52,1.07s-1.25.41-1.83.41v-4.32c.54-.08,1.13-.26,1.75-.53s1.21-.65,1.74-1.12.95-1.05,1.24-1.73h4.35v27.05h-5.73Z"/></g><g id="robinet"><g><path d="m1328.59,454.84v-7.19c0-7.47,1.15-14.18,3.46-20.14s5.29-11.49,8.94-16.59c3.65-5.1,7.5-10.11,11.55-15.01,3.93-4.79,7.68-9.71,11.25-14.76,3.56-5.05,6.47-10.52,8.72-16.42,2.25-5.9,3.38-12.53,3.38-19.89,0-3.54-.53-6.57-1.58-9.11-1.05-2.54-3.24-3.81-6.54-3.81-5.02,0-7.53,4.48-7.53,13.43v18.39h-31.65c-.06-1.31-.13-2.79-.21-4.45s-.13-3.25-.13-4.79c0-10.83,1.14-20.03,3.42-27.59,2.28-7.56,6.32-13.32,12.1-17.28,5.79-3.96,13.93-5.94,24.42-5.94,12.49,0,22.2,3.51,29.13,10.52,6.93,7.01,10.39,17.02,10.39,30.02,0,8.84-1.14,16.58-3.42,23.22-2.28,6.64-5.3,12.69-9.07,18.13-3.76,5.45-7.9,10.88-12.4,16.29-3.19,3.82-6.29,7.73-9.28,11.72-2.99,3.99-5.63,8.27-7.91,12.83h41.06v28.4h-78.09Z"/><path d="m1430.64,454.84v-115.99c-2.05,2.45-4.88,4.43-8.47,5.94-3.59,1.51-6.99,2.27-10.18,2.27v-24.04c3.02-.46,6.27-1.44,9.75-2.95,3.48-1.51,6.71-3.59,9.71-6.24,2.99-2.65,5.29-5.86,6.89-9.62h24.21v150.63h-31.91Z"/><path d="m1504.8,409.68c-10.61,0-18.83-3.26-24.68-9.79-5.84-6.53-8.77-15.24-8.77-26.13v-31.05c0-11.52,2.77-20.36,8.3-26.52,5.53-6.16,13.91-9.24,25.15-9.24s19.63,3.08,25.19,9.24c5.56,6.16,8.34,15,8.34,26.52v31.05c0,10.89-2.92,19.6-8.77,26.13-5.84,6.53-14.1,9.79-24.76,9.79Zm0-22.41c2.22,0,4.11-.81,5.65-2.44,1.54-1.63,2.31-3.64,2.31-6.03v-41.57c0-3.36-.48-6.02-1.45-7.95s-3.14-2.91-6.5-2.91-5.46.98-6.46,2.95c-1,1.97-1.5,4.6-1.5,7.91v41.57c0,2.4.77,4.41,2.31,6.03,1.54,1.63,3.42,2.44,5.65,2.44Zm19.42,67.57l46.19-151.14h27.71l-46.28,151.14h-27.63Zm91.52,1.54c-10.61,0-18.83-3.26-24.68-9.79s-8.77-15.24-8.77-26.13v-31.05c0-11.52,2.77-20.36,8.3-26.52,5.53-6.16,13.91-9.24,25.15-9.24s19.63,3.08,25.19,9.24c5.56,6.16,8.34,15,8.34,26.52v31.05c0,10.89-2.92,19.6-8.77,26.13s-14.1,9.79-24.76,9.79Zm0-22.41c2.22,0,4.11-.81,5.65-2.44,1.54-1.63,2.31-3.64,2.31-6.03v-41.57c0-3.36-.48-6.02-1.45-7.95s-3.14-2.91-6.5-2.91-5.46.98-6.46,2.95c-1,1.97-1.5,4.6-1.5,7.91v41.57c0,2.4.77,4.41,2.31,6.03,1.54,1.63,3.42,2.44,5.65,2.44Z"/></g><path class="cls-21" d="m1568.71,309.25l12.67,1.9,14.34.38s-8.11,8.34-9.83,10.41c-1.73,2.07,1.36,8.96-.86,13.63-1.47,3.08-3.8,5.69-3.8,5.69,0,0-5.52,6.38-3.97,2.24,1.55-4.14,1.55-4.31,3.8-7.59s1.15-7.59,1.15-7.59c0,0-.85-5.72,0-7.94,2-5.22-1.5-3.28-1.5-3.28,0,0-9.66,6.21-9.66,10.52s-.8,4.23-1.14,6.81.77,9.06-1.2,5.61c-1.97-3.45,0-9.66,0-9.66,0,0,.09-5.26,1.4-7.85,1.31-2.59.91-4.08,1.81-5.26,1.81-2.37-1.09-2.15-2.55-3.06-.3-.19-1.82.36-3.04,2.83l2.38-7.79Z"/><path class="cls-4" d="m1506.46,93.81v5.77s14.58,1.74,21,3.48c6.43,1.73,7.82,2.1,7.82,2.1v21.77s3.91.33,5.86,1.47c3.74,2.18,3.42,3.91,3.42,3.91,0,0,1.7,32.2.72,32.2s-12.41,2.16-12.41,2.16l.46,17.41s33.54-3.11,59.11,19.29c25.56,22.4,25.4,71.08,25.4,71.08,0,0,5.37,3.09,6.35,4.88s.98,4.4.98,4.4l-.98,19.05s-10.58,9.61-35.66,8.79c-25.08-.81-36.64-8.3-36.64-8.3l.49-21s.05-1.48,1.41-3.67c1.36-2.19,5.92-3.98,5.92-3.98,0,0-1.3-17.75-9.12-24.42-7.82-6.68-20.84-5.7-20.84-5.7,0,0-5.05,9.61-9.12,12.7-4.07,3.09-11.03,5.05-13.51,5.21-2.48.16-37.94.41-39.08.33s-10.58-2.44-15.79-7.65-6.84-10.1-6.84-10.1l-54.06-.16s-3.26,9.28-7,14.17c-3.74,4.88-8.3,5.21-8.3,5.21h-21.66s-21.66-11.07-18.56-53.41c3.09-42.33,16.61-44.45,16.61-44.45l23.45-.98s7.16,3.26,10.58,8.14,4.88,11.56,4.88,11.56l50.96-.33.49-18.24-12.7-1.95-.33-32.89s.49-1.79,3.74-3.42,5.54-1.3,5.54-1.3l-.16-20.52s4.56-3.58,11.72-4.56c7.16-.98,13.51-1.3,13.51-1.3l-.14-6.67,42.48-.07Z"/><g id="ombres_robinet"><polygon class="cls-20" points="1463.99 93.89 1467.43 93.88 1467.43 100.17 1464.13 100.56 1463.99 93.89"/><polygon class="cls-20" points="1441.61 104.75 1441.61 127.11 1439.05 126.94 1438.89 106.42 1441.61 104.75"/><polygon class="cls-20" points="1429.77 131.66 1430.1 164.55 1431.7 164.8 1431.7 129.35 1430.49 130.48 1429.77 131.66"/><polygon class="cls-20" points="1442.8 166.5 1443.44 166.5 1444.56 184.74 1442.31 184.74 1442.8 166.5"/><polygon class="cls-20" points="1442.31 184.74 1391.34 185.07 1391.34 186.24 1444.56 184.74 1442.31 184.74"/><path class="cls-20" d="m1352.43,166.34s-13.84,1.56-16.61,44.45c-2.77,42.89,18.56,53.41,18.56,53.41,0,0-19.34-17.12-16.35-51.77s14.39-46.09,14.39-46.09Z"/><path class="cls-20" d="m1529.75,244.5s16.88-1.11,22.61,7.53c5.72,8.64,7.35,22.6,7.35,22.6,0,0,1.05-13.25-6.06-23.35s-23.9-6.77-23.9-6.77Z"/><path class="cls-20" d="m1552.38,282.27l-.49,21,2.01,1.09.54-26.57s-1.25,1.18-1.66,2.83l-.41,1.65Z"/></g><path class="cls-21" d="m1615.74,353.65c12.11,0,17.08,3.29,17.08,3.29,0,0,.97,2.02-.97,3.7-1.94,1.68-1.75,1.45-5.24.28-3.54-1.18-2.5-.33-5.81-.67-4.13-.43-2.17-3.06-7.34-2.5-3.14.34-2.18.23-2.7.33-2.22.4-.98.29-3.13.54-1.12.13-.89,0-2.07-.3s-1.7,1.13-3.04-.19c-1.34-1.32-3.99-1.21-3.99-1.21,0,0,6.12-3.26,17.21-3.26Z"/><path class="cls-16" d="m1442.31,184.74l.49-18.24-12.7-1.95-.33-32.89s.14-1.8,3.74-3.42,5.54-1.3,5.54-1.3l-.16-20.52s4.04-3.26,11.72-4.56c7.68-1.3,13.51-1.3,13.51-1.3l42.33-.98s9.59,1.22,13.58,1.95,15.24,3.63,15.24,3.63v21.77s2.33-.12,5.86,1.47c3.54,1.58,3.42,3.91,3.42,3.91,0,0,.64,12.96.79,17.87s-.07,14.34-.07,14.34l-12.41,2.16.46,17.41s.03,22.52-.8,31.18-2.79,29.23-2.79,29.23c0,0-4.93,9.22-9.12,12.7-4.19,3.48-13.51,5.21-13.51,5.21l-39.08.33s-10.45-.71-15.79-7.65c-5.34-6.95-6.84-10.1-6.84-10.1,0,0-.84-17.61-1.97-36.07s-1.13-24.18-1.13-24.18Z"/><path class="cls-16" d="m1559.71,274.62l58.13-.16s5.37,2.2,6.35,4.88.98,4.4.98,4.4l-.98,19.05s-9.77,9.75-35.66,8.79c-25.89-.96-36.64-8.3-36.64-8.3l.49-21s-.05-2.36,2.06-4.47,5.26-3.18,5.26-3.18Z"/></g><g id="maison"><polygon class="cls-4" points="1545.53 62.5 1545.53 93.81 1431.99 93.81 1431.99 60.05 1465.81 60.05 1503.61 23.25 1545.53 62.5"/><polygon class="cls-16" points="1503.61 23.25 1545.53 62.5 1553.38 62.5 1503.61 13.98 1464.12 54.21 1427.88 54.21 1427.88 60.05 1431.99 60.05 1465.81 60.05 1503.61 23.25"/><polyline class="cls-4" points="1430.6 54.21 1447.69 27.98 1489.68 28.17 1464.12 54.21 1430.6 54.21"/><polygon class="cls-4" points="1542.51 27.63 1547.44 56.72 1517.62 27.63 1542.51 27.63"/><polygon class="cls-16" points="1456.27 32.98 1466.17 32.98 1466.17 23.16 1467.76 23.16 1467.76 16.03 1453.73 16.03 1453.73 22.91 1456.03 23.03 1456.27 32.98"/><polygon class="cls-16" points="1438.03 66.88 1460.75 66.4 1460.75 84.51 1438.03 84.51 1438.03 66.88"/><polygon class="cls-16" points="1504.21 66.87 1504.1 84.51 1536.35 84.51 1536.35 66.88 1539.85 66.88 1519.68 49.36 1500.23 66.94 1504.21 66.87"/><polygon class="cls-16" points="1475.55 93.81 1475.55 64.38 1493.35 64.38 1493.83 93.81 1475.55 93.81"/></g><g id="usine"><g><path d="m449.78,970.13v-24.77h-46.34v-24.41l29.56-107.24h48.65v105.55h8.34v26.1h-8.34v24.77h-31.87Zm-18.46-50.87h18.46v-78.74l-18.46,78.74Z"/><path d="m530.12,923.17c-11.01,0-19.54-3.39-25.61-10.16s-9.1-15.82-9.1-27.12v-32.22c0-11.95,2.87-21.13,8.61-27.52,5.74-6.39,14.44-9.59,26.1-9.59s20.37,3.2,26.14,9.59c5.77,6.39,8.66,15.56,8.66,27.52v32.22c0,11.3-3.03,20.34-9.1,27.12s-14.63,10.16-25.7,10.16Zm0-23.26c2.31,0,4.26-.84,5.86-2.53s2.4-3.77,2.4-6.26v-43.14c0-3.49-.5-6.24-1.51-8.26s-3.25-3.02-6.75-3.02-5.67,1.02-6.7,3.06-1.55,4.78-1.55,8.21v43.14c0,2.49.8,4.57,2.4,6.26s3.55,2.53,5.86,2.53Zm20.15,70.13l47.94-156.86h28.76l-48.03,156.86h-28.67Zm94.98,1.6c-11.01,0-19.54-3.39-25.61-10.16-6.07-6.78-9.1-15.82-9.1-27.12v-32.22c0-11.95,2.87-21.13,8.61-27.52,5.74-6.39,14.44-9.59,26.1-9.59s20.37,3.2,26.14,9.59,8.66,15.56,8.66,27.52v32.22c0,11.3-3.03,20.34-9.1,27.12s-14.63,10.16-25.7,10.16Zm0-23.26c2.31,0,4.26-.84,5.86-2.53s2.4-3.77,2.4-6.26v-43.14c0-3.49-.5-6.24-1.51-8.26s-3.25-3.02-6.75-3.02-5.67,1.02-6.7,3.06-1.55,4.78-1.55,8.21v43.14c0,2.49.8,4.57,2.4,6.26s3.55,2.53,5.86,2.53Z"/></g><g><rect class="cls-8" x="612.6" y="580.04" width="46.32" height="233.13"/><rect class="cls-19" x="614.46" y="571.04" width="42.59" height="9.01"/><rect class="cls-15" x="415.64" y="706.35" width="243.28" height="106.83"/><rect class="cls-3" x="410.48" y="698.25" width="205.91" height="8.11"/><rect class="cls-12" x="465.37" y="779.01" width="16.19" height="34.17"/><rect class="cls-12" x="422.45" y="753.21" width="22.26" height="11.46"/><rect class="cls-12" x="462.11" y="753.21" width="22.26" height="11.46"/><rect class="cls-12" x="501.76" y="753.21" width="22.26" height="11.46"/><rect class="cls-12" x="541.42" y="753.21" width="22.26" height="11.46"/><rect class="cls-12" x="581.08" y="753.21" width="22.26" height="11.46"/><rect class="cls-12" x="422.77" y="725.77" width="22.26" height="11.46"/><rect class="cls-12" x="462.43" y="725.77" width="22.26" height="11.46"/><rect class="cls-12" x="502.09" y="725.77" width="22.26" height="11.46"/><rect class="cls-12" x="541.75" y="725.77" width="22.26" height="11.46"/><rect class="cls-12" x="581.41" y="725.77" width="22.26" height="11.46"/><rect class="cls-12" x="422.45" y="779.01" width="22.26" height="11.46"/><rect class="cls-12" x="501.76" y="779.01" width="22.26" height="11.46"/><rect class="cls-12" x="541.42" y="779.01" width="22.26" height="11.46"/><rect class="cls-12" x="581.08" y="779.01" width="22.26" height="11.46"/><rect class="cls-14" x="612.6" y="706.35" width="46.32" height="106.83"/><rect class="cls-1" x="616.39" y="698.25" width="48.63" height="8.11"/><path class="cls-13" d="m766.99,463.81s-13.53-15.16-27.59-3.75c0,0-21.65-4.24-28.93,10.59,0,0-10.08-3.91-17.64,4.4,0,0-11.25-3.75-14.94,6.68,0,0-13.35-2.77-17.22,12.06,0,0-25.13.65-24.95,20.05,0,0-16.09,8.84-5.98,26.33,0,0-8.57,7.16.94,16.42,0,0-8.34,5.33-2.94,14.43h17.03s6.06-5.68,5-10.89c0,0,8.96,3.26,12.12-5.7,0,0,12.65-1.96,9.49-17.44,0,0,13.35,5.7,18.45-6.03,0,0,17.57,3.75,20.91-7.99,0,0,19.33,2.12,21.79-11.25,0,0,18.98,2.93,21.44-8.8,0,0,20.38-.98,17.92-17.44,0,0,8.79-12.39-4.92-21.68Z"/></g></g><g id="centrale_nucléaire"><g><path d="m1194.92,961.23c-13.27,0-22.93-3.5-28.97-10.51-6.04-7.01-9.06-17.58-9.06-31.7v-15.72h30.85v15.81c0,3.99.5,7.36,1.5,10.13s3.23,4.14,6.71,4.14,5.78-1.5,6.75-4.49c.97-2.99,1.45-7.88,1.45-14.66v-3.76c0-5.18-.87-9.71-2.61-13.59s-5.14-5.81-10.21-5.81c-.63,0-1.18.01-1.67.04s-.9.07-1.24.13v-27c5.18,0,9.14-1.15,11.88-3.46s4.1-6.17,4.1-11.58c0-8.49-2.45-12.73-7.35-12.73-3.19,0-5.34,1.24-6.45,3.72-1.11,2.48-1.67,5.63-1.67,9.44v4.53h-31.11c-.06-.68-.1-1.51-.13-2.48s-.04-1.91-.04-2.82c0-13.79,3.22-23.9,9.66-30.34,6.44-6.44,16.29-9.66,29.57-9.66,25.64,0,38.46,13.33,38.46,39.99,0,7.41-1,13.52-2.99,18.33-1.99,4.81-5.7,8.19-11.11,10.13,4.27,2.05,7.43,4.67,9.49,7.86,2.05,3.19,3.39,7.15,4.02,11.88.63,4.73.94,10.45.94,17.18,0,15.04-3.15,26.63-9.44,34.78-6.3,8.15-16.74,12.22-31.32,12.22Z"/><path d="m1283.29,960.88c-12.7,0-22.52-3.56-29.44-10.68-6.92-7.12-10.38-17.38-10.38-30.76v-67.85c0-14.13,3.29-24.97,9.87-32.52,6.58-7.55,16.56-11.32,29.95-11.32s23.44,3.77,30,11.32c6.55,7.55,9.83,18.39,9.83,32.52v67.85c0,13.39-3.45,23.64-10.34,30.76-6.89,7.12-16.72,10.68-29.48,10.68Zm0-27.69c2.34,0,4.16-1.05,5.47-3.16s1.97-4.47,1.97-7.09v-74.26c0-3.53-.38-6.62-1.15-9.27s-2.86-3.97-6.28-3.97-5.51,1.32-6.28,3.97c-.77,2.65-1.15,5.74-1.15,9.27v74.26c0,2.62.67,4.99,2.01,7.09s3.15,3.16,5.43,3.16Z"/><path d="m1363.53,914.4c-10.6,0-18.81-3.26-24.65-9.78-5.84-6.52-8.76-15.23-8.76-26.11v-31.02c0-11.51,2.76-20.34,8.29-26.49,5.53-6.15,13.9-9.23,25.12-9.23s19.61,3.08,25.17,9.23c5.55,6.15,8.33,14.98,8.33,26.49v31.02c0,10.88-2.92,19.58-8.76,26.11-5.84,6.52-14.09,9.78-24.74,9.78Zm0-22.39c2.22,0,4.1-.81,5.64-2.44,1.54-1.62,2.31-3.63,2.31-6.02v-41.53c0-3.36-.48-6.01-1.45-7.95-.97-1.94-3.13-2.91-6.49-2.91s-5.46.98-6.45,2.95c-1,1.97-1.5,4.6-1.5,7.9v41.53c0,2.39.77,4.4,2.31,6.02s3.42,2.44,5.64,2.44Zm19.4,67.51l46.15-151h27.69l-46.23,151h-27.6Zm91.44,1.54c-10.6,0-18.81-3.26-24.65-9.78s-8.76-15.23-8.76-26.11v-31.02c0-11.51,2.76-20.34,8.29-26.49,5.53-6.15,13.9-9.23,25.12-9.23s19.61,3.08,25.17,9.23c5.55,6.15,8.33,14.98,8.33,26.49v31.02c0,10.88-2.92,19.58-8.76,26.11-5.84,6.52-14.09,9.78-24.74,9.78Zm0-22.39c2.22,0,4.1-.81,5.64-2.44s2.31-3.63,2.31-6.02v-41.53c0-3.36-.48-6.01-1.45-7.95-.97-1.94-3.13-2.91-6.49-2.91s-5.46.98-6.45,2.95-1.5,4.6-1.5,7.9v41.53c0,2.39.77,4.4,2.31,6.02s3.42,2.44,5.64,2.44Z"/></g><g><path class="cls-10" d="m1147.99,806.31s22.23-65.23,26.73-92.64c4.49-27.42-12.57-61.18-12.57-61.18,0,0,6.89-13.56,50.16-13.56s48.88,14.14,48.88,14.14c0,0-16.28,31.17-11.48,62.05,4.81,30.88,21.44,91.2,21.44,91.2h-123.15Z"/><path class="cls-18" d="m1368.22,804.97l-2-240.12s-2.27.76-6.27.76-5.74-.76-5.74-.76l-4.81,240.12h18.82Z"/><path class="cls-10" d="m1364.2,811.76s18.3-59.01,22.79-87.75c4.49-28.75-8.64-73.53-8.64-73.53,0,0,6.89-14.22,50.16-14.22s48.88,14.83,48.88,14.83c0,0-14.05,31.77-9.24,64.15s35.77,95.02,35.77,95.02l-139.72,1.51Z"/><rect class="cls-9" x="1197.59" y="754.55" width="218.29" height="57.22"/></g></g><g id="titre_infographie"><g><path d="m748.3,367.58v-25.56h7.84c1.31,0,2.29.3,2.96.89s1.12,1.43,1.34,2.5.34,2.33.34,3.77-.18,2.51-.53,3.34-1.02,1.41-2,1.73c.8.16,1.37.56,1.69,1.2s.49,1.45.49,2.46v9.67h-5.04v-10.01c0-.75-.15-1.21-.46-1.39s-.8-.27-1.47-.27v11.66h-5.17Zm5.2-16.09h1.23c.71,0,1.06-.77,1.06-2.31,0-1-.08-1.65-.23-1.96s-.45-.46-.87-.46h-1.19v4.73Z"/><path d="m762.47,367.58v-25.56h10.23v4.94h-5.03v4.98h4.82v4.81h-4.82v5.85h5.36v4.98h-10.56Z"/><path d="m774.72,367.58v-25.56h6.75c1.41,0,2.53.31,3.36.94s1.42,1.53,1.78,2.69.54,2.55.54,4.15-.15,2.9-.45,4.05-.84,2.04-1.6,2.67-1.86.94-3.28.94h-2.08v10.12h-5.03Zm5.03-14.71h.29c.95,0,1.53-.27,1.74-.8s.32-1.32.32-2.35c0-.97-.1-1.72-.31-2.24s-.7-.79-1.47-.79h-.57v6.19Z"/><path d="m787.63,367.58l2.47-25.56h8.67l2.43,25.56h-4.84l-.36-4.12h-3.08l-.32,4.12h-4.97Zm5.65-8.21h2.32l-1.12-13h-.23l-.97,13Z"/><path d="m802.76,367.58v-25.56h7.84c1.31,0,2.29.3,2.96.89s1.12,1.43,1.34,2.5.34,2.33.34,3.77-.18,2.51-.53,3.34-1.02,1.41-2,1.73c.8.16,1.37.56,1.69,1.2s.49,1.45.49,2.46v9.67h-5.04v-10.01c0-.75-.15-1.21-.46-1.39s-.8-.27-1.47-.27v11.66h-5.17Zm5.2-16.09h1.23c.71,0,1.06-.77,1.06-2.31,0-1-.08-1.65-.23-1.96s-.45-.46-.87-.46h-1.19v4.73Z"/><path d="m819.13,367.58v-20.65h-3.04v-4.91h11.18v4.91h-3.04v20.65h-5.11Z"/><path d="m828.47,367.58v-25.56h4.94v25.56h-4.94Z"/><path d="m837.63,367.58v-20.65h-3.04v-4.91h11.18v4.91h-3.04v20.65h-5.11Z"/><path d="m846.97,367.58v-25.56h4.94v25.56h-4.94Z"/><path d="m860.05,367.81c-2.04,0-3.6-.62-4.68-1.85s-1.62-3.02-1.62-5.35v-12.14c0-2.19.53-3.85,1.6-4.98s2.64-1.7,4.7-1.7,3.63.57,4.7,1.7,1.6,2.79,1.6,4.98v12.14c0,2.33-.54,4.12-1.62,5.35s-2.64,1.85-4.68,1.85Zm.04-4.71c.77,0,1.16-.75,1.16-2.25v-12.48c0-1.26-.38-1.89-1.13-1.89-.85,0-1.28.64-1.28,1.93v12.46c0,.79.1,1.36.29,1.71s.51.52.96.52Z"/><path d="m868.41,367.58v-25.56h5.26l2.35,12.24v-12.24h4.94v25.56h-5l-2.56-12.78v12.78h-5Z"/><path d="m890.2,367.58v-25.56h7.03c1.84,0,3.22.51,4.15,1.53s1.39,2.52,1.39,4.48v11.97c0,2.42-.42,4.29-1.27,5.61s-2.33,1.98-4.45,1.98h-6.86Zm5.14-4.52h.89c.94,0,1.41-.46,1.41-1.37v-13.19c0-.85-.11-1.4-.34-1.65s-.69-.37-1.39-.37h-.57v16.57Z"/><path d="m904.87,367.58v-25.56h10.23v4.94h-5.03v4.98h4.82v4.81h-4.82v5.85h5.36v4.98h-10.56Z"/><path d="m924.08,367.58v-25.56h5.11v21.21h5.26v4.36h-10.37Z"/><path d="m935.21,367.58l2.47-25.56h8.67l2.43,25.56h-4.84l-.36-4.12h-3.08l-.32,4.12h-4.97Zm5.65-8.21h2.32l-1.12-13h-.23l-.97,13Z"/><path d="m963.27,367.81c-1.85,0-3.34-.58-4.47-1.73s-1.69-2.76-1.69-4.84v-11.79c0-2.48.49-4.38,1.47-5.69s2.58-1.98,4.8-1.98c1.21,0,2.29.22,3.23.67s1.69,1.11,2.23,2,.81,2,.81,3.35v4.42h-5.08v-3.78c0-.76-.1-1.28-.29-1.55s-.49-.4-.9-.4c-.47,0-.79.17-.96.52s-.25.8-.25,1.37v12.8c0,.71.1,1.21.31,1.5s.51.44.89.44c.44,0,.74-.18.92-.54s.27-.82.27-1.39v-4.6h5.14v4.84c0,2.25-.57,3.88-1.7,4.89s-2.72,1.52-4.75,1.52Z"/><path d="m977.52,367.81c-2.04,0-3.6-.62-4.68-1.85s-1.62-3.02-1.62-5.35v-12.14c0-2.19.53-3.85,1.6-4.98s2.64-1.7,4.7-1.7,3.63.57,4.7,1.7,1.6,2.79,1.6,4.98v12.14c0,2.33-.54,4.12-1.62,5.35s-2.64,1.85-4.68,1.85Zm.04-4.71c.77,0,1.16-.75,1.16-2.25v-12.48c0-1.26-.38-1.89-1.13-1.89-.85,0-1.28.64-1.28,1.93v12.46c0,.79.1,1.36.29,1.71s.51.52.96.52Z"/><path d="m985.89,367.58v-25.56h5.26l2.35,12.24v-12.24h4.94v25.56h-5l-2.56-12.78v12.78h-5Z"/><path d="m1006.77,367.81c-2.33,0-4.02-.58-5.05-1.74-1.03-1.16-1.55-3.01-1.55-5.55v-2.5h5.05v3.2c0,.59.09,1.05.27,1.39s.49.5.94.5.79-.14.97-.41.27-.72.27-1.34c0-.78-.08-1.44-.23-1.97s-.42-1.03-.81-1.51-.91-1.04-1.59-1.68l-2.29-2.18c-1.71-1.62-2.57-3.47-2.57-5.55s.51-3.84,1.52-4.98,2.48-1.71,4.39-1.71c2.34,0,4.01.62,4.99,1.87s1.47,3.15,1.47,5.69h-5.2v-1.76c0-.35-.1-.62-.3-.81s-.47-.29-.81-.29c-.41,0-.7.11-.89.34s-.28.52-.28.88.1.75.29,1.16.58.9,1.15,1.44l2.95,2.83c.59.56,1.13,1.15,1.63,1.78s.89,1.35,1.19,2.18.45,1.84.45,3.03c0,2.4-.44,4.28-1.33,5.64-.89,1.36-2.43,2.04-4.63,2.04Z"/><path d="m1020.53,367.81c-2.04,0-3.6-.62-4.68-1.85-1.08-1.23-1.62-3.02-1.62-5.35v-12.14c0-2.19.53-3.85,1.6-4.98,1.07-1.13,2.64-1.7,4.7-1.7s3.63.57,4.7,1.7c1.07,1.13,1.6,2.79,1.6,4.98v12.14c0,2.33-.54,4.12-1.62,5.35s-2.64,1.85-4.68,1.85Zm.04-4.71c.77,0,1.16-.75,1.16-2.25v-12.48c0-1.26-.38-1.89-1.13-1.89-.85,0-1.28.64-1.28,1.93v12.46c0,.79.1,1.36.29,1.71s.51.52.96.52Z"/><path d="m1028.89,367.58v-25.56h7.79l2.15,15.58,2.14-15.58h7.86v25.56h-4.68v-18.42l-2.93,18.42h-4.59l-3.11-18.42v18.42h-4.62Z"/><path d="m1051.09,367.58v-25.56h7.79l2.15,15.58,2.14-15.58h7.86v25.56h-4.68v-18.42l-2.93,18.42h-4.59l-3.11-18.42v18.42h-4.62Z"/><path d="m1072.58,367.58l2.47-25.56h8.67l2.43,25.56h-4.84l-.36-4.12h-3.08l-.32,4.12h-4.97Zm5.65-8.21h2.32l-1.12-13h-.23l-.97,13Z"/><path d="m1089.53,367.58v-20.65h-3.04v-4.91h11.18v4.91h-3.04v20.65h-5.11Z"/><path d="m1098.87,367.58v-25.56h4.94v25.56h-4.94Z"/><path d="m1111.94,367.81c-2.04,0-3.6-.62-4.68-1.85-1.08-1.23-1.62-3.02-1.62-5.35v-12.14c0-2.19.53-3.85,1.6-4.98s2.64-1.7,4.7-1.7,3.63.57,4.7,1.7,1.6,2.79,1.6,4.98v12.14c0,2.33-.54,4.12-1.62,5.35s-2.64,1.85-4.68,1.85Zm.04-4.71c.77,0,1.16-.75,1.16-2.25v-12.48c0-1.26-.38-1.89-1.13-1.89-.85,0-1.28.64-1.28,1.93v12.46c0,.79.1,1.36.29,1.71s.51.52.96.52Z"/><path d="m1120.31,367.58v-25.56h5.26l2.35,12.24v-12.24h4.94v25.56h-5l-2.56-12.78v12.78h-5Z"/></g><g><path d="m748.42,537.38v-162.71h44.75c11.71,0,20.52,3.25,26.44,9.75,5.92,6.5,8.88,16.01,8.88,28.52v76.18c0,15.41-2.7,27.3-8.09,35.69-5.39,8.38-14.84,12.57-28.34,12.57h-43.64Zm32.73-28.75h5.64c5.98,0,8.97-2.9,8.97-8.69v-83.94c0-5.42-.72-8.92-2.17-10.49s-4.39-2.36-8.83-2.36h-3.61v105.48Z"/><path d="m844.85,422.38l6.1-21.82h-11.74v-27.55h34.58v26.72l-9.43,22.65h-19.51Z"/><path d="m885.71,537.38v-162.71h65.08v31.43h-31.99v31.71h30.69v30.6h-30.69v37.26h34.11v31.71h-67.21Z"/><path d="m959.21,537.38l15.72-162.71h55.19l15.44,162.71h-30.79l-2.31-26.26h-19.6l-2.03,26.26h-31.62Zm35.96-52.23h14.79l-7.12-82.74h-1.48l-6.19,82.74Z"/><path d="m1093.16,538.86c-13.56,0-23.54-3.81-29.95-11.42-6.41-7.61-9.61-18.81-9.61-33.6v-119.17h31.62v117.87c0,2.71.15,5.32.46,7.81.31,2.5,1.02,4.55,2.13,6.15,1.11,1.6,2.9,2.4,5.36,2.4s4.35-.79,5.45-2.36,1.8-3.62,2.08-6.15c.28-2.53.42-5.15.42-7.86v-117.87h31.62v119.17c0,14.79-3.2,25.99-9.61,33.6s-16.39,11.42-29.95,11.42Z"/></g><g><path d="m748.42,591.25v-47.11h18.85v9.1h-9.26v9.18h8.89v8.86h-8.89v10.79h9.88v9.18h-19.46Z"/><path d="m770.99,591.25v-47.11h9.69l4.34,22.57v-22.57h9.1v47.11h-9.21l-4.71-23.56v23.56h-9.21Z"/><path d="m811.14,591.25v-47.11h18.85v9.18h-9.37v7.5h8.89v9.07h-8.89v21.36h-9.48Z"/><path d="m833.01,591.25v-47.11h14.46c2.41,0,4.23.55,5.46,1.65s2.06,2.63,2.48,4.6c.42,1.97.63,4.29.63,6.95s-.33,4.62-.98,6.16-1.88,2.6-3.68,3.19c1.48.3,2.52,1.04,3.12,2.21s.9,2.68.9,4.54v17.83h-9.29v-18.44c0-1.37-.28-2.23-.84-2.56s-1.47-.5-2.72-.5v21.5h-9.53Zm9.58-29.66h2.28c1.3,0,1.95-1.42,1.95-4.26,0-1.84-.14-3.04-.43-3.61s-.82-.86-1.61-.86h-2.2v8.73Z"/><path d="m857.86,591.25l4.55-47.11h15.98l4.47,47.11h-8.91l-.67-7.6h-5.68l-.59,7.6h-9.16Zm10.41-15.12h4.28l-2.06-23.96h-.43l-1.79,23.96Z"/><path d="m885.75,591.25v-47.11h9.69l4.34,22.57v-22.57h9.1v47.11h-9.21l-4.71-23.56v23.56h-9.21Z"/><path d="m924.03,591.68c-3.41,0-6.15-1.06-8.23-3.19-2.08-2.12-3.12-5.1-3.12-8.91v-21.74c0-4.57.91-8.07,2.72-10.49s4.76-3.64,8.85-3.64c2.23,0,4.22.41,5.96,1.23s3.11,2.05,4.11,3.68c1,1.63,1.5,3.69,1.5,6.17v8.14h-9.37v-6.96c0-1.41-.18-2.36-.54-2.85s-.91-.74-1.66-.74c-.87,0-1.46.32-1.77.95s-.46,1.48-.46,2.53v23.58c0,1.3.19,2.22.58,2.76s.93.8,1.65.8c.8,0,1.37-.33,1.7-.99s.5-1.52.5-2.57v-8.49h9.48v8.91c0,4.14-1.04,7.14-3.13,9.01s-5.01,2.8-8.75,2.8Z"/><path d="m939.05,591.25v-47.11h18.85v9.1h-9.26v9.18h8.89v8.86h-8.89v10.79h9.88v9.18h-19.46Z"/><path d="m974.46,591.25v-47.11h18.85v9.1h-9.26v9.18h8.89v8.86h-8.89v10.79h9.88v9.18h-19.46Z"/><path d="m997.03,591.25v-47.11h9.69l4.34,22.57v-22.57h9.1v47.11h-9.21l-4.71-23.56v23.56h-9.21Z"/><path d="m1036.76,591.25v-2.25c0-2.34.36-4.44,1.08-6.3s1.66-3.6,2.8-5.19,2.35-3.16,3.61-4.7c1.23-1.5,2.4-3.04,3.52-4.62,1.12-1.58,2.03-3.29,2.73-5.14.7-1.85,1.06-3.92,1.06-6.22,0-1.11-.17-2.06-.5-2.85-.33-.79-1.01-1.19-2.05-1.19-1.57,0-2.36,1.4-2.36,4.2v5.76h-9.9c-.02-.41-.04-.87-.07-1.39s-.04-1.02-.04-1.5c0-3.39.36-6.27,1.07-8.63.71-2.36,1.98-4.17,3.79-5.41s4.36-1.86,7.64-1.86c3.91,0,6.95,1.1,9.11,3.29,2.17,2.2,3.25,5.33,3.25,9.4,0,2.77-.36,5.19-1.07,7.27s-1.66,3.97-2.84,5.68c-1.18,1.7-2.47,3.4-3.88,5.1-1,1.2-1.97,2.42-2.9,3.67-.94,1.25-1.76,2.59-2.48,4.02h12.85v8.89h-24.44Z"/><path d="m1075.73,591.68c-3.98,0-7.05-1.12-9.22-3.35-2.17-2.23-3.25-5.44-3.25-9.64v-21.25c0-4.43,1.03-7.82,3.09-10.19,2.06-2.36,5.19-3.55,9.38-3.55s7.34,1.18,9.4,3.55,3.08,5.76,3.08,10.19v21.25c0,4.19-1.08,7.41-3.24,9.64s-5.24,3.35-9.24,3.35Zm0-8.67c.73,0,1.3-.33,1.71-.99s.62-1.4.62-2.22v-23.26c0-1.11-.12-2.07-.36-2.9s-.9-1.24-1.97-1.24-1.73.41-1.97,1.24-.36,1.8-.36,2.9v23.26c0,.82.21,1.56.63,2.22s.99.99,1.7.99Z"/><path d="m1090.94,591.25v-2.25c0-2.34.36-4.44,1.08-6.3s1.66-3.6,2.8-5.19,2.35-3.16,3.61-4.7c1.23-1.5,2.4-3.04,3.52-4.62,1.12-1.58,2.03-3.29,2.73-5.14.7-1.85,1.06-3.92,1.06-6.22,0-1.11-.17-2.06-.5-2.85s-1.01-1.19-2.05-1.19c-1.57,0-2.36,1.4-2.36,4.2v5.76h-9.9c-.02-.41-.04-.87-.07-1.39s-.04-1.02-.04-1.5c0-3.39.36-6.27,1.07-8.63.71-2.36,1.98-4.17,3.79-5.41s4.36-1.86,7.64-1.86c3.91,0,6.95,1.1,9.11,3.29,2.17,2.2,3.25,5.33,3.25,9.4,0,2.77-.36,5.19-1.07,7.27-.71,2.08-1.66,3.97-2.84,5.68s-2.47,3.4-3.88,5.1c-1,1.2-1.97,2.42-2.9,3.67-.94,1.25-1.76,2.59-2.48,4.02h12.85v8.89h-24.44Z"/><path d="m1122.87,591.25v-36.3c-.64.77-1.53,1.39-2.65,1.86s-2.19.71-3.19.71v-7.52c.95-.14,1.96-.45,3.05-.92s2.1-1.12,3.04-1.95c.94-.83,1.66-1.83,2.15-3.01h7.58v47.14h-9.99Z"/></g></g><g id="surplus_d_eau_lettres"><path class="cls-21" d="m220.72,411.88s.73-6.24,7.85-5.03,5.81,2.65,9.88,3.34,6.49-1.73,10.78-1.09,4.1,3.81,4.1,3.81l-.02,2.53h-32.35l-.24-3.57Z"/><path class="cls-21" d="m267.82,403.83s9.66-2.17,18.12-1.59,6.56,4.46,16.39,4.46,13.28-7.16,21.22-7.16,13.11,3.58,13.11,3.58l-13.8,15.05-37.27,1.9-17.77-16.24Z"/><path class="cls-21" d="m393.25,402.24s11.72-7.22,17.37-6.22c5.66,1,11.87,9.79,11.87,9.79l-3.19,11.08-26.07-1-2.22-7.94,2.24-5.71Z"/><path class="cls-21" d="m451.73,399.54s11.47-3.63,15.27-2.59,1.64,5.3,5.52,5.3,4.83-2.59,8.97-2.65,4.4,4.51,9.32,2.01,8.85-6.42,13.63-4.66,5.61,5.82,5.61,5.82l-21.13,22.13-34.68-5.61-2.5-19.75Z"/><path class="cls-21" d="m1328.59,447.66s7.47-4.29,16.53-4.29,10.5,3.67,16.56,4.29c6.06.63,3.36-5.84,12.42-5.84s16.91-.63,21.76,2.92c4.85,3.55,14.46,2.92,14.46,2.92l-2.49,11.65-25.45,2.43h-57.97v-13.2l4.18-.88Z"/><path class="cls-21" d="m1429.34,445.51s7.65-5.25,11.27-6,3.69,2.99,6.99,3,6.34-3,10.35-3c5.18,1.26,9.58,6,9.58,6l3.82,15.45h-33.21l-10.78-1.66,1.98-13.8h0"/><path class="cls-21" d="m1525.02,444.48s11.16-4.27,18.89-6.22c7.73-1.95,12.9,9.79,12.9,9.79l-3.47,11.08-28.34-1-2.42-7.94,2.44-5.71Z"/><path class="cls-21" d="m1588.12,445.18s4.63-3.11,14.09-3.11,7.85,2.42,14.29,3.11,6.04-3.11,14.89-3.11,11.88,4.66,11.88,4.66l8.86,11.21-38.24,3.62-30.6-7.76,4.83-8.63Z"/><path class="cls-21" d="m443.96,968.11s1.37-13.27,7.59-12c6.65,1.35,6.6.7,7.68,0s1.65-1.42,5.91-1.41,5.74,1.43,8.45,1.41c3.97-.03,3.28-2.11,9.08-1.06s11.37,18.93,11.37,18.93l-44.26,3.11-9.23-5.22,3.41-3.76Z"/><path class="cls-21" d="m548.99,960.16l-1.03,13.64,41.47-2.17-4.65-15.53s-10.85-3.21-14.99-2.63-4.47,1.09-5.9,1.09-.96-1.09-4.56-1.09-5.87,2.6-5.87,2.6l-4.47,4.08Z"/><path class="cls-21" d="m613.4,953.16s2.28-1.75,6.93-1.12,8.67,2.96,12.94,3.09,5.63-1.55,10.09-1.07,2.07,1.27,6.73,1.07,3.09-2.16,8.6-2.59c4.08-.31,3.43,0,8.67.65s13.39-2.16,13.39-2.16l3.36,22.77-57.97.99-13.2-9.7.44-11.93Z"/><path class="cls-21" d="m1162.45,952.36s8.63-6.89,15.87-6.89,4.14,2.75,13.11,2.4c8.97-.35,14.84-7.33,26.4-7.33s15.87,8.7,15.87,8.7l-11.39,24.68-73.32-4.66,13.46-16.91Z"/><path class="cls-21" d="m1249.06,944.93s11.2-3.64,23.12-3.64,7.55,1.97,16.11,1.97,7.7-5.24,16.55-5.24,18.27,11.23,18.27,11.23l-16.68,21.06-52.37-6.9-8.97-16.83,3.97-1.64Z"/><path class="cls-21" d="m1382.93,951.85s-3.95-20.76,20.55-10.55c24.5,10.21,19.84,15.9,19.84,15.9l-18.98,12.25-24.79-5.35,3.38-12.25Z"/><path class="cls-21" d="m1445.4,949.25s9.32-3.84,17.43-2.67c8.11,1.16,13.28-4.43,23.64-1.64,10.35,2.78,21.41-2.78,21.41-2.78l2.75,18.91-55.9,10.11-18.12-13.46,8.8-8.46Z"/><path class="cls-21" d="m746.96,588.4s3.74-1.28,5.96-1.7,2.99,1.11,5.24,1.36,4.3-1.29,7.02-1.36,3.66,1.7,3.66,1.7l-.95,5.53-20.93,1.53v-7.06Z"/><path class="cls-21" d="m770.45,588.32s3.36-2.29,5.53-1.69l6.13,1.69-1.11,4.26-11.57,1.53,1.02-5.79Z"/><path class="cls-21" d="m783.55,588.4s2.89-.85,4.94-.85,1.36.51,2.72.43,2.21-.94,3.66-.94,2.04,3.32,2.04,3.32c0,0-9.36,3.14-9.62,3.23s-6.55,0-6.55,0l2.81-5.19Z"/><path class="cls-21" d="m809.43,587.04s1.02-1.28,5.11-1.28,3.49,1.45,5.36,1.7,6.72,4.6,6.72,4.6c0,0-15.83,1.19-18.47,2.64s1.28-7.66,1.28-7.66Z"/><path class="cls-21" d="m831.81,588.15s2.47-1.11,4.34-1.11.51,1.02,3.15,1.11,1.79-.77,3.66-1.62.85,0,.85,0l1.19,8.33-15.74-2.28,2.55-4.43Z"/><path class="cls-21" d="m845.51,587.98s-1.87-2.89,5.53-.85c4,1.79,4.99,1.19,4.99,1.19l-.57,4.68-10.94-.43.99-4.6Z"/><path class="cls-21" d="m857.34,588.91s2.04-.17,3.83-1.02,2.13.51,3.49.51,2.54-1.36,3.61-1.36,0,4.64,0,4.64l-11.87.64.94-3.4Z"/><path class="cls-21" d="m872.55,588.49s1.47-1.45,3.94-1.45,1.45.94,3.66.72,3.06-1.37,3.06-1.37l.94,4.86-4,2.34-7.6-1.28v-3.83Z"/><path class="cls-21" d="m885.71,586.4s2.27.64,4.65.64,1.11-1.02,3.49-1.02,3.46,1.02,3.46,1.02l-2.36,6.89-10.81-1.62.77-5.28.79-.64Z"/><path class="cls-21" d="m898.36,586.4s1.96-1.31,3.91-1.06,1.74.38,4.17.53,4.26-1.21,4.26-1.21l.94,6.6-8.04,2.68-6.77-2.25,1.53-5.28Z"/><path class="cls-21" d="m912.68,584.66s2.19,1.36,4.83,1.36,3.57-1.36,6.13-1.36c1.42,0,2.93.33,4.24.33,1.04,0,1.9-.33,2.99-.33,2.47,0,5.04,2.04,5.04,2.04l-3.17,6.13-11.32.68-8-4.21-.75-4.64Z"/><path class="cls-21" d="m938.19,586.4s3.71-.38,7.15-.38,4.6,1.49,7.58,1.11l8.51-1.11.77,7.91-29.62,2.38,5.62-9.92Z"/><path class="cls-21" d="m972.28,586.62s4.72-1.32,7.66-.6.99,1.62,4.26,1.62,3.91-1.4,6.21-1.62,5.11,0,5.11,0l-.64,8.77h-23.23l.64-8.17Z"/><path class="cls-21" d="m1007,586.02s-2.31.89-4.62.72-2.1-.73-3.55-.94-2.55.94-2.55.94l-1.35,7.29,14.75-.78-2.68-7.23Z"/><path class="cls-21" d="m1009.3,586.11s2-.77,3.79-.81.6.66,2.85.48,5.62-.95,5.62-.95l1.74,6.42-12.89,1.15-1.11-6.3Z"/><polygon class="cls-21" points="1036.65 584.83 1042.96 583.64 1049.77 585.43 1057.51 584.53 1062.87 585.43 1063.98 594.03 1036.65 593.6 1034.02 588.15 1036.65 584.83"/><path class="cls-21" d="m1063.98,585.78s2.55-.24,5.36,0,.93.92,3.66,1.09,1.7-.85,5.96-1.62,8.77.81,8.77.81l-6.21,9.83-16.6-4.21-.94-5.9Z"/><path class="cls-21" d="m1090.45,586.36s3.06-1.32,6.21-1.32,4.36,1.15,6.61,1.32,1.9-.59,4.29-1.32,8.68.66,8.68.66l.8,6.53h-27.44l.85-5.87Z"/><path class="cls-21" d="m1121.51,586.62s2.34-1.57,4.34-1.57,1.28.38,3.32.55c0,0,2.89-1.66,4.85-1.11s1.96,6.77,1.96,6.77l-6.47,2.78-9.79-1.29,1.79-6.13Z"/></g><g id="herbe"><g id="herbe-2"><path class="cls-7" d="m466.75,404.48s2.47-12.43,2.2-18.01c-.27-5.58-6.28-17.8-6.28-17.8,0,0,10.51,10.07,11.74,19.26,1.23,9.2.77,16.54.77,16.54h-8.43Z"/><path class="cls-7" d="m480.11,404.48s2.25-7.79-.75-17.75-9.01-15.81-9.01-15.81c0,0,4.84,7.88,6.01,17.91s-1.19,15.64-1.19,15.64h4.94Z"/><path class="cls-7" d="m486.66,404.48h-6.55s1.1-10.01,1.99-20.26-4.57-21.97-4.57-21.97c0,0,8.86,13.31,9.71,22.42s-.58,19.81-.58,19.81Z"/><path class="cls-7" d="m495.69,404.48s-5.01-15.64-6.31-22.18-2.14-22.21-2.14-22.21c0,0-1.86,12.56-1.36,24.8.5,12.24.78,19.59.78,19.59h9.03Z"/><path class="cls-7" d="m498.29,404.48s1.91-7.8,2.37-16.62-4.47-22.37-4.47-22.37c0,0,1.76,16.19,1.31,22.9-.45,6.71-1.8,16.09-1.8,16.09h2.59Z"/><path class="cls-7" d="m508.09,404.48s.79-13.64-.9-25.43c-1.69-11.8-10.14-22.06-10.14-22.06,0,0,5.86,15.2,7.1,23.04s1.57,24.45,1.57,24.45h2.37Z"/><path class="cls-7" d="m515.3,404.48s-2.21-16.51-2.21-26.55,4.92-31.18,4.92-31.18c0,0-9.91,16.9-9.91,31.18v26.55h7.21Z"/><path class="cls-7" d="m520.55,404.48s-1.65-12.61-.52-23.59c1.13-10.98,5.07-26.85,5.07-26.85,0,0-9.12,16.76-9.46,28.24-.34,11.48-.34,22.19-.34,22.19h5.25Z"/></g><g id="herbe-3"><path class="cls-7" d="m1452.54,453.53s-3.69-14.66-3.29-21.25c.4-6.58,9.39-21,9.39-21,0,0-15.71,11.88-17.55,22.73-1.84,10.85-1.14,19.52-1.14,19.52h12.59Z"/><path class="cls-7" d="m1432.57,453.53s-3.36-9.2,1.12-20.94c4.48-11.74,13.47-18.65,13.47-18.65,0,0-7.23,9.29-8.99,21.13-1.76,11.84,1.78,18.46,1.78,18.46h-7.39Z"/><path class="cls-7" d="m1422.77,453.53h9.79s-1.65-11.81-2.98-23.9c-1.34-12.09,6.83-25.92,6.83-25.92,0,0-13.24,15.71-14.51,26.45-1.26,10.74.87,23.37.87,23.37Z"/><path class="cls-7" d="m1409.27,453.53s7.49-18.45,9.43-26.16c1.94-7.71,3.2-26.2,3.2-26.2,0,0,2.78,14.82,2.03,29.26-.75,14.44-1.16,23.11-1.16,23.11h-13.5Z"/><path class="cls-7" d="m1405.4,453.53s-2.86-9.21-3.54-19.61c-.67-10.4,6.68-26.39,6.68-26.39,0,0-2.63,19.1-1.96,27.01.67,7.92,2.69,18.99,2.69,18.99h-3.87Z"/><path class="cls-7" d="m1390.75,453.53s-1.18-16.09,1.35-30.01c2.53-13.92,15.15-26.02,15.15-26.02,0,0-8.76,17.94-10.61,27.18-1.85,9.24-2.35,28.85-2.35,28.85h-3.55Z"/><path class="cls-7" d="m1379.98,453.53s3.31-19.48,3.31-31.33-7.35-36.79-7.35-36.79c0,0,14.82,19.93,14.82,36.79v31.33h-10.78Z"/><path class="cls-7" d="m1372.12,453.53s2.47-14.87.78-27.83c-1.68-12.95-7.58-31.68-7.58-31.68,0,0,13.64,19.78,14.14,33.32s.51,26.18.51,26.18h-7.85Z"/><path class="cls-7" d="m1360.44,453.53s3.54-19.66,2.19-27.83c-1.35-8.17-7.58-21.99-7.58-21.99,0,0,4.55,9.71,2.36,24.32-2.19,14.61-7.91,25.5-7.91,25.5h10.94Z"/><path class="cls-7" d="m1345.97,453.48s-1.62-6.37-2.27-22.96c-.66-16.59,3.09-22.93,3.09-22.93,0,0,2.08,17.73,3.53,24.99,1.45,7.26,3,20.89,3,20.89h-7.35Z"/><path class="cls-7" d="m1334.94,453.48s-3.78-8.09-6.38-24.68c-2.6-16.59,10.06-29.56,10.06-29.56,0,0-7.97,14.22-1.11,32.12,6.86,17.91,8.47,22.12,8.47,22.12h-11.04Z"/><path class="cls-7" d="m1319.01,453.53s3.06-12.15,1.78-23c-1.29-10.85-9.52-21.8-9.52-21.8,0,0,13.1,4.68,16.4,21.8s.99,23.04.99,23.04l-9.65-.04Z"/></g><g id="herbe-4"><path class="cls-7" d="m713.69,951.09s.74-12.78-.84-23.84c-1.58-11.06-9.5-20.68-9.5-20.68,0,0,5.49,14.25,6.65,21.59,1.16,7.34,1.47,22.92,1.47,22.92h2.22Z"/><path class="cls-7" d="m720.45,951.09s-2.07-15.48-2.07-24.89,4.61-29.23,4.61-29.23c0,0-9.29,15.84-9.29,29.23v24.89h6.76Z"/><path class="cls-7" d="m725.38,951.09s-1.55-11.82-.49-22.11,4.75-25.17,4.75-25.17c0,0-8.55,15.71-8.87,26.47s-.32,20.8-.32,20.8h4.93Z"/><path class="cls-7" d="m732.7,951.09s-2.22-15.62-1.37-22.11c.84-6.49,4.75-17.47,4.75-17.47,0,0-2.85,7.72-1.48,19.32,1.37,11.6,4.96,20.26,4.96,20.26h-6.86Z"/><path class="cls-7" d="m741.77,951.05s1.01-5.06,1.42-18.24-1.94-18.22-1.94-18.22c0,0-1.31,14.09-2.22,19.86s-1.88,16.6-1.88,16.6h4.61Z"/><path class="cls-7" d="m748.7,951.05s2.37-6.43,4-19.61-6.31-23.48-6.31-23.48c0,0,5,11.29.7,25.52l-5.31,17.57h6.92Z"/><path class="cls-7" d="m758.68,951.09s-1.92-9.65-1.11-18.27,5.97-17.32,5.97-17.32c0,0-8.21,3.72-10.29,17.32s-.62,18.31-.62,18.31l6.05-.03Z"/></g><g id="herbe-5"><path class="cls-7" d="m1172.81,950.65s-2.61-12.83-2.33-18.59,6.65-18.37,6.65-18.37c0,0-11.13,10.39-12.43,19.88-1.3,9.49-.81,17.08-.81,17.08h8.92Z"/><path class="cls-7" d="m1158.66,950.65s-2.38-8.04.79-18.32c3.17-10.27,9.54-16.32,9.54-16.32,0,0-5.12,8.13-6.36,18.49-1.24,10.36,1.26,16.15,1.26,16.15h-5.23Z"/><path class="cls-7" d="m1151.72,950.65h6.94s-1.17-10.33-2.11-20.91,4.83-22.67,4.83-22.67c0,0-9.38,13.74-10.27,23.14-.9,9.4.62,20.45.62,20.45Z"/><path class="cls-7" d="m1142.17,950.65s5.31-16.14,6.68-22.89c1.37-6.74,2.27-22.92,2.27-22.92,0,0,1.97,12.96,1.44,25.6-.53,12.63-.82,20.22-.82,20.22h-9.56Z"/><path class="cls-7" d="m1139.42,950.65s-2.03-8.06-2.5-17.15c-.48-9.1,4.73-23.09,4.73-23.09,0,0-1.87,16.71-1.39,23.63s1.91,16.61,1.91,16.61h-2.74Z"/><path class="cls-7" d="m1129.05,950.65s-.83-14.07.95-26.25c1.79-12.18,10.73-22.77,10.73-22.77,0,0-6.2,15.69-7.51,23.78s-1.66,25.24-1.66,25.24h-2.51Z"/><path class="cls-7" d="m1121.42,950.65s2.34-17.04,2.34-27.41-5.2-32.19-5.2-32.19c0,0,10.49,17.44,10.49,32.19v27.41h-7.63Z"/><path class="cls-7" d="m1115.86,950.65s1.75-13.01.55-24.35-5.36-27.71-5.36-27.71c0,0,9.66,17.3,10.01,29.15.36,11.85.36,22.91.36,22.91h-5.56Z"/></g></g></svg>