<?xml version="1.0" encoding="UTF-8"?><svg id="Calque_2" xmlns="http://www.w3.org/2000/svg" viewBox="0 0 544.12 1080"><defs><style>.cls-1{fill:#d8cabc;}.cls-2{fill:#ff2442;}.cls-3{opacity:.67;}.cls-4{fill:#3db2ff;}.cls-5{fill:#ffedda;}.cls-6{fill:#3295cc;}</style></defs><g id="Calque_1-2"><rect class="cls-2" width="508.23" height="1080"/></g><g id="Calque_4"><g><path d="m88.28,340.31v-143.43c-2.54,3.03-6.03,5.48-10.47,7.35-4.44,1.87-8.64,2.8-12.59,2.8v-29.72c3.74-.57,7.76-1.78,12.06-3.65,4.3-1.87,8.3-4.44,12.01-7.72,3.7-3.28,6.54-7.25,8.51-11.9h29.93v186.27h-39.45Z"/><path d="m187.71,342.96c-14.32,0-26-3.54-35.06-10.63s-13.59-17.96-13.59-32.63v-27.71h38.71v15.97c0,3.32.19,6.52.58,9.63.39,3.1,1.29,5.64,2.7,7.62,1.41,1.97,3.63,2.96,6.66,2.96,4.02,0,6.66-1.35,7.93-4.07,1.27-2.71,1.9-6.19,1.9-10.42v-36.6c0-3.03-.19-6.03-.58-8.99-.39-2.96-1.25-5.43-2.59-7.4-1.34-1.97-3.49-2.96-6.45-2.96-7.05,0-10.58,5.12-10.58,15.34h-34.16v-99h88.74v34.9h-53.42v26.23c1.83-2.26,4.32-4.25,7.46-5.97,3.14-1.73,6.82-2.59,11.05-2.59,8.46,0,15.36,1.62,20.68,4.87,5.32,3.24,9.41,7.76,12.27,13.54,2.86,5.78,4.83,12.48,5.92,20.1,1.09,7.62,1.64,15.8,1.64,24.54,0,11.21-.58,21.31-1.75,30.3-1.16,8.99-3.46,16.69-6.88,23.11-3.42,6.42-8.43,11.34-15.02,14.76-6.59,3.42-15.32,5.13-26.18,5.13Z"/><path d="m294.75,342.01c-15.73,0-27.87-4.41-36.44-13.22-8.57-8.82-12.85-21.51-12.85-38.08v-83.99c0-17.49,4.07-30.9,12.22-40.24,8.14-9.34,20.5-14.02,37.08-14.02s29.02,4.67,37.12,14.02c8.11,9.34,12.17,22.76,12.17,40.24v83.99c0,16.57-4.27,29.26-12.8,38.08-8.53,8.81-20.7,13.22-36.49,13.22Zm0-34.27c2.89,0,5.15-1.3,6.77-3.91,1.62-2.61,2.43-5.54,2.43-8.78v-91.92c0-4.37-.47-8.2-1.43-11.48s-3.54-4.92-7.77-4.92-6.82,1.64-7.78,4.92-1.43,7.1-1.43,11.48v91.92c0,3.24.83,6.17,2.49,8.78s3.89,3.91,6.72,3.91Z"/><path d="m356.52,340.31v-186.16h37.23v154.43h38.29v31.73h-75.52Z"/></g><g><path d="m162.5,889.22v-53.9h11.21v4.93c.68-1.7,1.62-3.03,2.82-3.99s2.92-1.43,5.16-1.43c3.02,0,5.15,1.1,6.39,3.3s1.86,5.07,1.86,8.62v22.73c0,2.36-.33,4.49-1,6.39s-1.71,3.4-3.14,4.5-3.29,1.65-5.59,1.65c-3,0-5.16-1.81-6.5-5.42v12.63h-11.21Zm13.83-15.8c1.15,0,1.84-.57,2.08-1.72s.35-2.57.35-4.25v-18.05c0-1.7-.12-3.13-.35-4.27s-.93-1.71-2.08-1.71-1.92.58-2.2,1.74-.42,2.57-.42,4.23v18.05c0,1.66.14,3.07.42,4.23s1.01,1.74,2.2,1.74Z"/><path d="m202.53,882.01c-2.57,0-4.52-.6-5.87-1.79s-2.26-2.82-2.76-4.9-.74-4.42-.74-7.05c0-2.81.28-5.12.83-6.91s1.5-3.27,2.85-4.42,3.2-2.13,5.56-2.93l6.84-2.34v-4.74c0-2.48-.81-3.73-2.43-3.73-1.48,0-2.22,1.01-2.22,3.02v2.77h-10.72c-.02-.16-.03-.37-.03-.63v-.88c0-4.6,1.08-7.86,3.25-9.78s5.6-2.88,10.3-2.88c2.46,0,4.67.44,6.62,1.31,1.95.87,3.5,2.16,4.64,3.87s1.71,3.81,1.71,6.31v35.2h-10.96v-5.48c-.53,1.93-1.42,3.41-2.65,4.43s-2.64,1.54-4.22,1.54Zm4.34-8.56c.9,0,1.52-.38,1.85-1.14s.49-1.58.49-2.46v-12.87c-1.52.62-2.7,1.39-3.54,2.33s-1.26,2.3-1.26,4.11v5.94c0,2.73.82,4.1,2.46,4.1Z"/><path d="m224.62,881.52v-46.2h11.21v5.14c.53-1.79,1.48-3.18,2.83-4.19s3.06-1.51,5.11-1.51v9.21c-.9,0-1.98.1-3.23.29s-2.35.46-3.3.8-1.42.71-1.42,1.12v35.33h-11.21Z"/><path d="m264.78,889.53c-2.34,0-3.9-.27-4.68-.8v-7.39c.37.1.71.15,1.02.15.6,0,.97-.21,1.11-.62s.22-.93.22-1.57v-43.98h11.03v43.67c0,3.29-.65,5.86-1.96,7.73s-3.55,2.8-6.73,2.8Zm-2.34-57.04v-9.18h11.03v9.18h-11.03Z"/><path d="m291.26,882.01c-9.2,0-13.8-4.77-13.8-14.32v-18.54c0-4.35,1.22-7.83,3.67-10.43,2.44-2.6,5.82-3.9,10.13-3.9s7.72,1.3,10.16,3.9,3.67,6.07,3.67,10.43v18.54c0,9.55-4.61,14.32-13.83,14.32Zm0-8.5c.92,0,1.59-.33,1.99-1s.6-1.51.6-2.54v-22.58c0-2.69-.86-4.03-2.59-4.03s-2.59,1.34-2.59,4.03v22.58c0,1.03.2,1.87.6,2.54s1.06,1,1.99,1Z"/><path d="m318.06,882.01c-2.46,0-4.35-.51-5.65-1.54s-2.19-2.46-2.66-4.3-.71-3.99-.71-6.45v-34.4h11.09v33.11c0,1.85.14,3.14.43,3.87s.97,1.09,2.03,1.09c1.15,0,1.87-.51,2.17-1.54s.45-2.35.45-3.97v-32.55h11v46.2h-11.03v-4.93c-.7,1.77-1.53,3.11-2.51,4.03s-2.51,1.39-4.6,1.39Z"/><path d="m340.63,881.52v-46.2h11.21v5.14c.53-1.79,1.48-3.18,2.83-4.19s3.06-1.51,5.11-1.51v9.21c-.9,0-1.98.1-3.23.29s-2.35.46-3.3.8-1.42.71-1.42,1.12v35.33h-11.21Z"/></g><g><path d="m543.48,873.21h-70.49v-18.62c0-3.9.87-6.99,2.6-9.27,1.74-2.28,4.21-3.92,7.41-4.91s7.02-1.48,11.45-1.48,7.99.41,11.15,1.24c3.16.83,5.61,2.3,7.35,4.43s2.6,5.13,2.6,9.03v5.73h27.92v13.86Zm-40.57-13.86v-.8c0-2.62-.73-4.22-2.2-4.81s-3.63-.88-6.49-.88c-2.67,0-4.73.29-6.19.86s-2.18,1.93-2.18,4.07v1.56h17.06Z"/><path d="m544.12,817.66c0,5.63-1.7,9.94-5.11,12.92s-8.32,4.47-14.76,4.47h-33.48c-6.03,0-10.61-1.48-13.74-4.43s-4.69-7.27-4.69-12.96,1.56-10.01,4.69-12.96c3.12-2.95,7.7-4.43,13.74-4.43h33.48c6.43,0,11.35,1.49,14.76,4.47s5.11,7.28,5.11,12.92Zm-12.98-.12c0-2.14-2.07-3.2-6.21-3.2h-34.4c-3.47,0-5.21,1.04-5.21,3.12,0,2.35,1.78,3.52,5.33,3.52h34.36c2.19,0,3.76-.27,4.71-.8s1.42-1.42,1.42-2.64Z"/><path d="m544.12,778.29c0,5.87-1.65,10.2-4.95,12.98-3.3,2.78-8.15,4.17-14.56,4.17h-51.63v-13.7h51.06c1.17,0,2.3-.07,3.38-.2s1.97-.44,2.66-.92,1.04-1.25,1.04-2.32-.34-1.88-1.02-2.36-1.57-.78-2.66-.9-2.23-.18-3.4-.18h-51.06v-13.7h51.63c6.41,0,11.26,1.39,14.56,4.17s4.95,7.1,4.95,12.98Z"/><path d="m543.48,755.75h-70.49v-21.63c0-3.6.82-6.33,2.46-8.17s3.94-3.08,6.89-3.7,6.41-.94,10.39-.94,6.92.49,9.21,1.46,3.88,2.81,4.77,5.51c.45-2.22,1.56-3.77,3.3-4.67s4.01-1.34,6.79-1.34h26.67v13.9h-27.59c-2.06,0-3.33.42-3.82,1.26s-.74,2.2-.74,4.07h32.16v14.26Zm-44.38-14.34v-3.4c0-1.95-2.12-2.92-6.37-2.92-2.75,0-4.55.21-5.41.64s-1.28,1.23-1.28,2.4v3.28h13.06Z"/><path d="m543.48,697.43h-70.49v-28.2h13.62v13.86h13.74v-13.3h13.26v13.3h16.14v-14.78h13.74v29.12Z"/><path d="m543.48,657.18l-70.53,8.69v-13.42l47.98-5.17-47.98-4.61v-13.42l70.53,8.69v19.22Z"/><path d="m543.48,625.82h-70.49v-13.62h70.49v13.62Z"/><path d="m543.48,600.55h-56.95v8.37h-13.54v-30.84h13.54v8.37h56.95v14.1Z"/><path d="m543.48,574.16h-70.49v-28.2h13.62v13.86h13.74v-13.3h13.26v13.3h16.14v-14.78h13.74v29.12Z"/><path d="m543.48,540.39h-70.49v-21.63c0-3.6.82-6.33,2.46-8.17s3.94-3.08,6.89-3.7c2.95-.63,6.41-.94,10.39-.94s6.92.49,9.21,1.46,3.88,2.81,4.77,5.51c.45-2.22,1.56-3.77,3.3-4.67s4.01-1.34,6.79-1.34h26.67v13.9h-27.59c-2.06,0-3.33.42-3.82,1.26s-.74,2.2-.74,4.07h32.16v14.26Zm-44.38-14.34v-3.4c0-1.95-2.12-2.92-6.37-2.92-2.75,0-4.55.21-5.41.64s-1.28,1.23-1.28,2.4v3.28h13.06Z"/><path d="m544.12,465.66c0,5.1-1.59,9.2-4.77,12.32-3.18,3.11-7.62,4.67-13.34,4.67h-32.52c-6.84,0-12.07-1.36-15.7-4.07-3.63-2.71-5.45-7.12-5.45-13.24,0-3.34.61-6.31,1.84-8.91s3.06-4.65,5.51-6.15,5.52-2.24,9.23-2.24h12.18v14.02h-10.41c-2.11,0-3.53.27-4.27.8s-1.1,1.36-1.1,2.48c0,1.31.47,2.19,1.42,2.64s2.21.68,3.78.68h35.28c1.95,0,3.32-.29,4.13-.86s1.2-1.4,1.2-2.46c0-1.2-.49-2.05-1.48-2.54s-2.27-.74-3.84-.74h-12.7v-14.18h13.34c6.19,0,10.69,1.56,13.48,4.69,2.79,3.12,4.19,7.49,4.19,13.1Z"/><path d="m543.48,443.19h-70.49v-28.2h13.62v13.86h13.74v-13.3h13.26v13.3h16.14v-14.78h13.74v29.12Z"/><path d="m543.48,409.43h-70.49v-14.1h58.47v-14.5h12.02v28.6Z"/><path d="m543.48,378.75l-70.49-6.81v-23.91l70.49-6.69v13.34l-11.37,1v8.49l11.37.88v13.7Zm-22.63-15.58v-6.41l-35.85,3.08v.64l35.85,2.68Z"/></g></g><g id="verre_d_eau"><path class="cls-5" d="m428.65,351.6l-49.38,433.02s-16.1,34.01-124.76,34.01-127.58-34.01-127.58-34.01l-48.94-436.98c2.49,7.69,23.47,30.97,187.65,25.96,66.28-1.68,106.19-5.7,130.06-10.21.1-.02.19-.03.29-.05,26.08-4.61,32.13-9.38,32.67-11.75Z"/><path class="cls-5" d="m87.22,277.25l.02.19c-.02-.12-.02-.19-.02-.19Z"/><path class="cls-5" d="m265.63,373.61c-164.17,5.01-185.16-18.27-187.65-25.96t0-.02l-.22-2.02c.62,3.49,11.17,32.47,187.87,28Z"/><path class="cls-5" d="m428.65,351.6c-.54,2.37-6.59,7.14-32.67,11.75,20.96-3.97,29.48-8.32,32.67-11.75Z"/><path class="cls-1" d="m428.69,351.24c0,.1,0,.19-.03.31,0,.02,0,.04,0,.05-.54,2.37-6.59,7.14-32.67,11.75-.1.03-.19.04-.29.05-23.59,4.15-63.42,8.17-130.06,10.21-164.17,5.01-185.16-18.27-187.65-25.96t0-.02c-.47-1.48-.26-2.37-.26-2.37,0,0-.05-20.58,187.92-20.58,144.62,0,162.67,19.81,162.83,25.84.15.19.24.43.24.73Z"/><path class="cls-6" d="m272.75,412.98h0c-2.87.09-5.79.17-8.78.24-156.29,3.79-166.5-20.56-167.18-23.77l5.51,47.08h12.67c-11.22.64-12.67,0-12.67,0l38.24,326.32s16.84,28.93,113.54,28.93,111.02-28.93,111.02-28.93l43.95-368.36c-5.9,6.07-32.27,15.52-136.29,18.5Zm-59.7,10.99l59.05-10.86c-4.32.86-29.83,5.86-59.05,10.86Z"/></g><g id="bonhomme_français" class="cls-3"><g><path class="cls-5" d="m210.57,467.82l8.7,17.33c-.26,7.13-4.29,13.89-11.11,17.32-6.82,3.43-14.66,2.62-20.53-1.43l-8.7-17.33c.26-7.12,4.3-13.89,11.12-17.31,6.82-3.42,14.65-2.61,20.52,1.43Z"/><path class="cls-4" d="m178.93,483.71l8.7,17.33c-2.7-1.86-4.99-4.41-6.56-7.55s-2.26-6.5-2.14-9.78Z"/><path class="cls-2" d="m217.14,475.38c1.58,3.14,2.25,6.49,2.13,9.78l-8.7-17.33c2.7,1.86,4.99,4.41,6.57,7.56Z"/><path class="cls-5" d="m226.79,500.14l100.34,199.9c-.85.78-1.9,1.5-3.17,2.14-9.63,4.83-15.96-4.71-15.96-4.71l-46.47-92.29-4.32,2.46,46.06,91.77s3.88,11.21-6.1,16.22c-.51.26-1.02.48-1.5.65l-100.52-200.26,31.64-15.88Z"/><path class="cls-4" d="m195.15,516.02l100.52,200.26c-9.01,3.3-13.75-6.15-13.75-6.15l-80.7-160.76-4.73,1.94,29.71,59.19s4.22,8.4-4.19,12.62c-8.4,4.22-12.27-3.49-12.27-3.49l-33.05-65.85s-3.34-8.04-.62-18.69c2.37-9.27,10.56-14.8,10.56-14.8l8.52-4.28Z"/><path class="cls-2" d="m265.55,509.18l33.58,66.9s2.74,6.52-5.27,10.43c-8.01,3.92-11.85-3.44-11.85-3.44l-16.82-32.92-13.25-26.39-3.38,1.59,81.68,162.27s2.53,7.33-3.12,12.42l-100.34-199.9,5.37-2.7s8.46-3.81,18.93.14c10.47,3.95,14.46,11.6,14.46,11.6Z"/></g><g><path class="cls-4" d="m326.25,548.15l2.09,4.17c-.65-.45-1.2-1.06-1.58-1.82s-.54-1.56-.51-2.35Z"/><path class="cls-2" d="m335.44,546.15c.38.76.54,1.56.51,2.35l-2.09-4.17c.65.45,1.2,1.06,1.58,1.82Z"/><path class="cls-5" d="m337.76,552.1l24.13,48.07c-.21.19-.46.36-.76.51-2.32,1.16-3.84-1.13-3.84-1.13l-11.17-22.19-1.04.59,11.08,22.07s.93,2.7-1.47,3.9c-.12.06-.24.11-.36.16l-24.17-48.15,7.61-3.82Z"/><path class="cls-4" d="m330.15,555.92l24.17,48.15c-2.17.79-3.31-1.48-3.31-1.48l-19.4-38.66-1.14.47,7.14,14.23s1.01,2.02-1.01,3.04-2.95-.84-2.95-.84l-7.95-15.83s-.8-1.93-.15-4.5c.57-2.23,2.54-3.56,2.54-3.56l2.05-1.03Z"/><path class="cls-2" d="m347.08,554.28l8.07,16.09s.66,1.57-1.27,2.51c-1.93.94-2.85-.83-2.85-.83l-4.04-7.92-3.18-6.34-.81.38,19.64,39.02s.61,1.76-.75,2.99l-24.13-48.07,1.29-.65s2.03-.92,4.55.03c2.52.95,3.48,2.79,3.48,2.79Z"/><path class="cls-5" d="m333.86,544.33l2.09,4.17c-.06,1.71-1.03,3.34-2.67,4.16s-3.52.63-4.94-.34l-2.09-4.17c.06-1.71,1.03-3.34,2.67-4.16s3.52-.63,4.93.34Z"/></g><g><path class="cls-5" d="m332.03,441.49l-1.89,4.26c-1.36,1.04-3.24,1.32-4.91.58s-2.72-2.33-2.87-4.03l1.89-4.26c1.36-1.04,3.24-1.32,4.91-.57s2.72,2.32,2.86,4.03Z"/><path class="cls-4" d="m324.25,438.03l-1.89,4.26c-.07-.79.06-1.6.4-2.37s.86-1.41,1.49-1.89Z"/><path class="cls-2" d="m331.62,443.86c-.34.77-.86,1.41-1.49,1.89l1.89-4.26c.07.79-.06,1.6-.4,2.37Z"/><path class="cls-5" d="m328.5,449.43l-21.85,49.14c-.28-.04-.57-.12-.88-.26-2.37-1.05-1.56-3.68-1.56-3.68l10.06-22.72-1.12-.43-10.03,22.56s-1.49,2.43-3.95,1.34c-.13-.06-.24-.12-.35-.18l21.89-49.23,7.78,3.46Z"/><path class="cls-4" d="m320.72,445.98l-21.89,49.23c-1.99-1.17-.95-3.49-.95-3.49l17.57-39.52-1.08-.58-6.47,14.55s-.92,2.07-2.99,1.15-1.22-2.81-1.22-2.81l7.2-16.19s.99-1.85,3.38-2.97c2.08-.97,4.36-.3,4.36-.3l2.09.93Z"/><path class="cls-2" d="m332.73,458.02l-7.31,16.45s-.79,1.5-2.74.61c-1.95-.89-1.17-2.73-1.17-2.73l3.55-8.15,2.88-6.49-.81-.39-17.7,39.94s-.98,1.59-2.78,1.32l21.85-49.14,1.32.59s2,.99,2.86,3.54c.86,2.55.05,4.46.05,4.46Z"/></g><g><path class="cls-5" d="m222.77,644.43l-.86,1.93c-.62.47-1.46.6-2.22.26s-1.23-1.05-1.3-1.83l.86-1.93c.62-.47,1.46-.6,2.22-.26s1.23,1.05,1.3,1.82Z"/><path class="cls-4" d="m219.25,642.86l-.86,1.93c-.03-.36.03-.72.18-1.07s.39-.64.68-.85Z"/><path class="cls-2" d="m222.59,645.5c-.16.35-.39.64-.67.85l.86-1.93c.03.36-.03.72-.18,1.07Z"/><path class="cls-5" d="m221.17,648.02l-9.89,22.24c-.12-.02-.26-.06-.4-.12-1.07-.48-.71-1.67-.71-1.67l4.55-10.28-.51-.19-4.54,10.21s-.68,1.1-1.79.61c-.06-.03-.11-.05-.16-.08l9.9-22.28,3.52,1.56Z"/><path class="cls-4" d="m217.65,646.46l-9.9,22.28c-.9-.53-.43-1.58-.43-1.58l7.95-17.88-.49-.26-2.93,6.58s-.42.93-1.35.52-.55-1.27-.55-1.27l3.26-7.32s.45-.84,1.53-1.34c.94-.44,1.97-.13,1.97-.13l.95.42Z"/><path class="cls-2" d="m223.09,651.91l-3.31,7.44s-.36.68-1.24.28c-.88-.4-.53-1.23-.53-1.23l1.61-3.69,1.3-2.94-.37-.17-8.01,18.07s-.44.72-1.26.6l9.89-22.24.6.27s.9.45,1.29,1.6c.39,1.15.02,2.02.02,2.02Z"/></g><g><path class="cls-5" d="m133.27,453.56l1.63-1.34c.76-.14,1.58.12,2.1.76s.63,1.49.34,2.21l-1.63,1.34c-.76.14-1.58-.12-2.1-.76s-.63-1.49-.34-2.21Z"/><path class="cls-4" d="m135.72,456.53l1.63-1.34c-.13.33-.35.64-.64.88s-.64.4-.99.46Z"/><path class="cls-2" d="m133.92,452.68c.3-.24.63-.4.99-.46l-1.63,1.34c.13-.33.35-.64.64-.88Z"/><path class="cls-5" d="m136.31,451.06l18.8-15.45c.1.07.21.17.3.28.74.91-.12,1.81-.12,1.81l-8.67,7.15.37.4,8.63-7.09s1.1-.68,1.87.26c.04.05.07.1.11.14l-18.83,15.48-2.45-2.98Z"/><path class="cls-4" d="m138.76,454.03l18.83-15.48c.57.88-.32,1.61-.32,1.61l-15.12,12.43.32.46,5.57-4.58s.79-.65,1.44.14-.07,1.39-.07,1.39l-6.19,5.09s-.77.55-1.97.52c-1.04-.03-1.82-.76-1.82-.76l-.66-.8Z"/><path class="cls-2" d="m136.34,446.73l6.29-5.17s.63-.45,1.23.31c.61.76-.08,1.34-.08,1.34l-3.09,2.58-2.48,2.04.25.32,15.25-12.57s.72-.44,1.39.03l-18.8,15.45-.42-.5s-.61-.81-.44-2.01c.17-1.21.88-1.81.88-1.81Z"/></g></g><g id="Calque_13"><g><path d="m111.55,918.72c-1.17-1.3-1.75-3.12-1.75-5.46s.58-4.16,1.75-5.46,2.81-1.95,4.92-1.95c1.2,0,2.26.23,3.18.7.92.47,1.65,1.14,2.18,2.01l-1.45,1.31c-.42-.65-.96-1.16-1.64-1.53-.68-.37-1.4-.55-2.18-.55-1.35,0-2.41.48-3.18,1.44-.77.96-1.15,2.31-1.15,4.03s.38,3.05,1.15,4.02c.77.97,1.83,1.45,3.18,1.45.78,0,1.51-.19,2.18-.55.68-.37,1.22-.88,1.64-1.53l1.45,1.31c-.53.87-1.26,1.54-2.18,2.01-.92.46-1.98.7-3.18.7-2.11,0-3.75-.65-4.92-1.95Z"/><path d="m126.57,919.78c-1.04-.6-1.83-1.46-2.39-2.58s-.84-2.43-.84-3.94.28-2.81.84-3.94,1.36-1.98,2.39-2.58,2.26-.9,3.66-.9c2.13,0,3.82.67,5.06,2,1.24,1.33,1.87,3.14,1.87,5.42s-.62,4.09-1.87,5.42c-1.24,1.33-2.93,2-5.06,2-1.41,0-2.63-.3-3.66-.9Zm6.97-2.44c.8-.99,1.2-2.35,1.2-4.08s-.4-3.09-1.2-4.08-1.9-1.48-3.31-1.48-2.48.49-3.28,1.48-1.2,2.35-1.2,4.08.4,3.09,1.2,4.08,1.89,1.48,3.28,1.48,2.51-.49,3.31-1.48Z"/><path d="m139.9,909.72c0-1.81-.04-3-.11-3.59h2.25c.08.63.11,1.47.11,2.54h.09c.42-.87,1.06-1.56,1.92-2.07.86-.5,1.83-.76,2.89-.76,1.67,0,2.93.54,3.76,1.63.84,1.08,1.26,2.7,1.26,4.84v8.07h-2.42v-8.1c0-1.52-.26-2.65-.77-3.39-.51-.74-1.29-1.11-2.34-1.11-.8,0-1.52.2-2.17.61s-1.15.98-1.51,1.71c-.36.73-.54,1.55-.54,2.47v7.81h-2.42v-10.66Z"/><path d="m156.65,920.02c-.87-.44-1.48-1.02-1.84-1.74l1.57-1.08c.32.51.77.91,1.34,1.2.57.29,1.19.43,1.85.43.8,0,1.46-.23,1.98-.7.52-.47.78-1.05.78-1.75,0-.57-.21-1.04-.63-1.42-.42-.38-1.16-.77-2.22-1.17-1.62-.59-2.75-1.21-3.41-1.85-.66-.65-.98-1.44-.98-2.39,0-1.1.44-1.99,1.31-2.67.87-.67,2.03-1.01,3.48-1.01.93,0,1.78.2,2.55.6.77.4,1.36.95,1.78,1.65l-1.48,1.08c-.67-.99-1.62-1.48-2.85-1.48-.7,0-1.28.16-1.73.48s-.67.74-.67,1.25.23.95.68,1.3c.46.35,1.3.76,2.54,1.24,1.46.55,2.5,1.16,3.11,1.81.61.66.91,1.49.91,2.5,0,1.33-.48,2.39-1.43,3.19s-2.21,1.2-3.76,1.2c-1.06,0-2.03-.22-2.89-.66Z"/><path d="m169.97,919.78c-1.04-.6-1.83-1.46-2.39-2.58s-.84-2.43-.84-3.94.28-2.81.84-3.94,1.36-1.98,2.39-2.58,2.26-.9,3.66-.9c2.13,0,3.82.67,5.06,2,1.24,1.33,1.87,3.14,1.87,5.42s-.62,4.09-1.87,5.42c-1.24,1.33-2.93,2-5.06,2-1.41,0-2.63-.3-3.66-.9Zm6.97-2.44c.8-.99,1.2-2.35,1.2-4.08s-.4-3.09-1.2-4.08-1.9-1.48-3.31-1.48-2.48.49-3.28,1.48-1.2,2.35-1.2,4.08.4,3.09,1.2,4.08,1.89,1.48,3.28,1.48,2.51-.49,3.31-1.48Z"/><path d="m183.32,909.72c0-1.44-.05-2.64-.14-3.59h2.17c.08.76.11,1.61.11,2.54h.09c.38-.87.98-1.56,1.8-2.07.82-.5,1.73-.76,2.74-.76s1.87.26,2.59.77,1.21,1.23,1.45,2.14c.4-.89,1.01-1.6,1.82-2.12.82-.52,1.74-.78,2.77-.78,1.56,0,2.78.5,3.66,1.51.88,1.01,1.33,2.42,1.33,4.22v8.81h-2.39v-8.61c0-1.29-.27-2.28-.81-2.97s-1.33-1.03-2.35-1.03-1.84.38-2.48,1.13c-.65.75-.97,1.71-.97,2.89v8.58h-2.39v-8.5c0-1.39-.25-2.42-.74-3.09-.5-.68-1.25-1.01-2.25-1.01-.63,0-1.22.19-1.77.57-.55.38-.99.88-1.32,1.51-.33.63-.5,1.3-.5,2.02v8.5h-2.4v-10.66Z"/><path d="m207.24,909.72c0-1.44-.05-2.64-.14-3.59h2.17c.08.76.11,1.61.11,2.54h.09c.38-.87.98-1.56,1.8-2.07.82-.5,1.73-.76,2.74-.76s1.87.26,2.59.77,1.21,1.23,1.45,2.14c.4-.89,1.01-1.6,1.82-2.12.82-.52,1.74-.78,2.77-.78,1.56,0,2.78.5,3.66,1.51.88,1.01,1.33,2.42,1.33,4.22v8.81h-2.39v-8.61c0-1.29-.27-2.28-.81-2.97s-1.33-1.03-2.35-1.03-1.84.38-2.48,1.13c-.65.75-.97,1.71-.97,2.89v8.58h-2.39v-8.5c0-1.39-.25-2.42-.74-3.09-.5-.68-1.25-1.01-2.25-1.01-.63,0-1.22.19-1.77.57-.55.38-.99.88-1.32,1.51-.33.63-.5,1.3-.5,2.02v8.5h-2.4v-10.66Z"/><path d="m231.91,919.45c-.89-.82-1.34-1.87-1.34-3.16,0-1.43.54-2.53,1.61-3.31,1.07-.78,2.6-1.17,4.58-1.17h2.94v-.74c0-1.06-.28-1.88-.84-2.44-.56-.56-1.37-.84-2.44-.84-.85,0-1.64.18-2.35.53-.71.35-1.31.86-1.78,1.52l-1.23-1.48c.65-.82,1.44-1.44,2.37-1.87.93-.43,1.97-.64,3.11-.64,1.79,0,3.16.44,4.13,1.31.97.87,1.45,2.13,1.45,3.76v6.7c0,.74.11,1.66.34,2.77h-2.11c-.17-.44-.3-1.1-.37-2h-.06c-.53.74-1.19,1.31-1.97,1.7s-1.64.58-2.59.58c-1.41,0-2.56-.41-3.45-1.23Zm5.82-1.1c.61-.27,1.09-.65,1.44-1.13.35-.48.53-1,.53-1.57v-2.11h-3.02c-1.2,0-2.12.24-2.77.71s-.97,1.15-.97,2.03c0,.76.25,1.36.76,1.81.5.45,1.18.67,2.04.67.72,0,1.39-.14,2-.42Z"/><path d="m248.01,919.46c-.72-.81-1.08-1.93-1.08-3.35v-8.1h-2.57v-1.88h2.57v-3.79l2.31-.71h.11v4.51h4.05v1.88h-4.05v7.87c0,.97.18,1.69.54,2.15.36.47.92.7,1.68.7.82,0,1.48-.1,2-.31l.17,1.8c-.63.3-1.55.46-2.77.46s-2.24-.4-2.97-1.21Z"/><path d="m257.05,903.23c-.3-.29-.46-.68-.46-1.17s.15-.89.46-1.18.72-.44,1.25-.44.96.15,1.27.44.47.69.47,1.18-.16.88-.47,1.17-.74.43-1.27.43-.95-.14-1.25-.43Zm.06,2.91h2.42v14.26h-2.42v-14.26Z"/><path d="m266.07,919.78c-1.04-.6-1.83-1.46-2.39-2.58s-.84-2.43-.84-3.94.28-2.81.84-3.94,1.36-1.98,2.39-2.58,2.26-.9,3.66-.9c2.13,0,3.82.67,5.06,2,1.24,1.33,1.87,3.14,1.87,5.42s-.62,4.09-1.87,5.42c-1.24,1.33-2.93,2-5.06,2-1.41,0-2.63-.3-3.66-.9Zm6.97-2.44c.8-.99,1.2-2.35,1.2-4.08s-.4-3.09-1.2-4.08-1.9-1.48-3.31-1.48-2.48.49-3.28,1.48-1.2,2.35-1.2,4.08.4,3.09,1.2,4.08,1.89,1.48,3.28,1.48,2.51-.49,3.31-1.48Z"/><path d="m279.4,909.72c0-1.81-.04-3-.11-3.59h2.25c.08.63.11,1.47.11,2.54h.09c.42-.87,1.06-1.56,1.92-2.07.86-.5,1.83-.76,2.89-.76,1.67,0,2.93.54,3.76,1.63.84,1.08,1.26,2.7,1.26,4.84v8.07h-2.42v-8.1c0-1.52-.26-2.65-.77-3.39-.51-.74-1.29-1.11-2.34-1.11-.8,0-1.52.2-2.17.61s-1.15.98-1.51,1.71c-.36.73-.54,1.55-.54,2.47v7.81h-2.42v-10.66Z"/><path d="m302.01,909.72c0-1.44-.05-2.64-.14-3.59h2.17c.08.76.11,1.61.11,2.54h.09c.38-.87.98-1.56,1.8-2.07.82-.5,1.73-.76,2.74-.76s1.87.26,2.59.77,1.21,1.23,1.45,2.14c.4-.89,1.01-1.6,1.82-2.12.82-.52,1.74-.78,2.77-.78,1.56,0,2.78.5,3.66,1.51.88,1.01,1.33,2.42,1.33,4.22v8.81h-2.39v-8.61c0-1.29-.27-2.28-.81-2.97s-1.33-1.03-2.35-1.03-1.84.38-2.48,1.13c-.65.75-.97,1.71-.97,2.89v8.58h-2.39v-8.5c0-1.39-.25-2.42-.74-3.09-.5-.68-1.25-1.01-2.25-1.01-.63,0-1.22.19-1.77.57-.55.38-.99.88-1.32,1.51-.33.63-.5,1.3-.5,2.02v8.5h-2.4v-10.66Z"/><path d="m328.45,919.78c-1.04-.6-1.83-1.46-2.39-2.58s-.84-2.43-.84-3.94.28-2.81.84-3.94,1.36-1.98,2.39-2.58,2.26-.9,3.66-.9c2.13,0,3.82.67,5.06,2,1.24,1.33,1.87,3.14,1.87,5.42s-.62,4.09-1.87,5.42c-1.24,1.33-2.93,2-5.06,2-1.41,0-2.63-.3-3.66-.9Zm6.97-2.44c.8-.99,1.2-2.35,1.2-4.08s-.4-3.09-1.2-4.08-1.9-1.48-3.31-1.48-2.48.49-3.28,1.48-1.2,2.35-1.2,4.08.4,3.09,1.2,4.08,1.89,1.48,3.28,1.48,2.51-.49,3.31-1.48Z"/><path d="m352.65,906.13l-5.16,14.51c-1.31,3.67-3.34,5.5-6.07,5.5-.49,0-1.03-.07-1.6-.2v-1.85c.34.12.76.17,1.25.17.97,0,1.8-.35,2.48-1.05.68-.71,1.34-1.89,1.97-3.56l-5.3-13.52h2.59l3.82,10.92,3.39-10.92h2.62Z"/><path d="m366.42,914.2h-10.26c.13,1.44.56,2.54,1.28,3.29.72.75,1.72,1.13,2.99,1.13,1.71,0,3.07-.68,4.08-2.02l1.37,1.31c-.55.87-1.32,1.55-2.3,2.04-.98.48-2.06.73-3.24.73-2.11,0-3.74-.65-4.9-1.94-1.16-1.29-1.74-3.11-1.74-5.45s.58-4.14,1.75-5.46c1.17-1.32,2.78-1.98,4.83-1.98,1.92,0,3.42.65,4.5,1.95s1.63,3.12,1.63,5.46v.94Zm-2.22-2c0-1.37-.36-2.44-1.07-3.22-.71-.78-1.7-1.17-2.95-1.17-1.18,0-2.11.4-2.81,1.2-.69.8-1.1,1.93-1.21,3.39h8.04v-.2Z"/><path d="m369.15,909.72c0-1.81-.04-3-.11-3.59h2.25c.08.63.11,1.47.11,2.54h.09c.42-.87,1.06-1.56,1.92-2.07.86-.5,1.83-.76,2.89-.76,1.67,0,2.93.54,3.76,1.63.84,1.08,1.26,2.7,1.26,4.84v8.07h-2.42v-8.1c0-1.52-.26-2.65-.77-3.39-.51-.74-1.29-1.11-2.34-1.11-.8,0-1.52.2-2.17.61s-1.15.98-1.51,1.71c-.36.73-.54,1.55-.54,2.47v7.81h-2.42v-10.66Z"/><path d="m384.81,909.72c0-1.81-.04-3-.11-3.59h2.25c.08.63.11,1.47.11,2.54h.09c.42-.87,1.06-1.56,1.92-2.07.86-.5,1.83-.76,2.89-.76,1.67,0,2.93.54,3.76,1.63.84,1.08,1.26,2.7,1.26,4.84v8.07h-2.42v-8.1c0-1.52-.26-2.65-.77-3.39-.51-.74-1.29-1.11-2.34-1.11-.8,0-1.52.2-2.17.61s-1.15.98-1.51,1.71c-.36.73-.54,1.55-.54,2.47v7.81h-2.42v-10.66Z"/><path d="m412.49,914.2h-10.26c.13,1.44.56,2.54,1.28,3.29.72.75,1.72,1.13,2.99,1.13,1.71,0,3.07-.68,4.08-2.02l1.37,1.31c-.55.87-1.32,1.55-2.3,2.04-.98.48-2.06.73-3.24.73-2.11,0-3.74-.65-4.9-1.94-1.16-1.29-1.74-3.11-1.74-5.45s.58-4.14,1.75-5.46c1.17-1.32,2.78-1.98,4.83-1.98,1.92,0,3.42.65,4.5,1.95s1.63,3.12,1.63,5.46v.94Zm-2.22-2c0-1.37-.36-2.44-1.07-3.22-.71-.78-1.7-1.17-2.95-1.17-1.18,0-2.11.4-2.81,1.2-.69.8-1.1,1.93-1.21,3.39h8.04v-.2Z"/><path d="m132.95,943.94c0-1.22-.04-2.41-.11-3.59h2.22c.06.7.09,1.45.09,2.25h.06c.4-.76,1.02-1.37,1.85-1.84.84-.46,1.74-.7,2.71-.7,1.84,0,3.29.66,4.33,1.97,1.04,1.31,1.57,3.13,1.57,5.45,0,1.5-.25,2.81-.74,3.92-.49,1.11-1.19,1.97-2.1,2.58s-1.95.91-3.15.91c-.99,0-1.85-.19-2.59-.57s-1.28-.91-1.63-1.6h-.09v8.78h-2.42v-17.56Zm9.24,7.57c.7-1.02,1.05-2.39,1.05-4.12s-.34-3.06-1.03-3.99c-.68-.93-1.64-1.4-2.88-1.4-1.16,0-2.11.38-2.85,1.14-.74.76-1.11,1.73-1.11,2.91v2.59c0,1.31.36,2.37,1.08,3.18s1.67,1.21,2.85,1.21,2.18-.51,2.88-1.52Z"/><path d="m149.17,953.66c-.89-.82-1.34-1.87-1.34-3.16,0-1.43.54-2.53,1.61-3.31,1.07-.78,2.6-1.17,4.58-1.17h2.94v-.74c0-1.06-.28-1.88-.84-2.44-.56-.56-1.37-.84-2.44-.84-.85,0-1.64.18-2.35.53-.71.35-1.31.86-1.78,1.52l-1.23-1.48c.65-.82,1.44-1.44,2.37-1.87.93-.43,1.97-.64,3.11-.64,1.79,0,3.16.44,4.13,1.31.97.87,1.45,2.13,1.45,3.76v6.7c0,.74.11,1.66.34,2.77h-2.11c-.17-.44-.3-1.1-.37-2h-.06c-.53.74-1.19,1.31-1.97,1.7s-1.64.58-2.59.58c-1.41,0-2.56-.41-3.45-1.23Zm5.82-1.1c.61-.27,1.09-.65,1.44-1.13.35-.48.53-1,.53-1.57v-2.11h-3.02c-1.2,0-2.12.24-2.77.71s-.97,1.15-.97,2.03c0,.76.25,1.36.76,1.81.5.45,1.18.67,2.04.67.72,0,1.39-.14,2-.42Z"/><path d="m163.25,943.82c0-1.61-.03-2.77-.09-3.48h2.25c.08.76.11,1.6.11,2.51v.29h.08c.36-.99.94-1.75,1.74-2.28.8-.53,1.74-.8,2.82-.8.3,0,.58.03.83.09v2c-.25-.06-.58-.09-1-.09-.8,0-1.53.24-2.19.73-.67.48-1.19,1.14-1.57,1.98-.38.84-.57,1.75-.57,2.74v7.1h-2.42v-10.78Z"/><path d="m176.88,959.82l.09-1.8c.3.04.68.06,1.14.06,1.01,0,1.72-.29,2.14-.86.42-.57.63-1.46.63-2.68v-14.2h2.42v14.28c0,1.77-.37,3.11-1.11,4.02-.74.91-1.9,1.37-3.48,1.37-.61,0-1.22-.07-1.82-.2Zm3.86-22.4c-.31-.29-.47-.68-.47-1.15s.16-.89.47-1.18c.31-.29.74-.44,1.27-.44s.93.15,1.24.44.47.69.47,1.18-.16.86-.47,1.15c-.31.3-.73.44-1.24.44s-.95-.15-1.27-.44Z"/><path d="m189.55,953.99c-1.04-.6-1.83-1.46-2.39-2.58s-.84-2.43-.84-3.94.28-2.81.84-3.94,1.36-1.98,2.39-2.58,2.26-.9,3.66-.9c2.13,0,3.82.67,5.06,2,1.24,1.33,1.87,3.14,1.87,5.42s-.62,4.09-1.87,5.42c-1.24,1.33-2.93,2-5.06,2-1.41,0-2.63-.3-3.66-.9Zm6.97-2.44c.8-.99,1.2-2.35,1.2-4.08s-.4-3.09-1.2-4.08-1.9-1.48-3.31-1.48-2.48.49-3.28,1.48-1.2,2.35-1.2,4.08.4,3.09,1.2,4.08,1.89,1.48,3.28,1.48,2.51-.49,3.31-1.48Z"/><path d="m204.18,953.29c-.85-1.06-1.27-2.63-1.27-4.71v-8.24h2.42v8.27c0,2.89,1.03,4.33,3.08,4.33.8,0,1.52-.2,2.17-.61s1.15-.98,1.51-1.71c.36-.73.54-1.55.54-2.47v-7.81h2.42v11.23c0,.95.08,1.96.26,3.02h-2.22c-.17-.84-.27-1.68-.29-2.54h-.09c-.42.87-1.06,1.56-1.92,2.07-.86.5-1.83.76-2.89.76-1.63,0-2.87-.53-3.72-1.6Z"/><path d="m218.82,943.82c0-1.61-.03-2.77-.09-3.48h2.25c.08.76.11,1.6.11,2.51v.29h.08c.36-.99.94-1.75,1.74-2.28.8-.53,1.74-.8,2.82-.8.3,0,.58.03.83.09v2c-.25-.06-.58-.09-1-.09-.8,0-1.53.24-2.19.73-.67.48-1.19,1.14-1.57,1.98-.38.84-.57,1.75-.57,2.74v7.1h-2.42v-10.78Z"/><path d="m230.28,951.72c.36.44.54,1.06.54,1.85,0,1.01-.27,2.07-.81,3.19-.54,1.12-1.26,2.05-2.15,2.79l-1.03-1.17c.46-.45.86-1,1.21-1.64.35-.64.59-1.29.73-1.95-.08.02-.2.03-.37.03-.44,0-.8-.17-1.1-.5s-.44-.75-.44-1.27c0-.59.18-1.07.54-1.44s.84-.56,1.43-.56,1.09.22,1.45.66Z"/><path d="m241.08,943.94c0-1.22-.04-2.41-.11-3.59h2.22c.06.7.09,1.45.09,2.25h.06c.4-.76,1.02-1.37,1.85-1.84.84-.46,1.74-.7,2.71-.7,1.84,0,3.29.66,4.33,1.97,1.04,1.31,1.57,3.13,1.57,5.45,0,1.5-.25,2.81-.74,3.92-.49,1.11-1.19,1.97-2.1,2.58s-1.95.91-3.15.91c-.99,0-1.85-.19-2.59-.57s-1.28-.91-1.63-1.6h-.09v8.78h-2.42v-17.56Zm9.24,7.57c.7-1.02,1.05-2.39,1.05-4.12s-.34-3.06-1.03-3.99c-.68-.93-1.64-1.4-2.88-1.4-1.16,0-2.11.38-2.85,1.14-.74.76-1.11,1.73-1.11,2.91v2.59c0,1.31.36,2.37,1.08,3.18s1.67,1.21,2.85,1.21,2.18-.51,2.88-1.52Z"/><path d="m257.31,953.66c-.89-.82-1.34-1.87-1.34-3.16,0-1.43.54-2.53,1.61-3.31,1.07-.78,2.6-1.17,4.58-1.17h2.94v-.74c0-1.06-.28-1.88-.84-2.44-.56-.56-1.37-.84-2.44-.84-.85,0-1.64.18-2.35.53-.71.35-1.31.86-1.78,1.52l-1.23-1.48c.65-.82,1.44-1.44,2.37-1.87.93-.43,1.97-.64,3.11-.64,1.79,0,3.16.44,4.13,1.31.97.87,1.45,2.13,1.45,3.76v6.7c0,.74.11,1.66.34,2.77h-2.11c-.17-.44-.3-1.1-.37-2h-.06c-.53.74-1.19,1.31-1.97,1.7s-1.64.58-2.59.58c-1.41,0-2.56-.41-3.45-1.23Zm5.82-1.1c.61-.27,1.09-.65,1.44-1.13.35-.48.53-1,.53-1.57v-2.11h-3.02c-1.2,0-2.12.24-2.77.71s-.97,1.15-.97,2.03c0,.76.25,1.36.76,1.81.5.45,1.18.67,2.04.67.72,0,1.39-.14,2-.42Z"/><path d="m271.39,943.82c0-1.61-.03-2.77-.09-3.48h2.25c.08.76.11,1.6.11,2.51v.29h.08c.36-.99.94-1.75,1.74-2.28.8-.53,1.74-.8,2.82-.8.3,0,.58.03.83.09v2c-.25-.06-.58-.09-1-.09-.8,0-1.53.24-2.19.73-.67.48-1.19,1.14-1.57,1.98-.38.84-.57,1.75-.57,2.74v7.1h-2.42v-10.78Z"/><path d="m288.13,933.44h2.42v9.12c.44-.78,1.08-1.39,1.92-1.84s1.79-.67,2.84-.67c1.67,0,2.97.56,3.88,1.67.91,1.11,1.37,2.68,1.37,4.72v8.15h-2.42v-8.18c0-1.46-.28-2.58-.84-3.35-.56-.77-1.36-1.16-2.41-1.16-.82,0-1.56.21-2.22.63-.67.42-1.18,1-1.55,1.75-.37.75-.56,1.59-.56,2.52v7.78h-2.42v-21.16Z"/><path d="m304.78,953.66c-.89-.82-1.34-1.87-1.34-3.16,0-1.43.54-2.53,1.61-3.31,1.07-.78,2.6-1.17,4.58-1.17h2.94v-.74c0-1.06-.28-1.88-.84-2.44-.56-.56-1.37-.84-2.44-.84-.85,0-1.64.18-2.35.53-.71.35-1.31.86-1.78,1.52l-1.23-1.48c.65-.82,1.44-1.44,2.37-1.87.93-.43,1.97-.64,3.11-.64,1.79,0,3.16.44,4.13,1.31.97.87,1.45,2.13,1.45,3.76v6.7c0,.74.11,1.66.34,2.77h-2.11c-.17-.44-.3-1.1-.37-2h-.06c-.53.74-1.19,1.31-1.97,1.7s-1.64.58-2.59.58c-1.41,0-2.56-.41-3.45-1.23Zm5.82-1.1c.61-.27,1.09-.65,1.44-1.13.35-.48.53-1,.53-1.57v-2.11h-3.02c-1.2,0-2.12.24-2.77.71s-.97,1.15-.97,2.03c0,.76.25,1.36.76,1.81.5.45,1.18.67,2.04.67.72,0,1.39-.14,2-.42Z"/><path d="m322.85,954.19c-.84-.47-1.46-1.08-1.88-1.84h-.06c.02.61,0,1.36-.06,2.25h-2.22c.06-.63.09-1.82.09-3.59v-17.56h2.42v8.81h.06c.95-1.46,2.39-2.19,4.31-2.19s3.27.64,4.33,1.93c1.06,1.28,1.6,3.03,1.6,5.23,0,2.38-.54,4.25-1.61,5.62s-2.53,2.05-4.38,2.05c-.89,0-1.76-.23-2.6-.7Zm5.12-2.75c.69-1.01,1.04-2.39,1.04-4.16s-.35-3.01-1.04-3.95c-.69-.94-1.65-1.41-2.87-1.41s-2.13.4-2.87,1.21c-.73.81-1.1,1.87-1.1,3.18v2.59c0,1.24.36,2.22,1.07,2.95.71.73,1.68,1.1,2.89,1.1s2.17-.5,2.87-1.51Z"/><path d="m334.63,937.44c-.3-.29-.46-.68-.46-1.17s.15-.89.46-1.18.72-.44,1.25-.44.96.15,1.27.44.47.69.47,1.18-.16.88-.47,1.17-.74.43-1.27.43-.95-.14-1.25-.43Zm.06,2.91h2.42v14.26h-2.42v-14.26Z"/><path d="m343.32,953.67c-.72-.81-1.08-1.93-1.08-3.35v-8.1h-2.57v-1.88h2.57v-3.79l2.31-.71h.11v4.51h4.05v1.88h-4.05v7.87c0,.97.18,1.69.54,2.15.36.47.92.7,1.68.7.82,0,1.48-.1,2-.31l.17,1.8c-.63.3-1.55.46-2.77.46s-2.24-.4-2.97-1.21Z"/><path d="m352.62,953.66c-.89-.82-1.34-1.87-1.34-3.16,0-1.43.54-2.53,1.61-3.31,1.07-.78,2.6-1.17,4.58-1.17h2.94v-.74c0-1.06-.28-1.88-.84-2.44-.56-.56-1.37-.84-2.44-.84-.85,0-1.64.18-2.35.53-.71.35-1.31.86-1.78,1.52l-1.23-1.48c.65-.82,1.44-1.44,2.37-1.87.93-.43,1.97-.64,3.11-.64,1.79,0,3.16.44,4.13,1.31.97.87,1.45,2.13,1.45,3.76v6.7c0,.74.11,1.66.34,2.77h-2.11c-.17-.44-.3-1.1-.37-2h-.06c-.53.74-1.19,1.31-1.97,1.7s-1.64.58-2.59.58c-1.41,0-2.56-.41-3.45-1.23Zm5.82-1.1c.61-.27,1.09-.65,1.44-1.13.35-.48.53-1,.53-1.57v-2.11h-3.02c-1.2,0-2.12.24-2.77.71s-.97,1.15-.97,2.03c0,.76.25,1.36.76,1.81.5.45,1.18.67,2.04.67.72,0,1.39-.14,2-.42Z"/><path d="m366.5,943.94c0-1.81-.04-3-.11-3.59h2.25c.08.63.11,1.47.11,2.54h.09c.42-.87,1.06-1.56,1.92-2.07.86-.5,1.83-.76,2.89-.76,1.67,0,2.93.54,3.76,1.63.84,1.08,1.26,2.7,1.26,4.84v8.07h-2.42v-8.1c0-1.52-.26-2.65-.77-3.39-.51-.74-1.29-1.11-2.34-1.11-.8,0-1.52.2-2.17.61s-1.15.98-1.51,1.71c-.36.73-.54,1.55-.54,2.47v7.81h-2.42v-10.66Z"/><path d="m384.38,953.67c-.72-.81-1.08-1.93-1.08-3.35v-8.1h-2.57v-1.88h2.57v-3.79l2.31-.71h.11v4.51h4.05v1.88h-4.05v7.87c0,.97.18,1.69.54,2.15.36.47.92.7,1.68.7.82,0,1.48-.1,2-.31l.17,1.8c-.63.3-1.55.46-2.77.46s-2.24-.4-2.97-1.21Z"/></g></g></svg>