<?xml version="1.0" encoding="UTF-8"?><svg id="Calque_2" xmlns="http://www.w3.org/2000/svg" viewBox="0 0 358.24 587.76"><defs><style>.cls-1{fill:#fff;}.cls-2{fill:#ffb830;}.cls-3{fill:#eda42e;}.cls-4{fill:#3db2ff;}</style></defs><g id="douche"><path class="cls-2" d="m61.76,451.97V59.75s1.61-23.99,10.17-32.87c8.56-8.88,15.5-14.53,21.07-15.26s109.72,0,109.72,0v11.63h13.08V0h-123.05c-4.84,0-18.41,4.12-31,21.88-12.6,17.76-10.01,36.49-10.01,36.49v393.6h10.01Z"/><rect class="cls-2" y="451.13" width="358.24" height="64.67"/><path class="cls-2" d="m143.15,50.3s55.71-5.65,71.37-5.01c15.66.65,60.07,5.81,60.07,5.81,0,0-16.15-26.81-61.85-27.77-45.7-.97-69.6,26.97-69.6,26.97Z"/><path class="cls-3" d="m143.15,50.3s3.71,14.37,65.72,14.37,65.72-13.56,65.72-13.56c0,0-42.79-5.83-65.72-5.83s-65.72,5.03-65.72,5.03"/><path class="cls-4" d="m182.4,93.75s-6.56,10.47-6.56,14.39,3.62,6.39,6.56,6.39,6.55-2.68,6.55-6.25-4.89-12.24-6.55-14.52Z"/><path class="cls-4" d="m160.11,69.53s-6.56,10.47-6.56,14.39,3.62,6.39,6.56,6.39,6.55-2.68,6.55-6.25-4.89-12.24-6.55-14.52Z"/><path class="cls-4" d="m195.5,69.53s-6.56,10.47-6.56,14.39,3.62,6.39,6.56,6.39,6.55-2.68,6.55-6.25-4.89-12.24-6.55-14.52Z"/><path class="cls-4" d="m237.39,93.75s-6.56,10.47-6.56,14.39,3.62,6.39,6.56,6.39,6.55-2.68,6.55-6.25-4.89-12.24-6.55-14.52Z"/><path class="cls-4" d="m211.18,90.3s-6.56,10.47-6.56,14.39,3.62,6.39,6.56,6.39,6.55-2.68,6.55-6.25-4.89-12.24-6.55-14.52Z"/><path class="cls-4" d="m192.09,123.1s-6.56,10.47-6.56,14.39,3.62,6.39,6.56,6.39,6.55-2.68,6.55-6.25-4.89-12.24-6.55-14.52Z"/><path class="cls-4" d="m175.84,166.29s-6.56,10.47-6.56,14.39,3.62,6.39,6.56,6.39,6.55-2.68,6.55-6.25-4.89-12.24-6.55-14.52Z"/><path class="cls-4" d="m198.64,152.45s-6.56,10.47-6.56,14.39,3.62,6.39,6.56,6.39,6.55-2.68,6.55-6.25-4.89-12.24-6.55-14.52Z"/><path class="cls-4" d="m258.45,173.23s-6.56,10.47-6.56,14.39,3.62,6.39,6.56,6.39,6.55-2.68,6.55-6.25-4.89-12.24-6.55-14.52Z"/><path class="cls-4" d="m237.39,152.45s-6.56,10.47-6.56,14.39,3.62,6.39,6.56,6.39,6.55-2.68,6.55-6.25-4.89-12.24-6.55-14.52Z"/><path class="cls-4" d="m147.01,173.23s-6.56,10.47-6.56,14.39,3.62,6.39,6.56,6.39,6.55-2.68,6.55-6.25-4.89-12.24-6.55-14.52Z"/><path class="cls-4" d="m162.74,314.44s-6.56,10.47-6.56,14.39,3.62,6.39,6.56,6.39,6.55-2.68,6.55-6.25-4.89-12.24-6.55-14.52Z"/><path class="cls-4" d="m162.74,350.95s-6.56,10.47-6.56,14.39,3.62,6.39,6.56,6.39,6.55-2.68,6.55-6.25-4.89-12.24-6.55-14.52Z"/><path class="cls-4" d="m188.95,332.54s-6.56,10.47-6.56,14.39,3.62,6.39,6.56,6.39,6.55-2.68,6.55-6.25-4.89-12.24-6.55-14.52Z"/><path class="cls-4" d="m198.64,298.42s-6.56,10.47-6.56,14.39,3.62,6.39,6.56,6.39,6.55-2.68,6.55-6.25-4.89-12.24-6.55-14.52Z"/><path class="cls-4" d="m166.67,277.64s-6.56,10.47-6.56,14.39,3.62,6.39,6.56,6.39,6.55-2.68,6.55-6.25-4.89-12.24-6.55-14.52Z"/><path class="cls-4" d="m143.15,382.05s-6.56,10.47-6.56,14.39,3.62,6.39,6.56,6.39,6.55-2.68,6.55-6.25-4.89-12.24-6.55-14.52Z"/><path class="cls-4" d="m143.15,420.85s-6.56,10.47-6.56,14.39,3.62,6.39,6.56,6.39,6.55-2.68,6.55-6.25-4.89-12.24-6.55-14.52Z"/><path class="cls-4" d="m267.91,350.95s-6.56,10.47-6.56,14.39,3.62,6.39,6.56,6.39,6.55-2.68,6.55-6.25-4.89-12.24-6.55-14.52Z"/><path class="cls-4" d="m258.45,322.15s-6.56,10.47-6.56,14.39,3.62,6.39,6.56,6.39,6.55-2.68,6.55-6.25-4.89-12.24-6.55-14.52Z"/><path class="cls-4" d="m238.59,361.34s-6.56,10.47-6.56,14.39,3.62,6.39,6.56,6.39,6.55-2.68,6.55-6.25-4.89-12.24-6.55-14.52Z"/><path class="cls-4" d="m217.73,382.17s-6.56,10.47-6.56,14.39,3.62,6.39,6.56,6.39,6.55-2.68,6.55-6.25-4.89-12.24-6.55-14.52Z"/><path class="cls-4" d="m271.14,382.17s-6.56,10.47-6.56,14.39,3.62,6.39,6.56,6.39,6.55-2.68,6.55-6.25-4.89-12.24-6.55-14.52Z"/><path class="cls-4" d="m274.47,288.03s-6.56,10.47-6.56,14.39,3.62,6.39,6.56,6.39,6.55-2.68,6.55-6.25-4.89-12.24-6.55-14.52Z"/><path class="cls-4" d="m202.06,270.71s-6.56,10.47-6.56,14.39,3.62,6.39,6.56,6.39,6.55-2.68,6.55-6.25-4.89-12.24-6.55-14.52Z"/><path class="cls-4" d="m208.87,232.44s-6.56,10.47-6.56,14.39,3.62,6.39,6.56,6.39,6.55-2.68,6.55-6.25-4.89-12.24-6.55-14.52Z"/><path class="cls-4" d="m144.64,292.72s-6.56,10.47-6.56,14.39,3.62,6.39,6.56,6.39,6.55-2.68,6.55-6.25-4.89-12.24-6.55-14.52Z"/><path class="cls-4" d="m138.09,343.25s-6.56,10.47-6.56,14.39,3.62,6.39,6.56,6.39,6.55-2.68,6.55-6.25-4.89-12.24-6.55-14.52Z"/><path class="cls-4" d="m223.06,270.71s-6.56,10.47-6.56,14.39,3.62,6.39,6.56,6.39,6.55-2.68,6.55-6.25-4.89-12.24-6.55-14.52Z"/><path class="cls-4" d="m160.11,128.79s-6.56,10.47-6.56,14.39,3.62,6.39,6.56,6.39,6.55-2.68,6.55-6.25-4.89-12.24-6.55-14.52Z"/><path class="cls-4" d="m224.29,118.4s-6.56,10.47-6.56,14.39,3.62,6.39,6.56,6.39,6.55-2.68,6.55-6.25-4.89-12.24-6.55-14.52Z"/><path class="cls-4" d="m254.81,114.52s-6.56,10.47-6.56,14.39,3.62,6.39,6.56,6.39,6.55-2.68,6.55-6.25-4.89-12.24-6.55-14.52Z"/><path class="cls-4" d="m251.9,69.53s-6.56,10.47-6.56,14.39,3.62,6.39,6.56,6.39,6.55-2.68,6.55-6.25-4.89-12.24-6.55-14.52Z"/></g><g id="texte_tips_2"><path d="m138.7,451.25v-13.01c0-13.52,2.09-25.68,6.27-36.47,4.18-10.79,9.58-20.8,16.18-30.04,6.61-9.24,13.58-18.3,20.91-27.18,7.12-8.67,13.91-17.58,20.36-26.71,6.45-9.14,11.72-19.05,15.8-29.73,4.08-10.69,6.12-22.69,6.12-36,0-6.4-.95-11.9-2.86-16.49-1.91-4.59-5.86-6.89-11.85-6.89-9.08,0-13.63,8.1-13.63,24.31v33.29h-57.3c-.1-2.37-.23-5.06-.39-8.05-.15-2.99-.23-5.88-.23-8.67,0-19.61,2.06-36.26,6.19-49.94,4.13-13.68,11.43-24.11,21.91-31.28,10.48-7.17,25.22-10.76,44.21-10.76,22.61,0,40.18,6.35,52.73,19.05,12.54,12.7,18.81,30.82,18.81,54.35,0,16-2.06,30.02-6.19,42.04-4.13,12.03-9.6,22.97-16.41,32.83-6.81,9.86-14.3,19.69-22.45,29.5-5.78,6.92-11.38,13.99-16.8,21.22-5.42,7.23-10.19,14.97-14.32,23.23h74.33v51.41h-141.38Z"/><g><path class="cls-1" d="m140.31,508.96c-3.79,0-6.89-.94-9.29-2.82s-3.6-4.76-3.6-8.65v-7.34h10.26v4.23c0,.88.05,1.73.15,2.55s.34,1.49.71,2.02.96.78,1.77.78c1.06,0,1.77-.36,2.1-1.08s.5-1.64.5-2.76v-9.7c0-.8-.05-1.6-.15-2.38s-.33-1.44-.69-1.96-.92-.78-1.71-.78c-1.87,0-2.8,1.35-2.8,4.06h-9.05v-26.23h23.51v9.25h-14.15v6.95c.49-.6,1.14-1.13,1.98-1.58s1.81-.69,2.93-.69c2.24,0,4.07.43,5.48,1.29s2.49,2.06,3.25,3.59c.76,1.53,1.28,3.31,1.57,5.32.29,2.02.43,4.18.43,6.5,0,2.97-.15,5.65-.46,8.03s-.92,4.42-1.82,6.12-2.23,3-3.98,3.91-4.06,1.36-6.94,1.36Z"/><path class="cls-1" d="m168.67,508.71c-4.17,0-7.38-1.17-9.65-3.5s-3.4-5.7-3.4-10.09v-22.25c0-4.63,1.08-8.19,3.24-10.66s5.43-3.71,9.82-3.71,7.69,1.24,9.84,3.71c2.15,2.48,3.22,6.03,3.22,10.66v22.25c0,4.39-1.13,7.75-3.39,10.09s-5.48,3.5-9.67,3.5Zm0-9.08c.77,0,1.36-.35,1.79-1.04s.64-1.47.64-2.33v-24.35c0-1.16-.13-2.17-.38-3.04s-.94-1.3-2.06-1.3-1.81.43-2.06,1.3-.38,1.88-.38,3.04v24.35c0,.86.22,1.63.66,2.33s1.03,1.04,1.78,1.04Z"/><path class="cls-1" d="m185.03,508.26v-49.32h9.86v40.91h10.14v8.41h-20.01Z"/></g><g><path class="cls-1" d="m217.42,476.98c-.82,0-1.45-.19-1.88-.57s-.73-.9-.88-1.57-.24-1.42-.24-2.26c0-.9.09-1.64.27-2.22s.48-1.05.91-1.42,1.02-.68,1.78-.94l2.19-.75v-1.52c0-.8-.26-1.19-.78-1.19-.47,0-.71.32-.71.97v.89h-3.43c0-.05,0-.12,0-.2v-.28c0-1.47.35-2.52,1.04-3.13s1.79-.92,3.3-.92c.79,0,1.5.14,2.12.42s1.12.69,1.49,1.24.55,1.22.55,2.02v11.28h-3.51v-1.76c-.17.62-.45,1.09-.85,1.42s-.85.49-1.35.49Zm1.39-2.74c.29,0,.49-.12.59-.37s.16-.51.16-.79v-4.13c-.49.2-.87.45-1.14.75s-.4.74-.4,1.32v1.9c0,.88.26,1.31.79,1.31Z"/><path class="cls-1" d="m227.35,476.98c-.79,0-1.39-.16-1.81-.49s-.7-.79-.85-1.38-.23-1.28-.23-2.07v-11.03h3.55v10.61c0,.59.05,1.01.14,1.24s.31.35.65.35c.37,0,.6-.16.7-.49s.14-.75.14-1.27v-10.43h3.52v14.81h-3.53v-1.58c-.22.57-.49,1-.8,1.29s-.8.44-1.48.44Z"/><path class="cls-1" d="m239.33,476.82v-17.37h3.59v17.37h-3.59Z"/><path class="cls-1" d="m244.32,461.11v-2.94h3.53v2.94h-3.53Zm0,15.71v-14.81h3.53v14.81h-3.53Z"/><path class="cls-1" d="m253.4,476.98c-1.05,0-1.89-.2-2.52-.59s-1.07-.96-1.34-1.71-.4-1.64-.4-2.68v-5.95c0-1.38.39-2.42,1.18-3.12s1.88-1.06,3.26-1.06c2.84,0,4.26,1.39,4.26,4.18v1.08c0,1.3-.01,2.18-.04,2.63h-5.13v2.86c0,.26.02.52.05.77s.11.46.22.63.3.25.56.25c.37,0,.6-.16.69-.48s.14-.74.14-1.25v-1.42h3.51v.84c0,1.11-.14,2.03-.41,2.78s-.73,1.31-1.38,1.69-1.53.57-2.65.57Zm-.75-8.99h1.68v-1.99c0-.53-.07-.92-.2-1.15s-.33-.35-.59-.35c-.28,0-.5.11-.66.34s-.23.61-.23,1.16v1.99Z"/><path class="cls-1" d="m261.98,476.98c-.79,0-1.39-.16-1.81-.49s-.7-.79-.85-1.38-.23-1.28-.23-2.07v-11.03h3.55v10.61c0,.59.05,1.01.14,1.24s.31.35.65.35c.37,0,.6-.16.7-.49s.14-.75.14-1.27v-10.43h3.52v14.81h-3.53v-1.58c-.22.57-.49,1-.8,1.29s-.8.44-1.48.44Z"/><path class="cls-1" d="m276.86,476.98c-.68,0-1.23-.13-1.63-.38s-.7-.6-.9-1.04-.33-.96-.39-1.55-.09-1.23-.09-1.9v-6.44c0-1.14.2-2.06.61-2.76s1.09-1.06,2.06-1.06c.72,0,1.27.15,1.65.46s.68.73.89,1.28v-4.15h3.59v17.37h-3.59v-1.57c-.2.53-.46.95-.78,1.26s-.8.46-1.42.46Zm1.35-2.76c.34,0,.56-.13.68-.4s.17-.75.17-1.45v-6.23c0-.35-.05-.69-.15-1.03s-.33-.51-.68-.51c-.38,0-.62.16-.72.48s-.15.67-.15,1.06v6.23c0,1.24.28,1.86.85,1.86Z"/><path class="cls-1" d="m288.16,476.98c-1.05,0-1.89-.2-2.52-.59s-1.07-.96-1.34-1.71-.4-1.64-.4-2.68v-5.95c0-1.38.39-2.42,1.18-3.12s1.88-1.06,3.26-1.06c2.84,0,4.26,1.39,4.26,4.18v1.08c0,1.3-.01,2.18-.04,2.63h-5.13v2.86c0,.26.02.52.05.77s.11.46.22.63.3.25.56.25c.37,0,.6-.16.69-.48s.14-.74.14-1.25v-1.42h3.51v.84c0,1.11-.14,2.03-.41,2.78s-.73,1.31-1.38,1.69-1.53.57-2.65.57Zm-.75-8.99h1.68v-1.99c0-.53-.07-.92-.2-1.15s-.33-.35-.59-.35c-.28,0-.5.11-.66.34s-.23.61-.23,1.16v1.99Z"/></g><g><path class="cls-1" d="m217.88,507.92v-18.51c-.33.39-.78.71-1.35.95s-1.12.36-1.62.36v-3.84c.48-.07,1-.23,1.56-.47s1.07-.57,1.55-1,.84-.94,1.1-1.54h3.86v24.04h-5.09Z"/><path class="cls-1" d="m230.71,508.26c-1.85,0-3.36-.46-4.53-1.37s-1.75-2.32-1.75-4.21v-3.58h5v2.06c0,.43.03.84.08,1.24s.17.73.35.98.47.38.86.38c.52,0,.86-.18,1.02-.53s.25-.8.25-1.34v-4.72c0-.39-.03-.78-.08-1.16s-.16-.7-.33-.96-.45-.38-.83-.38c-.91,0-1.37.66-1.37,1.98h-4.41v-12.78h11.46v4.51h-6.9v3.39c.24-.29.56-.55.96-.77s.88-.33,1.43-.33c1.09,0,1.98.21,2.67.63s1.22,1,1.58,1.75.62,1.61.76,2.59.21,2.04.21,3.17c0,1.45-.08,2.75-.23,3.91s-.45,2.16-.89,2.98-1.09,1.46-1.94,1.9-1.98.66-3.38.66Z"/><path class="cls-1" d="m244.53,508.14c-2.03,0-3.6-.57-4.7-1.71s-1.66-2.78-1.66-4.92v-10.84c0-2.26.53-3.99,1.58-5.2s2.65-1.81,4.79-1.81,3.75.6,4.79,1.81,1.57,2.94,1.57,5.2v10.84c0,2.14-.55,3.78-1.65,4.92s-2.67,1.71-4.71,1.71Zm0-4.42c.37,0,.66-.17.87-.51s.31-.71.31-1.13v-11.87c0-.56-.06-1.06-.18-1.48s-.46-.63-1-.63-.88.21-1,.63-.18.92-.18,1.48v11.87c0,.42.11.8.32,1.13s.5.51.87.51Z"/><path class="cls-1" d="m252.5,507.92v-24.03h4.81v19.93h4.94v4.1h-9.75Z"/></g><g><path d="m66.82,549.35c-1.28-1.44-1.92-3.58-1.92-6.42v-12.87h2.81v12.81c0,4.23,1.6,6.34,4.8,6.34s4.8-2.11,4.8-6.34v-12.81h2.78v12.87c0,2.82-.64,4.95-1.92,6.4-1.28,1.45-3.17,2.18-5.66,2.18s-4.42-.72-5.7-2.16Z"/><path d="m86.59,550.23c-.77-.86-1.15-2.04-1.15-3.55v-8.58h-2.72v-1.99h2.72v-4.02l2.45-.75h.12v4.77h4.29v1.99h-4.29v8.34c0,1.03.19,1.79.58,2.28.38.49.98.74,1.78.74.87,0,1.57-.11,2.11-.33l.18,1.9c-.67.32-1.64.48-2.93.48s-2.38-.43-3.14-1.28Z"/><path d="m96.16,533.03c-.32-.3-.48-.71-.48-1.24s.16-.94.48-1.25.77-.47,1.33-.47,1.01.16,1.34.47.5.73.5,1.25-.17.94-.5,1.24-.78.45-1.34.45-1.01-.15-1.33-.45Zm.06,3.08h2.57v15.1h-2.57v-15.1Z"/><path d="m103.33,547.68v-18.88h2.57v18.85c0,.71.12,1.2.35,1.5.23.29.63.44,1.19.44.44,0,.95-.12,1.51-.36l.39,1.54c-.76.5-1.68.76-2.75.76-2.17,0-3.26-1.28-3.26-3.84Z"/><path d="m112.36,533.03c-.32-.3-.48-.71-.48-1.24s.16-.94.48-1.25.77-.47,1.33-.47,1.01.16,1.34.47.5.73.5,1.25-.17.94-.5,1.24-.78.45-1.34.45-1.01-.15-1.33-.45Zm.06,3.08h2.57v15.1h-2.57v-15.1Z"/><path d="m120.38,550.82c-.91-.46-1.57-1.08-1.95-1.84l1.66-1.15c.34.54.81.97,1.42,1.27.6.3,1.26.45,1.96.45.85,0,1.54-.25,2.1-.74.55-.49.83-1.11.83-1.86,0-.6-.22-1.11-.67-1.51-.44-.4-1.23-.82-2.36-1.24-1.71-.62-2.92-1.28-3.61-1.96-.7-.68-1.04-1.53-1.04-2.54,0-1.17.46-2.11,1.39-2.82.93-.72,2.15-1.07,3.69-1.07.99,0,1.89.21,2.7.63.82.42,1.45,1.01,1.89,1.75l-1.57,1.15c-.71-1.05-1.71-1.57-3.02-1.57-.74,0-1.35.17-1.83.51-.47.34-.71.79-.71,1.33s.24,1,.73,1.37c.48.37,1.38.81,2.69,1.31,1.55.58,2.65,1.22,3.29,1.92.64.69.97,1.58.97,2.64,0,1.41-.5,2.54-1.51,3.38-1.01.85-2.34,1.27-3.99,1.27-1.13,0-2.15-.23-3.07-.69Z"/><path d="m145.13,544.66h-10.88c.14,1.53.59,2.69,1.36,3.49.76.8,1.82,1.19,3.17,1.19,1.81,0,3.25-.71,4.32-2.14l1.45,1.39c-.58.93-1.39,1.65-2.43,2.16s-2.18.77-3.43.77c-2.23,0-3.97-.68-5.19-2.05s-1.84-3.29-1.84-5.77.62-4.39,1.86-5.79c1.24-1.4,2.95-2.1,5.12-2.1,2.03,0,3.62.69,4.77,2.07s1.72,3.31,1.72,5.78v1Zm-2.36-2.11c0-1.45-.38-2.59-1.13-3.41-.76-.83-1.8-1.24-3.13-1.24-1.25,0-2.24.42-2.98,1.27s-1.16,2.04-1.28,3.6h8.52v-.21Z"/><path d="m148.24,539.79c0-1.71-.03-2.94-.09-3.69h2.39c.08.81.12,1.69.12,2.66v.3h.09c.38-1.05,1-1.85,1.84-2.42.85-.56,1.84-.85,2.99-.85.32,0,.61.03.88.09v2.11c-.26-.06-.61-.09-1.06-.09-.85,0-1.62.26-2.33.77-.7.51-1.26,1.21-1.66,2.1-.4.89-.6,1.85-.6,2.9v7.52h-2.57v-11.42Z"/><path d="m167.32,549.82c-.89-1.13-1.34-2.79-1.34-4.99v-8.73h2.57v8.76c0,3.06,1.09,4.59,3.26,4.59.85,0,1.61-.22,2.3-.65.68-.43,1.22-1.04,1.6-1.81.38-.78.58-1.65.58-2.61v-8.28h2.57v11.9c0,1.01.09,2.07.27,3.2h-2.36c-.18-.89-.28-1.78-.3-2.69h-.09c-.44.93-1.12,1.66-2.04,2.19-.92.53-1.94.8-3.07.8-1.73,0-3.05-.56-3.94-1.69Z"/><path d="m182.62,539.91c0-1.91-.04-3.18-.12-3.81h2.39c.08.66.12,1.56.12,2.69h.09c.44-.93,1.12-1.66,2.04-2.19s1.94-.8,3.07-.8c1.77,0,3.1.57,3.99,1.72.89,1.15,1.33,2.86,1.33,5.14v8.55h-2.57v-8.58c0-1.61-.27-2.81-.82-3.59s-1.37-1.18-2.48-1.18c-.85,0-1.61.22-2.3.65-.68.43-1.22,1.04-1.6,1.81-.38.78-.57,1.65-.57,2.61v8.28h-2.57v-11.3Z"/><path d="m211.95,544.66h-10.88c.14,1.53.59,2.69,1.36,3.49.76.8,1.82,1.19,3.17,1.19,1.81,0,3.25-.71,4.32-2.14l1.45,1.39c-.58.93-1.39,1.65-2.43,2.16s-2.18.77-3.43.77c-2.23,0-3.97-.68-5.19-2.05s-1.84-3.29-1.84-5.77.62-4.39,1.86-5.79c1.24-1.4,2.95-2.1,5.12-2.1,2.03,0,3.62.69,4.77,2.07s1.72,3.31,1.72,5.78v1Zm-2.36-2.11c0-1.45-.38-2.59-1.13-3.41-.76-.83-1.8-1.24-3.13-1.24-1.25,0-2.24.42-2.98,1.27s-1.16,2.04-1.28,3.6h8.52v-.21Z"/><path d="m223.12,549.34c-1.14-1.45-1.71-3.43-1.71-5.95,0-1.53.26-2.87.78-4,.52-1.14,1.27-2.02,2.24-2.64.97-.62,2.09-.94,3.38-.94,1.85,0,3.34.78,4.47,2.33h.06v-9.33h2.54v18.61c0,1.87.03,3.14.09,3.81h-2.36c-.04-.48-.06-1.28-.06-2.39h-.06c-.46.81-1.13,1.46-1.99,1.95-.87.49-1.78.74-2.75.74-1.95,0-3.5-.73-4.64-2.18Zm8.07-1.04c.75-.77,1.13-1.82,1.13-3.13v-2.75c0-1.41-.38-2.54-1.15-3.38-.77-.85-1.78-1.27-3.05-1.27s-2.3.5-3.04,1.49-1.1,2.39-1.1,4.18.37,3.34,1.1,4.41c.74,1.07,1.75,1.6,3.04,1.6s2.31-.39,3.07-1.16Z"/><path d="m241.27,550.56c-1.1-.63-1.94-1.55-2.54-2.73-.59-1.19-.89-2.58-.89-4.17s.3-2.98.89-4.17c.59-1.19,1.44-2.1,2.54-2.73,1.1-.63,2.39-.95,3.88-.95,2.25,0,4.04.71,5.36,2.12,1.32,1.41,1.98,3.32,1.98,5.74s-.66,4.33-1.98,5.74c-1.32,1.41-3.11,2.12-5.36,2.12-1.49,0-2.79-.32-3.88-.95Zm7.38-2.58c.85-1.05,1.27-2.49,1.27-4.32s-.42-3.27-1.27-4.32c-.85-1.05-2.01-1.57-3.5-1.57s-2.63.52-3.47,1.57-1.27,2.49-1.27,4.32.42,3.27,1.27,4.32c.85,1.05,2,1.57,3.47,1.57s2.66-.52,3.5-1.57Z"/><path d="m256.77,549.82c-.89-1.13-1.34-2.79-1.34-4.99v-8.73h2.57v8.76c0,3.06,1.09,4.59,3.26,4.59.85,0,1.61-.22,2.3-.65.68-.43,1.22-1.04,1.6-1.81.38-.78.58-1.65.58-2.61v-8.28h2.57v11.9c0,1.01.09,2.07.27,3.2h-2.36c-.18-.89-.28-1.78-.3-2.69h-.09c-.44.93-1.12,1.66-2.04,2.19-.92.53-1.94.8-3.07.8-1.73,0-3.05-.56-3.94-1.69Z"/><path d="m273.14,549.44c-1.24-1.38-1.86-3.31-1.86-5.78s.62-4.41,1.86-5.78c1.24-1.38,2.97-2.07,5.21-2.07,1.27,0,2.39.25,3.37.74.98.49,1.75,1.2,2.31,2.13l-1.54,1.39c-.44-.68-1.02-1.22-1.74-1.62-.72-.39-1.48-.59-2.31-.59-1.43,0-2.55.51-3.37,1.53-.82,1.02-1.22,2.44-1.22,4.28s.41,3.23,1.22,4.26c.82,1.03,1.94,1.54,3.37,1.54.83,0,1.6-.2,2.31-.59.72-.39,1.29-.93,1.74-1.62l1.54,1.39c-.56.93-1.33,1.64-2.31,2.13-.98.49-2.1.74-3.37.74-2.23,0-3.97-.69-5.21-2.07Z"/><path d="m286.39,528.8h2.57v9.67c.46-.83,1.14-1.48,2.04-1.95.9-.47,1.9-.71,3.01-.71,1.77,0,3.14.59,4.11,1.77.97,1.18,1.45,2.84,1.45,5v8.64h-2.57v-8.67c0-1.55-.3-2.73-.89-3.55s-1.45-1.22-2.55-1.22c-.87,0-1.65.22-2.36.66-.7.44-1.25,1.06-1.64,1.86-.39.8-.59,1.69-.59,2.67v8.25h-2.57v-22.41Z"/><path d="m315.96,544.66h-10.88c.14,1.53.59,2.69,1.36,3.49.76.8,1.82,1.19,3.17,1.19,1.81,0,3.25-.71,4.32-2.14l1.45,1.39c-.58.93-1.39,1.65-2.43,2.16s-2.18.77-3.43.77c-2.23,0-3.97-.68-5.19-2.05s-1.84-3.29-1.84-5.77.62-4.39,1.86-5.79c1.24-1.4,2.95-2.1,5.12-2.1,2.03,0,3.62.69,4.77,2.07s1.72,3.31,1.72,5.78v1Zm-2.36-2.11c0-1.45-.38-2.59-1.13-3.41-.76-.83-1.8-1.24-3.13-1.24-1.25,0-2.24.42-2.98,1.27-.74.85-1.16,2.04-1.28,3.6h8.52v-.21Z"/><path d="m83.2,586.46c-.95-.87-1.42-1.98-1.42-3.35,0-1.51.57-2.68,1.71-3.5,1.14-.82,2.75-1.24,4.85-1.24h3.11v-.79c0-1.13-.3-1.99-.89-2.58-.59-.59-1.46-.89-2.58-.89-.91,0-1.74.19-2.49.56s-1.39.91-1.89,1.62l-1.3-1.57c.69-.87,1.52-1.53,2.51-1.98.99-.45,2.08-.68,3.29-.68,1.89,0,3.35.46,4.38,1.39,1.03.93,1.54,2.26,1.54,3.99v7.1c0,.79.12,1.76.36,2.93h-2.24c-.18-.46-.31-1.17-.39-2.11h-.06c-.56.79-1.26,1.38-2.08,1.8s-1.74.62-2.75.62c-1.49,0-2.71-.43-3.66-1.3Zm6.16-1.16c.64-.29,1.15-.69,1.52-1.19.37-.5.56-1.06.56-1.66v-2.23h-3.2c-1.27,0-2.24.25-2.93.75-.68.5-1.03,1.22-1.03,2.14,0,.81.27,1.45.8,1.92s1.25.71,2.16.71c.76,0,1.47-.15,2.11-.44Z"/><path d="m99.29,586.07c-.89-1.13-1.34-2.79-1.34-4.99v-8.73h2.57v8.76c0,3.06,1.09,4.59,3.26,4.59.85,0,1.61-.22,2.3-.65.68-.43,1.22-1.04,1.6-1.81.38-.78.58-1.65.58-2.61v-8.28h2.57v11.9c0,1.01.09,2.07.27,3.2h-2.36c-.18-.89-.28-1.78-.3-2.69h-.09c-.44.93-1.12,1.66-2.04,2.19-.92.53-1.94.8-3.07.8-1.73,0-3.05-.56-3.94-1.69Z"/><path d="m122.23,583.93v-18.88h2.57v18.85c0,.71.12,1.2.35,1.5.23.29.63.44,1.19.44.44,0,.95-.12,1.51-.36l.39,1.54c-.76.5-1.68.76-2.75.76-2.17,0-3.26-1.28-3.26-3.84Z"/><path d="m131.26,569.28c-.32-.3-.48-.71-.48-1.24s.16-.94.48-1.25.77-.47,1.33-.47,1.01.16,1.34.47.5.73.5,1.25-.17.94-.5,1.24-.78.45-1.34.45-1.01-.15-1.33-.45Zm.06,3.08h2.57v15.1h-2.57v-15.1Z"/><path d="m150.87,580.91h-10.88c.14,1.53.59,2.69,1.36,3.49.76.8,1.82,1.19,3.17,1.19,1.81,0,3.25-.71,4.32-2.14l1.45,1.39c-.58.93-1.39,1.65-2.43,2.16s-2.18.77-3.43.77c-2.23,0-3.97-.68-5.19-2.05s-1.84-3.29-1.84-5.77.62-4.39,1.86-5.79c1.24-1.4,2.95-2.1,5.12-2.1,2.03,0,3.62.69,4.77,2.07s1.72,3.31,1.72,5.78v1Zm-2.36-2.11c0-1.45-.38-2.59-1.13-3.41-.76-.83-1.8-1.24-3.13-1.24-1.25,0-2.24.42-2.98,1.27s-1.16,2.04-1.28,3.6h8.52v-.21Z"/><path d="m155.14,586.07c-.89-1.13-1.34-2.79-1.34-4.99v-8.73h2.57v8.76c0,3.06,1.09,4.59,3.26,4.59.85,0,1.61-.22,2.3-.65.68-.43,1.22-1.04,1.6-1.81.38-.78.58-1.65.58-2.61v-8.28h2.57v11.9c0,1.01.09,2.07.27,3.2h-2.36c-.18-.89-.28-1.78-.3-2.69h-.09c-.44.93-1.12,1.66-2.04,2.19-.92.53-1.94.8-3.07.8-1.73,0-3.05-.56-3.94-1.69Z"/><path d="m178.71,585.59c-1.14-1.45-1.71-3.43-1.71-5.95,0-1.53.26-2.87.78-4,.52-1.14,1.27-2.02,2.24-2.64.97-.62,2.09-.94,3.38-.94,1.85,0,3.34.78,4.47,2.33h.06v-9.33h2.54v18.61c0,1.87.03,3.14.09,3.81h-2.36c-.04-.48-.06-1.28-.06-2.39h-.06c-.46.81-1.13,1.46-1.99,1.95-.87.49-1.78.74-2.75.74-1.95,0-3.5-.73-4.64-2.18Zm8.07-1.04c.75-.77,1.13-1.82,1.13-3.13v-2.75c0-1.41-.38-2.54-1.15-3.38-.77-.85-1.78-1.27-3.05-1.27s-2.3.5-3.04,1.49-1.1,2.39-1.1,4.18.37,3.34,1.1,4.41c.74,1.07,1.75,1.6,3.04,1.6s2.31-.39,3.07-1.16Z"/><path d="m198.99,566.35c.38.46.58,1.12.58,1.96,0,1.07-.28,2.2-.85,3.38-.57,1.19-1.33,2.19-2.3,2.99l-1.09-1.24c.5-.5.93-1.09,1.3-1.77.36-.67.61-1.36.75-2.07-.08.02-.21.03-.39.03-.46,0-.85-.18-1.16-.53-.31-.35-.47-.8-.47-1.34,0-.62.19-1.13.57-1.53.38-.39.89-.59,1.51-.59s1.16.23,1.54.69Z"/><path d="m205.74,586.07c-.89-1.13-1.34-2.79-1.34-4.99v-8.73h2.57v8.76c0,3.06,1.09,4.59,3.26,4.59.85,0,1.61-.22,2.3-.65.68-.43,1.22-1.04,1.6-1.81.38-.78.58-1.65.58-2.61v-8.28h2.57v11.9c0,1.01.09,2.07.27,3.2h-2.36c-.18-.89-.28-1.78-.3-2.69h-.09c-.44.93-1.12,1.66-2.04,2.19-.92.53-1.94.8-3.07.8-1.73,0-3.05-.56-3.94-1.69Z"/><path d="m221.04,576.16c0-1.91-.04-3.18-.12-3.81h2.39c.08.66.12,1.56.12,2.69h.09c.44-.93,1.12-1.66,2.04-2.19s1.94-.8,3.07-.8c1.77,0,3.1.57,3.99,1.72.89,1.15,1.33,2.86,1.33,5.14v8.55h-2.57v-8.58c0-1.61-.27-2.81-.82-3.59s-1.37-1.18-2.48-1.18c-.85,0-1.61.22-2.3.65-.68.43-1.22,1.04-1.6,1.81-.38.78-.57,1.65-.57,2.61v8.28h-2.57v-11.3Z"/><path d="m249.41,587.02c-.89-.49-1.55-1.14-1.99-1.95h-.06c.02.65,0,1.44-.06,2.39h-2.36c.06-.66.09-1.93.09-3.81v-18.61h2.57v9.33h.06c1.01-1.55,2.53-2.33,4.56-2.33s3.46.68,4.59,2.04c1.13,1.36,1.69,3.21,1.69,5.54,0,2.52-.57,4.5-1.71,5.95-1.14,1.45-2.68,2.18-4.64,2.18-.95,0-1.86-.25-2.75-.74Zm5.42-2.92c.74-1.07,1.1-2.54,1.1-4.41s-.37-3.19-1.1-4.18c-.74-1-1.75-1.49-3.04-1.49s-2.26.43-3.04,1.28c-.77.86-1.16,1.98-1.16,3.37v2.75c0,1.31.38,2.35,1.13,3.13.75.78,1.78,1.16,3.07,1.16s2.3-.53,3.04-1.6Z"/><path d="m262.16,586.46c-.95-.87-1.42-1.98-1.42-3.35,0-1.51.57-2.68,1.71-3.5,1.14-.82,2.75-1.24,4.85-1.24h3.11v-.79c0-1.13-.3-1.99-.89-2.58-.59-.59-1.46-.89-2.58-.89-.91,0-1.74.19-2.49.56s-1.39.91-1.89,1.62l-1.3-1.57c.69-.87,1.52-1.53,2.51-1.98.99-.45,2.08-.68,3.29-.68,1.89,0,3.35.46,4.38,1.39,1.03.93,1.54,2.26,1.54,3.99v7.1c0,.79.12,1.76.36,2.93h-2.24c-.18-.46-.31-1.17-.39-2.11h-.06c-.56.79-1.26,1.38-2.08,1.8s-1.74.62-2.75.62c-1.49,0-2.71-.43-3.66-1.3Zm6.16-1.16c.64-.29,1.15-.69,1.52-1.19.37-.5.56-1.06.56-1.66v-2.23h-3.2c-1.27,0-2.24.25-2.93.75-.68.5-1.03,1.22-1.03,2.14,0,.81.27,1.45.8,1.92s1.25.71,2.16.71c.76,0,1.47-.15,2.11-.44Z"/><path d="m277.41,569.28c-.32-.3-.48-.71-.48-1.24s.16-.94.48-1.25.77-.47,1.33-.47,1.01.16,1.34.47.5.73.5,1.25-.17.94-.5,1.24-.78.45-1.34.45-1.01-.15-1.33-.45Zm.06,3.08h2.57v15.1h-2.57v-15.1Z"/><path d="m284.27,576.16c0-1.91-.04-3.18-.12-3.81h2.39c.08.66.12,1.56.12,2.69h.09c.44-.93,1.12-1.66,2.04-2.19s1.94-.8,3.07-.8c1.77,0,3.1.57,3.99,1.72.89,1.15,1.33,2.86,1.33,5.14v8.55h-2.57v-8.58c0-1.61-.27-2.81-.82-3.59s-1.37-1.18-2.48-1.18c-.85,0-1.61.22-2.3.65-.68.43-1.22,1.04-1.6,1.81-.38.78-.57,1.65-.57,2.61v8.28h-2.57v-11.3Z"/></g><path class="cls-4" d="m191.2,179.08s6.76-1.15,14.55-1.45,13.71-.02,22.72,1.58c9.83,1.74,16.81,5.1,16.81,5.1,0,0-8.48-.07-11.02,1.71-.92.64-.54,2.89-3.42,2.89s-4.35-.98-7.3-1.84-4.88-3.99-5.8-5.24c-.59-.81-5.18-1.59-8.86,0s-2.19,1.8-5.76,1.8-4.47-.55-4.47-1.8-7.44-2.74-7.44-2.74Z"/><path class="cls-4" d="m205.75,399.84h74.33s-2.3,3.87-5.62,5.92-8.27-2.81-11.4-2.81-4.15,3.39-5.49,3.96-1.34-8.36-4.21-4.98-3.32,1.15-4.47,3.96-4.86.16-5.97-2.94-5.71,1.35-8.45,1.16.38-1.09-.64-2.43-2.74,2.11-5.23,2.3-6.77-2.85-8.3-.6-7.02-.17-7.79-1.57-2.55,1.72-4.34.51-2.42-2.47-2.42-2.47Z"/></g></svg>