<?xml version="1.0" encoding="UTF-8"?><svg id="Calque_2" xmlns="http://www.w3.org/2000/svg" viewBox="0 0 211.78 443.4"><defs><style>.cls-1{fill:#267699;}.cls-2{fill:#308fc4;}</style></defs><g id="Calque_12"><g><path d="m31.2,118.38C21.7,78.92,12.2,39.46,2.7,0,21.01,0,39.32,0,57.63,0c.87,7.62,1.74,15.25,2.6,22.87-8.52,0-17.05,0-25.57,0,1.36,7.69,2.71,15.38,4.07,23.07h23.16c.86,7.42,1.73,14.84,2.59,22.26h-21.82c1.59,9.04,3.18,18.07,4.78,27.11h22.45c.84,7.69,1.69,15.38,2.53,23.07H31.2Z"/><path d="m76.27,118.38C75.64,78.92,76.21,39.46,78,0,93.52,0,109.05,0,124.57,0c2.74,39.46,4.29,78.92,4.65,118.38h-18.88c-.4-6.37-.84-12.73-1.3-19.1h-12.75c-.24,6.37-.45,12.73-.64,19.1h-19.39Zm21.01-38h10.17c-1.6-20.07-3.48-40.13-5.64-60.2h-1.19c-1.35,20.07-2.47,40.13-3.34,60.2Z"/><path d="m158.24,119.45c-8.27,0-13.98-2.77-17.43-8.31-3.43-5.54-4.84-13.69-3.92-24.45C139.39,57.8,141.89,28.9,144.39,0,153.29,0,162.18,0,171.08,0c-4.23,28.59-8.47,57.17-12.7,85.76-.29,1.97-.47,3.87-.53,5.68-.07,1.82.18,3.31.73,4.47.55,1.17,1.63,1.75,3.24,1.75,1.65,0,2.94-.57,3.86-1.72.93-1.14,1.65-2.63,2.16-4.47.51-1.84.95-3.74,1.3-5.72C174.26,57.17,179.38,28.59,184.5,0,193.39,0,202.28,0,211.18,0c-6.96,28.9-13.91,57.8-20.87,86.7-2.6,10.76-6.68,18.91-11.92,24.45-5.26,5.54-11.88,8.31-20.15,8.31Z"/></g><path class="cls-2" d="m0,104.57h209.63l-86.21,107.54s-4.82,5.73-5.44,11.34c-.62,5.62-27.17,5.44-26.32,1.36s-6.62-13.14-6.62-13.14L0,104.57Z"/><path d="m94.95,393.33v-31.06h-58.11v-30.61l37.07-134.47h61v132.36h10.46v32.73h-10.46v31.06h-39.96Zm-23.15-63.79h23.15v-98.74l-23.15,98.74Z"/><g><path d="m40.39,400.33h4.32c1.53,0,2.67.31,3.42.94s1.13,1.56,1.13,2.82c0,.94-.23,1.73-.7,2.38-.47.65-1.12,1.09-1.95,1.32v.04c.28.19.51.38.68.59s.32.46.44.75l2.11,5.23h-1.99l-1.77-4.54c-.23-.59-.5-.98-.82-1.19s-.82-.3-1.51-.3h-1.51v6.03h-1.85v-14.07Zm4.22,6.53c1.92,0,2.87-.89,2.87-2.65,0-.79-.24-1.38-.72-1.77-.48-.39-1.22-.58-2.21-.58h-2.31v5.01h2.37Z"/><path d="m60.13,410.05h-7.24c.09,1.02.4,1.79.9,2.32.51.53,1.21.79,2.11.79,1.21,0,2.16-.48,2.88-1.43l.96.92c-.39.62-.93,1.1-1.62,1.44-.69.34-1.45.51-2.28.51-1.49,0-2.64-.46-3.46-1.37s-1.23-2.19-1.23-3.84.41-2.92,1.24-3.85c.82-.93,1.96-1.4,3.41-1.4,1.35,0,2.41.46,3.18,1.38s1.15,2.2,1.15,3.85v.66Zm-1.57-1.41c0-.96-.25-1.72-.75-2.27-.5-.55-1.2-.82-2.08-.82-.83,0-1.49.28-1.98.84s-.77,1.36-.85,2.39h5.67v-.14Z"/><path d="m62.78,413.23c-.82-.92-1.24-2.2-1.24-3.85s.41-2.93,1.24-3.85c.82-.92,1.98-1.38,3.47-1.38.84,0,1.59.17,2.24.49.65.33,1.16.8,1.54,1.42l-1.02.93c-.3-.46-.68-.81-1.16-1.08-.48-.26-.99-.39-1.54-.39-.95,0-1.7.34-2.24,1.01-.54.68-.81,1.63-.81,2.85s.27,2.15.81,2.84c.54.68,1.29,1.02,2.24,1.02.55,0,1.06-.13,1.54-.39.48-.26.86-.62,1.16-1.08l1.02.93c-.37.62-.89,1.09-1.54,1.42-.65.33-1.4.49-2.24.49-1.49,0-2.64-.46-3.47-1.38Z"/><path d="m72.49,413.48c-.6-.75-.89-1.86-.89-3.32v-5.81h1.71v5.83c0,2.04.72,3.05,2.17,3.05.56,0,1.07-.14,1.53-.43.45-.29.81-.69,1.07-1.21.26-.52.38-1.1.38-1.74v-5.51h1.71v7.92c0,.67.06,1.38.18,2.13h-1.57c-.12-.59-.19-1.19-.2-1.79h-.06c-.3.62-.75,1.1-1.36,1.46s-1.29.53-2.04.53c-1.15,0-2.03-.37-2.62-1.13Z"/><path d="m82.73,406.89c0-.86-.03-1.7-.08-2.53h1.57c.04.5.06,1.03.06,1.59h.04c.28-.54.72-.97,1.31-1.3.59-.33,1.23-.49,1.91-.49,1.3,0,2.32.46,3.06,1.39.74.92,1.11,2.21,1.11,3.84,0,1.06-.18,1.98-.52,2.77-.35.78-.84,1.39-1.48,1.82s-1.38.64-2.22.64c-.7,0-1.31-.13-1.83-.4-.52-.27-.9-.64-1.15-1.13h-.06v6.19h-1.71v-12.39Zm6.51,5.34c.5-.72.74-1.69.74-2.91s-.24-2.16-.72-2.81-1.16-.98-2.03-.98c-.82,0-1.49.27-2.01.8-.52.54-.78,1.22-.78,2.05v1.83c0,.92.25,1.67.76,2.24.51.57,1.18.85,2.01.85s1.53-.36,2.03-1.07Z"/><path d="m102.11,410.05h-7.24c.09,1.02.4,1.79.9,2.32.51.53,1.21.79,2.11.79,1.21,0,2.16-.48,2.88-1.43l.96.92c-.39.62-.93,1.1-1.62,1.44-.69.34-1.45.51-2.28.51-1.49,0-2.64-.46-3.46-1.37s-1.23-2.19-1.23-3.84.41-2.92,1.24-3.85c.82-.93,1.96-1.4,3.41-1.4,1.35,0,2.41.46,3.18,1.38s1.15,2.2,1.15,3.85v.66Zm-1.57-1.41c0-.96-.25-1.72-.75-2.27-.5-.55-1.2-.82-2.08-.82-.83,0-1.49.28-1.98.84s-.77,1.36-.85,2.39h5.67v-.14Z"/><path d="m104.18,406.81c0-1.14-.02-1.96-.06-2.45h1.59c.05.54.08,1.13.08,1.77v.2h.06c.26-.7.66-1.23,1.23-1.61.56-.37,1.23-.56,1.99-.56.21,0,.41.02.58.06v1.41c-.18-.04-.41-.06-.7-.06-.56,0-1.08.17-1.55.51-.47.34-.84.81-1.1,1.4-.27.59-.4,1.23-.4,1.93v5.01h-1.71v-7.6Z"/><path d="m119.56,410.05h-7.24c.09,1.02.4,1.79.9,2.32.51.53,1.21.79,2.11.79,1.21,0,2.16-.48,2.88-1.43l.96.92c-.39.62-.93,1.1-1.62,1.44-.69.34-1.45.51-2.28.51-1.49,0-2.64-.46-3.46-1.37s-1.23-2.19-1.23-3.84.41-2.92,1.24-3.85c.82-.93,1.96-1.4,3.41-1.4,1.35,0,2.41.46,3.18,1.38s1.15,2.2,1.15,3.85v.66Zm-1.57-1.41c0-.96-.25-1.72-.75-2.27-.5-.55-1.2-.82-2.08-.82-.83,0-1.49.28-1.98.84s-.77,1.36-.85,2.39h5.67v-.14Z"/><path d="m121.63,406.81c0-1.14-.02-1.96-.06-2.45h1.59c.05.54.08,1.13.08,1.77v.2h.06c.26-.7.66-1.23,1.23-1.61.56-.37,1.23-.56,1.99-.56.21,0,.41.02.58.06v1.41c-.18-.04-.41-.06-.7-.06-.56,0-1.08.17-1.55.51-.47.34-.84.81-1.1,1.4-.27.59-.4,1.23-.4,1.93v5.01h-1.71v-7.6Z"/><path d="m133.62,412.06v-12.57h1.71v12.55c0,.47.08.8.23.99.15.19.42.29.79.29.29,0,.63-.08,1.01-.24l.26,1.03c-.51.33-1.12.5-1.83.5-1.45,0-2.17-.85-2.17-2.55Z"/><path d="m142.48,400.35c.26.31.38.74.38,1.31,0,.71-.19,1.46-.56,2.25-.38.79-.89,1.45-1.53,1.99l-.72-.82c.33-.33.62-.73.86-1.17.24-.45.41-.91.5-1.38-.05.01-.14.02-.26.02-.31,0-.57-.12-.77-.35s-.31-.53-.31-.89c0-.42.13-.75.38-1.01.26-.26.59-.39,1.01-.39s.77.15,1.02.46Z"/><path d="m154.55,410.05h-7.24c.09,1.02.4,1.79.9,2.32.51.53,1.21.79,2.11.79,1.21,0,2.16-.48,2.88-1.43l.96.92c-.39.62-.93,1.1-1.62,1.44-.69.34-1.45.51-2.28.51-1.49,0-2.64-.46-3.46-1.37s-1.23-2.19-1.23-3.84.41-2.92,1.24-3.85c.82-.93,1.96-1.4,3.41-1.4,1.35,0,2.41.46,3.18,1.38s1.15,2.2,1.15,3.85v.66Zm-1.57-1.41c0-.96-.25-1.72-.75-2.27-.5-.55-1.2-.82-2.08-.82-.83,0-1.49.28-1.98.84s-.77,1.36-.85,2.39h5.67v-.14Z"/><path d="m157.02,413.74c-.63-.58-.94-1.32-.94-2.23,0-1.01.38-1.78,1.14-2.33.76-.55,1.83-.82,3.23-.82h2.07v-.52c0-.75-.2-1.32-.59-1.72-.4-.39-.97-.59-1.72-.59-.6,0-1.16.12-1.66.37-.5.25-.92.61-1.26,1.07l-.87-1.05c.46-.58,1.01-1.01,1.67-1.32.66-.3,1.39-.45,2.19-.45,1.26,0,2.23.31,2.91.92.68.62,1.03,1.5,1.03,2.65v4.73c0,.52.08,1.17.24,1.95h-1.49c-.12-.31-.21-.78-.26-1.41h-.04c-.37.52-.84.92-1.39,1.2s-1.16.41-1.83.41c-.99,0-1.8-.29-2.43-.87Zm4.1-.77c.43-.19.77-.46,1.01-.79.25-.34.37-.7.37-1.11v-1.49h-2.13c-.84,0-1.49.17-1.95.5-.45.34-.68.81-.68,1.43,0,.54.18.96.53,1.28.36.31.83.47,1.44.47.51,0,.98-.1,1.41-.29Z"/><path d="m167.72,413.48c-.6-.75-.89-1.86-.89-3.32v-5.81h1.71v5.83c0,2.04.72,3.05,2.17,3.05.56,0,1.07-.14,1.53-.43.45-.29.81-.69,1.07-1.21.26-.52.38-1.1.38-1.74v-5.51h1.71v7.92c0,.67.06,1.38.18,2.13h-1.57c-.12-.59-.19-1.19-.2-1.79h-.06c-.3.62-.75,1.1-1.36,1.46s-1.29.53-2.04.53c-1.15,0-2.03-.37-2.62-1.13Z"/><path d="m4.27,431.01c0-.86-.03-1.7-.08-2.53h1.57c.04.5.06,1.03.06,1.59h.04c.28-.54.72-.97,1.31-1.3.59-.33,1.23-.49,1.91-.49,1.3,0,2.32.46,3.06,1.39.74.92,1.11,2.21,1.11,3.84,0,1.06-.18,1.98-.52,2.77-.35.78-.84,1.39-1.48,1.82s-1.38.64-2.22.64c-.7,0-1.31-.13-1.83-.4-.52-.27-.9-.64-1.15-1.13h-.06v6.19h-1.71v-12.39Zm6.51,5.34c.5-.72.74-1.69.74-2.91s-.24-2.16-.72-2.81-1.16-.98-2.03-.98c-.82,0-1.49.27-2.01.8-.52.54-.78,1.22-.78,2.05v1.83c0,.92.25,1.67.76,2.24.51.57,1.18.85,2.01.85s1.53-.36,2.03-1.07Z"/><path d="m16.97,438.1c-.73-.42-1.29-1.03-1.69-1.82-.4-.79-.59-1.72-.59-2.77s.2-1.98.59-2.77c.39-.79.96-1.4,1.69-1.82.73-.42,1.59-.63,2.58-.63,1.5,0,2.69.47,3.57,1.41.88.94,1.32,2.21,1.32,3.82s-.44,2.88-1.32,3.82c-.88.94-2.07,1.41-3.57,1.41-.99,0-1.85-.21-2.58-.63Zm4.92-1.72c.56-.7.85-1.65.85-2.87s-.28-2.18-.85-2.87c-.56-.7-1.34-1.05-2.33-1.05s-1.75.35-2.31,1.05-.84,1.66-.84,2.87.28,2.18.84,2.87,1.33,1.05,2.31,1.05,1.77-.35,2.33-1.05Z"/><path d="m27.28,437.61c-.6-.75-.89-1.86-.89-3.32v-5.81h1.71v5.83c0,2.04.72,3.05,2.17,3.05.56,0,1.07-.14,1.53-.43.45-.29.81-.69,1.07-1.21.26-.52.38-1.1.38-1.74v-5.51h1.71v7.92c0,.67.06,1.38.18,2.13h-1.57c-.12-.59-.19-1.19-.2-1.79h-.06c-.3.62-.75,1.1-1.36,1.46s-1.29.53-2.04.53c-1.15,0-2.03-.37-2.62-1.13Z"/><path d="m37.61,430.93c0-1.14-.02-1.96-.06-2.45h1.59c.05.54.08,1.13.08,1.77v.2h.06c.26-.7.66-1.23,1.23-1.61.56-.37,1.23-.56,1.99-.56.21,0,.41.02.58.06v1.41c-.18-.04-.41-.06-.7-.06-.56,0-1.08.17-1.55.51-.47.34-.84.81-1.1,1.4-.27.59-.4,1.23-.4,1.93v5.01h-1.71v-7.6Z"/><path d="m49.93,437.87c-.63-.58-.94-1.32-.94-2.23,0-1.01.38-1.78,1.14-2.33.76-.55,1.83-.82,3.23-.82h2.07v-.52c0-.75-.2-1.32-.59-1.72-.4-.39-.97-.59-1.72-.59-.6,0-1.16.12-1.66.37-.5.25-.92.61-1.26,1.07l-.87-1.05c.46-.58,1.01-1.01,1.67-1.32.66-.3,1.39-.45,2.19-.45,1.26,0,2.23.31,2.91.92.68.62,1.03,1.5,1.03,2.65v4.73c0,.52.08,1.17.24,1.95h-1.49c-.12-.31-.21-.78-.26-1.41h-.04c-.37.52-.84.92-1.39,1.2s-1.16.41-1.83.41c-.99,0-1.8-.29-2.43-.87Zm4.1-.77c.43-.19.77-.46,1.01-.79.25-.34.37-.7.37-1.11v-1.49h-2.13c-.84,0-1.49.17-1.95.5-.45.34-.68.81-.68,1.43,0,.54.18.96.53,1.28.36.31.83.47,1.44.47.51,0,.98-.1,1.41-.29Z"/><path d="m59.86,430.93c0-1.14-.02-1.96-.06-2.45h1.59c.05.54.08,1.13.08,1.77v.2h.06c.26-.7.66-1.23,1.23-1.61.56-.37,1.23-.56,1.99-.56.21,0,.41.02.58.06v1.41c-.18-.04-.41-.06-.7-.06-.56,0-1.08.17-1.55.51-.47.34-.84.81-1.1,1.4-.27.59-.4,1.23-.4,1.93v5.01h-1.71v-7.6Z"/><path d="m66.9,430.93c0-1.14-.02-1.96-.06-2.45h1.59c.05.54.08,1.13.08,1.77v.2h.06c.26-.7.66-1.23,1.23-1.61.56-.37,1.23-.56,1.99-.56.21,0,.41.02.58.06v1.41c-.18-.04-.41-.06-.7-.06-.56,0-1.08.17-1.55.51-.47.34-.84.81-1.1,1.4-.27.59-.4,1.23-.4,1.93v5.01h-1.71v-7.6Z"/><path d="m75.39,438.1c-.73-.42-1.29-1.03-1.69-1.82-.4-.79-.59-1.72-.59-2.77s.2-1.98.59-2.77c.39-.79.96-1.4,1.69-1.82.73-.42,1.59-.63,2.58-.63,1.5,0,2.69.47,3.57,1.41.88.94,1.32,2.21,1.32,3.82s-.44,2.88-1.32,3.82c-.88.94-2.07,1.41-3.57,1.41-.99,0-1.85-.21-2.58-.63Zm4.92-1.72c.56-.7.85-1.65.85-2.87s-.28-2.18-.85-2.87c-.56-.7-1.34-1.05-2.33-1.05s-1.75.35-2.31,1.05-.84,1.66-.84,2.87.28,2.18.84,2.87,1.33,1.05,2.31,1.05,1.77-.35,2.33-1.05Z"/><path d="m85.57,438.27c-.61-.31-1.04-.72-1.3-1.23l1.11-.76c.23.36.54.64.94.84s.84.3,1.31.3c.56,0,1.03-.16,1.4-.49.37-.33.55-.74.55-1.24,0-.4-.15-.74-.44-1-.29-.27-.82-.54-1.57-.82-1.14-.42-1.94-.85-2.4-1.31-.46-.45-.69-1.02-.69-1.69,0-.78.31-1.4.92-1.88.62-.47,1.43-.71,2.45-.71.66,0,1.26.14,1.8.42s.96.67,1.26,1.17l-1.05.76c-.47-.7-1.14-1.05-2.01-1.05-.5,0-.9.11-1.22.34-.32.23-.47.52-.47.88s.16.67.48.92c.32.25.92.54,1.79.87,1.03.39,1.76.81,2.19,1.28.43.46.64,1.05.64,1.76,0,.94-.34,1.69-1,2.25-.67.56-1.56.84-2.65.84-.75,0-1.43-.15-2.04-.46Z"/><path d="m102.04,434.17h-7.24c.09,1.02.4,1.79.9,2.32.51.53,1.21.79,2.11.79,1.21,0,2.16-.48,2.88-1.43l.96.92c-.39.62-.93,1.1-1.62,1.44-.69.34-1.45.51-2.28.51-1.49,0-2.64-.46-3.46-1.37s-1.23-2.19-1.23-3.84.41-2.92,1.24-3.85c.82-.93,1.96-1.4,3.41-1.4,1.35,0,2.41.46,3.18,1.38s1.15,2.2,1.15,3.85v.66Zm-1.57-1.41c0-.96-.25-1.72-.75-2.27-.5-.55-1.2-.82-2.08-.82-.83,0-1.49.28-1.98.84s-.77,1.36-.85,2.39h5.67v-.14Z"/><path d="m104.11,430.93c0-1.14-.02-1.96-.06-2.45h1.59c.05.54.08,1.13.08,1.77v.2h.06c.26-.7.66-1.23,1.23-1.61.56-.37,1.23-.56,1.99-.56.21,0,.41.02.58.06v1.41c-.18-.04-.41-.06-.7-.06-.56,0-1.08.17-1.55.51-.47.34-.84.81-1.1,1.4-.27.59-.4,1.23-.4,1.93v5.01h-1.71v-7.6Z"/><path d="m116.67,438.27c-.61-.31-1.04-.72-1.3-1.23l1.11-.76c.23.36.54.64.94.84s.84.3,1.31.3c.56,0,1.03-.16,1.4-.49.37-.33.55-.74.55-1.24,0-.4-.15-.74-.44-1-.29-.27-.82-.54-1.57-.82-1.14-.42-1.94-.85-2.4-1.31-.46-.45-.69-1.02-.69-1.69,0-.78.31-1.4.92-1.88.62-.47,1.43-.71,2.45-.71.66,0,1.26.14,1.8.42s.96.67,1.26,1.17l-1.05.76c-.47-.7-1.14-1.05-2.01-1.05-.5,0-.9.11-1.22.34-.32.23-.47.52-.47.88s.16.67.48.92c.32.25.92.54,1.79.87,1.03.39,1.76.81,2.19,1.28.43.46.64,1.05.64,1.76,0,.94-.34,1.69-1,2.25-.67.56-1.56.84-2.65.84-.75,0-1.43-.15-2.04-.46Z"/><path d="m133.15,434.17h-7.24c.09,1.02.4,1.79.9,2.32.51.53,1.21.79,2.11.79,1.21,0,2.16-.48,2.88-1.43l.96.92c-.39.62-.93,1.1-1.62,1.44-.69.34-1.45.51-2.28.51-1.49,0-2.64-.46-3.46-1.37s-1.23-2.19-1.23-3.84.41-2.92,1.24-3.85c.82-.93,1.96-1.4,3.41-1.4,1.35,0,2.41.46,3.18,1.38s1.15,2.2,1.15,3.85v.66Zm-1.57-1.41c0-.96-.25-1.72-.75-2.27-.5-.55-1.2-.82-2.08-.82-.83,0-1.49.28-1.98.84s-.77,1.36-.85,2.39h5.67v-.14Z"/><path d="m136.25,438.27c-.61-.31-1.04-.72-1.3-1.23l1.11-.76c.23.36.54.64.94.84s.84.3,1.31.3c.56,0,1.03-.16,1.4-.49.37-.33.55-.74.55-1.24,0-.4-.15-.74-.44-1-.29-.27-.82-.54-1.57-.82-1.14-.42-1.94-.85-2.4-1.31-.46-.45-.69-1.02-.69-1.69,0-.78.31-1.4.92-1.88.62-.47,1.43-.71,2.45-.71.66,0,1.26.14,1.8.42s.96.67,1.26,1.17l-1.05.76c-.47-.7-1.14-1.05-2.01-1.05-.5,0-.9.11-1.22.34-.32.23-.47.52-.47.88s.16.67.48.92c.32.25.92.54,1.79.87,1.03.39,1.76.81,2.19,1.28.43.46.64,1.05.64,1.76,0,.94-.34,1.69-1,2.25-.67.56-1.56.84-2.65.84-.75,0-1.43-.15-2.04-.46Z"/><path d="m148.79,431.01c0-.86-.03-1.7-.08-2.53h1.57c.04.5.06,1.03.06,1.59h.04c.28-.54.72-.97,1.31-1.3.59-.33,1.23-.49,1.91-.49,1.3,0,2.32.46,3.06,1.39.74.92,1.11,2.21,1.11,3.84,0,1.06-.18,1.98-.52,2.77-.35.78-.84,1.39-1.48,1.82s-1.38.64-2.22.64c-.7,0-1.31-.13-1.83-.4-.52-.27-.9-.64-1.15-1.13h-.06v6.19h-1.71v-12.39Zm6.51,5.34c.5-.72.74-1.69.74-2.91s-.24-2.16-.72-2.81-1.16-.98-2.03-.98c-.82,0-1.49.27-2.01.8-.52.54-.78,1.22-.78,2.05v1.83c0,.92.25,1.67.76,2.24.51.57,1.18.85,2.01.85s1.53-.36,2.03-1.07Z"/><path d="m159.89,436.18v-12.57h1.71v12.55c0,.47.08.8.23.99.15.19.42.29.79.29.29,0,.63-.08,1.01-.24l.26,1.03c-.51.33-1.12.5-1.83.5-1.45,0-2.17-.85-2.17-2.55Z"/><path d="m166.08,437.87c-.63-.58-.94-1.32-.94-2.23,0-1.01.38-1.78,1.14-2.33s1.83-.82,3.23-.82h2.07v-.52c0-.75-.2-1.32-.59-1.72-.4-.39-.97-.59-1.72-.59-.6,0-1.16.12-1.66.37-.5.25-.92.61-1.26,1.07l-.87-1.05c.46-.58,1.01-1.01,1.67-1.32.66-.3,1.39-.45,2.19-.45,1.26,0,2.23.31,2.91.92.68.62,1.03,1.5,1.03,2.65v4.73c0,.52.08,1.17.24,1.95h-1.49c-.12-.31-.21-.78-.26-1.41h-.04c-.37.52-.84.92-1.39,1.2s-1.16.41-1.83.41c-.99,0-1.8-.29-2.43-.87Zm4.1-.77c.43-.19.77-.46,1.01-.79.25-.34.37-.7.37-1.11v-1.49h-2.13c-.84,0-1.49.17-1.95.5-.45.34-.68.81-.68,1.43,0,.54.18.96.53,1.28.36.31.83.47,1.44.47.51,0,.98-.1,1.41-.29Z"/><path d="m175.87,431.01c0-1.27-.03-2.12-.08-2.53h1.59c.05.44.08,1.04.08,1.79h.06c.29-.62.75-1.1,1.36-1.46s1.29-.53,2.04-.53c1.18,0,2.06.38,2.65,1.15.59.76.88,1.9.88,3.42v5.69h-1.71v-5.71c0-1.07-.18-1.87-.54-2.39-.36-.52-.91-.78-1.65-.78-.56,0-1.07.14-1.53.43-.45.29-.81.69-1.07,1.21-.25.52-.38,1.1-.38,1.74v5.51h-1.71v-7.52Z"/><path d="m188.48,437.88c-.51-.57-.76-1.36-.76-2.36v-5.71h-1.81v-1.33h1.81v-2.67l1.63-.5h.08v3.18h2.86v1.33h-2.86v5.55c0,.68.13,1.19.38,1.52.25.33.65.49,1.19.49.58,0,1.05-.07,1.41-.22l.12,1.27c-.44.21-1.09.32-1.95.32s-1.58-.28-2.09-.85Z"/><path d="m202.97,434.17h-7.24c.09,1.02.4,1.79.9,2.32.51.53,1.21.79,2.11.79,1.21,0,2.16-.48,2.88-1.43l.96.92c-.39.62-.93,1.1-1.62,1.44-.69.34-1.45.51-2.28.51-1.49,0-2.64-.46-3.46-1.37s-1.23-2.19-1.23-3.84.41-2.92,1.24-3.85c.82-.93,1.96-1.4,3.41-1.4,1.35,0,2.41.46,3.18,1.38s1.15,2.2,1.15,3.85v.66Zm-1.57-1.41c0-.96-.25-1.72-.75-2.27-.5-.55-1.2-.82-2.08-.82-.83,0-1.49.28-1.98.84s-.77,1.36-.85,2.39h5.67v-.14Z"/><path d="m206.08,438.27c-.61-.31-1.04-.72-1.3-1.23l1.11-.76c.23.36.54.64.94.84s.84.3,1.31.3c.56,0,1.03-.16,1.4-.49.37-.33.55-.74.55-1.24,0-.4-.15-.74-.44-1-.29-.27-.82-.54-1.57-.82-1.14-.42-1.94-.85-2.4-1.31-.46-.45-.69-1.02-.69-1.69,0-.78.31-1.4.92-1.88.62-.47,1.43-.71,2.45-.71.66,0,1.26.14,1.8.42s.96.67,1.26,1.17l-1.05.76c-.47-.7-1.14-1.05-2.01-1.05-.5,0-.9.11-1.22.34-.32.23-.47.52-.47.88s.16.67.48.92c.32.25.92.54,1.79.87,1.03.39,1.76.81,2.19,1.28.43.46.64,1.05.64,1.76,0,.94-.34,1.69-1,2.25-.67.56-1.56.84-2.65.84-.75,0-1.43-.15-2.04-.46Z"/></g><path class="cls-1" d="m79.03,197.18l1.03,11.23s-.41,10.04-3.14,14.04c-2.73,4,0,11.23,0,11.23l1.57,10.98s-1.32,3.32,3.1,3.32-1.55-3.32-.02-5.11c2.03-2.37,1.04-9.45,1.04-9.45,0,0-2.97-6.13-1.11-8s2.64-7.83,2.64-7.83c0,0-1.16-9.57.38-12.13,1.54-2.55,1.4-6.77,1.4-6.77v-1.53h-6.9Z"/><path class="cls-1" d="m85.54,197.18l6,11.23s.3,10.43-2.43,14.43c-2.73,4-.72,10.85-.72,10.85l2.92,12.64.93-3.71,1.52-6.67s-3.08-8.76-1.21-10.63c1.86-1.87,1.67-7.91,1.67-7.91,0,0,.25-9.38,1.79-11.94s2.17-5.11,2.17-5.11l3.7-3.19h-16.34Z"/><path class="cls-1" d="m101.88,197.18l5.11,11.23s.3,10.43-2.43,14.43c-2.73,4-.72,10.85-.72,10.85l2.92,12.64s2.02-1.03.93-3.71c-1.09-2.68,1.47-.38,1.52-6.67,2.24-9.29-3.08-8.76-1.21-10.63,1.86-1.87,2.56-9.13,3.71-12.32,1.15-3.19-1.8-4.98-.26-7.53s4.6-6.89,4.6-6.89l2.4-1.41h-16.57Z"/><path class="cls-1" d="m118.45,197.18l3.86,26.84s.3,24.91-2.43,34.47c-2.73,9.56-.72,25.93-.72,25.93l2.92,30.21s2.02-2.46.93-8.86c-1.09-6.41,1.47-.92,1.52-15.93,2.24-22.2-3.08-20.93-1.21-25.4,1.86-4.47,2.56-21.81,3.71-29.43,1.15-7.63-1.8-11.9-.26-18s1.4-16.17,1.4-16.17l2-3.66h-11.73Z"/></g></svg>