<?xml version="1.0" encoding="UTF-8"?><svg id="Calque_2" xmlns="http://www.w3.org/2000/svg" viewBox="0 0 557.79 303.02"><defs><style>.cls-1{fill:#fff;}.cls-2{fill:#ffb830;}.cls-3{fill:#ff2442;}.cls-4{fill:#3fb0ef;}.cls-5{fill:#f7ab31;}.cls-6{fill:#3db2ff;}</style></defs><g id="robinet"><path d="m37.51,303.02V69.69c-4.13,4.93-9.81,8.92-17.03,11.96-7.23,3.04-14.05,4.56-20.48,4.56v-48.35c6.08-.92,12.62-2.9,19.62-5.94s13.51-7.23,19.53-12.56S49.79,7.57,53,0h48.7v303.02H37.51Z"/><path class="cls-6" d="m207.35,122.73s-24.57,39.22-24.57,53.92,13.56,23.93,24.57,23.93,24.54-10.03,24.54-23.43-18.34-45.87-24.54-54.41Z"/><path class="cls-4" d="m207.35,122.73s-24.57,33-24.57,53.92,24.57,23.93,24.57,23.93c0,0-24.22-7.86-22.31-24.94,1.91-17.09,22.31-52.9,22.31-52.9Z"/><path class="cls-2" d="m171.17,13.3h29.99s8,.93,9.11,9.62c1.11,8.69-7.33,10.58-7.33,10.58h-31.77v2.62s6.63.79,9.55,1.58l3.55.96v9.9s1.78.15,2.67.67c1.7.99,1.55,1.78,1.55,1.78,0,0,.77,14.64.33,14.64s-5.64.98-5.64.98l.21,7.92s15.25-1.41,26.88,8.77,11.55,32.32,11.55,32.32c0,0,2.44,1.41,2.89,2.22s.44,2,.44,2l-.44,8.66s-4.81,4.37-16.22,4c-11.4-.37-16.66-3.78-16.66-3.78l.22-9.55s.02-.67.64-1.67,2.69-1.81,2.69-1.81c0,0-.59-8.07-4.15-11.11s-9.48-2.59-9.48-2.59c0,0-2.3,4.37-4.15,5.78s-5.02,2.3-6.15,2.37-17.25.19-17.77.15-4.81-1.11-7.18-3.48-3.11-4.59-3.11-4.59l-24.58-.07s-1.48,4.22-3.18,6.44-3.78,2.37-3.78,2.37h-9.85s-9.85-5.04-8.44-24.29c1.41-19.25,7.55-20.21,7.55-20.21l10.66-.44s3.26,1.48,4.81,3.7,2.22,5.26,2.22,5.26l23.18-.15.22-8.29-5.78-.89-.15-14.96s.22-.81,1.7-1.55,2.52-.59,2.52-.59l-.07-9.33s2.07-1.63,5.33-2.07c3.26-.44,6.15-.59,6.15-.59l-.06-3.03h-24.3s-7.55-2.37-7.55-10,7.92-10.23,7.92-10.23h43.24Z"/><g id="ombres_robinet"><path class="cls-5" d="m127.93,13.3s-8.29,2.37-7.92,10.23,7.55,10,7.55,10c0,0-5.94-5.32-6.2-10.11s6.57-10.11,6.57-10.11Z"/><polygon class="cls-5" points="151.86 33.53 153.43 33.53 153.43 36.39 151.92 36.57 151.86 33.53"/><polygon class="cls-5" points="141.68 38.47 141.68 48.64 140.52 48.56 140.45 39.23 141.68 38.47"/><polygon class="cls-5" points="136.3 50.71 136.45 65.67 137.17 65.78 137.17 49.66 136.62 50.18 136.3 50.71"/><polygon class="cls-5" points="142.22 66.56 142.51 66.56 143.03 74.85 142 74.85 142.22 66.56"/><polygon class="cls-5" points="142 74.85 118.82 75 118.82 75.53 143.03 74.85 142 74.85"/><path class="cls-5" d="m101.13,66.48s-6.29.71-7.55,20.21c-1.26,19.5,8.44,24.29,8.44,24.29,0,0-8.79-7.78-7.43-23.54,1.36-15.76,6.54-20.96,6.54-20.96Z"/><path class="cls-5" d="m181.76,102.02s7.68-.51,10.28,3.42,3.34,10.28,3.34,10.28c0,0,.48-6.03-2.76-10.62s-10.87-3.08-10.87-3.08Z"/><path class="cls-5" d="m192.05,119.2l-.22,9.55.92.5.24-12.08s-.57.54-.75,1.29l-.18.75Z"/></g><g><path class="cls-1" d="m197.87,151.42h15.89c-.34-.28-.61-.67-.81-1.16s-.31-.96-.31-1.39h3.29c.06.41.2.86.4,1.34s.49.92.86,1.33.8.72,1.32.94v3.32h-20.64v-4.37Z"/><path class="cls-1" d="m197.68,162.44c0-1.74.49-3.09,1.47-4.04s2.38-1.42,4.22-1.42h9.31c1.94,0,3.42.45,4.46,1.35s1.55,2.27,1.55,4.11-.52,3.22-1.55,4.11-2.52,1.35-4.46,1.35h-9.31c-1.84,0-3.24-.47-4.22-1.42s-1.47-2.29-1.47-4.04Zm3.8,0c0,.32.14.57.43.75s.61.27.97.27h10.19c.48,0,.91-.05,1.27-.16s.55-.39.55-.86-.18-.76-.55-.86-.79-.16-1.27-.16h-10.19c-.36,0-.68.09-.97.28s-.43.43-.43.74Z"/><path class="cls-1" d="m197.68,174.3c0-1.74.49-3.09,1.47-4.04s2.38-1.42,4.22-1.42h9.31c1.94,0,3.42.45,4.46,1.35s1.55,2.27,1.55,4.11-.52,3.22-1.55,4.11-2.52,1.35-4.46,1.35h-9.31c-1.84,0-3.24-.47-4.22-1.42s-1.47-2.29-1.47-4.04Zm3.8,0c0,.32.14.57.43.75s.61.27.97.27h10.19c.48,0,.91-.05,1.27-.16s.55-.39.55-.86-.18-.76-.55-.86-.79-.16-1.27-.16h-10.19c-.36,0-.68.09-.97.28s-.43.43-.43.74Z"/><path class="cls-1" d="m197.87,181.15h20.63v4.13h-17.11v4.24h-3.52v-8.37Z"/></g></g><g id="croix"><rect class="cls-3" x="152.1" y="-3.52" width="19.39" height="156.74" transform="translate(100.31 -92.48) rotate(45)"/><rect class="cls-3" x="151.89" y="-3.52" width="19.81" height="156.74" transform="translate(-5.54 136.33) rotate(-45)"/></g><g id="texte_tips_1"><g><path d="m120.12,229.29h12.28v2.2h-9.62v7.11h8.99v2.2h-8.99v8.73h-2.66v-20.23Z"/><path d="m147.61,243.25h-10.4c.13,1.46.57,2.58,1.3,3.34.73.76,1.74,1.14,3.03,1.14,1.74,0,3.11-.68,4.13-2.05l1.39,1.33c-.56.89-1.33,1.57-2.33,2.07s-2.09.74-3.28.74c-2.14,0-3.79-.65-4.97-1.96s-1.76-3.15-1.76-5.52.59-4.2,1.78-5.53c1.19-1.34,2.82-2.01,4.9-2.01,1.94,0,3.47.66,4.56,1.98s1.65,3.16,1.65,5.53v.95Zm-2.26-2.02c0-1.39-.36-2.48-1.08-3.27-.72-.79-1.72-1.19-2.99-1.19-1.19,0-2.14.4-2.85,1.21s-1.11,1.96-1.23,3.44h8.15v-.2Z"/><path d="m150.58,238.6c0-1.64-.03-2.81-.09-3.53h2.28c.08.77.12,1.62.12,2.54v.29h.09c.37-1,.95-1.77,1.76-2.31.81-.54,1.76-.81,2.86-.81.31,0,.59.03.84.09v2.02c-.25-.06-.59-.09-1.01-.09-.81,0-1.55.24-2.23.74-.67.49-1.2,1.16-1.59,2.01-.39.85-.58,1.77-.58,2.77v7.19h-2.46v-10.92Z"/><path d="m160.52,238.71c0-1.46-.05-2.68-.15-3.64h2.2c.08.77.12,1.63.12,2.57h.09c.39-.89.99-1.58,1.82-2.09s1.75-.77,2.77-.77,1.9.26,2.63.78c.73.52,1.22,1.24,1.47,2.17.4-.91,1.02-1.62,1.85-2.15.83-.53,1.76-.79,2.8-.79,1.58,0,2.82.51,3.71,1.53s1.34,2.45,1.34,4.28v8.93h-2.43v-8.73c0-1.31-.27-2.31-.82-3.01-.55-.69-1.34-1.04-2.38-1.04s-1.86.38-2.51,1.14c-.65.76-.98,1.74-.98,2.93v8.7h-2.43v-8.61c0-1.41-.25-2.45-.75-3.13s-1.26-1.03-2.28-1.03c-.63,0-1.23.19-1.79.58s-1.01.9-1.34,1.53c-.34.64-.51,1.32-.51,2.05v8.61h-2.43v-10.81Z"/><path d="m196.93,243.25h-10.4c.13,1.46.57,2.58,1.3,3.34.73.76,1.74,1.14,3.03,1.14,1.74,0,3.11-.68,4.13-2.05l1.39,1.33c-.56.89-1.33,1.57-2.33,2.07s-2.09.74-3.28.74c-2.14,0-3.79-.65-4.97-1.96s-1.76-3.15-1.76-5.52.59-4.2,1.78-5.53c1.19-1.34,2.82-2.01,4.9-2.01,1.94,0,3.47.66,4.56,1.98s1.65,3.16,1.65,5.53v.95Zm-2.26-2.02c0-1.39-.36-2.48-1.08-3.27-.72-.79-1.72-1.19-2.99-1.19-1.19,0-2.14.4-2.85,1.21s-1.11,1.96-1.23,3.44h8.15v-.2Z"/><path d="m199.9,238.6c0-1.64-.03-2.81-.09-3.53h2.28c.08.77.12,1.62.12,2.54v.29h.09c.37-1,.95-1.77,1.76-2.31.81-.54,1.76-.81,2.86-.81.31,0,.59.03.84.09v2.02c-.25-.06-.59-.09-1.01-.09-.81,0-1.55.24-2.23.74-.67.49-1.2,1.16-1.59,2.01-.39.85-.58,1.77-.58,2.77v7.19h-2.46v-10.92Z"/><path d="m217.13,246.14v-18.06h2.46v18.03c0,.67.11,1.15.33,1.43.22.28.6.42,1.14.42.42,0,.91-.12,1.45-.35l.37,1.47c-.73.48-1.61.72-2.63.72-2.08,0-3.12-1.22-3.12-3.67Z"/><path d="m236.58,243.25h-10.4c.13,1.46.57,2.58,1.3,3.34.73.76,1.74,1.14,3.03,1.14,1.74,0,3.11-.68,4.13-2.05l1.39,1.33c-.56.89-1.33,1.57-2.33,2.07s-2.09.74-3.28.74c-2.14,0-3.79-.65-4.97-1.96s-1.76-3.15-1.76-5.52.59-4.2,1.78-5.53c1.19-1.34,2.82-2.01,4.9-2.01,1.94,0,3.47.66,4.56,1.98s1.65,3.16,1.65,5.53v.95Zm-2.26-2.02c0-1.39-.36-2.48-1.08-3.27-.72-.79-1.72-1.19-2.99-1.19-1.19,0-2.14.4-2.85,1.21s-1.11,1.96-1.23,3.44h8.15v-.2Z"/><path d="m246.57,238.6c0-1.64-.03-2.81-.09-3.53h2.28c.08.77.12,1.62.12,2.54v.29h.09c.37-1,.95-1.77,1.76-2.31.81-.54,1.76-.81,2.86-.81.31,0,.59.03.84.09v2.02c-.25-.06-.59-.09-1.01-.09-.81,0-1.55.24-2.23.74-.67.49-1.2,1.16-1.59,2.01-.39.85-.58,1.77-.58,2.77v7.19h-2.46v-10.92Z"/><path d="m258.78,248.9c-1.05-.61-1.86-1.48-2.43-2.62-.57-1.14-.85-2.47-.85-3.99s.28-2.85.85-3.99c.57-1.14,1.38-2.01,2.43-2.62,1.05-.61,2.29-.91,3.71-.91,2.16,0,3.87.67,5.13,2.02,1.26,1.35,1.89,3.18,1.89,5.49s-.63,4.14-1.89,5.49c-1.26,1.35-2.97,2.02-5.13,2.02-1.43,0-2.66-.3-3.71-.91Zm7.06-2.47c.81-1,1.22-2.38,1.22-4.13s-.4-3.13-1.22-4.13c-.81-1-1.93-1.5-3.35-1.5s-2.51.5-3.32,1.5-1.21,2.38-1.21,4.13.4,3.13,1.21,4.13c.81,1,1.92,1.5,3.32,1.5s2.54-.5,3.35-1.5Z"/><path d="m276.54,249.1c-.85-.47-1.48-1.09-1.91-1.86h-.06c.02.62,0,1.38-.06,2.28h-2.25c.06-.64.09-1.85.09-3.64v-17.8h2.46v8.93h.06c.96-1.48,2.42-2.23,4.36-2.23s3.31.65,4.39,1.95c1.08,1.3,1.62,3.07,1.62,5.3,0,2.41-.54,4.31-1.63,5.69-1.09,1.39-2.57,2.08-4.44,2.08-.91,0-1.78-.24-2.63-.71Zm5.19-2.79c.7-1.02,1.06-2.43,1.06-4.22s-.35-3.05-1.06-4-1.67-1.43-2.9-1.43-2.16.41-2.9,1.23c-.74.82-1.11,1.89-1.11,3.22v2.63c0,1.25.36,2.25,1.08,2.99.72.74,1.7,1.11,2.93,1.11s2.2-.51,2.9-1.53Z"/><path d="m288.47,232.12c-.31-.29-.46-.68-.46-1.18s.15-.9.46-1.2.73-.45,1.27-.45.97.15,1.29.45.48.7.48,1.2-.16.89-.48,1.18-.75.43-1.29.43-.96-.14-1.27-.43Zm.06,2.95h2.46v14.45h-2.46v-14.45Z"/><path d="m295.03,238.71c0-1.83-.04-3.04-.12-3.64h2.28c.08.64.12,1.49.12,2.57h.09c.42-.89,1.07-1.58,1.95-2.09s1.86-.77,2.93-.77c1.69,0,2.97.55,3.81,1.65.85,1.1,1.27,2.74,1.27,4.91v8.18h-2.46v-8.21c0-1.54-.26-2.69-.78-3.44s-1.31-1.13-2.37-1.13c-.81,0-1.54.21-2.2.62-.65.41-1.16.99-1.53,1.73-.36.74-.55,1.58-.55,2.5v7.92h-2.46v-10.81Z"/><path d="m323.09,243.25h-10.4c.13,1.46.57,2.58,1.3,3.34.73.76,1.74,1.14,3.03,1.14,1.74,0,3.11-.68,4.13-2.05l1.39,1.33c-.56.89-1.33,1.57-2.33,2.07s-2.09.74-3.28.74c-2.14,0-3.79-.65-4.97-1.96s-1.76-3.15-1.76-5.52.59-4.2,1.78-5.53c1.19-1.34,2.82-2.01,4.9-2.01,1.94,0,3.47.66,4.56,1.98s1.65,3.16,1.65,5.53v.95Zm-2.26-2.02c0-1.39-.36-2.48-1.08-3.27-.72-.79-1.72-1.19-2.99-1.19-1.19,0-2.14.4-2.85,1.21s-1.11,1.96-1.23,3.44h8.15v-.2Z"/><path d="m328.12,248.58c-.73-.82-1.1-1.95-1.1-3.39v-8.21h-2.6v-1.91h2.6v-3.84l2.34-.72h.12v4.57h4.1v1.91h-4.1v7.98c0,.98.18,1.71.55,2.18.36.47.93.71,1.7.71.83,0,1.5-.11,2.02-.32l.17,1.82c-.64.31-1.57.46-2.8.46s-2.27-.41-3.01-1.23Z"/><path d="m129.26,282.2h-.09c-.4.71-.99,1.27-1.75,1.68s-1.61.61-2.56.61c-1.22,0-2.28-.31-3.19-.93-.91-.62-1.62-1.49-2.11-2.63s-.74-2.47-.74-3.99c0-2.33.54-4.16,1.6-5.49,1.07-1.33,2.54-1.99,4.41-1.99,1,0,1.92.23,2.76.69.84.46,1.45,1.08,1.83,1.85h.06c0-.69.03-1.45.09-2.25h2.25c-.08,1.12-.12,2.33-.12,3.64v17.8h-2.46v-8.99Zm-1.1-.82c.73-.82,1.1-1.89,1.1-3.22v-2.63c0-1.19-.37-2.18-1.13-2.95-.75-.77-1.71-1.16-2.89-1.16-1.27,0-2.25.47-2.93,1.42s-1.03,2.29-1.03,4.04.36,3.15,1.07,4.18c.71,1.03,1.68,1.54,2.92,1.54s2.16-.41,2.89-1.23Z"/><path d="m136.58,282.87c-.86-1.08-1.28-2.67-1.28-4.77v-8.35h2.46v8.38c0,2.93,1.04,4.39,3.12,4.39.81,0,1.54-.21,2.2-.62.65-.41,1.17-.99,1.53-1.73.37-.74.55-1.58.55-2.5v-7.92h2.46v11.39c0,.96.09,1.98.26,3.06h-2.26c-.17-.85-.27-1.7-.29-2.57h-.09c-.43.89-1.07,1.58-1.95,2.09-.88.51-1.85.77-2.93.77-1.66,0-2.91-.54-3.77-1.62Z"/><path d="m152,283.24c-.91-.83-1.36-1.9-1.36-3.21,0-1.45.54-2.56,1.63-3.35,1.09-.79,2.63-1.18,4.64-1.18h2.98v-.75c0-1.08-.28-1.9-.85-2.47-.57-.57-1.39-.85-2.47-.85-.87,0-1.66.18-2.38.53s-1.33.87-1.81,1.55l-1.24-1.5c.66-.83,1.46-1.46,2.4-1.89.95-.43,1.99-.65,3.15-.65,1.81,0,3.21.44,4.19,1.33.98.89,1.47,2.16,1.47,3.81v6.79c0,.75.12,1.69.35,2.8h-2.14c-.17-.44-.3-1.12-.37-2.02h-.06c-.54.75-1.2,1.32-1.99,1.72s-1.67.59-2.63.59c-1.43,0-2.59-.41-3.5-1.24Zm5.9-1.11c.62-.28,1.1-.66,1.46-1.14.36-.48.54-1.01.54-1.59v-2.14h-3.06c-1.21,0-2.15.24-2.8.72-.65.48-.98,1.17-.98,2.05,0,.77.26,1.38.77,1.84s1.2.68,2.07.68c.73,0,1.41-.14,2.02-.42Z"/><path d="m166.07,273.39c0-1.83-.04-3.04-.12-3.64h2.28c.08.64.12,1.49.12,2.57h.09c.42-.89,1.07-1.58,1.95-2.09s1.86-.77,2.93-.77c1.69,0,2.97.55,3.81,1.65.85,1.1,1.27,2.74,1.27,4.91v8.18h-2.46v-8.21c0-1.54-.26-2.69-.78-3.44s-1.31-1.13-2.37-1.13c-.81,0-1.54.21-2.2.62-.65.41-1.16.99-1.53,1.73-.36.74-.55,1.58-.55,2.5v7.92h-2.46v-10.81Z"/><path d="m182.82,282.4c-1.09-1.39-1.63-3.28-1.63-5.69,0-1.46.25-2.74.75-3.83.5-1.09,1.21-1.93,2.14-2.53.92-.6,2-.9,3.24-.9,1.77,0,3.2.74,4.28,2.23h.06v-8.93h2.43v17.8c0,1.79.03,3.01.09,3.64h-2.25c-.04-.46-.06-1.22-.06-2.28h-.06c-.44.77-1.08,1.39-1.91,1.86-.83.47-1.7.71-2.63.71-1.87,0-3.35-.69-4.44-2.08Zm7.72-1c.72-.74,1.08-1.74,1.08-2.99v-2.63c0-1.35-.37-2.43-1.1-3.24-.73-.81-1.7-1.21-2.92-1.21s-2.2.48-2.9,1.43-1.06,2.29-1.06,4,.35,3.2,1.06,4.22c.7,1.02,1.67,1.53,2.9,1.53s2.21-.37,2.93-1.11Z"/><path d="m201.5,289.48l.09-1.82c.31.04.69.06,1.16.06,1.02,0,1.74-.29,2.17-.87s.63-1.48.63-2.72v-14.39h2.46v14.48c0,1.79-.38,3.15-1.13,4.07-.75.92-1.93,1.39-3.53,1.39-.62,0-1.23-.07-1.85-.2Zm3.92-22.7c-.32-.3-.48-.69-.48-1.17s.16-.9.48-1.2.75-.45,1.29-.45.94.15,1.26.45c.32.3.48.7.48,1.2s-.16.87-.48,1.17c-.32.3-.74.45-1.26.45s-.97-.15-1.29-.45Z"/><path d="m223.95,277.93h-10.4c.13,1.46.57,2.58,1.3,3.34.73.76,1.74,1.14,3.03,1.14,1.74,0,3.11-.68,4.13-2.05l1.39,1.33c-.56.89-1.33,1.57-2.33,2.07s-2.09.74-3.28.74c-2.14,0-3.79-.65-4.97-1.96s-1.76-3.15-1.76-5.52.59-4.2,1.78-5.53c1.19-1.34,2.82-2.01,4.9-2.01,1.94,0,3.47.66,4.56,1.98s1.65,3.16,1.65,5.53v.95Zm-2.26-2.02c0-1.39-.36-2.48-1.08-3.27-.72-.79-1.72-1.19-2.99-1.19-1.19,0-2.14.4-2.85,1.21s-1.11,1.96-1.23,3.44h8.15v-.2Z"/><path d="m233.74,273.39c0-1.83-.04-3.04-.12-3.64h2.28c.08.64.12,1.49.12,2.57h.09c.42-.89,1.07-1.58,1.95-2.09s1.86-.77,2.93-.77c1.69,0,2.97.55,3.81,1.65.85,1.1,1.27,2.74,1.27,4.91v8.18h-2.46v-8.21c0-1.54-.26-2.69-.78-3.44s-1.31-1.13-2.37-1.13c-.81,0-1.54.21-2.2.62-.65.41-1.16.99-1.53,1.73-.36.74-.55,1.58-.55,2.5v7.92h-2.46v-10.81Z"/><path d="m254.23,264c.37.44.55,1.07.55,1.88,0,1.02-.27,2.1-.81,3.24-.54,1.14-1.27,2.09-2.2,2.86l-1.04-1.18c.48-.48.89-1.05,1.24-1.69.35-.65.59-1.31.72-1.98-.08.02-.2.03-.38.03-.44,0-.81-.17-1.11-.51-.3-.34-.45-.77-.45-1.29,0-.6.18-1.08.55-1.46.37-.38.85-.56,1.45-.56s1.11.22,1.47.66Z"/><path d="m260.15,283.24c-.91-.83-1.36-1.9-1.36-3.21,0-1.45.54-2.56,1.63-3.35,1.09-.79,2.63-1.18,4.64-1.18h2.98v-.75c0-1.08-.28-1.9-.85-2.47-.57-.57-1.39-.85-2.47-.85-.87,0-1.66.18-2.38.53s-1.33.87-1.81,1.55l-1.24-1.5c.66-.83,1.46-1.46,2.4-1.89.95-.43,1.99-.65,3.15-.65,1.81,0,3.21.44,4.19,1.33.98.89,1.47,2.16,1.47,3.81v6.79c0,.75.12,1.69.35,2.8h-2.14c-.17-.44-.3-1.12-.37-2.02h-.06c-.54.75-1.2,1.32-1.99,1.72s-1.67.59-2.63.59c-1.43,0-2.59-.41-3.5-1.24Zm5.9-1.11c.62-.28,1.1-.66,1.46-1.14.36-.48.54-1.01.54-1.59v-2.14h-3.06c-1.21,0-2.15.24-2.8.72-.65.48-.98,1.17-.98,2.05,0,.77.26,1.38.77,1.84s1.2.68,2.07.68c.73,0,1.41-.14,2.02-.42Z"/><path d="m274.75,266.8c-.31-.29-.46-.68-.46-1.18s.15-.9.46-1.2.73-.45,1.27-.45.97.15,1.29.45.48.7.48,1.2-.16.89-.48,1.18-.75.43-1.29.43-.96-.14-1.27-.43Zm.06,2.95h2.46v14.45h-2.46v-14.45Z"/><path d="m288.41,273.39c0-1.23-.04-2.45-.12-3.64h2.25c.06.71.09,1.47.09,2.28h.06c.4-.77,1.03-1.39,1.88-1.86.85-.47,1.76-.71,2.74-.71,1.87,0,3.33.66,4.39,1.99,1.06,1.33,1.59,3.17,1.59,5.52,0,1.52-.25,2.85-.75,3.97-.5,1.13-1.21,2-2.12,2.61-.91.62-1.98.93-3.19.93-1,0-1.88-.19-2.63-.58-.75-.38-1.3-.92-1.65-1.62h-.08v8.9h-2.46v-17.8Zm9.36,7.67c.71-1.03,1.07-2.42,1.07-4.18s-.35-3.1-1.04-4.04-1.67-1.42-2.92-1.42c-1.18,0-2.14.39-2.89,1.16-.75.77-1.13,1.75-1.13,2.95v2.63c0,1.33.36,2.4,1.1,3.22.73.82,1.69,1.23,2.89,1.23s2.21-.51,2.92-1.54Z"/><path d="m304.86,283.24c-.91-.83-1.36-1.9-1.36-3.21,0-1.45.54-2.56,1.63-3.35,1.09-.79,2.63-1.18,4.64-1.18h2.98v-.75c0-1.08-.28-1.9-.85-2.47-.57-.57-1.39-.85-2.47-.85-.87,0-1.66.18-2.38.53s-1.33.87-1.81,1.55l-1.24-1.5c.66-.83,1.46-1.46,2.4-1.89.95-.43,1.99-.65,3.15-.65,1.81,0,3.21.44,4.19,1.33.98.89,1.47,2.16,1.47,3.81v6.79c0,.75.12,1.69.35,2.8h-2.14c-.17-.44-.3-1.12-.37-2.02h-.06c-.54.75-1.2,1.32-1.99,1.72s-1.67.59-2.63.59c-1.43,0-2.59-.41-3.5-1.24Zm5.9-1.11c.62-.28,1.1-.66,1.46-1.14.36-.48.54-1.01.54-1.59v-2.14h-3.06c-1.21,0-2.15.24-2.8.72-.65.48-.98,1.17-.98,2.05,0,.77.26,1.38.77,1.84s1.2.68,2.07.68c.73,0,1.41-.14,2.02-.42Z"/><path d="m320.04,283.82c-.87-.44-1.5-1.03-1.86-1.76l1.59-1.1c.33.52.78.93,1.36,1.21.58.29,1.2.43,1.88.43.81,0,1.48-.24,2.01-.71.53-.47.79-1.06.79-1.78,0-.58-.21-1.06-.64-1.45-.42-.39-1.17-.78-2.25-1.19-1.64-.6-2.79-1.22-3.45-1.88-.67-.65-1-1.46-1-2.43,0-1.12.44-2.02,1.33-2.7.89-.68,2.06-1.03,3.53-1.03.94,0,1.81.2,2.59.61s1.38.96,1.81,1.68l-1.5,1.1c-.67-1-1.64-1.5-2.89-1.5-.71,0-1.3.16-1.75.49-.45.33-.68.75-.68,1.27s.23.96.69,1.31c.46.36,1.32.78,2.57,1.26,1.48.56,2.54,1.17,3.15,1.84.62.66.92,1.51.92,2.53,0,1.35-.48,2.43-1.44,3.24-.96.81-2.24,1.21-3.81,1.21-1.08,0-2.06-.22-2.93-.66Z"/><path d="m338.26,280.82v-18.06h2.46v18.03c0,.67.11,1.15.33,1.43.22.28.6.42,1.14.42.42,0,.91-.12,1.45-.35l.37,1.47c-.73.48-1.61.72-2.63.72-2.08,0-3.12-1.22-3.12-3.67Z"/><path d="m357.71,277.93h-10.4c.13,1.46.57,2.58,1.3,3.34.73.76,1.74,1.14,3.03,1.14,1.74,0,3.11-.68,4.13-2.05l1.39,1.33c-.56.89-1.33,1.57-2.33,2.07s-2.09.74-3.28.74c-2.14,0-3.79-.65-4.97-1.96s-1.76-3.15-1.76-5.52.59-4.2,1.78-5.53c1.19-1.34,2.82-2.01,4.9-2.01,1.94,0,3.47.66,4.56,1.98s1.65,3.16,1.65,5.53v.95Zm-2.26-2.02c0-1.39-.36-2.48-1.08-3.27-.72-.79-1.72-1.19-2.99-1.19-1.19,0-2.14.4-2.85,1.21s-1.11,1.96-1.23,3.44h8.15v-.2Z"/><path d="m362.17,283.82c-.87-.44-1.5-1.03-1.86-1.76l1.59-1.1c.33.52.78.93,1.36,1.21.58.29,1.2.43,1.88.43.81,0,1.48-.24,2.01-.71.53-.47.79-1.06.79-1.78,0-.58-.21-1.06-.64-1.45-.42-.39-1.17-.78-2.25-1.19-1.64-.6-2.79-1.22-3.45-1.88-.67-.65-1-1.46-1-2.43,0-1.12.44-2.02,1.33-2.7.89-.68,2.06-1.03,3.53-1.03.94,0,1.81.2,2.59.61s1.38.96,1.81,1.68l-1.5,1.1c-.67-1-1.64-1.5-2.89-1.5-.71,0-1.3.16-1.75.49-.45.33-.68.75-.68,1.27s.23.96.69,1.31c.46.36,1.32.78,2.57,1.26,1.48.56,2.54,1.17,3.15,1.84.62.66.92,1.51.92,2.53,0,1.35-.48,2.43-1.44,3.24-.96.81-2.24,1.21-3.81,1.21-1.08,0-2.06-.22-2.93-.66Z"/><path d="m380.13,273.39c0-1.46-.05-2.68-.15-3.64h2.2c.08.77.12,1.63.12,2.57h.09c.39-.89.99-1.58,1.82-2.09s1.75-.77,2.77-.77,1.9.26,2.63.78c.73.52,1.22,1.24,1.47,2.17.4-.91,1.02-1.62,1.85-2.15.83-.53,1.76-.79,2.8-.79,1.58,0,2.82.51,3.71,1.53s1.34,2.45,1.34,4.28v8.93h-2.43v-8.73c0-1.31-.27-2.31-.82-3.01-.55-.69-1.34-1.04-2.38-1.04s-1.86.38-2.51,1.14c-.65.76-.98,1.74-.98,2.93v8.7h-2.43v-8.61c0-1.41-.25-2.45-.75-3.13s-1.26-1.03-2.28-1.03c-.63,0-1.23.19-1.79.58s-1.01.9-1.34,1.53c-.34.64-.51,1.32-.51,2.05v8.61h-2.43v-10.81Z"/><path d="m405.13,283.24c-.91-.83-1.36-1.9-1.36-3.21,0-1.45.54-2.56,1.63-3.35,1.09-.79,2.63-1.18,4.64-1.18h2.98v-.75c0-1.08-.28-1.9-.85-2.47-.57-.57-1.39-.85-2.47-.85-.87,0-1.66.18-2.38.53s-1.33.87-1.81,1.55l-1.24-1.5c.66-.83,1.46-1.46,2.4-1.89.95-.43,1.99-.65,3.15-.65,1.81,0,3.21.44,4.19,1.33.98.89,1.47,2.16,1.47,3.81v6.79c0,.75.12,1.69.35,2.8h-2.14c-.17-.44-.3-1.12-.37-2.02h-.06c-.54.75-1.2,1.32-1.99,1.72s-1.67.59-2.63.59c-1.43,0-2.59-.41-3.5-1.24Zm5.9-1.11c.62-.28,1.1-.66,1.46-1.14.36-.48.54-1.01.54-1.59v-2.14h-3.06c-1.21,0-2.15.24-2.8.72-.65.48-.98,1.17-.98,2.05,0,.77.26,1.38.77,1.84s1.2.68,2.07.68c.73,0,1.41-.14,2.02-.42Z"/><path d="m419.72,266.8c-.31-.29-.46-.68-.46-1.18s.15-.9.46-1.2.73-.45,1.27-.45.97.15,1.29.45.48.7.48,1.2-.16.89-.48,1.18-.75.43-1.29.43-.96-.14-1.27-.43Zm.06,2.95h2.46v14.45h-2.46v-14.45Z"/><path d="m426.28,273.39c0-1.83-.04-3.04-.12-3.64h2.28c.08.64.12,1.49.12,2.57h.09c.42-.89,1.07-1.58,1.95-2.09s1.86-.77,2.93-.77c1.69,0,2.97.55,3.81,1.65.85,1.1,1.27,2.74,1.27,4.91v8.18h-2.46v-8.21c0-1.54-.26-2.69-.78-3.44s-1.31-1.13-2.37-1.13c-.81,0-1.54.21-2.2.62-.65.41-1.16.99-1.53,1.73-.36.74-.55,1.58-.55,2.5v7.92h-2.46v-10.81Z"/><path d="m443.25,283.82c-.87-.44-1.5-1.03-1.86-1.76l1.59-1.1c.33.52.78.93,1.36,1.21.58.29,1.2.43,1.88.43.81,0,1.48-.24,2.01-.71.53-.47.79-1.06.79-1.78,0-.58-.21-1.06-.64-1.45-.42-.39-1.17-.78-2.25-1.19-1.64-.6-2.79-1.22-3.45-1.88-.67-.65-1-1.46-1-2.43,0-1.12.44-2.02,1.33-2.7.89-.68,2.06-1.03,3.53-1.03.94,0,1.81.2,2.59.61s1.38.96,1.81,1.68l-1.5,1.1c-.67-1-1.64-1.5-2.89-1.5-.71,0-1.3.16-1.75.49-.45.33-.68.75-.68,1.27s.23.96.69,1.31c.46.36,1.32.78,2.57,1.26,1.48.56,2.54,1.17,3.15,1.84.62.66.92,1.51.92,2.53,0,1.35-.48,2.43-1.44,3.24-.96.81-2.24,1.21-3.81,1.21-1.08,0-2.06-.22-2.93-.66Z"/><path d="m462.07,282.4c-1.09-1.39-1.63-3.28-1.63-5.69,0-1.46.25-2.74.75-3.83.5-1.09,1.21-1.93,2.14-2.53.92-.6,2-.9,3.24-.9,1.77,0,3.2.74,4.28,2.23h.06v-8.93h2.43v17.8c0,1.79.03,3.01.09,3.64h-2.25c-.04-.46-.06-1.22-.06-2.28h-.06c-.44.77-1.08,1.39-1.91,1.86-.83.47-1.7.71-2.63.71-1.87,0-3.35-.69-4.44-2.08Zm7.72-1c.72-.74,1.08-1.74,1.08-2.99v-2.63c0-1.35-.37-2.43-1.1-3.24-.73-.81-1.7-1.21-2.92-1.21s-2.2.48-2.9,1.43-1.06,2.29-1.06,4,.35,3.2,1.06,4.22c.7,1.02,1.67,1.53,2.9,1.53s2.21-.37,2.93-1.11Z"/><path d="m489.04,277.93h-10.4c.13,1.46.57,2.58,1.3,3.34.73.76,1.74,1.14,3.03,1.14,1.74,0,3.11-.68,4.13-2.05l1.39,1.33c-.56.89-1.33,1.57-2.33,2.07s-2.09.74-3.28.74c-2.14,0-3.79-.65-4.97-1.96s-1.76-3.15-1.76-5.52.59-4.2,1.78-5.53c1.19-1.34,2.82-2.01,4.9-2.01,1.94,0,3.47.66,4.56,1.98s1.65,3.16,1.65,5.53v.95Zm-2.26-2.02c0-1.39-.36-2.48-1.08-3.27-.72-.79-1.72-1.19-2.99-1.19-1.19,0-2.14.4-2.85,1.21s-1.11,1.96-1.23,3.44h8.15v-.2Z"/><path d="m493.5,283.82c-.87-.44-1.5-1.03-1.86-1.76l1.59-1.1c.33.52.78.93,1.36,1.21.58.29,1.2.43,1.88.43.81,0,1.48-.24,2.01-.71.53-.47.79-1.06.79-1.78,0-.58-.21-1.06-.64-1.45-.42-.39-1.17-.78-2.25-1.19-1.64-.6-2.79-1.22-3.45-1.88-.67-.65-1-1.46-1-2.43,0-1.12.44-2.02,1.33-2.7.89-.68,2.06-1.03,3.53-1.03.94,0,1.81.2,2.59.61s1.38.96,1.81,1.68l-1.5,1.1c-.67-1-1.64-1.5-2.89-1.5-.71,0-1.3.16-1.75.49-.45.33-.68.75-.68,1.27s.23.96.69,1.31c.46.36,1.32.78,2.57,1.26,1.48.56,2.54,1.17,3.15,1.84.62.66.92,1.51.92,2.53,0,1.35-.48,2.43-1.44,3.24-.96.81-2.24,1.21-3.81,1.21-1.08,0-2.06-.22-2.93-.66Z"/><path d="m505.53,283.82c-.87-.44-1.5-1.03-1.86-1.76l1.59-1.1c.33.52.78.93,1.36,1.21.58.29,1.2.43,1.88.43.81,0,1.48-.24,2.01-.71.53-.47.79-1.06.79-1.78,0-.58-.21-1.06-.64-1.45-.42-.39-1.17-.78-2.25-1.19-1.64-.6-2.79-1.22-3.45-1.88-.67-.65-1-1.46-1-2.43,0-1.12.44-2.02,1.33-2.7.89-.68,2.06-1.03,3.53-1.03.94,0,1.81.2,2.59.61s1.38.96,1.81,1.68l-1.5,1.1c-.67-1-1.64-1.5-2.89-1.5-.71,0-1.3.16-1.75.49-.45.33-.68.75-.68,1.27s.23.96.69,1.31c.46.36,1.32.78,2.57,1.26,1.48.56,2.54,1.17,3.15,1.84.62.66.92,1.51.92,2.53,0,1.35-.48,2.43-1.44,3.24-.96.81-2.24,1.21-3.81,1.21-1.08,0-2.06-.22-2.93-.66Z"/><path d="m519.02,283.58c-1.05-.61-1.86-1.48-2.43-2.62-.57-1.14-.85-2.47-.85-3.99s.28-2.85.85-3.99c.57-1.14,1.38-2.01,2.43-2.62,1.05-.61,2.29-.91,3.71-.91,2.16,0,3.87.67,5.13,2.02,1.26,1.35,1.89,3.18,1.89,5.49s-.63,4.14-1.89,5.49c-1.26,1.35-2.97,2.02-5.13,2.02-1.43,0-2.66-.3-3.71-.91Zm7.06-2.47c.81-1,1.22-2.38,1.22-4.13s-.4-3.13-1.22-4.13c-.81-1-1.93-1.5-3.35-1.5s-2.51.5-3.32,1.5-1.21,2.38-1.21,4.13.4,3.13,1.21,4.13c.81,1,1.92,1.5,3.32,1.5s2.54-.5,3.35-1.5Z"/><path d="m533.84,282.87c-.86-1.08-1.28-2.67-1.28-4.77v-8.35h2.46v8.38c0,2.93,1.04,4.39,3.12,4.39.81,0,1.54-.21,2.2-.62.65-.41,1.17-.99,1.53-1.73.37-.74.55-1.58.55-2.5v-7.92h2.46v11.39c0,.96.09,1.98.26,3.06h-2.26c-.17-.85-.27-1.7-.29-2.57h-.09c-.43.89-1.07,1.58-1.95,2.09-.88.51-1.85.77-2.93.77-1.66,0-2.91-.54-3.77-1.62Z"/><path d="m549.59,283.82c-.87-.44-1.5-1.03-1.86-1.76l1.59-1.1c.33.52.78.93,1.36,1.21.58.29,1.2.43,1.88.43.81,0,1.48-.24,2.01-.71.53-.47.79-1.06.79-1.78,0-.58-.21-1.06-.64-1.45-.42-.39-1.17-.78-2.25-1.19-1.64-.6-2.79-1.22-3.45-1.88-.67-.65-1-1.46-1-2.43,0-1.12.44-2.02,1.33-2.7.89-.68,2.06-1.03,3.53-1.03.94,0,1.81.2,2.59.61s1.38.96,1.81,1.68l-1.5,1.1c-.67-1-1.64-1.5-2.89-1.5-.71,0-1.3.16-1.75.49-.45.33-.68.75-.68,1.27s.23.96.69,1.31c.46.36,1.32.78,2.57,1.26,1.48.56,2.54,1.17,3.15,1.84.62.66.92,1.51.92,2.53,0,1.35-.48,2.43-1.44,3.24-.96.81-2.24,1.21-3.81,1.21-1.08,0-2.06-.22-2.93-.66Z"/></g></g></svg>