<svg xmlns="http://www.w3.org/2000/svg" viewBox="0 0 1920 1080"><defs><style>.cls-1{fill:#cc1f3c;}.cls-2{fill:#a5e0f9;}.cls-3{fill:#3db2ff;}.cls-4{fill:#ffb830;}.cls-5{fill:#cfeef9;}.cls-6{fill:#78caef;}.cls-7{fill:#8fd0e2;}.cls-8{fill:#e4f5f9;}.cls-9{fill:#ffedda;}.cls-10{fill:#e59a23;}</style></defs><g id="Calque_1" data-name="Calque 1"><g id="Infographie_1" data-name="Infographie 1"><rect id="fond" class="cls-1" x="-0.05" y="4.45" width="1920" height="1076"/><g id="Océans"><g id="Océan"><path id="Ciel" class="cls-2" d="M506,530a167.5,167.5,0,0,1-335,0q0-7.65.67-15.13A167.54,167.54,0,0,1,338.45,362.45a170,170,0,0,1,23.82,1.68l2.33.35a167.22,167.22,0,0,1,99.84,55.1q2.85,3.24,5.53,6.64a166.81,166.81,0,0,1,32.64,70.25A168.66,168.66,0,0,1,506,530Z"/><path id="Eau" class="cls-3" d="M506,530a167.5,167.5,0,0,1-335,0q0-7.65.67-15.13c12.34-2.6,22-9.28,30.29-14.86,15.86-10.66,44.8-11.87,64.47,0s36.11,7.3,63.49-1.23,56.31-.41,79.46,16.73c22.58,16.72,67.45-20.69,93.28-19A168.66,168.66,0,0,1,506,530Z"/><path id="Soleil" class="cls-4" d="M464.44,419.58a64.43,64.43,0,0,1-99.85-53.81c0-.43,0-.86,0-1.29A167.22,167.22,0,0,1,464.44,419.58Z"/></g><path d="M265.34,861.93q-6.18,0-9.44-3.73t-3.27-10.8V822.91q0-6.61,3.24-10t9.47-3.43q6.24,0,9.48,3.43t3.24,10V847.4q0,7.07-3.27,10.8T265.34,861.93Zm.09-9.49c1.56,0,2.35-1.51,2.35-4.54V822.73c0-2.54-.77-3.8-2.29-3.8-1.72,0-2.58,1.29-2.58,3.89V848a7.41,7.41,0,0,0,.59,3.44A2,2,0,0,0,265.43,852.44Z"/><path d="M295.26,861.93q-7.39,0-10.48-3.78t-3.09-11.1V833.52a30.53,30.53,0,0,1,1.17-9.17,9.57,9.57,0,0,1,4.11-5.48q2.92-1.82,8.14-1.82a15.84,15.84,0,0,1,6.52,1.29,10.51,10.51,0,0,1,4.55,3.78,10.63,10.63,0,0,1,1.67,6.09v6.71H297.16v-6.15a6.6,6.6,0,0,0-.44-2.56,1.83,1.83,0,0,0-1.9-1q-2.58,0-2.58,3.66v21.3a5.26,5.26,0,0,0,.58,2.47,2,2,0,0,0,1.94,1.13,2,2,0,0,0,1.92-1.1,5.74,5.74,0,0,0,.54-2.56v-7.38h10.63v7.67a11.54,11.54,0,0,1-1.62,6.23,10.69,10.69,0,0,1-4.47,4A14.82,14.82,0,0,1,295.26,861.93Z"/><path d="M323.82,861.93a13.91,13.91,0,0,1-7.47-1.75,9.73,9.73,0,0,1-4-5.07,23.24,23.24,0,0,1-1.21-8V829.47q0-6.12,3.52-9.27t9.67-3.15q12.66,0,12.65,12.42v3.2c0,3.86,0,6.46-.11,7.79H321.65V849a17.31,17.31,0,0,0,.15,2.3,4.1,4.1,0,0,0,.66,1.86,1.87,1.87,0,0,0,1.65.74,1.9,1.9,0,0,0,2.05-1.42,13.53,13.53,0,0,0,.41-3.71V844.5H337V847a24.27,24.27,0,0,1-1.21,8.25,9.27,9.27,0,0,1-4.1,5A15.67,15.67,0,0,1,323.82,861.93Zm-6.42-46v-6.54l13.92-6.38v10.16Zm4.19,19.27h5v-5.91a7.39,7.39,0,0,0-.58-3.42,1.91,1.91,0,0,0-1.76-1,2.22,2.22,0,0,0-2,1,6.36,6.36,0,0,0-.69,3.46Z"/><path d="M348.81,861.93a8.13,8.13,0,0,1-5.58-1.7,8.68,8.68,0,0,1-2.62-4.65,29.09,29.09,0,0,1-.71-6.71,22.66,22.66,0,0,1,.8-6.58,8.72,8.72,0,0,1,2.71-4.2,15.89,15.89,0,0,1,5.28-2.79l6.51-2.22v-4.52c0-2.36-.77-3.54-2.32-3.54-1.4,0-2.11,1-2.11,2.87v2.64H340.58a5,5,0,0,1,0-.6v-.84q0-6.55,3.09-9.3t9.8-2.74a15.3,15.3,0,0,1,6.3,1.25,10.24,10.24,0,0,1,4.41,3.67,10.61,10.61,0,0,1,1.62,6v33.48H355.34v-5.21a8,8,0,0,1-2.52,4.22A6.1,6.1,0,0,1,348.81,861.93Zm4.13-8.14a1.74,1.74,0,0,0,1.76-1.09,5.86,5.86,0,0,0,.47-2.34V838.11a9,9,0,0,0-3.37,2.22,5.66,5.66,0,0,0-1.2,3.91v5.65Q350.6,853.79,352.94,853.79Z"/><path d="M369.82,861.46V817.52h10.49v5.59a9.47,9.47,0,0,1,2.18-4.29,5.66,5.66,0,0,1,4.44-1.77c3,0,5.26.94,6.63,2.81a12.78,12.78,0,0,1,2.07,7.71v33.89H385.29V828.65a5.5,5.5,0,0,0-.53-2.39,1.85,1.85,0,0,0-1.82-1.09,2,2,0,0,0-1.77.83,4.63,4.63,0,0,0-.72,2.08,20.73,20.73,0,0,0-.14,2.48v30.9Z"/><path d="M411.77,861.93q-13,0-13-13.18v-3.49h10.55v5.16a4,4,0,0,0,.59,2.34,2.1,2.1,0,0,0,1.87.85c1.52,0,2.29-1.14,2.29-3.42a6.55,6.55,0,0,0-1.21-4.3,18.54,18.54,0,0,0-2.93-2.74l-5.59-4.3a16.11,16.11,0,0,1-4-4.34,12.31,12.31,0,0,1-1.38-6.36,10.29,10.29,0,0,1,1.8-6.24,10.74,10.74,0,0,1,4.78-3.66,17,17,0,0,1,6.43-1.2q12.76,0,12.77,12.74v.82H413.88v-1.67a7.35,7.35,0,0,0-.45-2.54,1.75,1.75,0,0,0-1.78-1.23q-2.22,0-2.22,2.34a4.33,4.33,0,0,0,1.87,3.72l6.51,4.75a21.06,21.06,0,0,1,5.11,5.21,14,14,0,0,1,2.06,8q0,6.21-3.53,9.46T411.77,861.93Z"/><path d="M263.47,612.74a16.22,16.22,0,0,1-6.07-1.13,10.54,10.54,0,0,1-4.54-3.39,8.91,8.91,0,0,1-1.72-5.59v-5.57h9.93v1.06a24.44,24.44,0,0,0,.13,2.57,4.87,4.87,0,0,0,.67,2.14,1.94,1.94,0,0,0,1.78.85,2.73,2.73,0,0,0,2.4-.95,4.7,4.7,0,0,0,.67-2.74V589.65a5.67,5.67,0,0,1-2.2,2.2,7,7,0,0,1-3.57.85,10.81,10.81,0,0,1-6.56-1.72,8.81,8.81,0,0,1-3.2-5.11,34.93,34.93,0,0,1-.87-8.5,29,29,0,0,1,1.25-9,11.68,11.68,0,0,1,4.21-6,13.35,13.35,0,0,1,8-2.13q5.4,0,8.41,1.83a9.88,9.88,0,0,1,4.26,5.5,29.17,29.17,0,0,1,1.25,9.22v13.94a85.22,85.22,0,0,1-.46,9.47,19.58,19.58,0,0,1-1.89,6.88,9.48,9.48,0,0,1-4.27,4.22A16.93,16.93,0,0,1,263.47,612.74Zm.53-29.15c1.81,0,2.72-1.23,2.72-3.67v-6.38q0-3.81-2.58-3.81a1.93,1.93,0,0,0-2.16,1.54,17.74,17.74,0,0,0-.36,3.94v4.16Q261.62,583.58,264,583.59Z"/><path d="M282.63,612.24a77,77,0,0,1,2-13.48,106.48,106.48,0,0,1,3.58-11.67q2-5.42,3.89-9.92l2.87-6.94H280.43v-9.55h26v5.62a20.08,20.08,0,0,1-1,6.27q-1,3.16-2.69,7A111.81,111.81,0,0,0,296.94,596a84.55,84.55,0,0,0-2.65,16.25Z"/><path d="M311.43,619.15l1.93-6.91h-3.72v-8.73h11V612l-3,7.18Z"/><path d="M324,612.27v-2.46a19,19,0,0,1,1.18-6.9,25.75,25.75,0,0,1,3.06-5.69c1.25-1.74,2.57-3.46,4-5.14s2.63-3.32,3.85-5.05a25.49,25.49,0,0,0,3-5.63,19,19,0,0,0,1.16-6.81,8.14,8.14,0,0,0-.54-3.12,2.18,2.18,0,0,0-2.25-1.3q-2.56,0-2.57,4.6v6.3H324c0-.45,0-1-.08-1.53s0-1.11,0-1.64a33.11,33.11,0,0,1,1.17-9.45,10.55,10.55,0,0,1,4.15-5.91q3-2,8.36-2,6.42,0,10,3.6c2.37,2.41,3.56,5.83,3.56,10.29a24.5,24.5,0,0,1-1.18,8,25.05,25.05,0,0,1-3.1,6.21q-1.94,2.81-4.25,5.58-1.64,2-3.18,4a28.74,28.74,0,0,0-2.71,4.39h14.06v9.73Z"/><path d="M366.68,613a15.32,15.32,0,0,1-9.71-2.94q-3.77-3-3.76-9v-7.68h10.72v4.43a21,21,0,0,0,.16,2.66,4.6,4.6,0,0,0,.75,2.11,2.09,2.09,0,0,0,1.84.82,2.17,2.17,0,0,0,2.2-1.13,6.83,6.83,0,0,0,.53-2.88V589.21a20.55,20.55,0,0,0-.16-2.49,4.75,4.75,0,0,0-.72-2.05,2,2,0,0,0-1.79-.82q-2.92,0-2.93,4.25h-9.46V560.68h24.58v9.66h-14.8v7.27A6.9,6.9,0,0,1,366.2,576a6.34,6.34,0,0,1,3.06-.71,11,11,0,0,1,5.73,1.34,9,9,0,0,1,3.4,3.75A18.75,18.75,0,0,1,380,585.9a48.42,48.42,0,0,1,.45,6.8,66.32,66.32,0,0,1-.48,8.39,18.53,18.53,0,0,1-1.91,6.4,9.56,9.56,0,0,1-4.16,4.09A15.74,15.74,0,0,1,366.68,613Z"/><path d="M408.25,596.8q-5.44,0-8.45-3.36a12.92,12.92,0,0,1-3-9V573.86c0-4,.95-7,2.84-9.08s4.77-3.17,8.61-3.17,6.73,1.06,8.63,3.17,2.86,5.13,2.86,9.08v10.63a12.92,12.92,0,0,1-3,9C414.73,595.68,411.91,596.8,408.25,596.8Zm0-7.68a2.59,2.59,0,0,0,1.94-.83,2.89,2.89,0,0,0,.79-2.07V572a6.17,6.17,0,0,0-.5-2.72c-.33-.66-1.07-1-2.23-1a2.24,2.24,0,0,0-2.21,1,6.09,6.09,0,0,0-.51,2.71v14.24a2.89,2.89,0,0,0,.79,2.07A2.58,2.58,0,0,0,408.25,589.12Zm6.65,23.15,15.83-51.77h9.49l-15.85,51.77Zm31.35.52c-3.63,0-6.45-1.11-8.45-3.35a12.93,12.93,0,0,1-3-9V589.86c0-4,.94-7,2.84-9.09s4.76-3.16,8.61-3.16,6.73,1,8.63,3.16,2.86,5.14,2.86,9.09v10.63a12.89,12.89,0,0,1-3,9C452.73,611.68,449.9,612.79,446.25,612.79Zm0-7.67a2.57,2.57,0,0,0,1.94-.84,2.89,2.89,0,0,0,.79-2.06V588a6.17,6.17,0,0,0-.5-2.72c-.33-.67-1.08-1-2.23-1a2.24,2.24,0,0,0-2.21,1,6.06,6.06,0,0,0-.51,2.71v14.24a2.85,2.85,0,0,0,.79,2.06A2.55,2.55,0,0,0,446.25,605.12Z"/></g><g id="Galcier"><g id="Glacier"><polygon class="cls-2" points="739.95 666.24 767.79 543.76 829.03 507.58 884.7 393.45 955.1 393.45 976.55 463.04 1032.23 510.36 1099.03 621.7 1173.4 666.24 739.95 666.24"/><polygon class="cls-5" points="829.03 507.58 767.79 543.76 770.57 649.54 795.62 638.4 798.41 561.1 829.03 507.58"/><polygon class="cls-6" points="767.79 543.76 770.57 649.54 739.95 666.24 767.79 543.76"/><polygon class="cls-7" points="955.1 393.45 898.62 510.36 918.1 624.75 870.78 643.97 829.03 507.58 884.7 393.45 955.1 393.45"/><polygon class="cls-5" points="870.78 643.97 837.64 666.24 992.29 666.24 918.1 568.73 918.1 624.75 870.78 643.97"/><polygon class="cls-8" points="955.1 393.45 976.55 463.04 1032.23 510.36 1032.23 617.49 992.29 666.24 978.35 568.73 923.67 510.36 955.1 393.45"/><polygon class="cls-6" points="955.1 393.45 898.62 510.36 918.1 624.75 918.1 568.73 923.67 510.36 955.1 393.45"/><polygon class="cls-7" points="1032.23 510.36 1077.51 617.49 1054.87 666.24 1032.23 617.49 1032.23 510.36"/><polygon class="cls-5" points="1099.03 621.7 1054.87 666.24 1077.51 617.49 1032.23 510.36 1099.03 621.7"/></g><g id="textes"><path d="M712.46,814.4a12.07,12.07,0,0,1-9-3.49q-3.41-3.48-3.41-9.76V777.37q0-7.5,3-11.49c2-2.65,5.21-4,9.69-4a15.26,15.26,0,0,1,6.52,1.34,10.37,10.37,0,0,1,4.49,4,12.7,12.7,0,0,1,1.64,6.76v8.9H715.1v-7.61a5.77,5.77,0,0,0-.59-3.13,2.1,2.1,0,0,0-1.81-.8,2,2,0,0,0-1.94,1,6.52,6.52,0,0,0-.49,2.77V801a5.41,5.41,0,0,0,.63,3,2.09,2.09,0,0,0,1.8.87,1.91,1.91,0,0,0,1.86-1.08,6.31,6.31,0,0,0,.54-2.81v-9.29h10.37v9.76q0,6.79-3.43,9.86T712.46,814.4Z"/><path d="M736.72,814.4a8.18,8.18,0,0,1-5.58-1.7,8.71,8.71,0,0,1-2.62-4.66,29,29,0,0,1-.71-6.71,22.66,22.66,0,0,1,.8-6.58,8.72,8.72,0,0,1,2.71-4.2,16,16,0,0,1,5.28-2.78l6.51-2.23V781c0-2.37-.77-3.55-2.32-3.55-1.4,0-2.11,1-2.11,2.87V783H728.49a5,5,0,0,1,0-.6v-.83q0-6.57,3.09-9.31t9.8-2.74a15.3,15.3,0,0,1,6.3,1.25,10.26,10.26,0,0,1,4.41,3.68,10.58,10.58,0,0,1,1.62,6v33.49H743.25v-5.22a8,8,0,0,1-2.52,4.22A6.08,6.08,0,0,1,736.72,814.4Zm4.13-8.15a1.74,1.74,0,0,0,1.76-1.08,5.91,5.91,0,0,0,.47-2.35V790.58a8.87,8.87,0,0,0-3.37,2.21,5.66,5.66,0,0,0-1.2,3.91v5.66Q738.51,806.25,740.85,806.25Z"/><path d="M757.73,813.93V762.37h10.66v51.56Z"/><path d="M785.38,814.4q-13.12,0-13.12-13.63V783.14q0-6.21,3.48-9.92t9.64-3.71q6.18,0,9.67,3.71t3.49,9.92v17.63Q798.54,814.41,785.38,814.4Zm0-8.09a2,2,0,0,0,1.89-.95,4.66,4.66,0,0,0,.57-2.42V781.47q0-3.84-2.46-3.84t-2.46,3.84v21.47a4.66,4.66,0,0,0,.57,2.42A2,2,0,0,0,785.38,806.31Z"/><path d="M811.43,814.4q-4.24,0-5.73-1.8t-1.48-5.53V779.68h-3v-8h3v-9.31h10.2v9.31h3v8h-3v24.93a2.5,2.5,0,0,0,.35,1.53,1.65,1.65,0,0,0,1.34.43,6,6,0,0,0,1.26-.11v7.15c-.23.07-1,.23-2.19.45A21.26,21.26,0,0,1,811.43,814.4Z"/><path d="M829.74,814.4q-4.25,0-5.73-1.8t-1.48-5.53V779.68h-3v-8h3v-9.31h10.2v9.31h3v8h-3v24.93a2.5,2.5,0,0,0,.35,1.53,1.66,1.66,0,0,0,1.35.43,6.16,6.16,0,0,0,1.26-.11v7.15c-.24.07-1,.23-2.2.45A21.26,21.26,0,0,1,829.74,814.4Z"/><path d="M851.33,814.4a13.85,13.85,0,0,1-7.47-1.76,9.72,9.72,0,0,1-4-5.07,23.46,23.46,0,0,1-1.2-8V781.94q0-6.13,3.52-9.28t9.67-3.15q12.64,0,12.65,12.43v3.19c0,3.87,0,6.46-.11,7.79H849.16v8.5a17.42,17.42,0,0,0,.15,2.3,4.19,4.19,0,0,0,.66,1.86,1.86,1.86,0,0,0,1.65.73,1.89,1.89,0,0,0,2-1.42,13.48,13.48,0,0,0,.41-3.71V797h10.43v2.49a24.17,24.17,0,0,1-1.21,8.24,9.27,9.27,0,0,1-4.1,5A15.56,15.56,0,0,1,851.33,814.4Zm-2.23-26.69h5v-5.92a7.35,7.35,0,0,0-.58-3.41,1.89,1.89,0,0,0-1.76-1,2.24,2.24,0,0,0-2,1,6.39,6.39,0,0,0-.69,3.46Z"/><path d="M880.36,814.4q-13,0-13-13.19v-3.48H877.9v5.15a4.1,4.1,0,0,0,.59,2.35,2.12,2.12,0,0,0,1.87.85c1.53,0,2.29-1.15,2.29-3.43a6.5,6.5,0,0,0-1.2-4.29,18.51,18.51,0,0,0-2.93-2.74l-5.6-4.31a16.24,16.24,0,0,1-4-4.33,12.36,12.36,0,0,1-1.38-6.36,10.29,10.29,0,0,1,1.8-6.24,10.8,10.8,0,0,1,4.78-3.66,16.8,16.8,0,0,1,6.43-1.21q12.76,0,12.77,12.75v.82H882.47v-1.67a7.36,7.36,0,0,0-.45-2.55,1.74,1.74,0,0,0-1.77-1.23c-1.49,0-2.23.78-2.23,2.34a4.31,4.31,0,0,0,1.87,3.72l6.51,4.75a21.06,21.06,0,0,1,5.11,5.21,14,14,0,0,1,2.07,8q0,6.21-3.53,9.47T880.36,814.4Z"/><path d="M922.7,821.55a38.89,38.89,0,0,1-5.23-.31,14.08,14.08,0,0,1-3.91-1.1,15.44,15.44,0,0,1-3.46-2.23l3.54-6.06a14.93,14.93,0,0,0,7.68,2.28,4.4,4.4,0,0,0,3.75-1.61,6.71,6.71,0,0,0,1.23-4.19V804c-.84,3-3.08,4.51-6.71,4.51a8,8,0,0,1-5.07-1.5,8.41,8.41,0,0,1-2.81-4,17.23,17.23,0,0,1-.88-5.68V781.53a23.53,23.53,0,0,1,.76-6.26,8,8,0,0,1,2.67-4.23,8.31,8.31,0,0,1,5.33-1.53,6.52,6.52,0,0,1,4.53,1.47,7.31,7.31,0,0,1,2.18,3.95V770H937v37.68q0,7.47-3.44,10.68T922.7,821.55Zm1.14-20.92q2.46,0,2.46-4.46V781.23a5.11,5.11,0,0,0-.69-2.46,2.1,2.1,0,0,0-1.89-1.26,1.76,1.76,0,0,0-1.9,1.13,7.93,7.93,0,0,0-.38,2.59v14.94a11.47,11.47,0,0,0,.39,3A1.87,1.87,0,0,0,923.84,800.63Z"/><path d="M941.1,813.93V762.37h10.66v51.56Z"/><path d="M964,814.4a8.15,8.15,0,0,1-5.58-1.7,8.73,8.73,0,0,1-2.63-4.66,29.05,29.05,0,0,1-.7-6.71,22.7,22.7,0,0,1,.79-6.58,8.8,8.8,0,0,1,2.71-4.2,16,16,0,0,1,5.29-2.78l6.5-2.23V781c0-2.37-.77-3.55-2.31-3.55s-2.11,1-2.11,2.87V783h-10.2a5,5,0,0,1,0-.6v-.83q0-6.57,3.1-9.31t9.8-2.74a15.22,15.22,0,0,1,6.29,1.25,10.15,10.15,0,0,1,4.41,3.68,10.51,10.51,0,0,1,1.63,6v33.49H970.51v-5.22a8.11,8.11,0,0,1-2.52,4.22A6.08,6.08,0,0,1,964,814.4Zm4.13-8.15a1.73,1.73,0,0,0,1.75-1.08,5.74,5.74,0,0,0,.47-2.35V790.58a9,9,0,0,0-3.37,2.21,5.66,5.66,0,0,0-1.2,3.91v5.66Q965.76,806.25,968.11,806.25Z"/><path d="M998.19,814.4q-7.38,0-10.47-3.78t-3.09-11.11V786a30.57,30.57,0,0,1,1.17-9.17,9.63,9.63,0,0,1,4.1-5.48c2-1.21,4.67-1.82,8.15-1.82a15.84,15.84,0,0,1,6.52,1.29,10.51,10.51,0,0,1,4.55,3.78,10.64,10.64,0,0,1,1.67,6.1v6.71H1000.1v-6.16a6.64,6.64,0,0,0-.44-2.56,1.84,1.84,0,0,0-1.9-1q-2.58,0-2.58,3.66v21.3a5.33,5.33,0,0,0,.58,2.48,2,2,0,0,0,1.94,1.12,2,2,0,0,0,1.92-1.09,5.79,5.79,0,0,0,.54-2.57v-7.38h10.63v7.67a11.51,11.51,0,0,1-1.62,6.23,10.69,10.69,0,0,1-4.47,4A14.73,14.73,0,0,1,998.19,814.4Z"/><path d="M1014.4,767.29v-8.73h10.48v8.73Zm0,46.64V770h10.48v43.95Z"/><path d="M1037,814.4a8.18,8.18,0,0,1-5.58-1.7,8.71,8.71,0,0,1-2.62-4.66,29.05,29.05,0,0,1-.7-6.71,22.7,22.7,0,0,1,.79-6.58,8.72,8.72,0,0,1,2.71-4.2,16,16,0,0,1,5.29-2.78l6.5-2.23V781c0-2.37-.77-3.55-2.32-3.55-1.4,0-2.1,1-2.1,2.87V783h-10.2a5,5,0,0,1,0-.6v-.83q0-6.57,3.09-9.31t9.8-2.74a15.27,15.27,0,0,1,6.3,1.25,10.15,10.15,0,0,1,4.41,3.68,10.58,10.58,0,0,1,1.63,6v33.49h-10.43v-5.22a8.11,8.11,0,0,1-2.52,4.22A6.1,6.1,0,0,1,1037,814.4Zm4.13-8.15a1.74,1.74,0,0,0,1.76-1.08,5.91,5.91,0,0,0,.47-2.35V790.58a8.87,8.87,0,0,0-3.37,2.21,5.66,5.66,0,0,0-1.2,3.91v5.66Q1038.83,806.25,1041.17,806.25Z"/><path d="M1058,767.29v-8.73h10.49v8.73Zm0,46.64V770h10.49v43.95Z"/><path d="M1072.64,813.93V770h10.66v4.9a7.49,7.49,0,0,1,2.7-4,7.91,7.91,0,0,1,4.86-1.43v8.76a21.17,21.17,0,0,0-3.08.27,16.86,16.86,0,0,0-3.13.77c-.9.32-1.35.67-1.35,1.06v33.61Z"/><path d="M1105.74,814.4a13.9,13.9,0,0,1-7.47-1.76,9.7,9.7,0,0,1-4-5.07,23.46,23.46,0,0,1-1.2-8V781.94q0-6.13,3.51-9.28t9.67-3.15q12.66,0,12.66,12.43v3.19c0,3.87,0,6.46-.12,7.79h-15.23v8.5a17.43,17.43,0,0,0,.14,2.3,4.19,4.19,0,0,0,.66,1.86,2.21,2.21,0,0,0,3.71-.69,13.88,13.88,0,0,0,.41-3.71V797h10.43v2.49a24.15,24.15,0,0,1-1.22,8.24,9.27,9.27,0,0,1-4.1,5A15.54,15.54,0,0,1,1105.74,814.4Zm-2.22-26.69h5v-5.92a7.32,7.32,0,0,0-.59-3.41,1.88,1.88,0,0,0-1.76-1,2.21,2.21,0,0,0-1.94,1,6.39,6.39,0,0,0-.69,3.46Z"/><path d="M1134.78,814.4q-13,0-13-13.19v-3.48h10.55v5.15a4.11,4.11,0,0,0,.58,2.35,2.14,2.14,0,0,0,1.88.85c1.52,0,2.28-1.15,2.28-3.43a6.5,6.5,0,0,0-1.2-4.29,18.51,18.51,0,0,0-2.93-2.74l-5.59-4.31a16.29,16.29,0,0,1-4-4.33,12.36,12.36,0,0,1-1.38-6.36,10.3,10.3,0,0,1,1.81-6.24,10.77,10.77,0,0,1,4.77-3.66,16.84,16.84,0,0,1,6.43-1.21q12.78,0,12.78,12.75v.82h-10.84v-1.67a7.37,7.37,0,0,0-.46-2.55,1.73,1.73,0,0,0-1.77-1.23c-1.48,0-2.23.78-2.23,2.34a4.31,4.31,0,0,0,1.88,3.72l6.5,4.75a20.89,20.89,0,0,1,5.11,5.21,14,14,0,0,1,2.07,8q0,6.21-3.53,9.47T1134.78,814.4Z"/><path d="M808.83,886.4a13.9,13.9,0,0,1-7.47-1.76,9.7,9.7,0,0,1-4-5.07,23.46,23.46,0,0,1-1.2-8V853.94q0-6.13,3.51-9.28t9.67-3.15q12.66,0,12.66,12.43v3.19c0,3.87,0,6.46-.12,7.79H806.67v8.5a17.43,17.43,0,0,0,.14,2.3,4.19,4.19,0,0,0,.66,1.86,1.87,1.87,0,0,0,1.66.73,1.9,1.9,0,0,0,2-1.42,13.88,13.88,0,0,0,.41-3.71V869H822v2.49a24.15,24.15,0,0,1-1.22,8.24,9.27,9.27,0,0,1-4.1,5A15.54,15.54,0,0,1,808.83,886.4Zm-2.22-26.69h5v-5.92a7.32,7.32,0,0,0-.59-3.41,1.88,1.88,0,0,0-1.76-1,2.21,2.21,0,0,0-1.94,1,6.39,6.39,0,0,0-.69,3.46Z"/><path d="M834.85,886.4q-4.25,0-5.73-1.8c-1-1.21-1.48-3.05-1.48-5.53V851.68h-3v-8h3v-9.31h10.2v9.31h3v8h-3v24.93a2.5,2.5,0,0,0,.35,1.53,1.66,1.66,0,0,0,1.35.43,6,6,0,0,0,1.26-.11v7.15c-.24.07-1,.23-2.2.45A21.26,21.26,0,0,1,834.85,886.4Z"/><path d="M870,893.55a38.73,38.73,0,0,1-5.22-.31,14.25,14.25,0,0,1-3.92-1.1,15.62,15.62,0,0,1-3.45-2.23l3.54-6.06a14.93,14.93,0,0,0,7.68,2.28,4.4,4.4,0,0,0,3.75-1.61,6.71,6.71,0,0,0,1.23-4.19V876c-.84,3-3.08,4.51-6.71,4.51a8,8,0,0,1-5.07-1.5,8.35,8.35,0,0,1-2.81-4,17.23,17.23,0,0,1-.88-5.68V853.53a23.13,23.13,0,0,1,.76-6.26A8,8,0,0,1,861.6,843a8.29,8.29,0,0,1,5.33-1.53,6.53,6.53,0,0,1,4.53,1.47,7.31,7.31,0,0,1,2.18,3.95V842h10.69v37.68q0,7.47-3.44,10.68C878.59,892.48,875,893.55,870,893.55Zm1.15-20.92q2.46,0,2.46-4.46V853.23a5.11,5.11,0,0,0-.69-2.46,2.1,2.1,0,0,0-1.89-1.26,1.75,1.75,0,0,0-1.9,1.13,7.93,7.93,0,0,0-.38,2.59v14.94a11.47,11.47,0,0,0,.39,3A1.85,1.85,0,0,0,871.18,872.63Z"/><path d="M888.43,885.93V834.37H899.1v51.56Z"/><path d="M911.31,886.4a8.18,8.18,0,0,1-5.58-1.7,8.71,8.71,0,0,1-2.62-4.66,29.05,29.05,0,0,1-.7-6.71,22.7,22.7,0,0,1,.79-6.58,8.8,8.8,0,0,1,2.71-4.2,16,16,0,0,1,5.29-2.78l6.5-2.23V853c0-2.37-.77-3.55-2.31-3.55s-2.11,1-2.11,2.87V855h-10.2a5,5,0,0,1,0-.6v-.83q0-6.57,3.09-9.31t9.8-2.74a15.24,15.24,0,0,1,6.3,1.25,10.15,10.15,0,0,1,4.41,3.68,10.58,10.58,0,0,1,1.63,6v33.49H917.85v-5.22a8.11,8.11,0,0,1-2.52,4.22A6.08,6.08,0,0,1,911.31,886.4Zm4.13-8.15a1.74,1.74,0,0,0,1.76-1.08,5.74,5.74,0,0,0,.47-2.35V862.58a9,9,0,0,0-3.37,2.21,5.66,5.66,0,0,0-1.2,3.91v5.66Q913.1,878.25,915.44,878.25Z"/><path d="M945.53,886.4q-7.38,0-10.47-3.78T932,871.51V858a30.57,30.57,0,0,1,1.17-9.17,9.63,9.63,0,0,1,4.1-5.48q2.93-1.82,8.15-1.82a15.76,15.76,0,0,1,6.51,1.29,10.48,10.48,0,0,1,4.56,3.78,10.72,10.72,0,0,1,1.67,6.1v6.71H947.44v-6.16a6.64,6.64,0,0,0-.44-2.56,1.86,1.86,0,0,0-1.91-1c-1.72,0-2.57,1.22-2.57,3.66v21.3a5.33,5.33,0,0,0,.58,2.48,2,2,0,0,0,1.93,1.12A2,2,0,0,0,947,877.1a5.65,5.65,0,0,0,.55-2.57v-7.38h10.63v7.67a11.43,11.43,0,0,1-1.63,6.23,10.61,10.61,0,0,1-4.46,4A14.76,14.76,0,0,1,945.53,886.4Z"/><path d="M961.73,839.29v-8.73h10.49v8.73Zm0,46.64V842h10.49v43.95Z"/><path d="M988.69,886.4a13.85,13.85,0,0,1-7.47-1.76,9.67,9.67,0,0,1-4-5.07,23.46,23.46,0,0,1-1.2-8V853.94q0-6.13,3.52-9.28t9.66-3.15q12.66,0,12.66,12.43v3.19c0,3.87,0,6.46-.12,7.79H986.52v8.5a17.42,17.42,0,0,0,.15,2.3,4.07,4.07,0,0,0,.65,1.86,2.21,2.21,0,0,0,3.71-.69,13.88,13.88,0,0,0,.41-3.71V869h10.43v2.49a23.91,23.91,0,0,1-1.22,8.24,9.23,9.23,0,0,1-4.1,5A15.5,15.5,0,0,1,988.69,886.4Zm-2.23-26.69h5v-5.92a7.35,7.35,0,0,0-.58-3.41,1.9,1.9,0,0,0-1.76-1,2.24,2.24,0,0,0-2,1,6.39,6.39,0,0,0-.69,3.46Z"/><path d="M1005.68,885.93V842h10.66v4.9a7.49,7.49,0,0,1,2.7-4,7.91,7.91,0,0,1,4.86-1.43v8.76a20.93,20.93,0,0,0-3.07.27,16.78,16.78,0,0,0-3.14.77c-.9.32-1.35.67-1.35,1.06v33.61Z"/><path d="M1038.52,886.4q-13,0-13-13.19v-3.48h10.55v5.15a4.1,4.1,0,0,0,.59,2.35,2.12,2.12,0,0,0,1.87.85c1.52,0,2.29-1.15,2.29-3.43a6.5,6.5,0,0,0-1.2-4.29,19,19,0,0,0-2.93-2.74l-5.6-4.31a16.08,16.08,0,0,1-4-4.33,12.36,12.36,0,0,1-1.38-6.36,10.29,10.29,0,0,1,1.8-6.24,10.74,10.74,0,0,1,4.78-3.66,16.8,16.8,0,0,1,6.43-1.21q12.77,0,12.77,12.75v.82h-10.84v-1.67a7.36,7.36,0,0,0-.45-2.55,1.75,1.75,0,0,0-1.78-1.23q-2.22,0-2.22,2.34a4.31,4.31,0,0,0,1.87,3.72l6.51,4.75a21.06,21.06,0,0,1,5.11,5.21,14,14,0,0,1,2.06,8q0,6.21-3.53,9.47T1038.52,886.4Z"/><path d="M842.69,570.07v-2.46a19,19,0,0,1,1.19-6.9,25.46,25.46,0,0,1,3.06-5.68q1.88-2.62,4-5.15c1.34-1.64,2.63-3.32,3.85-5a25.42,25.42,0,0,0,3-5.62,19.1,19.1,0,0,0,1.15-6.82,8.14,8.14,0,0,0-.54-3.12,2.17,2.17,0,0,0-2.24-1.3q-2.58,0-2.58,4.6v6.3H842.69c0-.45,0-1-.07-1.52s0-1.12,0-1.65a33,33,0,0,1,1.17-9.44,10.61,10.61,0,0,1,4.14-5.92c2-1.36,4.77-2,8.37-2q6.4,0,10,3.61t3.56,10.28a24.47,24.47,0,0,1-1.17,7.95,25.4,25.4,0,0,1-3.1,6.21q-1.93,2.8-4.25,5.59-1.65,1.95-3.18,4a28.45,28.45,0,0,0-2.71,4.39h14.06v9.73Z"/><path d="M873.92,577l1.94-6.91h-3.72v-8.73h11v8.47l-3,7.17Z"/><path d="M899.53,570.54q-6.54,0-10.09-3.66t-3.56-10.55V533.07q0-7.27,3.38-11.15T899.53,518q6.91,0,10.28,3.88t3.37,11.15v23.26q0,6.88-3.54,10.55T899.53,570.54Zm0-9.49A2.09,2.09,0,0,0,901.4,560a4.49,4.49,0,0,0,.68-2.43V532.07a11.23,11.23,0,0,0-.4-3.18,2.38,2.38,0,0,0-4.3,0,11.23,11.23,0,0,0-.4,3.18v25.46a4.42,4.42,0,0,0,.69,2.43A2.1,2.1,0,0,0,899.53,561.05Z"/><path d="M929.18,570.8a15.3,15.3,0,0,1-9.71-2.94q-3.76-2.94-3.77-9v-7.68h10.72v4.43a22.9,22.9,0,0,0,.16,2.66,4.55,4.55,0,0,0,.75,2.11,2.11,2.11,0,0,0,1.85.82,2.16,2.16,0,0,0,2.19-1.12,6.75,6.75,0,0,0,.53-2.89V547a18.71,18.71,0,0,0-.16-2.49,4.75,4.75,0,0,0-.72-2,2,2,0,0,0-1.78-.82c-2,0-2.93,1.42-2.93,4.25h-9.47V518.48h24.58v9.67H926.63v7.26a6.83,6.83,0,0,1,2.06-1.65,6.25,6.25,0,0,1,3.07-.72,10.84,10.84,0,0,1,5.72,1.35,8.77,8.77,0,0,1,3.4,3.75,18.31,18.31,0,0,1,1.64,5.56,48.36,48.36,0,0,1,.46,6.8,64.29,64.29,0,0,1-.49,8.39,18.46,18.46,0,0,1-1.9,6.4,9.66,9.66,0,0,1-4.16,4.09A15.76,15.76,0,0,1,929.18,570.8Z"/><path d="M956.69,554.6c-3.64,0-6.45-1.12-8.46-3.35a12.93,12.93,0,0,1-3-9V531.66q0-5.91,2.84-9.08t8.62-3.16q5.76,0,8.63,3.16t2.85,9.08V542.3a12.93,12.93,0,0,1-3,9Q962.17,554.6,956.69,554.6Zm0-7.67a2.55,2.55,0,0,0,1.93-.84,2.87,2.87,0,0,0,.79-2.06V529.79a6.08,6.08,0,0,0-.5-2.73q-.49-1-2.22-1c-1.14,0-1.87.33-2.21,1a5.89,5.89,0,0,0-.52,2.71V544a2.91,2.91,0,0,0,.79,2.06A2.57,2.57,0,0,0,956.69,546.93Zm6.65,23.14,15.82-51.77h9.49L972.8,570.07Zm31.35.53q-5.46,0-8.46-3.36a12.92,12.92,0,0,1-3-9V547.66c0-3.95.95-7,2.84-9.08s4.77-3.17,8.62-3.17,6.72,1.06,8.62,3.17,2.86,5.13,2.86,9.08v10.63a12.92,12.92,0,0,1-3,9C1001.16,569.48,998.34,570.6,994.69,570.6Zm0-7.68a2.58,2.58,0,0,0,1.93-.83,2.89,2.89,0,0,0,.79-2.07V545.78a6.17,6.17,0,0,0-.5-2.72c-.33-.67-1.07-1-2.22-1a2.26,2.26,0,0,0-2.22,1,6.09,6.09,0,0,0-.51,2.71V560a2.89,2.89,0,0,0,.79,2.07A2.59,2.59,0,0,0,994.69,562.92Z"/></g></g><g id="Aure_réservoir" data-name="Aure réservoir"><g id="Illustration"><path class="cls-2" d="M1722.46,532.31a167.5,167.5,0,1,1-335,0q0-7.65.67-15.13c.41-4.63,1-9.21,1.8-13.73a167.71,167.71,0,0,1,188.85-137l2.33.35A167.26,167.26,0,0,1,1681,421.93q2.85,3.26,5.53,6.65a166.81,166.81,0,0,1,32.64,70.25c.31,1.53.6,3.08.86,4.62A168.44,168.44,0,0,1,1722.46,532.31Z"/><path class="cls-9" d="M1722.46,532.31a167.5,167.5,0,0,1-335,0q0-7.65.67-15.13c.41-4.63,1-9.21,1.8-13.73h330A168.44,168.44,0,0,1,1722.46,532.31Z"/><g id="Montagne"><polygon class="cls-4" points="1548.8 503.45 1400.46 503.45 1438.09 434.5 1460.23 462.84 1488.57 388.45 1548.8 503.45"/><polygon class="cls-9" points="1431.84 445.95 1434.55 450.44 1437.99 445.95 1440.66 450.44 1443.51 445.95 1446.06 449.56 1447.04 445.95 1438.09 434.5 1431.84 445.95"/><polygon class="cls-9" points="1480.79 408.87 1484.14 415.02 1488.36 408.87 1491.87 415.02 1495.05 408.87 1497.9 415.02 1499.26 408.87 1488.57 388.45 1480.79 408.87"/></g><g id="Montagne-2" data-name="Montagne"><polygon class="cls-4" points="1697.37 503.45 1549.03 503.45 1586.66 434.5 1608.8 462.84 1637.14 388.45 1697.37 503.45"/><polygon class="cls-9" points="1580.41 445.95 1583.12 450.44 1586.56 445.95 1589.23 450.44 1592.08 445.95 1594.63 449.56 1595.61 445.95 1586.66 434.5 1580.41 445.95"/><polygon class="cls-9" points="1629.36 408.87 1632.71 415.02 1636.93 408.87 1640.44 415.02 1643.62 408.87 1646.47 415.02 1647.83 408.87 1637.14 388.45 1629.36 408.87"/></g><path class="cls-10" d="M1716,578.45a167.57,167.57,0,0,1-322.14,0Z"/><path class="cls-3" d="M1491.4,538.47S1512,510.42,1559.52,515c10.29,1,16.66,8.82,42.64,13.23s22,10.29,22.54,15.68-12.74,15.19-33.32,13.72-15.15.2-26,5.39-31.85,6.38-44.11.49C1490.42,568.37,1486.5,544.35,1491.4,538.47Z"/><path class="cls-3" d="M1683.39,639.84a167.53,167.53,0,0,1-266.29-12.36c12.52-6.13,28.88-9.51,48.85-4,51,14,70.92,16.36,114.46,6.68s32.42-7.65,73,6.83C1662.35,640.16,1672.7,640.8,1683.39,639.84Z"/></g><g id="Textes-2" data-name="Textes"><path d="M1513.37,562.8q-6.52,0-10.09-3.66t-3.56-10.55V525.33q0-7.27,3.38-11.15t10.27-3.88q6.92,0,10.28,3.88t3.37,11.15v23.26q0,6.88-3.54,10.55T1513.37,562.8Zm0-9.49a2.12,2.12,0,0,0,1.88-1.09,4.49,4.49,0,0,0,.67-2.43V524.33a11.63,11.63,0,0,0-.39-3.18,2.39,2.39,0,0,0-4.31,0,11.23,11.23,0,0,0-.4,3.18v25.46a4.42,4.42,0,0,0,.69,2.43A2.12,2.12,0,0,0,1513.37,553.31Z"/><path d="M1531.59,569.21l1.94-6.91h-3.72v-8.73h11V562l-3,7.17Z"/><path d="M1546.62,562.3a77,77,0,0,1,2-13.48,104.37,104.37,0,0,1,3.57-11.67q2-5.42,3.9-9.92l2.87-6.94h-14.56v-9.55h26v5.62a20.35,20.35,0,0,1-1,6.27c-.69,2.11-1.59,4.44-2.7,7a111,111,0,0,0-5.78,16.45,84.58,84.58,0,0,0-2.66,16.25Z"/><path d="M1584.71,546.86q-5.45,0-8.45-3.35a12.94,12.94,0,0,1-3-9V523.92q0-5.91,2.85-9.08t8.61-3.17c3.85,0,6.72,1.06,8.63,3.17s2.85,5.14,2.85,9.08v10.64a12.93,12.93,0,0,1-3,9Q1590.19,546.86,1584.71,546.86Zm0-7.68a2.53,2.53,0,0,0,1.93-.83,2.89,2.89,0,0,0,.79-2.07V522.05a6.2,6.2,0,0,0-.49-2.73,2.27,2.27,0,0,0-2.23-1,2.23,2.23,0,0,0-2.21,1,6,6,0,0,0-.52,2.71v14.23a2.9,2.9,0,0,0,.8,2.07A2.53,2.53,0,0,0,1584.71,539.18Zm6.65,23.15,15.82-51.77h9.49l-15.85,51.77Zm31.35.53c-3.64,0-6.45-1.12-8.45-3.36a12.87,12.87,0,0,1-3-9V539.92q0-5.92,2.84-9.09c1.9-2.1,4.77-3.16,8.62-3.16s6.72,1.06,8.63,3.16,2.85,5.14,2.85,9.09v10.63a12.92,12.92,0,0,1-3,9Q1628.19,562.86,1622.71,562.86Zm0-7.68a2.58,2.58,0,0,0,1.93-.83,2.89,2.89,0,0,0,.79-2.07V538a6,6,0,0,0-.5-2.72c-.33-.67-1.07-1-2.22-1a2.23,2.23,0,0,0-2.21,1A5.94,5.94,0,0,0,1620,538v14.24a2.94,2.94,0,0,0,.79,2.07A2.6,2.6,0,0,0,1622.71,555.18Z"/><path d="M1275,814.33l5-51.56h17.49l4.89,51.56h-9.76l-.73-8.32h-6.21l-.64,8.32Zm11.39-16.55H1291l-2.26-26.22h-.46Z"/><path d="M1313.77,814.8a8.5,8.5,0,0,1-5.37-1.47,7.34,7.34,0,0,1-2.54-4.08,24.86,24.86,0,0,1-.67-6.14V770.38h10.55v31.5a11,11,0,0,0,.41,3.67,1.82,1.82,0,0,0,1.93,1,1.93,1.93,0,0,0,2.07-1.46,14.09,14.09,0,0,0,.42-3.78v-31H1331v44h-10.49v-4.69a10.5,10.5,0,0,1-2.39,3.84A6.17,6.17,0,0,1,1313.77,814.8Z"/><path d="M1344.27,814.8q-4.24,0-5.73-1.8t-1.47-5.53V780.08h-3v-8h3v-9.31h10.19v9.31h3v8h-3V805a2.57,2.57,0,0,0,.35,1.53,1.69,1.69,0,0,0,1.35.44,6,6,0,0,0,1.26-.12V814c-.24.07-1,.23-2.2.45A20.36,20.36,0,0,1,1344.27,814.8Z"/><path d="M1353.56,814.33v-44h10.66v4.9a7.49,7.49,0,0,1,2.7-4,7.91,7.91,0,0,1,4.86-1.43v8.76a20.93,20.93,0,0,0-3.07.27,16.78,16.78,0,0,0-3.14.77c-.9.32-1.35.67-1.35,1.07v33.6Z"/><path d="M1386.66,814.8a13.9,13.9,0,0,1-7.47-1.76,9.7,9.7,0,0,1-4-5.07,23.46,23.46,0,0,1-1.2-8V782.34q0-6.14,3.51-9.28t9.67-3.15q12.66,0,12.66,12.43v3.19c0,3.87,0,6.46-.12,7.79H1384.5v8.5a19.33,19.33,0,0,0,.14,2.3,4.19,4.19,0,0,0,.66,1.86,2.21,2.21,0,0,0,3.71-.69,13.88,13.88,0,0,0,.41-3.71v-4.21h10.43v2.49a24.15,24.15,0,0,1-1.22,8.24,9.27,9.27,0,0,1-4.1,5A15.54,15.54,0,0,1,1386.66,814.8Zm-2.22-26.69h5v-5.92a7.32,7.32,0,0,0-.59-3.41,1.88,1.88,0,0,0-1.76-1,2.22,2.22,0,0,0-1.94,1,6.39,6.39,0,0,0-.69,3.46Z"/><path d="M1415.7,814.8q-13,0-13-13.19v-3.48h10.55v5.15a4.11,4.11,0,0,0,.58,2.35,2.14,2.14,0,0,0,1.88.85c1.52,0,2.28-1.15,2.28-3.43a6.52,6.52,0,0,0-1.2-4.29,18.51,18.51,0,0,0-2.93-2.74l-5.59-4.31a16.29,16.29,0,0,1-4-4.33,12.36,12.36,0,0,1-1.37-6.36,10.29,10.29,0,0,1,1.8-6.24,10.77,10.77,0,0,1,4.77-3.66,17.07,17.07,0,0,1,6.43-1.21q12.78,0,12.78,12.75v.82h-10.84v-1.67a7.15,7.15,0,0,0-.46-2.55,1.73,1.73,0,0,0-1.77-1.23c-1.48,0-2.23.78-2.23,2.34a4.31,4.31,0,0,0,1.88,3.72l6.5,4.75a21.14,21.14,0,0,1,5.12,5.22,14,14,0,0,1,2.06,8q0,6.21-3.53,9.47T1415.7,814.8Z"/><path d="M1446.2,814.33v-44h10.66v4.9a7.49,7.49,0,0,1,2.7-4,7.89,7.89,0,0,1,4.86-1.43v8.76a21.05,21.05,0,0,0-3.08.27,16.86,16.86,0,0,0-3.13.77c-.9.32-1.35.67-1.35,1.07v33.6Z"/><path d="M1479.3,814.8a13.9,13.9,0,0,1-7.47-1.76,9.7,9.7,0,0,1-4-5.07,23.46,23.46,0,0,1-1.2-8V782.34q0-6.14,3.51-9.28t9.67-3.15q12.66,0,12.65,12.43v3.19c0,3.87,0,6.46-.11,7.79h-15.24v8.5a17.42,17.42,0,0,0,.15,2.3,4.19,4.19,0,0,0,.66,1.86,1.86,1.86,0,0,0,1.65.73,1.9,1.9,0,0,0,2.06-1.42,13.88,13.88,0,0,0,.41-3.71v-4.21h10.42v2.49a24.17,24.17,0,0,1-1.21,8.24,9.27,9.27,0,0,1-4.1,5A15.56,15.56,0,0,1,1479.3,814.8Zm-6.41-46V762.3l13.91-6.39v10.17Zm4.18,19.28h5v-5.92a7.32,7.32,0,0,0-.59-3.41,1.89,1.89,0,0,0-1.76-1,2.24,2.24,0,0,0-2,1,6.39,6.39,0,0,0-.69,3.46Z"/><path d="M1508.33,814.8q-13,0-13-13.19v-3.48h10.54v5.15a4.1,4.1,0,0,0,.59,2.35,2.13,2.13,0,0,0,1.87.85c1.53,0,2.29-1.15,2.29-3.43a6.52,6.52,0,0,0-1.2-4.29,18.51,18.51,0,0,0-2.93-2.74l-5.6-4.31a16.41,16.41,0,0,1-4-4.33,12.36,12.36,0,0,1-1.38-6.36,10.29,10.29,0,0,1,1.8-6.24,10.85,10.85,0,0,1,4.78-3.66,17,17,0,0,1,6.43-1.21q12.78,0,12.77,12.75v.82h-10.84v-1.67a7.36,7.36,0,0,0-.45-2.55,1.73,1.73,0,0,0-1.77-1.23c-1.49,0-2.23.78-2.23,2.34a4.31,4.31,0,0,0,1.88,3.72l6.5,4.75a20.93,20.93,0,0,1,5.11,5.22,13.92,13.92,0,0,1,2.07,8q0,6.21-3.53,9.47C1515.66,813.71,1512.44,814.8,1508.33,814.8Z"/><path d="M1537.07,814.8a13.9,13.9,0,0,1-7.47-1.76,9.7,9.7,0,0,1-4-5.07,23.46,23.46,0,0,1-1.2-8V782.34q0-6.14,3.51-9.28t9.67-3.15q12.66,0,12.66,12.43v3.19c0,3.87,0,6.46-.12,7.79h-15.23v8.5a19.33,19.33,0,0,0,.14,2.3,4.19,4.19,0,0,0,.66,1.86,2.21,2.21,0,0,0,3.71-.69,13.88,13.88,0,0,0,.41-3.71v-4.21h10.43v2.49a24.15,24.15,0,0,1-1.22,8.24,9.27,9.27,0,0,1-4.1,5A15.51,15.51,0,0,1,1537.07,814.8Zm-2.22-26.69h5v-5.92a7.32,7.32,0,0,0-.59-3.41,1.88,1.88,0,0,0-1.76-1,2.23,2.23,0,0,0-1.94,1,6.39,6.39,0,0,0-.69,3.46Z"/><path d="M1554.07,814.33v-44h10.66v4.9a7.49,7.49,0,0,1,2.7-4,7.91,7.91,0,0,1,4.86-1.43v8.76a21.05,21.05,0,0,0-3.08.27,16.86,16.86,0,0,0-3.13.77c-.9.32-1.35.67-1.35,1.07v33.6Z"/><path d="M1580.46,814.33l-7.06-44h10.52l2.52,29.36,2.84-29.36h10.49l-7.18,44Z"/><path d="M1615.3,814.8q-13.12,0-13.13-13.63V783.54q0-6.21,3.49-9.92t9.64-3.71q6.18,0,9.67,3.71t3.48,9.92v17.63Q1628.45,814.81,1615.3,814.8Zm0-8.09a2,2,0,0,0,1.89-1,4.66,4.66,0,0,0,.57-2.42V781.87q0-3.84-2.46-3.84t-2.46,3.84v21.47a4.66,4.66,0,0,0,.57,2.42A2,2,0,0,0,1615.3,806.71Z"/><path d="M1632.26,767.69V759h10.49v8.73Zm0,46.64v-44h10.49v44Z"/><path d="M1646.91,814.33v-44h10.66v4.9a7.49,7.49,0,0,1,2.7-4,7.91,7.91,0,0,1,4.86-1.43v8.76a20.93,20.93,0,0,0-3.07.27,16.78,16.78,0,0,0-3.14.77c-.9.32-1.35.67-1.35,1.07v33.6Z"/><path d="M1679.75,814.8q-13,0-13-13.19v-3.48h10.55v5.15a4,4,0,0,0,.59,2.35,2.12,2.12,0,0,0,1.87.85c1.52,0,2.29-1.15,2.29-3.43a6.46,6.46,0,0,0-1.21-4.29,18.09,18.09,0,0,0-2.93-2.74l-5.59-4.31a16.08,16.08,0,0,1-4-4.33,12.36,12.36,0,0,1-1.38-6.36,10.29,10.29,0,0,1,1.8-6.24,10.74,10.74,0,0,1,4.78-3.66,17,17,0,0,1,6.43-1.21q12.77,0,12.77,12.75v.82h-10.84v-1.67a7.36,7.36,0,0,0-.45-2.55,1.75,1.75,0,0,0-1.78-1.23q-2.22,0-2.22,2.34a4.31,4.31,0,0,0,1.87,3.72l6.51,4.75a21.1,21.1,0,0,1,5.11,5.22,13.92,13.92,0,0,1,2.06,8q0,6.21-3.53,9.47T1679.75,814.8Z"/><path d="M1718.89,814.8a9,9,0,0,1-4.83-1.12,6.83,6.83,0,0,1-2.67-3.07,15.41,15.41,0,0,1-1.16-4.6,55.67,55.67,0,0,1-.27-5.66v-19.1a16.36,16.36,0,0,1,1.8-8.2c1.2-2.09,3.23-3.14,6.11-3.14a7.71,7.71,0,0,1,4.9,1.37,8.62,8.62,0,0,1,2.65,3.79v-12.3h10.67v51.56h-10.67v-4.66a9.76,9.76,0,0,1-2.32,3.75A5.88,5.88,0,0,1,1718.89,814.8Zm4-8.21a2,2,0,0,0,2-1.2,12.35,12.35,0,0,0,.51-4.3V782.6a10.64,10.64,0,0,0-.45-3.06,1.92,1.92,0,0,0-2-1.51,2,2,0,0,0-2.14,1.44,10.72,10.72,0,0,0-.43,3.13v18.49Q1720.39,806.6,1722.9,806.59Z"/><path d="M1741.27,777.88l1.94-6.91h-3.72v-8.73h11v8.47l-3,7.17Z"/><path d="M1766.35,814.8a13.9,13.9,0,0,1-7.47-1.76,9.7,9.7,0,0,1-4-5.07,23.46,23.46,0,0,1-1.2-8V782.34q0-6.14,3.51-9.28t9.67-3.15q12.66,0,12.66,12.43v3.19c0,3.87,0,6.46-.12,7.79h-15.24v8.5a17.42,17.42,0,0,0,.15,2.3A4.19,4.19,0,0,0,1765,806a1.87,1.87,0,0,0,1.66.73,1.9,1.9,0,0,0,2-1.42,13.88,13.88,0,0,0,.41-3.71v-4.21h10.43v2.49a24.15,24.15,0,0,1-1.22,8.24,9.27,9.27,0,0,1-4.1,5A15.56,15.56,0,0,1,1766.35,814.8Zm-2.22-26.69h5v-5.92a7.32,7.32,0,0,0-.59-3.41,1.89,1.89,0,0,0-1.76-1,2.24,2.24,0,0,0-2,1,6.5,6.5,0,0,0-.68,3.46Z"/><path d="M1791.34,814.8a8.18,8.18,0,0,1-5.58-1.7,8.71,8.71,0,0,1-2.62-4.66,29.05,29.05,0,0,1-.7-6.71,22.74,22.74,0,0,1,.79-6.58,8.72,8.72,0,0,1,2.71-4.2,16,16,0,0,1,5.29-2.78l6.5-2.23v-4.51c0-2.36-.77-3.55-2.32-3.55s-2.1,1-2.1,2.87v2.64h-10.2a5,5,0,0,1,0-.6V782q0-6.57,3.09-9.31t9.8-2.74a15.27,15.27,0,0,1,6.3,1.25,10.15,10.15,0,0,1,4.41,3.68,10.58,10.58,0,0,1,1.63,6v33.49h-10.43v-5.22a8.11,8.11,0,0,1-2.52,4.22A6.1,6.1,0,0,1,1791.34,814.8Zm4.13-8.15a1.74,1.74,0,0,0,1.76-1.08,5.86,5.86,0,0,0,.47-2.34V791a9,9,0,0,0-3.37,2.21,5.66,5.66,0,0,0-1.2,3.91v5.66Q1793.13,806.65,1795.47,806.65Z"/><path d="M1820.82,814.8a8.51,8.51,0,0,1-5.38-1.47,7.34,7.34,0,0,1-2.54-4.08,25.35,25.35,0,0,1-.67-6.14V770.38h10.55v31.5a11,11,0,0,0,.41,3.67,1.82,1.82,0,0,0,1.93,1,1.92,1.92,0,0,0,2.07-1.46,14.09,14.09,0,0,0,.42-3.78v-31h10.46v44h-10.49v-4.69a10.5,10.5,0,0,1-2.39,3.84A6.16,6.16,0,0,1,1820.82,814.8Z"/><path d="M1340.29,886.33v-44h10.49V848a9.42,9.42,0,0,1,2.18-4.29,5.67,5.67,0,0,1,4.44-1.78c3,0,5.26.94,6.63,2.82a12.73,12.73,0,0,1,2.07,7.7v33.9h-10.34V853.52a5.47,5.47,0,0,0-.53-2.39,1.86,1.86,0,0,0-1.82-1.1,2,2,0,0,0-1.77.83,4.63,4.63,0,0,0-.72,2.08,20.85,20.85,0,0,0-.14,2.48v30.91Z"/><path d="M1378.2,886.8a8.18,8.18,0,0,1-5.58-1.7,8.73,8.73,0,0,1-2.63-4.66,29.61,29.61,0,0,1-.7-6.71,23.1,23.1,0,0,1,.79-6.58,8.8,8.8,0,0,1,2.71-4.2,16,16,0,0,1,5.29-2.78l6.5-2.23v-4.51c0-2.36-.77-3.55-2.31-3.55s-2.11,1-2.11,2.87v2.64H1370a5,5,0,0,1,0-.6V854q0-6.57,3.09-9.31t9.8-2.74a15.3,15.3,0,0,1,6.3,1.25,10.18,10.18,0,0,1,4.4,3.68,10.51,10.51,0,0,1,1.63,6v33.49h-10.43v-5.22a8.11,8.11,0,0,1-2.52,4.22A6.08,6.08,0,0,1,1378.2,886.8Zm4.13-8.15a1.75,1.75,0,0,0,1.76-1.08,5.86,5.86,0,0,0,.47-2.34V863a9,9,0,0,0-3.37,2.21,5.67,5.67,0,0,0-1.21,3.91v5.66C1380,877.35,1380.77,878.65,1382.33,878.65Z"/><path d="M1408.23,886.8q-4.24,0-5.73-1.8t-1.48-5.53V852.08h-3v-8h3v-9.31h10.2v9.31h3v8h-3V877a2.5,2.5,0,0,0,.35,1.53,1.65,1.65,0,0,0,1.34.44,6,6,0,0,0,1.26-.12V886c-.23.07-1,.23-2.19.45A20.36,20.36,0,0,1,1408.23,886.8Z"/><path d="M1426,886.8a8.5,8.5,0,0,1-5.37-1.47,7.28,7.28,0,0,1-2.54-4.08,24.86,24.86,0,0,1-.67-6.14V842.38h10.54v31.5a11.3,11.3,0,0,0,.41,3.67,1.84,1.84,0,0,0,1.94,1,1.91,1.91,0,0,0,2.06-1.46,13.65,13.65,0,0,0,.43-3.78v-31h10.46v44h-10.49v-4.69a10.63,10.63,0,0,1-2.39,3.84A6.2,6.2,0,0,1,1426,886.8Z"/><path d="M1447.46,886.33v-44h10.66v4.9a7.49,7.49,0,0,1,2.7-4,7.89,7.89,0,0,1,4.86-1.43v8.76a21.05,21.05,0,0,0-3.08.27,16.86,16.86,0,0,0-3.13.77c-.9.32-1.35.67-1.35,1.07v33.6Z"/><path d="M1480.56,886.8a13.9,13.9,0,0,1-7.47-1.76,9.66,9.66,0,0,1-4-5.07,23.45,23.45,0,0,1-1.21-8V854.34q0-6.14,3.52-9.28t9.67-3.15q12.66,0,12.65,12.43v3.19c0,3.87,0,6.46-.11,7.79h-15.24v8.5a17.42,17.42,0,0,0,.15,2.3,4.19,4.19,0,0,0,.66,1.86,1.86,1.86,0,0,0,1.65.73,1.89,1.89,0,0,0,2.05-1.42,13.43,13.43,0,0,0,.42-3.71v-4.21h10.42v2.49a24.17,24.17,0,0,1-1.21,8.24,9.27,9.27,0,0,1-4.1,5A15.56,15.56,0,0,1,1480.56,886.8Zm-2.23-26.69h5v-5.92a7.32,7.32,0,0,0-.59-3.41,1.89,1.89,0,0,0-1.76-1,2.24,2.24,0,0,0-2,1,6.39,6.39,0,0,0-.69,3.46Z"/><path d="M1497.55,886.33V834.77h10.67v51.56Z"/><path d="M1512.44,886.33V834.77h10.66v51.56Z"/><path d="M1539.62,886.8a13.9,13.9,0,0,1-7.47-1.76,9.7,9.7,0,0,1-4-5.07,23.46,23.46,0,0,1-1.2-8V854.34q0-6.14,3.51-9.28t9.67-3.15q12.66,0,12.66,12.43v3.19c0,3.87,0,6.46-.12,7.79h-15.23v8.5a17.43,17.43,0,0,0,.14,2.3,4.19,4.19,0,0,0,.66,1.86,1.87,1.87,0,0,0,1.66.73,1.9,1.9,0,0,0,2-1.42,13.88,13.88,0,0,0,.41-3.71v-4.21h10.43v2.49a24.15,24.15,0,0,1-1.22,8.24,9.27,9.27,0,0,1-4.1,5A15.54,15.54,0,0,1,1539.62,886.8Zm-2.22-26.69h5v-5.92a7.32,7.32,0,0,0-.59-3.41,1.88,1.88,0,0,0-1.76-1,2.21,2.21,0,0,0-1.94,1,6.39,6.39,0,0,0-.69,3.46Z"/><path d="M1583.89,886.8q-7.38,0-10.47-3.78t-3.09-11.11V858.38a30.57,30.57,0,0,1,1.17-9.17,9.63,9.63,0,0,1,4.1-5.48c2-1.21,4.67-1.82,8.14-1.82a15.78,15.78,0,0,1,6.52,1.29,10.48,10.48,0,0,1,4.56,3.78,10.72,10.72,0,0,1,1.67,6.1v6.71H1585.8v-6.16a6.64,6.64,0,0,0-.44-2.56,1.86,1.86,0,0,0-1.91-1q-2.58,0-2.58,3.66V875a5.34,5.34,0,0,0,.59,2.48,2,2,0,0,0,1.93,1.12,2,2,0,0,0,1.92-1.09,5.79,5.79,0,0,0,.54-2.57v-7.38h10.64v7.68a11.42,11.42,0,0,1-1.63,6.22,10.61,10.61,0,0,1-4.46,4A14.76,14.76,0,0,1,1583.89,886.8Z"/><path d="M1608.62,886.8a8.51,8.51,0,0,1-5.38-1.47,7.32,7.32,0,0,1-2.53-4.08,24.83,24.83,0,0,1-.68-6.14V842.38h10.55v31.5a11.3,11.3,0,0,0,.41,3.67,1.82,1.82,0,0,0,1.93,1,1.92,1.92,0,0,0,2.07-1.46,14.09,14.09,0,0,0,.42-3.78v-31h10.46v44h-10.48v-4.69a10.63,10.63,0,0,1-2.39,3.84A6.2,6.2,0,0,1,1608.62,886.8Z"/><path d="M1630.09,886.33v-44h10.26v5.1a7.82,7.82,0,0,1,2.4-4.13,7.51,7.51,0,0,1,5-1.44,8.05,8.05,0,0,1,4.5,1.22,6.57,6.57,0,0,1,2.62,3.21,9.42,9.42,0,0,1,2.83-3.3,8.09,8.09,0,0,1,4.64-1.13,8.93,8.93,0,0,1,5.64,1.57,8.17,8.17,0,0,1,2.75,4.34,23.66,23.66,0,0,1,.78,6.4v32.11H1661V854q0-4.24-2.17-4.24a2.11,2.11,0,0,0-1.76.77,4.56,4.56,0,0,0-.85,1.92,11.78,11.78,0,0,0-.23,2.29v31.55h-10.46V854a11.31,11.31,0,0,0-.34-2.75,1.61,1.61,0,0,0-1.71-1.38,2.17,2.17,0,0,0-1.82.85,4.87,4.87,0,0,0-.87,2.1,12.85,12.85,0,0,0-.24,2.44v31Z"/><path d="M1684.06,886.8a8.51,8.51,0,0,1-5.38-1.47,7.32,7.32,0,0,1-2.53-4.08,24.83,24.83,0,0,1-.68-6.14V842.38H1686v31.5a11.3,11.3,0,0,0,.41,3.67,1.82,1.82,0,0,0,1.93,1,1.92,1.92,0,0,0,2.07-1.46,14.09,14.09,0,0,0,.42-3.78v-31h10.46v44h-10.49v-4.69a10.63,10.63,0,0,1-2.38,3.84A6.2,6.2,0,0,1,1684.06,886.8Z"/><path d="M1705.53,886.33V834.77h10.67v51.56Z"/><path d="M1732.72,886.8a13.85,13.85,0,0,1-7.47-1.76,9.72,9.72,0,0,1-4-5.07,23.46,23.46,0,0,1-1.2-8V854.34q0-6.14,3.52-9.28t9.67-3.15q12.64,0,12.65,12.43v3.19c0,3.87,0,6.46-.11,7.79h-15.24v8.5a17.42,17.42,0,0,0,.15,2.3,4.19,4.19,0,0,0,.66,1.86,1.86,1.86,0,0,0,1.65.73,1.89,1.89,0,0,0,2-1.42,13.48,13.48,0,0,0,.41-3.71v-4.21h10.43v2.49a24.17,24.17,0,0,1-1.21,8.24,9.27,9.27,0,0,1-4.1,5A15.56,15.56,0,0,1,1732.72,886.8Zm-6.42-46V834.3l13.92-6.39v10.17Zm4.19,19.28h5v-5.92a7.35,7.35,0,0,0-.58-3.41,1.89,1.89,0,0,0-1.76-1,2.24,2.24,0,0,0-2,1,6.39,6.39,0,0,0-.69,3.46Z"/><path d="M1761.75,886.8q-13,0-13-13.19v-3.48h10.55v5.15a4.1,4.1,0,0,0,.59,2.35,2.12,2.12,0,0,0,1.87.85c1.53,0,2.29-1.15,2.29-3.43a6.52,6.52,0,0,0-1.2-4.29,18.51,18.51,0,0,0-2.93-2.74l-5.6-4.31a16.24,16.24,0,0,1-4-4.33,12.36,12.36,0,0,1-1.38-6.36,10.29,10.29,0,0,1,1.8-6.24,10.8,10.8,0,0,1,4.78-3.66,17,17,0,0,1,6.43-1.21q12.77,0,12.77,12.75v.82h-10.84v-1.67a7.36,7.36,0,0,0-.45-2.55,1.74,1.74,0,0,0-1.77-1.23c-1.49,0-2.23.78-2.23,2.34a4.31,4.31,0,0,0,1.87,3.72l6.51,4.75a21.1,21.1,0,0,1,5.11,5.22,13.92,13.92,0,0,1,2.07,8q0,6.21-3.53,9.47T1761.75,886.8Z"/></g></g><path class="cls-9" d="M519.13,158.65V107.09h14.18q5.57,0,8.38,3.09t2.81,9v24.14q0,7.32-2.57,11.31t-9,4Zm10.37-9.11h1.78c1.9,0,2.85-.92,2.85-2.75v-26.6q0-2.58-.69-3.33a3.83,3.83,0,0,0-2.8-.75H529.5Z"/><path class="cls-9" d="M549.68,122.21l1.94-6.92H547.9v-8.73h11V115l-3,7.18Z"/><path class="cls-9" d="M575.23,159.12q-13.12,0-13.12-13.62V127.86q0-6.21,3.48-9.92t9.64-3.7q6.18,0,9.67,3.7t3.48,9.92V145.5Q588.38,159.12,575.23,159.12Zm0-8.08a2,2,0,0,0,1.89-1,4.62,4.62,0,0,0,.57-2.41V126.19q0-3.84-2.46-3.84t-2.46,3.84v21.48a4.62,4.62,0,0,0,.57,2.41A2,2,0,0,0,575.23,151Z"/><path class="cls-9" d="M600.72,159.12a8.58,8.58,0,0,1-5.38-1.46,7.35,7.35,0,0,1-2.53-4.09,24.77,24.77,0,0,1-.68-6.14V114.71h10.55V146.2a11.38,11.38,0,0,0,.41,3.68,1.84,1.84,0,0,0,1.94,1,1.92,1.92,0,0,0,2.06-1.47,13.94,13.94,0,0,0,.43-3.78v-31H618v43.94H607.49V154a10.59,10.59,0,0,1-2.39,3.83A6.2,6.2,0,0,1,600.72,159.12Z"/><path class="cls-9" d="M636.26,166V114.71h10.66v4.69a8.89,8.89,0,0,1,2.68-3.8,7.72,7.72,0,0,1,4.91-1.36c2.87,0,4.89,1,6.08,3.13a16.63,16.63,0,0,1,1.77,8.21V147.2a18.43,18.43,0,0,1-1,6.08,9,9,0,0,1-3,4.27,8.45,8.45,0,0,1-5.32,1.57q-4.27,0-6.18-5.15v12Zm13.15-15a1.85,1.85,0,0,0,2-1.64,21,21,0,0,0,.33-4.05V128.1a20.89,20.89,0,0,0-.33-4.06,1.84,1.84,0,0,0-2-1.63,2,2,0,0,0-2.09,1.66,17.18,17.18,0,0,0-.4,4v17.16a17.18,17.18,0,0,0,.4,4A2,2,0,0,0,649.41,151Z"/><path class="cls-9" d="M666.34,158.65V114.71H677v4.89a7.41,7.41,0,0,1,2.69-4,7.93,7.93,0,0,1,4.87-1.44v8.76a19.9,19.9,0,0,0-3.08.28,16.7,16.7,0,0,0-3.13.76c-.9.32-1.35.68-1.35,1.07v33.6Z"/><path class="cls-9" d="M699.92,159.12q-13.12,0-13.13-13.62V127.86q0-6.21,3.49-9.92t9.64-3.7q6.18,0,9.67,3.7t3.48,9.92V145.5Q713.07,159.12,699.92,159.12Zm0-8.08a2,2,0,0,0,1.89-1,4.62,4.62,0,0,0,.57-2.41V126.19q0-3.84-2.46-3.84t-2.46,3.84v21.48a4.62,4.62,0,0,0,.57,2.41A2,2,0,0,0,699.92,151Z"/><path class="cls-9" d="M722.53,158.65l-7.06-43.94H726l2.52,29.35,2.84-29.35h10.49l-7.18,43.94Z"/><path class="cls-9" d="M744.54,112v-8.73H755V112Zm0,46.64V114.71H755v43.94Z"/><path class="cls-9" d="M771.49,159.12a13.77,13.77,0,0,1-7.47-1.76,9.74,9.74,0,0,1-4-5.06,23.5,23.5,0,0,1-1.2-8V126.66q0-6.12,3.52-9.27t9.67-3.15q12.65,0,12.65,12.42v3.19q0,5.81-.11,7.8H769.32v8.49a17.42,17.42,0,0,0,.15,2.3,4.14,4.14,0,0,0,.66,1.86,1.87,1.87,0,0,0,1.65.74,1.89,1.89,0,0,0,2.05-1.43,13.4,13.4,0,0,0,.41-3.7v-4.22h10.43v2.49a24.27,24.27,0,0,1-1.21,8.25,9.34,9.34,0,0,1-4.1,5A15.67,15.67,0,0,1,771.49,159.12Zm-2.23-26.69h5v-5.92a7.35,7.35,0,0,0-.58-3.41,1.91,1.91,0,0,0-1.76-1,2.22,2.22,0,0,0-1.95,1,6.32,6.32,0,0,0-.69,3.45Z"/><path class="cls-9" d="M788.48,158.65V114.71H799v5.59a9.52,9.52,0,0,1,2.18-4.29,5.69,5.69,0,0,1,4.44-1.77q4.57,0,6.64,2.81a12.83,12.83,0,0,1,2.06,7.71v33.89H804V125.84a5.36,5.36,0,0,0-.53-2.39,1.85,1.85,0,0,0-1.81-1.1,2,2,0,0,0-1.78.84,4.51,4.51,0,0,0-.71,2.08,20.59,20.59,0,0,0-.15,2.47v30.91Z"/><path class="cls-9" d="M827.42,159.12q-4.24,0-5.73-1.8t-1.48-5.52V124.4h-3v-8h3v-9.32h10.2v9.32h3v8h-3v24.94a2.44,2.44,0,0,0,.35,1.52,1.66,1.66,0,0,0,1.35.44,6,6,0,0,0,1.25-.12v7.15q-.35.12-2.19.45A20.36,20.36,0,0,1,827.42,159.12Z"/><path class="cls-9" d="M850.77,158.65V107.09h10.66v51.56Z"/><path class="cls-9" d="M873.65,159.12a8.13,8.13,0,0,1-5.58-1.7,8.69,8.69,0,0,1-2.63-4.66,29.52,29.52,0,0,1-.7-6.7,23,23,0,0,1,.79-6.58,8.87,8.87,0,0,1,2.71-4.21,16,16,0,0,1,5.29-2.78l6.5-2.23v-4.51q0-3.54-2.31-3.54c-1.41,0-2.11,1-2.11,2.87v2.64H865.42a5,5,0,0,1,0-.61v-.83q0-6.57,3.09-9.3t9.8-2.74a15.3,15.3,0,0,1,6.3,1.24,10.18,10.18,0,0,1,4.4,3.68,10.52,10.52,0,0,1,1.63,6v33.48H880.18v-5.21a8.19,8.19,0,0,1-2.52,4.22A6.12,6.12,0,0,1,873.65,159.12Zm4.13-8.14a1.75,1.75,0,0,0,1.76-1.09,5.86,5.86,0,0,0,.47-2.34V135.3a9,9,0,0,0-3.37,2.22,5.65,5.65,0,0,0-1.2,3.91v5.65Q875.44,151,877.78,151Z"/><path class="cls-9" d="M908.72,158.65V114.71h10.66v4.89a7.42,7.42,0,0,1,2.7-4,7.9,7.9,0,0,1,4.86-1.44v8.76a19.9,19.9,0,0,0-3.08.28,16.89,16.89,0,0,0-3.13.76c-.9.32-1.35.68-1.35,1.07v33.6Z"/><path class="cls-9" d="M941.82,159.12a13.81,13.81,0,0,1-7.47-1.76,9.72,9.72,0,0,1-4-5.06,23.5,23.5,0,0,1-1.2-8V126.66q0-6.12,3.51-9.27t9.67-3.15q12.66,0,12.66,12.42v3.19q0,5.81-.12,7.8H939.65v8.49a17.42,17.42,0,0,0,.15,2.3,4.14,4.14,0,0,0,.66,1.86,1.87,1.87,0,0,0,1.65.74,1.91,1.91,0,0,0,2.06-1.43,13.8,13.8,0,0,0,.41-3.7v-4.22H955v2.49a24.25,24.25,0,0,1-1.22,8.25,9.34,9.34,0,0,1-4.1,5A15.67,15.67,0,0,1,941.82,159.12Zm-2.22-26.69h5v-5.92a7.32,7.32,0,0,0-.59-3.41,1.91,1.91,0,0,0-1.76-1,2.22,2.22,0,0,0-2,1,6.34,6.34,0,0,0-.68,3.45Z"/><path class="cls-9" d="M970.86,159.12q-13,0-13-13.18v-3.49h10.54v5.16A4.07,4.07,0,0,0,969,150a2.12,2.12,0,0,0,1.88.85c1.52,0,2.28-1.14,2.28-3.43a6.53,6.53,0,0,0-1.2-4.29,18.51,18.51,0,0,0-2.93-2.74l-5.6-4.3a16.44,16.44,0,0,1-4-4.34,12.31,12.31,0,0,1-1.38-6.36,10.29,10.29,0,0,1,1.8-6.24,10.85,10.85,0,0,1,4.78-3.66,17,17,0,0,1,6.43-1.2q12.78,0,12.77,12.74v.82H973v-1.67a7.36,7.36,0,0,0-.45-2.55,1.73,1.73,0,0,0-1.77-1.23c-1.49,0-2.23.79-2.23,2.35a4.34,4.34,0,0,0,1.88,3.72l6.5,4.74a21.1,21.1,0,0,1,5.11,5.22,14,14,0,0,1,2.07,8q0,6.21-3.53,9.46T970.86,159.12Z"/><path class="cls-9" d="M999.33,159.12q-13,0-13-13.18v-3.49h10.55v5.16a4.07,4.07,0,0,0,.59,2.34,2.1,2.1,0,0,0,1.87.85c1.53,0,2.29-1.14,2.29-3.43a6.53,6.53,0,0,0-1.2-4.29,19,19,0,0,0-2.93-2.74l-5.6-4.3a16.11,16.11,0,0,1-4-4.34,12.31,12.31,0,0,1-1.38-6.36,10.29,10.29,0,0,1,1.8-6.24,10.74,10.74,0,0,1,4.78-3.66,17,17,0,0,1,6.43-1.2q12.76,0,12.77,12.74v.82h-10.84v-1.67a7.36,7.36,0,0,0-.45-2.55,1.75,1.75,0,0,0-1.78-1.23c-1.48,0-2.22.79-2.22,2.35a4.33,4.33,0,0,0,1.87,3.72l6.51,4.74a21.28,21.28,0,0,1,5.11,5.22,14,14,0,0,1,2.06,8q0,6.21-3.53,9.46T999.33,159.12Z"/><path class="cls-9" d="M1028.54,159.12q-13.12,0-13.12-13.62V127.86q0-6.21,3.48-9.92t9.64-3.7q6.18,0,9.67,3.7t3.48,9.92V145.5Q1041.69,159.12,1028.54,159.12Zm0-8.08a2,2,0,0,0,1.89-1,4.62,4.62,0,0,0,.57-2.41V126.19q0-3.84-2.46-3.84t-2.46,3.84v21.48a4.62,4.62,0,0,0,.57,2.41A2,2,0,0,0,1028.54,151Z"/><path class="cls-9" d="M1054,159.12a8.6,8.6,0,0,1-5.38-1.46,7.35,7.35,0,0,1-2.53-4.09,24.77,24.77,0,0,1-.68-6.14V114.71H1056V146.2a11.38,11.38,0,0,0,.41,3.68,1.85,1.85,0,0,0,1.94,1,1.92,1.92,0,0,0,2.06-1.47,13.94,13.94,0,0,0,.43-3.78v-31h10.45v43.94H1060.8V154a10.59,10.59,0,0,1-2.39,3.83A6.2,6.2,0,0,1,1054,159.12Z"/><path class="cls-9" d="M1075.5,158.65V114.71h10.67v4.89a7.41,7.41,0,0,1,2.69-4,7.93,7.93,0,0,1,4.87-1.44v8.76a19.9,19.9,0,0,0-3.08.28,16.7,16.7,0,0,0-3.13.76c-.9.32-1.35.68-1.35,1.07v33.6Z"/><path class="cls-9" d="M1109.52,159.12q-7.38,0-10.48-3.78t-3.09-11.1V130.7a30.62,30.62,0,0,1,1.17-9.17,9.63,9.63,0,0,1,4.11-5.47c2-1.22,4.66-1.82,8.14-1.82a15.81,15.81,0,0,1,6.52,1.29,10.51,10.51,0,0,1,4.55,3.78,10.63,10.63,0,0,1,1.67,6.09v6.71h-10.69V126a6.51,6.51,0,0,0-.44-2.57,1.84,1.84,0,0,0-1.9-1q-2.58,0-2.58,3.67v21.3a5.18,5.18,0,0,0,.59,2.47,2,2,0,0,0,1.93,1.13,2,2,0,0,0,1.92-1.1,5.74,5.74,0,0,0,.54-2.56v-7.39h10.63v7.68a11.54,11.54,0,0,1-1.62,6.23,10.61,10.61,0,0,1-4.47,4A14.68,14.68,0,0,1,1109.52,159.12Z"/><path class="cls-9" d="M1138.08,159.12a13.81,13.81,0,0,1-7.47-1.76,9.72,9.72,0,0,1-4-5.06,23.5,23.5,0,0,1-1.2-8V126.66q0-6.12,3.51-9.27t9.67-3.15q12.66,0,12.66,12.42v3.19q0,5.81-.12,7.8h-15.24v8.49a17.42,17.42,0,0,0,.15,2.3,4.14,4.14,0,0,0,.66,1.86,1.87,1.87,0,0,0,1.65.74,1.91,1.91,0,0,0,2.06-1.43,13.8,13.8,0,0,0,.41-3.7v-4.22h10.43v2.49a24.25,24.25,0,0,1-1.22,8.25,9.34,9.34,0,0,1-4.1,5A15.67,15.67,0,0,1,1138.08,159.12Zm-2.22-26.69h5v-5.92a7.32,7.32,0,0,0-.59-3.41,1.91,1.91,0,0,0-1.76-1,2.22,2.22,0,0,0-2,1,6.34,6.34,0,0,0-.68,3.45Z"/><path class="cls-9" d="M1181.44,159.12a13.81,13.81,0,0,1-7.47-1.76,9.67,9.67,0,0,1-4-5.06,23.49,23.49,0,0,1-1.21-8V126.66q0-6.12,3.52-9.27t9.67-3.15q12.66,0,12.65,12.42v3.19c0,3.87,0,6.47-.11,7.8h-15.24v8.49a17.42,17.42,0,0,0,.15,2.3,4.14,4.14,0,0,0,.66,1.86,1.87,1.87,0,0,0,1.65.74,1.89,1.89,0,0,0,2-1.43,13.4,13.4,0,0,0,.41-3.7v-4.22h10.43v2.49a24.27,24.27,0,0,1-1.21,8.25,9.34,9.34,0,0,1-4.1,5A15.67,15.67,0,0,1,1181.44,159.12Zm-2.23-26.69h5v-5.92a7.35,7.35,0,0,0-.58-3.41,1.91,1.91,0,0,0-1.76-1,2.22,2.22,0,0,0-1.95,1,6.32,6.32,0,0,0-.69,3.45Z"/><path class="cls-9" d="M1198.43,158.65V114.71h10.49v5.59a9.52,9.52,0,0,1,2.18-4.29,5.69,5.69,0,0,1,4.44-1.77q4.57,0,6.64,2.81c1.38,1.88,2.06,4.44,2.06,7.71v33.89H1213.9V125.84a5.36,5.36,0,0,0-.53-2.39,1.85,1.85,0,0,0-1.81-1.1,2,2,0,0,0-1.77.84,4.51,4.51,0,0,0-.72,2.08,20.59,20.59,0,0,0-.15,2.47v30.91Z"/><path class="cls-9" d="M1254.71,159.12a13.81,13.81,0,0,1-7.47-1.76,9.72,9.72,0,0,1-4-5.06,23.5,23.5,0,0,1-1.2-8V126.66q0-6.12,3.51-9.27t9.67-3.15q12.66,0,12.66,12.42v3.19q0,5.81-.12,7.8h-15.24v8.49a17.42,17.42,0,0,0,.15,2.3,4.14,4.14,0,0,0,.66,1.86,1.88,1.88,0,0,0,1.66.74,1.91,1.91,0,0,0,2-1.43,13.8,13.8,0,0,0,.41-3.7v-4.22h10.43v2.49a24.25,24.25,0,0,1-1.22,8.25,9.34,9.34,0,0,1-4.1,5A15.67,15.67,0,0,1,1254.71,159.12Zm-2.22-26.69h5v-5.92a7.32,7.32,0,0,0-.59-3.41,1.91,1.91,0,0,0-1.76-1,2.22,2.22,0,0,0-1.95,1,6.43,6.43,0,0,0-.68,3.45Z"/><path class="cls-9" d="M1279.7,159.12a8.13,8.13,0,0,1-5.58-1.7,8.68,8.68,0,0,1-2.62-4.66,29,29,0,0,1-.7-6.7,22.7,22.7,0,0,1,.79-6.58,8.8,8.8,0,0,1,2.71-4.21,16,16,0,0,1,5.29-2.78l6.5-2.23v-4.51q0-3.54-2.31-3.54c-1.41,0-2.11,1-2.11,2.87v2.64h-10.2a5,5,0,0,1,0-.61v-.83q0-6.57,3.09-9.3t9.8-2.74a15.24,15.24,0,0,1,6.3,1.24,10.15,10.15,0,0,1,4.41,3.68,10.59,10.59,0,0,1,1.63,6v33.48h-10.43v-5.21a8.19,8.19,0,0,1-2.52,4.22A6.14,6.14,0,0,1,1279.7,159.12Zm4.13-8.14a1.74,1.74,0,0,0,1.76-1.09,5.86,5.86,0,0,0,.47-2.34V135.3a9,9,0,0,0-3.37,2.22,5.65,5.65,0,0,0-1.2,3.91v5.65Q1281.49,151,1283.83,151Z"/><path class="cls-9" d="M1309.18,159.12a8.58,8.58,0,0,1-5.38-1.46,7.3,7.3,0,0,1-2.53-4.09,24.77,24.77,0,0,1-.68-6.14V114.71h10.55V146.2a11.38,11.38,0,0,0,.41,3.68,1.83,1.83,0,0,0,1.93,1,1.93,1.93,0,0,0,2.07-1.47,14,14,0,0,0,.42-3.78v-31h10.46v43.94h-10.49V154a10.58,10.58,0,0,1-2.38,3.83A6.2,6.2,0,0,1,1309.18,159.12Z"/><path class="cls-9" d="M1346.32,145.32V133.14a43.49,43.49,0,0,0,6.29-.39,9.42,9.42,0,0,0,4.3-1.61,7.07,7.07,0,0,0,2.49-3.72,22.23,22.23,0,0,0,.81-6.68,10.55,10.55,0,0,0-.48-3.34,2.11,2.11,0,0,0-2.24-1.43,2.15,2.15,0,0,0-1.85.8,4.43,4.43,0,0,0-.75,2,21.74,21.74,0,0,0-.16,2.6v4.27H1344v-7.44q0-5.91,3.76-8.77a15.61,15.61,0,0,1,9.72-2.86,15.42,15.42,0,0,1,8.21,1.88A10.23,10.23,0,0,1,1370,114a26.36,26.36,0,0,1,1.28,8.77,23.53,23.53,0,0,1-1.66,9.06,13.82,13.82,0,0,1-5,6.27,14.85,14.85,0,0,1-8.5,2.28v5Zm-.32,13.3v-8.73h10.49v8.73Z"/></g></g></svg>