<svg id="Calque_2" data-name="Calque 2" xmlns="http://www.w3.org/2000/svg" viewBox="0 0 1920 1080"><defs><style>.cls-1{fill:#e59a23;}.cls-2{fill:#ffedda;}.cls-3{fill:#3db2ff;}.cls-4{fill:#fff;}.cls-5{fill:#ffb830;}.cls-6{fill:#efd3b9;}.cls-7{fill:#ff2442;}</style></defs><g id="Infographie_2" data-name="Infographie 2"><g id="Ecoulement_souterrain" data-name="Ecoulement souterrain"><path class="cls-1" d="M1576.53,541.12c-11.11-1.33-96.31,0-96.31,0h0a64,64,0,0,1-3.56-7.32s-8.17-14.54-13.85-26-22.72-17.66-39.76-22.86-24.13-6.23-36.91-21.81-38.34-20.78-38.34-20.78-36.91-6.24-39.75-21.82c-1.92-10.52-19.37-17.49-30.5-20.91a13.52,13.52,0,0,0-14.4,4.34c-6.29,7.67-17.7,19.57-30.41,23.43-9.7,2.94-19.4,33.21-19.4,33.21s-14.4,7.34-24.39,35c-3.54,9.78-6.6,18.32-14.72,23.39a27.29,27.29,0,0,0-12.09,16.07l-4,14.91H1268.3s.13.06,218.26,0l94.3,0S1587.64,542.46,1576.53,541.12Z"/><path id="Cavité" class="cls-2" d="M1268,496.16c-5.12,13.89-21.53,14.1-16,29.76s21.88,12.38,27.4,14.09c11.36,3.53,21.07-3.67,28.22-1.56,13.29,3.91,14.07-14.49,28.56-5.88s43.46.39,33.67-12.92-5.82-16.44-23.27-23.49-22.54-9-30-5.87-17-3.72-19.58-4.7C1288.77,482.46,1270.76,488.72,1268,496.16Z"/><path id="Nappres" class="cls-3" d="M1251.26,520.48s2.83-9,18.33-4.74c11.35,3.13,30.32.7,37.19-2.74s22.44,1.34,31.32,2.13c13.32,1.19,20.6-1.23,24-3a3.16,3.16,0,0,1,4.11,1.14l5.12,8.11s2.65,3.5-.74,7.87c-3.13,4-11.29,7.1-15.62,7.21a49.44,49.44,0,0,1-16-2.35c-3.28-.39-6.78-1-9.47-1.5a8,8,0,0,0-7.16,2.34,11.85,11.85,0,0,1-3,2.29c-3.3,1.72-6.26,1.57-14.09,2-9.63.48-4.34.37-15.65,1.59C1279,542,1279.33,539.5,1270.8,539c-9.83-.56-7.48-3.7-16.88-2.91S1251.26,520.48,1251.26,520.48Z"/><path id="écoulement" class="cls-3" d="M1369.82,519.65s22.54-5.31,43.29-1,28,5.05,38.37,7.43,19.89-1.88,19.89-1.88l3.26,5.95s-.44,1.81-13.36,2.59c-14.6.89-9.24-3.16-34.07-5.48s-29.65-6.3-39.15-4.31-16,1.57-16.28,1.33C1368.34,520.72,1369.82,519.65,1369.82,519.65Z"/><path id="océan" class="cls-3" d="M1569.33,512c-8.61,2-25.84-.39-25.84-.39s-17.23-2.74-32.11-.39c-10.35,1.63-26-.9-35.12,1.64h0a14.9,14.9,0,0,0-9.38,2.93l2.08,3.94.13-.12c0,.09,0,.18,0,.27-2.45,19,11.17,21.25,11.17,21.25,10.73,5.26,101.3,1.63,101.3,1.63S1578,510,1569.33,512Z"/><g id="Groupe_de_flèches" data-name="Groupe de flèches"><path id="Flèche" class="cls-2" d="M1387.63,520.35l-2.32-1.25a.27.27,0,0,0-.41.25l0,.75A56.24,56.24,0,0,0,1363,525l.53,1a55,55,0,0,1,21.44-4.74l0,.71a.27.27,0,0,0,.42.23l2.25-1.38A.28.28,0,0,0,1387.63,520.35Z"/><path id="Flèche-2" data-name="Flèche" class="cls-2" d="M1478.65,524.62l-1.6,2.1a.28.28,0,0,1-.48-.06l-.29-.69a56.49,56.49,0,0,1-22,4.63l0-1.18a55,55,0,0,0,21.48-4.54l-.27-.65a.28.28,0,0,1,.29-.39l2.61.33A.28.28,0,0,1,1478.65,524.62Z"/><path id="Flèche-3" data-name="Flèche" class="cls-2" d="M1432.67,525.27l-1.81-1.91a.28.28,0,0,0-.47.11l-.22.72a56.5,56.5,0,0,0-22.35-2.22l.18,1.16a55.16,55.16,0,0,1,21.84,2.19l-.2.68a.28.28,0,0,0,.33.35l2.56-.61A.28.28,0,0,0,1432.67,525.27Z"/></g><path d="M1404.62,429.8V409.61h8.07v3.9h-4v3.93h3.81v3.8h-3.81v4.62H1413v3.94Z"/><path d="M1419.39,430c-1.93,0-3.29-.49-4.1-1.48a6.71,6.71,0,0,1-1.21-4.35v-5.3a11.87,11.87,0,0,1,.46-3.59,3.75,3.75,0,0,1,1.6-2.14,6,6,0,0,1,3.19-.71,6.27,6.27,0,0,1,2.55.5,4.14,4.14,0,0,1,1.79,1.48,4.25,4.25,0,0,1,.65,2.39v2.62h-4.18V417a2.5,2.5,0,0,0-.18-1,.71.71,0,0,0-.74-.41c-.68,0-1,.48-1,1.44v8.34a2,2,0,0,0,.23,1,.87.87,0,0,0,1.51,0,2.28,2.28,0,0,0,.21-1v-2.89h4.16v3a4.54,4.54,0,0,1-.63,2.44,4.24,4.24,0,0,1-1.75,1.55A5.79,5.79,0,0,1,1419.39,430Z"/><path d="M1430.76,430q-5.15,0-5.14-5.33v-6.91a5.43,5.43,0,0,1,1.36-3.88,5.65,5.65,0,0,1,7.56,0,5.44,5.44,0,0,1,1.37,3.88v6.91Q1435.91,430,1430.76,430Zm0-3.17a.8.8,0,0,0,.74-.37,1.79,1.79,0,0,0,.22-.94v-8.41c0-1-.32-1.51-1-1.51s-1,.51-1,1.51v8.41a1.79,1.79,0,0,0,.23.94A.79.79,0,0,0,1430.76,426.81Z"/><path d="M1440.74,430a3.38,3.38,0,0,1-2.11-.57,3,3,0,0,1-1-1.6,9.62,9.62,0,0,1-.26-2.41V412.59h4.13v12.33a4.33,4.33,0,0,0,.16,1.44.71.71,0,0,0,.75.41.75.75,0,0,0,.81-.57,5.52,5.52,0,0,0,.17-1.48V412.59h4.09V429.8h-4.1V428a4.12,4.12,0,0,1-.94,1.5A2.38,2.38,0,0,1,1440.74,430Z"/><path d="M1449.15,429.8V409.61h4.17V429.8Z"/><path d="M1459.79,430a5.39,5.39,0,0,1-2.92-.69,3.84,3.84,0,0,1-1.57-2,9.31,9.31,0,0,1-.47-3.12v-6.92a4.61,4.61,0,0,1,1.38-3.63,5.49,5.49,0,0,1,3.79-1.23q4.95,0,5,4.86v1.25c0,1.52,0,2.53,0,3.05h-6v3.33a6.69,6.69,0,0,0,.06.9,1.59,1.59,0,0,0,.26.73.72.72,0,0,0,.64.28.75.75,0,0,0,.81-.55,5.7,5.7,0,0,0,.16-1.45v-1.65H1465v1a9.67,9.67,0,0,1-.47,3.23,3.66,3.66,0,0,1-1.61,2A6.1,6.1,0,0,1,1459.79,430Zm-.87-10.45h1.95v-2.32a2.88,2.88,0,0,0-.23-1.33.74.74,0,0,0-.69-.41.87.87,0,0,0-.76.39,2.48,2.48,0,0,0-.27,1.35Z"/><path d="M1466.44,429.8V412.59h4v2a2.61,2.61,0,0,1,2.89-2.18,3.21,3.21,0,0,1,1.76.47,2.64,2.64,0,0,1,1,1.26,3.65,3.65,0,0,1,1.1-1.29,3.14,3.14,0,0,1,1.82-.44,3.48,3.48,0,0,1,2.21.61,3.3,3.3,0,0,1,1.08,1.7,9.44,9.44,0,0,1,.3,2.51V429.8h-4.09V417.16c0-1.11-.29-1.67-.85-1.67a.81.81,0,0,0-.69.31,1.72,1.72,0,0,0-.33.75,4.5,4.5,0,0,0-.1.89V429.8h-4.09V417.16a4.43,4.43,0,0,0-.13-1.08.63.63,0,0,0-.67-.54.83.83,0,0,0-.71.33,1.91,1.91,0,0,0-.35.82,5.36,5.36,0,0,0-.09,1V429.8Z"/><path d="M1489.08,430a5.43,5.43,0,0,1-2.93-.69,3.78,3.78,0,0,1-1.56-2,9.31,9.31,0,0,1-.47-3.12v-6.92a4.61,4.61,0,0,1,1.38-3.63,5.46,5.46,0,0,1,3.78-1.23q5,0,5,4.86v1.25c0,1.52,0,2.53,0,3.05h-6v3.33a6.7,6.7,0,0,0,0,.9,1.71,1.71,0,0,0,.26.73.74.74,0,0,0,.65.28.73.73,0,0,0,.8-.55,5.28,5.28,0,0,0,.16-1.45v-1.65h4.09v1a9.4,9.4,0,0,1-.48,3.23,3.61,3.61,0,0,1-1.61,2A6.06,6.06,0,0,1,1489.08,430Zm-.88-10.45h2v-2.32a2.75,2.75,0,0,0-.23-1.33.74.74,0,0,0-.68-.41.88.88,0,0,0-.77.39,2.48,2.48,0,0,0-.27,1.35Z"/><path d="M1495.73,429.8V412.59h4.1v2.19a3.74,3.74,0,0,1,.86-1.68,2.24,2.24,0,0,1,1.74-.69,3,3,0,0,1,2.59,1.1,5,5,0,0,1,.81,3V429.8h-4V417a2.12,2.12,0,0,0-.2-.94.74.74,0,0,0-.71-.43.78.78,0,0,0-.7.33,1.81,1.81,0,0,0-.28.82,7.77,7.77,0,0,0-.06,1v12.1Z"/><path d="M1511,430a2.81,2.81,0,0,1-2.24-.7,3.39,3.39,0,0,1-.58-2.17V416.39H1507v-3.13h1.16v-3.65h4v3.65h1.16v3.13h-1.16v9.76a1,1,0,0,0,.14.6.67.67,0,0,0,.53.17,2.38,2.38,0,0,0,.49-.05v2.8c-.09,0-.38.09-.86.18A8,8,0,0,1,1511,430Z"/><path d="M1415.17,458.17c-3.4,0-5.09-1.72-5.09-5.16v-1.37h4.13v2a1.63,1.63,0,0,0,.22.92.85.85,0,0,0,.74.33c.6,0,.89-.44.89-1.34a2.51,2.51,0,0,0-.47-1.68,6.94,6.94,0,0,0-1.14-1.07l-2.19-1.69a6.24,6.24,0,0,1-1.58-1.7,4.78,4.78,0,0,1-.54-2.48,4,4,0,0,1,.71-2.45,4.18,4.18,0,0,1,1.87-1.43,6.57,6.57,0,0,1,2.52-.47q5,0,5,5v.32H1416v-.65a3,3,0,0,0-.17-1,.68.68,0,0,0-.7-.48c-.58,0-.87.3-.87.91a1.7,1.7,0,0,0,.74,1.46l2.54,1.86a8.07,8.07,0,0,1,2,2,5.48,5.48,0,0,1,.81,3.14,4.81,4.81,0,0,1-1.38,3.71A5.38,5.38,0,0,1,1415.17,458.17Z"/><path d="M1426.61,458.17q-5.14,0-5.14-5.33v-6.91a5.43,5.43,0,0,1,1.36-3.88,5.65,5.65,0,0,1,7.56,0,5.44,5.44,0,0,1,1.37,3.88v6.91Q1431.76,458.17,1426.61,458.17Zm0-3.16a.78.78,0,0,0,.73-.38,1.79,1.79,0,0,0,.23-.94v-8.41q0-1.5-1-1.5c-.65,0-1,.5-1,1.5v8.41a1.89,1.89,0,0,0,.22.94A.81.81,0,0,0,1426.61,455Z"/><path d="M1436.58,458.17a3.35,3.35,0,0,1-2.1-.57,2.82,2.82,0,0,1-1-1.6,9.59,9.59,0,0,1-.27-2.41V440.78h4.13v12.33a4.62,4.62,0,0,0,.16,1.44.73.73,0,0,0,.76.41.75.75,0,0,0,.81-.57,5.52,5.52,0,0,0,.17-1.48V440.78h4.09V458h-4.11v-1.84a4.25,4.25,0,0,1-.93,1.51A2.46,2.46,0,0,1,1436.58,458.17Z"/><path d="M1448.53,458.17a2.84,2.84,0,0,1-2.25-.7,3.43,3.43,0,0,1-.58-2.17V444.58h-1.15v-3.13h1.15V437.8h4v3.65h1.15v3.13h-1.15v9.76a1,1,0,0,0,.13.6.69.69,0,0,0,.53.17,2.38,2.38,0,0,0,.49-.05v2.8c-.09,0-.37.09-.86.18A7.93,7.93,0,0,1,1448.53,458.17Z"/><path d="M1457,458.17a5.45,5.45,0,0,1-2.93-.69,3.87,3.87,0,0,1-1.56-2,9.31,9.31,0,0,1-.47-3.12v-6.92a4.61,4.61,0,0,1,1.38-3.63,5.49,5.49,0,0,1,3.79-1.23q4.95,0,5,4.86v1.25c0,1.52,0,2.53,0,3.05h-6v3.33a6.58,6.58,0,0,0,.06.9,1.59,1.59,0,0,0,.26.73.73.73,0,0,0,.64.29.76.76,0,0,0,.81-.56,5.7,5.7,0,0,0,.16-1.45v-1.65h4.08v1a9.67,9.67,0,0,1-.47,3.23,3.66,3.66,0,0,1-1.61,2A6.1,6.1,0,0,1,1457,458.17Zm-.87-10.45h2V445.4a2.88,2.88,0,0,0-.23-1.33.74.74,0,0,0-.69-.41.87.87,0,0,0-.76.39,2.48,2.48,0,0,0-.27,1.35Z"/><path d="M1463.63,458V440.78h4.18v1.92a2.91,2.91,0,0,1,1-1.56,3.09,3.09,0,0,1,1.91-.56V444a8.44,8.44,0,0,0-1.21.11,8.07,8.07,0,0,0-1.22.3c-.36.13-.53.27-.53.42V458Z"/><path d="M1471.78,458V440.78H1476v1.92a2.87,2.87,0,0,1,1.06-1.56,3.06,3.06,0,0,1,1.9-.56V444a8.32,8.32,0,0,0-1.2.11,7.92,7.92,0,0,0-1.23.3c-.35.13-.53.27-.53.42V458Z"/><path d="M1483.05,458.17a3.21,3.21,0,0,1-2.18-.66,3.45,3.45,0,0,1-1-1.83,11.6,11.6,0,0,1-.27-2.62,8.82,8.82,0,0,1,.31-2.58,3.43,3.43,0,0,1,1.06-1.65,6.44,6.44,0,0,1,2.07-1.09l2.54-.87v-1.76c0-.93-.3-1.39-.9-1.39s-.83.37-.83,1.12v1h-4a1.48,1.48,0,0,1,0-.23v-.33a4.67,4.67,0,0,1,1.21-3.64,5.7,5.7,0,0,1,3.84-1.07,5.91,5.91,0,0,1,2.46.49,3.94,3.94,0,0,1,1.73,1.44,4.14,4.14,0,0,1,.63,2.35V458h-4.08v-2a3.21,3.21,0,0,1-1,1.65A2.37,2.37,0,0,1,1483.05,458.17Zm1.62-3.19a.68.68,0,0,0,.69-.42,2.32,2.32,0,0,0,.18-.92v-4.79a3.48,3.48,0,0,0-1.32.86,2.24,2.24,0,0,0-.47,1.53v2.22C1483.75,454.47,1484.06,455,1484.67,455Z"/><path d="M1491.25,439.73v-3.42h4.11v3.42Zm0,18.26V440.78h4.11V458Z"/><path d="M1497,458V440.78h4.11V443a3.63,3.63,0,0,1,.85-1.68,2.24,2.24,0,0,1,1.74-.69,3,3,0,0,1,2.6,1.1,5,5,0,0,1,.81,3V458h-4V445.14a2.05,2.05,0,0,0-.21-.93.72.72,0,0,0-.71-.43.78.78,0,0,0-.7.32,1.94,1.94,0,0,0-.28.82c0,.32-.05.64-.05,1V458Z"/></g><g id="Infiltration"><path class="cls-1" d="M1440.78,901.15s-8.17-14.55-13.85-26-22.72-17.66-39.76-22.85-24.13-6.24-36.91-21.82-38.34-20.78-38.34-20.78-36.91-6.23-39.75-21.82c-1.92-10.52-19.37-17.49-30.5-20.9a13.5,13.5,0,0,0-14.4,4.33c-6.29,7.67-17.7,19.58-30.41,23.43-9.7,2.94-19.4,33.21-19.4,33.21s-14.4,7.35-24.39,35c-3.54,9.79-6.6,18.32-14.73,23.4a27.29,27.29,0,0,0-12.08,16.06l-4,14.91h110.15s.13.07,218.26,0C1444.59,910.91,1440.78,901.15,1440.78,901.15Z"/><path id="Cavité-2" data-name="Cavité" class="cls-2" d="M1232.14,863.5c-5.12,13.89-21.53,14.1-16.05,29.76s21.88,12.38,27.4,14.1c11.36,3.52,21.07-3.68,28.22-1.57,13.29,3.91,14.07-14.49,28.56-5.87s43.46.39,33.67-12.92-5.82-16.45-23.27-23.5-22.54-9-30-5.87-17-3.71-19.58-4.7C1252.89,849.8,1234.88,856.06,1232.14,863.5Z"/><path id="Nappres-2" data-name="Nappres" class="cls-3" d="M1215,887.82s2.83-9,18.32-4.74c11.36,3.13,30.33.71,37.2-2.74s22.43,1.35,31.32,2.14c13.31,1.18,20.59-1.23,24-3a3.16,3.16,0,0,1,4.11,1.14l5.6,7.92s2.77,4.47-.79,8.22-11.72,6.94-16,7.05a49.17,49.17,0,0,1-16.05-2.35c-3.28-.38-6.78-1-9.48-1.5a7.94,7.94,0,0,0-7.15,2.34,11.8,11.8,0,0,1-3,2.29c-3.3,1.72-6.26,1.57-14.1,2-9.62.48-4.33.37-15.64,1.6-10.59,1.14-10.25-1.33-18.77-1.82-9.83-.56-7.48-3.69-16.88-2.91S1215,887.82,1215,887.82Z"/><g id="Groupe_de_symbole" data-name="Groupe de symbole"><g id="Symbole"><path id="Flèche_eau" data-name="Flèche eau" class="cls-3" d="M1316.29,853h-2V838.71a.8.8,0,0,0-.79-.79.79.79,0,0,0-.78.79V853h-2.2a.42.42,0,0,0-.36.63l2.9,5a.42.42,0,0,0,.72,0l2.91-5A.42.42,0,0,0,1316.29,853Z"/><g id="Goutte_eau" data-name="Goutte eau"><path class="cls-3" d="M1313.64,866.18s-2.39,4.34-2.39,6a2.59,2.59,0,0,0,2.39,2.65,2.64,2.64,0,0,0,2.39-2.6C1316,870.72,1314.25,867.12,1313.64,866.18Z"/><path class="cls-4" d="M1313.55,874.37h-.08a.1.1,0,0,1,0-.2h0a2,2,0,0,0,1.46-.54,2,2,0,0,0,.5-1.37.09.09,0,0,1,.09-.1.09.09,0,0,1,.08.1,2.2,2.2,0,0,1-.55,1.52,2.14,2.14,0,0,1-1.51.6Z"/></g></g><g id="Symbole-2" data-name="Symbole"><path id="Flèche_eau-2" data-name="Flèche eau" class="cls-3" d="M1290.56,847.48h-2V833.19a.78.78,0,0,0-.78-.78.79.79,0,0,0-.79.78v14.29h-2.2a.41.41,0,0,0-.36.62l2.91,5a.41.41,0,0,0,.72,0l2.9-5A.41.41,0,0,0,1290.56,847.48Z"/><g id="Goutte_eau-2" data-name="Goutte eau"><path class="cls-3" d="M1287.91,860.66s-2.4,4.35-2.4,6a2.59,2.59,0,0,0,2.4,2.65,2.64,2.64,0,0,0,2.39-2.59C1290.3,865.2,1288.51,861.61,1287.91,860.66Z"/><path class="cls-4" d="M1287.82,868.85h-.08s-.08-.05-.08-.11a.09.09,0,0,1,.09-.09h0a2,2,0,0,0,1.45-.54,2,2,0,0,0,.5-1.38c0-.05,0-.1.09-.1a.11.11,0,0,1,.09.11,2.24,2.24,0,0,1-.56,1.52,2.15,2.15,0,0,1-1.5.59Z"/></g></g><g id="Symbole-3" data-name="Symbole"><path id="Flèche_eau-3" data-name="Flèche eau" class="cls-3" d="M1259.56,843.35h-2V829.06a.79.79,0,0,0-1.57,0v14.29h-2.2a.41.41,0,0,0-.36.62l2.91,5a.41.41,0,0,0,.72,0l2.9-5A.41.41,0,0,0,1259.56,843.35Z"/><g id="Goutte_eau-3" data-name="Goutte eau"><path class="cls-3" d="M1256.91,856.54s-2.4,4.34-2.4,6a2.59,2.59,0,0,0,2.4,2.65,2.64,2.64,0,0,0,2.39-2.59C1259.3,861.08,1257.51,857.48,1256.91,856.54Z"/><path class="cls-4" d="M1256.82,864.72h-.08a.1.1,0,0,1,0-.2h0a2,2,0,0,0,1.45-.54,2,2,0,0,0,.5-1.38.1.1,0,0,1,.09-.09.09.09,0,0,1,.09.1,2.24,2.24,0,0,1-.56,1.52,2.16,2.16,0,0,1-1.5.59Z"/></g></g><g id="Symbole-4" data-name="Symbole"><path id="Flèche_eau-4" data-name="Flèche eau" class="cls-3" d="M1238.05,849.77h-2V835.48a.79.79,0,0,0-1.57,0v14.29h-2.2a.41.41,0,0,0-.36.62l2.9,5a.42.42,0,0,0,.73,0l2.9-5A.41.41,0,0,0,1238.05,849.77Z"/><g id="Goutte_eau-4" data-name="Goutte eau"><path class="cls-3" d="M1235.4,863s-2.4,4.35-2.4,6a2.59,2.59,0,0,0,2.4,2.65,2.64,2.64,0,0,0,2.39-2.59C1237.79,867.49,1236,863.9,1235.4,863Z"/><path class="cls-4" d="M1235.31,871.14h-.08a.09.09,0,0,1-.08-.11.09.09,0,0,1,.09-.09h0a2,2,0,0,0,1.45-.54,2,2,0,0,0,.5-1.38.1.1,0,0,1,.09-.1.11.11,0,0,1,.09.11,2.24,2.24,0,0,1-.56,1.52,2.16,2.16,0,0,1-1.5.59Z"/></g></g></g><path d="M1314.4,798V777.81h3.9V798Z"/><path d="M1319.83,798V780.8h4.11V783a3.72,3.72,0,0,1,.85-1.68,2.21,2.21,0,0,1,1.74-.7,3,3,0,0,1,2.6,1.1,5,5,0,0,1,.81,3V798h-4V785.16a2.12,2.12,0,0,0-.21-.94.72.72,0,0,0-.71-.43.78.78,0,0,0-.69.33,1.7,1.7,0,0,0-.28.81,8,8,0,0,0-.06,1V798Z"/><path d="M1331.92,798V784.69h-.74v-3.14h.74v-1.17a2.45,2.45,0,0,1,2.78-2.77,5.66,5.66,0,0,1,2.11.33v2.54l-.38-.06c-.24,0-.38.08-.44.26a2.37,2.37,0,0,0-.08.66v.21h.9v3.18H1336V798Zm6.19-18.26v-3.42h4.1v3.42Zm0,18.26V780.8h4.1V798Z"/><path d="M1343.84,798V777.81H1348V798Z"/><path d="M1353.2,798.19a2.8,2.8,0,0,1-2.24-.71,3.34,3.34,0,0,1-.58-2.16V784.59h-1.16v-3.13h1.16v-3.65h4v3.65h1.16v3.13h-1.16v9.77a1,1,0,0,0,.14.59.64.64,0,0,0,.53.17,2.49,2.49,0,0,0,.49,0v2.8a8.56,8.56,0,0,1-.86.17A8,8,0,0,1,1353.2,798.19Z"/><path d="M1356.84,798V780.8H1361v1.91a2.94,2.94,0,0,1,1.06-1.56,3.12,3.12,0,0,1,1.9-.56V784a8.32,8.32,0,0,0-1.2.11,6.15,6.15,0,0,0-1.23.3c-.35.12-.53.26-.53.42V798Z"/><path d="M1368.11,798.19a3.21,3.21,0,0,1-2.18-.67,3.38,3.38,0,0,1-1-1.82,11.62,11.62,0,0,1-.27-2.63,8.71,8.71,0,0,1,.31-2.57,3.43,3.43,0,0,1,1.06-1.65,6.25,6.25,0,0,1,2.07-1.09l2.54-.87v-1.77c0-.92-.3-1.39-.9-1.39s-.83.38-.83,1.13v1h-4a1.63,1.63,0,0,1,0-.24v-.32a4.64,4.64,0,0,1,1.21-3.64,5.66,5.66,0,0,1,3.84-1.08,6.07,6.07,0,0,1,2.46.49,4.08,4.08,0,0,1,1.73,1.44,4.18,4.18,0,0,1,.63,2.35V798h-4.08v-2a3.17,3.17,0,0,1-1,1.65A2.33,2.33,0,0,1,1368.11,798.19Zm1.62-3.19a.68.68,0,0,0,.69-.43,2.31,2.31,0,0,0,.18-.91v-4.8a3.62,3.62,0,0,0-1.32.87,2.22,2.22,0,0,0-.47,1.53v2.21C1368.81,794.49,1369.12,795,1369.73,795Z"/><path d="M1379.87,798.19a2.8,2.8,0,0,1-2.24-.71,3.34,3.34,0,0,1-.58-2.16V784.59h-1.16v-3.13h1.16v-3.65h4v3.65h1.16v3.13H1381v9.77a1,1,0,0,0,.14.59.64.64,0,0,0,.53.17,2.49,2.49,0,0,0,.49,0v2.8a8.56,8.56,0,0,1-.86.17A8,8,0,0,1,1379.87,798.19Z"/><path d="M1383.48,779.74v-3.42h4.11v3.42Zm0,18.26V780.8h4.11V798Z"/><path d="M1394.22,798.19q-5.15,0-5.14-5.34V786a5.46,5.46,0,0,1,1.37-3.89,5.65,5.65,0,0,1,7.56,0,5.46,5.46,0,0,1,1.36,3.89v6.9Q1399.37,798.19,1394.22,798.19Zm0-3.17a.8.8,0,0,0,.74-.37,1.83,1.83,0,0,0,.22-.95v-8.41q0-1.5-1-1.5t-1,1.5v8.41a1.83,1.83,0,0,0,.22.95A.8.8,0,0,0,1394.22,795Z"/><path d="M1400.88,798V780.8H1405V783a3.64,3.64,0,0,1,.86-1.68,2.17,2.17,0,0,1,1.73-.7,3,3,0,0,1,2.6,1.1,5,5,0,0,1,.81,3V798h-4V785.16a2.26,2.26,0,0,0-.2-.94.73.73,0,0,0-.72-.43.78.78,0,0,0-.69.33,1.81,1.81,0,0,0-.28.81,8,8,0,0,0-.06,1V798Z"/></g><g id="Ruissellement"><path class="cls-5" d="M893.11,950.45s-7.92-14.11-13.43-25.19-22-17.13-38.56-22.17-23.4-6-35.8-21.16-37.17-20.15-37.17-20.15-35.8-6-38.56-21.16c-1.86-10.2-18.78-17-29.58-20.27a13.1,13.1,0,0,0-14,4.2c-6.11,7.44-17.16,19-29.5,22.72-9.4,2.85-18.81,32.21-18.81,32.21s-14,7.12-23.66,33.92c-3.43,9.48-6.39,17.76-14.27,22.68a26.55,26.55,0,0,0-11.73,15.58l-3.86,14.46H691s.13.07,211.67,0C896.81,959.91,893.11,950.45,893.11,950.45Z"/><path class="cls-3" d="M926,954.75c-1.55-9.69-32.65-4.56-32.65-4.56H873.7c-2.51-4.59-6.44-11.84-9.52-18-4.94-9.94-19.76-15.37-34.58-19.88s-21-5.43-32.12-19-33.35-18.08-33.35-18.08-32.11-5.42-34.58-19-38.29-16.06-38.29-16.06V954.46l175.18.29,6.09,11.11s8,5.7,18,13.68c16.53,3.42,17.39-3.13,29.64-2.28C939.58,978.62,927.53,964.44,926,954.75Z"/><path class="cls-1" d="M860.48,943.27c-4.94-9.95-19.77-15.37-34.59-19.89s-21-5.42-32.11-19-33.35-18.08-33.35-18.08-32.12-5.42-34.59-19S691.26,847,691.26,847v-8.18a2.19,2.19,0,0,0-4-1.29c-4.89,6.74-13.78,17.25-23.7,20.64-7.55,2.58-15.09,29.18-15.09,29.18s-11.2,6.46-19,30.73c-2.76,8.63-5.14,16.15-11.52,20.6a24,24,0,0,0-9.36,14.19l-3.07,13H872.53S865.42,953.21,860.48,943.27Z"/><g id="Flèches_de_mouvements" data-name="Flèches de mouvements"><path id="Flèche-4" data-name="Flèche" class="cls-2" d="M726.1,857.41,725,854a1,1,0,0,0-1.76-.36l-.83.93c-11.79-11.08-23-10.13-23.46-10.08l.11,1.13c.11,0,11.16-1,22.59,9.8l-.83.94a1,1,0,0,0,.57,1.71l3.57.73A1,1,0,0,0,726.1,857.41Z"/><path id="Flèche-5" data-name="Flèche" class="cls-2" d="M792.28,895.34l-1.15-3.46a1,1,0,0,0-1.76-.36l-.83.94c-11.79-11.08-23-10.13-23.46-10.09l.11,1.14c.11,0,11.16-1,22.59,9.8l-.83.94a1,1,0,0,0,.57,1.7l3.57.73A1,1,0,0,0,792.28,895.34Z"/><path id="Flèche-6" data-name="Flèche" class="cls-2" d="M860.94,934.05l-1.15-3.46a1,1,0,0,0-1.76-.36l-.83.93c-11.79-11.07-23-10.13-23.46-10.08l.11,1.14c.11,0,11.16-1,22.59,9.8l-.83.93a1,1,0,0,0,.57,1.71l3.57.73A1,1,0,0,0,860.94,934.05Z"/></g><path d="M767.9,839.91V819.72h6.2a3.43,3.43,0,0,1,2.34.71,3.56,3.56,0,0,1,1.06,2,14.43,14.43,0,0,1,.27,3,6.79,6.79,0,0,1-.42,2.63,2.43,2.43,0,0,1-1.58,1.37,1.82,1.82,0,0,1,1.34,1,4.35,4.35,0,0,1,.38,1.94v7.64h-4V832c0-.59-.12-1-.36-1.1a2.42,2.42,0,0,0-1.16-.21v9.21ZM772,827.2h1c.56,0,.84-.61.84-1.82a4.19,4.19,0,0,0-.18-1.55.69.69,0,0,0-.69-.37H772Z"/><path d="M782.34,840.09a3.35,3.35,0,0,1-2.1-.57,2.82,2.82,0,0,1-1-1.6,9.5,9.5,0,0,1-.27-2.4V822.7h4.13V835a4.62,4.62,0,0,0,.16,1.44c.11.28.36.41.76.41a.75.75,0,0,0,.81-.57,5.52,5.52,0,0,0,.16-1.48V822.7h4.1v17.21H785v-1.84a4.25,4.25,0,0,1-.93,1.51A2.46,2.46,0,0,1,782.34,840.09Z"/><path d="M790.73,821.65v-3.42h4.11v3.42Zm0,18.26V822.7h4.11v17.21Z"/><path d="M801.18,840.09c-3.4,0-5.09-1.72-5.09-5.16v-1.36h4.13v2a1.59,1.59,0,0,0,.22.91.83.83,0,0,0,.74.34c.6,0,.89-.45.89-1.35a2.51,2.51,0,0,0-.47-1.68,6.94,6.94,0,0,0-1.14-1.07l-2.19-1.69a6.36,6.36,0,0,1-1.58-1.69,4.84,4.84,0,0,1-.54-2.49,4.06,4.06,0,0,1,.71-2.45,4.18,4.18,0,0,1,1.87-1.43,6.76,6.76,0,0,1,2.52-.47q5,0,5,5v.32H802v-.65a2.8,2.8,0,0,0-.17-1,.68.68,0,0,0-.7-.48c-.58,0-.87.3-.87.92a1.7,1.7,0,0,0,.74,1.45l2.54,1.86a8.07,8.07,0,0,1,2,2,5.49,5.49,0,0,1,.81,3.15,4.78,4.78,0,0,1-1.38,3.7A5.38,5.38,0,0,1,801.18,840.09Z"/><path d="M812.33,840.09c-3.4,0-5.09-1.72-5.09-5.16v-1.36h4.12v2a1.59,1.59,0,0,0,.23.91.83.83,0,0,0,.74.34c.59,0,.89-.45.89-1.35a2.51,2.51,0,0,0-.47-1.68,6.94,6.94,0,0,0-1.14-1.07l-2.2-1.69a6.47,6.47,0,0,1-1.57-1.69,4.84,4.84,0,0,1-.54-2.49,4.06,4.06,0,0,1,.71-2.45,4.18,4.18,0,0,1,1.87-1.43,6.73,6.73,0,0,1,2.52-.47q5,0,5,5v.32h-4.25v-.65a2.8,2.8,0,0,0-.17-1,.68.68,0,0,0-.7-.48c-.58,0-.87.3-.87.92a1.71,1.71,0,0,0,.73,1.45l2.55,1.86a8.07,8.07,0,0,1,2,2,5.49,5.49,0,0,1,.81,3.15,4.78,4.78,0,0,1-1.38,3.7A5.38,5.38,0,0,1,812.33,840.09Z"/><path d="M823.58,840.09a5.49,5.49,0,0,1-2.92-.68,3.76,3.76,0,0,1-1.56-2,9,9,0,0,1-.47-3.12v-6.92a4.63,4.63,0,0,1,1.37-3.63,5.49,5.49,0,0,1,3.79-1.23q5,0,5,4.86v1.25c0,1.52,0,2.54,0,3.06h-6V835a6.58,6.58,0,0,0,.06.9,1.54,1.54,0,0,0,.26.73.74.74,0,0,0,.65.29.75.75,0,0,0,.8-.56,5.23,5.23,0,0,0,.16-1.45v-1.65h4.08v1a9.67,9.67,0,0,1-.47,3.23,3.66,3.66,0,0,1-1.61,2A6.1,6.1,0,0,1,823.58,840.09Zm-.87-10.45h1.95v-2.31a2.92,2.92,0,0,0-.23-1.34.74.74,0,0,0-.69-.41.87.87,0,0,0-.76.39,2.5,2.5,0,0,0-.27,1.36Z"/><path d="M830.23,839.91V819.72h4.18v20.19Z"/><path d="M836.06,839.91V819.72h4.18v20.19Z"/><path d="M846.71,840.09a5.52,5.52,0,0,1-2.93-.68,3.76,3.76,0,0,1-1.56-2,9.23,9.23,0,0,1-.47-3.12v-6.92a4.64,4.64,0,0,1,1.38-3.63,5.48,5.48,0,0,1,3.78-1.23q5,0,5,4.86v1.25c0,1.52,0,2.54,0,3.06h-6V835a8.72,8.72,0,0,0,0,.9,1.66,1.66,0,0,0,.26.73.75.75,0,0,0,.65.29.74.74,0,0,0,.8-.56,5.23,5.23,0,0,0,.16-1.45v-1.65h4.09v1a9.4,9.4,0,0,1-.48,3.23,3.64,3.64,0,0,1-1.6,2A6.13,6.13,0,0,1,846.71,840.09Zm-.88-10.45h1.95v-2.31a3,3,0,0,0-.22-1.34.76.76,0,0,0-.69-.41.88.88,0,0,0-.77.39,2.5,2.5,0,0,0-.27,1.36Z"/><path d="M853.36,839.91V822.7h4v2a3.16,3.16,0,0,1,.94-1.62,3,3,0,0,1,2-.56A3.17,3.17,0,0,1,862,823a2.55,2.55,0,0,1,1,1.25,3.85,3.85,0,0,1,1.11-1.29,3.2,3.2,0,0,1,1.82-.44,3.5,3.5,0,0,1,2.21.61,3.22,3.22,0,0,1,1.07,1.7,9,9,0,0,1,.31,2.51v12.57h-4.1V827.27c0-1.11-.28-1.66-.85-1.66a.83.83,0,0,0-.68.3,1.73,1.73,0,0,0-.34.75,4.58,4.58,0,0,0-.09.9v12.35h-4.09V827.27a4.45,4.45,0,0,0-.14-1.08.63.63,0,0,0-.67-.54.85.85,0,0,0-.71.33,2,2,0,0,0-.34.82,5.36,5.36,0,0,0-.09,1v12.15Z"/><path d="M876,840.09a5.49,5.49,0,0,1-2.92-.68,3.76,3.76,0,0,1-1.56-2,9,9,0,0,1-.47-3.12v-6.92a4.63,4.63,0,0,1,1.37-3.63,5.49,5.49,0,0,1,3.79-1.23q4.95,0,4.95,4.86v1.25c0,1.52,0,2.54,0,3.06h-6V835a6.58,6.58,0,0,0,.06.9,1.54,1.54,0,0,0,.26.73.74.74,0,0,0,.65.29.75.75,0,0,0,.8-.56,5.23,5.23,0,0,0,.16-1.45v-1.65h4.08v1a9.67,9.67,0,0,1-.47,3.23,3.66,3.66,0,0,1-1.61,2A6.1,6.1,0,0,1,876,840.09Zm-.87-10.45h2v-2.31a2.92,2.92,0,0,0-.23-1.34.74.74,0,0,0-.69-.41.87.87,0,0,0-.76.39,2.5,2.5,0,0,0-.27,1.36Z"/><path d="M882.64,839.91V822.7h4.11v2.19a3.74,3.74,0,0,1,.86-1.68,2.2,2.2,0,0,1,1.73-.69,3,3,0,0,1,2.6,1.1,5,5,0,0,1,.81,3v13.27h-4V827.06a2.08,2.08,0,0,0-.21-.93.71.71,0,0,0-.71-.43.79.79,0,0,0-.69.32,1.81,1.81,0,0,0-.28.82,7.89,7.89,0,0,0-.06,1v12.1Z"/><path d="M897.89,840.09a2.8,2.8,0,0,1-2.24-.7,3.34,3.34,0,0,1-.58-2.16V826.5h-1.16v-3.13h1.16v-3.65h4v3.65h1.16v3.13h-1.16v9.76a1,1,0,0,0,.14.6.65.65,0,0,0,.52.17,1.93,1.93,0,0,0,.5,0v2.8c-.09,0-.38.09-.86.18A8,8,0,0,1,897.89,840.09Z"/></g><g id="Précipîtations"><g id="Gouttes_d_eau" data-name="Gouttes d&apos;eau"><g id="Goutte_eau-5" data-name="Goutte eau"><path class="cls-3" d="M501.86,628.92s-6.5,11.78-6.5,16.19a7,7,0,0,0,6.5,7.18c2.91,0,6.49-3,6.49-7S503.5,631.48,501.86,628.92Z"/><path class="cls-4" d="M501.62,651.12h-.22a.26.26,0,0,1-.22-.29.25.25,0,0,1,.25-.25h0a5.53,5.53,0,0,0,3.95-1.47,5.44,5.44,0,0,0,1.35-3.73.24.24,0,1,1,.48,0,5.92,5.92,0,0,1-1.52,4.12,5.79,5.79,0,0,1-4.07,1.61Z"/></g><g id="Goutte_eau-6" data-name="Goutte eau"><path class="cls-3" d="M524.76,604.37s-6.5,11.78-6.5,16.19a7,7,0,0,0,6.5,7.19c2.91,0,6.49-3,6.49-7S526.4,606.94,524.76,604.37Z"/><path class="cls-4" d="M524.53,626.58h-.22a.26.26,0,0,1-.23-.28.26.26,0,0,1,.26-.26h0a5.49,5.49,0,0,0,3.94-1.46,5.42,5.42,0,0,0,1.35-3.74.26.26,0,0,1,.25-.26.26.26,0,0,1,.23.28A6,6,0,0,1,528.6,625a5.81,5.81,0,0,1-4.07,1.61Z"/></g><g id="Goutte_eau-7" data-name="Goutte eau"><path class="cls-3" d="M531.57,659.73s-6.5,11.78-6.5,16.19a7,7,0,0,0,6.5,7.19c2.91,0,6.49-3,6.49-7S533.21,662.29,531.57,659.73Z"/><path class="cls-4" d="M531.33,681.94h-.22a.26.26,0,0,1-.22-.29.25.25,0,0,1,.25-.25h0a5.51,5.51,0,0,0,3.94-1.47,5.39,5.39,0,0,0,1.36-3.73.26.26,0,0,1,.24-.27.25.25,0,0,1,.23.28,5.92,5.92,0,0,1-1.51,4.12,5.79,5.79,0,0,1-4.07,1.61Z"/></g><g id="Goutte_eau-8" data-name="Goutte eau"><path class="cls-3" d="M571,590.31s-6.5,11.78-6.5,16.19a7,7,0,0,0,6.5,7.19c2.91,0,6.49-3,6.49-7S572.68,592.87,571,590.31Z"/><path class="cls-4" d="M570.81,612.51h-.22a.28.28,0,0,1-.23-.29.25.25,0,0,1,.26-.25h0a5.52,5.52,0,0,0,3.94-1.47,5.39,5.39,0,0,0,1.35-3.73.27.27,0,0,1,.25-.27.27.27,0,0,1,.23.28,6,6,0,0,1-1.51,4.12,5.81,5.81,0,0,1-4.07,1.61Z"/></g><g id="Goutte_eau-9" data-name="Goutte eau"><path class="cls-3" d="M569.68,659.73s-6.5,11.78-6.5,16.19a7,7,0,0,0,6.5,7.19c2.91,0,6.49-3,6.49-7S571.32,662.29,569.68,659.73Z"/><path class="cls-4" d="M569.44,681.94h-.21a.26.26,0,0,1-.23-.29.25.25,0,0,1,.25-.25h0a5.53,5.53,0,0,0,4-1.47,5.39,5.39,0,0,0,1.35-3.73.27.27,0,0,1,.25-.27.27.27,0,0,1,.23.28,6,6,0,0,1-1.51,4.12,5.81,5.81,0,0,1-4.08,1.61Z"/></g><g id="Goutte_eau-10" data-name="Goutte eau"><path class="cls-3" d="M553.35,627.06s-6.5,11.78-6.5,16.19a7,7,0,0,0,6.5,7.19c2.91,0,6.49-3,6.49-7S555,629.62,553.35,627.06Z"/><path class="cls-4" d="M553.11,649.27h-.22a.26.26,0,0,1-.22-.29.25.25,0,0,1,.25-.25h0a5.52,5.52,0,0,0,3.94-1.47,5.39,5.39,0,0,0,1.36-3.73.24.24,0,0,1,.24-.26.25.25,0,0,1,.23.28,6,6,0,0,1-1.51,4.12,5.84,5.84,0,0,1-4.07,1.61Z"/></g><g id="Goutte_eau-11" data-name="Goutte eau"><path class="cls-3" d="M476.67,649.29s-6.5,11.78-6.5,16.19a7,7,0,0,0,6.5,7.19c2.91,0,6.49-3,6.49-7S478.31,651.86,476.67,649.29Z"/><path class="cls-4" d="M476.43,671.5h-.22a.25.25,0,0,1-.22-.28.26.26,0,0,1,.25-.26h0a5.54,5.54,0,0,0,3.94-1.46,5.44,5.44,0,0,0,1.36-3.74.25.25,0,0,1,.24-.26.25.25,0,0,1,.23.28,5.94,5.94,0,0,1-1.51,4.12,5.79,5.79,0,0,1-4.07,1.61Z"/></g><g id="Goutte_eau-12" data-name="Goutte eau"><path class="cls-3" d="M490.22,594.67s-6.49,11.78-6.49,16.19a7,7,0,0,0,6.49,7.19c2.92,0,6.5-3,6.5-7S491.86,597.23,490.22,594.67Z"/><path class="cls-4" d="M490,616.88h-.22a.26.26,0,0,1-.22-.29.24.24,0,0,1,.25-.25h0a5.52,5.52,0,0,0,3.94-1.47,5.39,5.39,0,0,0,1.35-3.73.26.26,0,0,1,.25-.26.25.25,0,0,1,.23.27,6,6,0,0,1-1.51,4.13,5.84,5.84,0,0,1-4.07,1.61Z"/></g><g id="Goutte_eau-13" data-name="Goutte eau"><path class="cls-3" d="M609.83,624.68s-6.5,11.78-6.5,16.19a7,7,0,0,0,6.5,7.19c2.91,0,6.49-3,6.49-7S611.47,627.25,609.83,624.68Z"/><path class="cls-4" d="M609.59,646.89h-.22a.27.27,0,0,1,0-.54h0a5.53,5.53,0,0,0,4-1.47,5.44,5.44,0,0,0,1.35-3.73.25.25,0,0,1,.25-.26.26.26,0,0,1,.23.28,6,6,0,0,1-1.52,4.12,5.79,5.79,0,0,1-4.07,1.61Z"/></g><g id="Goutte_eau-14" data-name="Goutte eau"><path class="cls-3" d="M632.9,595s-6.5,11.78-6.5,16.2a7,7,0,0,0,6.5,7.18c2.91,0,6.49-3,6.49-7S634.54,597.58,632.9,595Z"/><path class="cls-4" d="M632.67,617.22h-.22a.26.26,0,0,1-.23-.28.27.27,0,0,1,.26-.26h0a5.49,5.49,0,0,0,3.94-1.46,5.42,5.42,0,0,0,1.35-3.74.26.26,0,0,1,.25-.26.27.27,0,0,1,.23.28,6,6,0,0,1-1.51,4.12,5.79,5.79,0,0,1-4.07,1.61Z"/></g><g id="Goutte_eau-15" data-name="Goutte eau"><path class="cls-3" d="M664.71,632.15s-6.5,11.78-6.5,16.19a7,7,0,0,0,6.5,7.19c2.91,0,6.49-3,6.49-7S666.35,634.71,664.71,632.15Z"/><path class="cls-4" d="M664.47,654.35h-.22a.26.26,0,0,1-.22-.29.25.25,0,0,1,.25-.25h0a5.52,5.52,0,0,0,3.94-1.47,5.39,5.39,0,0,0,1.36-3.73.26.26,0,0,1,.24-.27.25.25,0,0,1,.23.28,5.92,5.92,0,0,1-1.51,4.12,5.79,5.79,0,0,1-4.07,1.61Z"/></g><g id="Goutte_eau-16" data-name="Goutte eau"><path class="cls-3" d="M635,660.72s-6.5,11.77-6.5,16.19a7,7,0,0,0,6.5,7.18c2.91,0,6.49-3,6.49-7S636.68,663.28,635,660.72Z"/><path class="cls-4" d="M634.8,682.92h-.21a.26.26,0,0,1-.23-.29.25.25,0,0,1,.25-.25h0a5.53,5.53,0,0,0,3.95-1.47,5.42,5.42,0,0,0,1.35-3.74.26.26,0,0,1,.25-.26.27.27,0,0,1,.23.28,6,6,0,0,1-1.51,4.12,5.81,5.81,0,0,1-4.08,1.61Z"/></g><g id="Goutte_eau-17" data-name="Goutte eau"><path class="cls-3" d="M682.29,662.36s-6.5,11.78-6.5,16.2a7,7,0,0,0,6.5,7.18c2.91,0,6.49-3,6.49-7S683.93,664.93,682.29,662.36Z"/><path class="cls-4" d="M682.05,684.57h-.22a.28.28,0,0,1,0-.55h0a5.48,5.48,0,0,0,3.94-1.46,5.42,5.42,0,0,0,1.36-3.74.25.25,0,0,1,.24-.26.25.25,0,0,1,.23.28,5.94,5.94,0,0,1-1.51,4.12,5.79,5.79,0,0,1-4.07,1.61Z"/></g><g id="Goutte_eau-18" data-name="Goutte eau"><path class="cls-3" d="M691.08,594.79s-6.5,11.78-6.5,16.19a7,7,0,0,0,6.5,7.19c2.91,0,6.49-3,6.49-7S692.72,597.35,691.08,594.79Z"/><path class="cls-4" d="M690.84,617h-.22a.26.26,0,0,1-.22-.29.25.25,0,0,1,.25-.25h0a5.5,5.5,0,0,0,3.94-1.47,5.39,5.39,0,0,0,1.36-3.73.25.25,0,0,1,.24-.26.24.24,0,0,1,.23.27,5.37,5.37,0,0,1-5.58,5.74Z"/></g><g id="Goutte_eau-19" data-name="Goutte eau"><path class="cls-3" d="M712,634.34s-6.49,11.78-6.49,16.2a7,7,0,0,0,6.49,7.18c2.92,0,6.5-3,6.5-7S713.59,636.91,712,634.34Z"/><path class="cls-4" d="M711.72,656.55h-.22a.26.26,0,0,1-.22-.29.24.24,0,0,1,.25-.25h0a5.57,5.57,0,0,0,3.94-1.47,5.47,5.47,0,0,0,1.36-3.74.25.25,0,0,1,.24-.26.26.26,0,0,1,.23.28,6,6,0,0,1-1.51,4.12,5.79,5.79,0,0,1-4.07,1.61Z"/></g><g id="Goutte_eau-20" data-name="Goutte eau"><path class="cls-3" d="M736.7,597.67s-6.5,11.78-6.5,16.2a7,7,0,0,0,6.5,7.18c2.91,0,6.49-3,6.49-7S738.34,600.24,736.7,597.67Z"/><path class="cls-4" d="M736.47,619.88h-.22a.28.28,0,0,1-.23-.29.27.27,0,0,1,.26-.26h0a5.49,5.49,0,0,0,3.94-1.46,5.42,5.42,0,0,0,1.35-3.74.26.26,0,0,1,.25-.26.27.27,0,0,1,.23.28,6,6,0,0,1-1.51,4.12,5.79,5.79,0,0,1-4.07,1.61Z"/></g><g id="Goutte_eau-21" data-name="Goutte eau"><path class="cls-3" d="M738.9,664.15s-6.5,11.78-6.5,16.19a7,7,0,0,0,6.5,7.19c2.91,0,6.49-3,6.49-7S740.54,666.71,738.9,664.15Z"/><path class="cls-4" d="M738.67,686.36h-.22a.27.27,0,0,1-.23-.28.26.26,0,0,1,.25-.26h0a5.53,5.53,0,0,0,3.95-1.47,5.39,5.39,0,0,0,1.35-3.73.26.26,0,0,1,.25-.26.26.26,0,0,1,.23.28,6,6,0,0,1-1.51,4.12,5.81,5.81,0,0,1-4.08,1.61Z"/></g><g id="Goutte_eau-22" data-name="Goutte eau"><path class="cls-3" d="M763.62,626.79s-6.49,11.78-6.49,16.19a7,7,0,0,0,6.49,7.19c2.91,0,6.49-3,6.49-7S765.26,629.36,763.62,626.79Z"/><path class="cls-4" d="M763.39,649h-.22a.27.27,0,0,1,0-.54h0a5.54,5.54,0,0,0,3.94-1.46,5.43,5.43,0,0,0,1.35-3.74.26.26,0,0,1,.25-.26.26.26,0,0,1,.23.28,6,6,0,0,1-1.51,4.12,5.79,5.79,0,0,1-4.07,1.61Z"/></g></g><path id="Nuage" class="cls-6" d="M602.2,525.85s33.47,6.32,25.45,29.67-40.09,14.34-40.09,14.34-10.81,10-24.41,11.19-25.79-7.54-25.79-7.54-12.55,8-31.73,5.83-25.1-7.78-25.1-7.78-41.48,7.05-41.48-16,34.86-19.21,34.86-19.21A30.75,30.75,0,0,1,493.08,519c14.64-4.61,29.29,0,29.29,0s10.8-19.93,39.74-19.93,40.09,26.74,40.09,26.74Z"/><path id="Nuage-2" data-name="Nuage" class="cls-2" d="M760.29,510.3s44.87,8.47,34.12,39.77-53.76,19.23-53.76,19.23-14.49,13.37-32.72,15-34.59-10.11-34.59-10.11S656.51,585,630.81,582s-33.66-10.43-33.66-10.43-55.62,9.45-55.62-21.52,46.74-25.76,46.74-25.76A41.24,41.24,0,0,1,614,501.17c19.63-6.2,39.26,0,39.26,0s14.49-26.73,53.29-26.73,53.75,35.86,53.75,35.86Z"/><path d="M539.88,456.63V436.44h5.33a4.29,4.29,0,0,1,2.66.75,4,4,0,0,1,1.4,2.12,11.29,11.29,0,0,1,.43,3.28,12.51,12.51,0,0,1-.36,3.19,3.51,3.51,0,0,1-3.85,2.85h-1.64v8Zm4-11.62h.23c.74,0,1.2-.21,1.37-.63a5.22,5.22,0,0,0,.25-1.86,5.16,5.16,0,0,0-.24-1.77,1.11,1.11,0,0,0-1.17-.63h-.44Z"/><path d="M550.9,456.63V439.42h4.18v1.92a2.85,2.85,0,0,1,1-1.56,3.09,3.09,0,0,1,1.91-.56v3.43a7.21,7.21,0,0,0-1.21.11,7,7,0,0,0-1.23.29c-.35.13-.52.27-.52.42v13.16Z"/><path d="M563.86,456.81a5.49,5.49,0,0,1-2.92-.68,3.76,3.76,0,0,1-1.56-2,9,9,0,0,1-.47-3.12V444.1a4.67,4.67,0,0,1,1.37-3.63,5.49,5.49,0,0,1,3.79-1.23q4.95,0,4.95,4.86v1.25c0,1.52,0,2.54,0,3.06h-6v3.32a6.58,6.58,0,0,0,.06.9,1.66,1.66,0,0,0,.26.73.86.86,0,0,0,1.45-.27,5.23,5.23,0,0,0,.16-1.45V450H569v1a9.42,9.42,0,0,1-.47,3.23,3.61,3.61,0,0,1-1.61,2A6.1,6.1,0,0,1,563.86,456.81Zm-2.51-18v-2.56l5.45-2.5v4Zm1.64,7.54h2v-2.31a2.92,2.92,0,0,0-.23-1.34.74.74,0,0,0-.69-.41.87.87,0,0,0-.76.39,2.5,2.5,0,0,0-.27,1.36Z"/><path d="M575.69,456.81c-1.93,0-3.3-.49-4.1-1.48a6.68,6.68,0,0,1-1.21-4.34v-5.3a11.78,11.78,0,0,1,.46-3.59,3.77,3.77,0,0,1,1.6-2.15,7.1,7.1,0,0,1,5.74-.2,4.05,4.05,0,0,1,1.79,1.47,4.25,4.25,0,0,1,.65,2.39v2.63h-4.19v-2.41a2.54,2.54,0,0,0-.17-1,.71.71,0,0,0-.74-.4c-.68,0-1,.48-1,1.43v8.34a2,2,0,0,0,.23,1,.87.87,0,0,0,1.51,0,2.26,2.26,0,0,0,.21-1v-2.89h4.16v3a4.46,4.46,0,0,1-.64,2.44,4,4,0,0,1-1.74,1.55A5.82,5.82,0,0,1,575.69,456.81Z"/><path d="M582,438.37V435h4.11v3.42Zm0,18.26V439.42h4.11v17.21Z"/><path d="M587.77,459.5V439.42h4.17v1.84a3.64,3.64,0,0,1,1-1.49,3.07,3.07,0,0,1,1.92-.53,2.5,2.5,0,0,1,2.38,1.23,6.42,6.42,0,0,1,.7,3.21v8.46a7.45,7.45,0,0,1-.37,2.39,3.57,3.57,0,0,1-1.17,1.67,3.35,3.35,0,0,1-2.09.61c-1.11,0-1.92-.67-2.42-2v4.71Zm5.15-5.89a.71.71,0,0,0,.77-.64,7.92,7.92,0,0,0,.13-1.58v-6.72a7.82,7.82,0,0,0-.13-1.59.71.71,0,0,0-.77-.64.76.76,0,0,0-.82.65,6.52,6.52,0,0,0-.16,1.58v6.72a6.57,6.57,0,0,0,.16,1.58A.75.75,0,0,0,592.92,453.61Z"/><path d="M599.53,438.37V435h4.1v3.42Zm0,18.26V439.42h4.1v17.21Z"/><path d="M608.79,456.81a2.81,2.81,0,0,1-2.24-.7A3.34,3.34,0,0,1,606,454V443.22h-1.16v-3.13H606v-3.65h4v3.65h1.16v3.13H610V453a1,1,0,0,0,.14.6.67.67,0,0,0,.53.17,2.43,2.43,0,0,0,.49,0v2.79c-.09,0-.38.09-.86.18A8,8,0,0,1,608.79,456.81Z"/><path d="M615.56,456.81a3.21,3.21,0,0,1-2.18-.66,3.41,3.41,0,0,1-1-1.83,11.5,11.5,0,0,1-.28-2.62,9.18,9.18,0,0,1,.31-2.58,3.37,3.37,0,0,1,1.07-1.64,6.07,6.07,0,0,1,2.07-1.09l2.54-.88v-1.76c0-.93-.3-1.39-.9-1.39s-.83.38-.83,1.12v1h-4a1.63,1.63,0,0,1,0-.24V444a4.67,4.67,0,0,1,1.21-3.64,5.69,5.69,0,0,1,3.83-1.07,5.92,5.92,0,0,1,2.47.49,3.94,3.94,0,0,1,1.73,1.44,4.16,4.16,0,0,1,.63,2.35v13.11h-4.08v-2a3.17,3.17,0,0,1-1,1.65A2.39,2.39,0,0,1,615.56,456.81Zm1.62-3.19a.69.69,0,0,0,.69-.42,2.32,2.32,0,0,0,.18-.92v-4.79a3.64,3.64,0,0,0-1.32.86,2.25,2.25,0,0,0-.47,1.54v2.21C616.26,453.12,616.57,453.62,617.18,453.62Z"/><path d="M627.32,456.81a2.8,2.8,0,0,1-2.24-.7,3.34,3.34,0,0,1-.58-2.16V443.22h-1.16v-3.13h1.16v-3.65h4v3.65h1.16v3.13h-1.16V453a.93.93,0,0,0,.14.6.65.65,0,0,0,.52.17,2.53,2.53,0,0,0,.5,0v2.79c-.09,0-.38.09-.86.18A8,8,0,0,1,627.32,456.81Z"/><path d="M630.93,438.37V435H635v3.42Zm0,18.26V439.42H635v17.21Z"/><path d="M641.67,456.81c-3.43,0-5.14-1.77-5.14-5.33v-6.91a5.39,5.39,0,0,1,1.37-3.88,5.64,5.64,0,0,1,7.55,0,5.44,5.44,0,0,1,1.37,3.88v6.91C646.82,455,645.1,456.81,641.67,456.81Zm0-3.16a.8.8,0,0,0,.74-.38,1.77,1.77,0,0,0,.22-.94v-8.41q0-1.5-1-1.5t-1,1.5v8.41a1.77,1.77,0,0,0,.22.94A.79.79,0,0,0,641.67,453.65Z"/><path d="M648.33,456.63V439.42h4.11v2.19a3.83,3.83,0,0,1,.85-1.68,2.24,2.24,0,0,1,1.74-.69,3,3,0,0,1,2.6,1.1,5,5,0,0,1,.81,3v13.27h-4.05V443.78a2.08,2.08,0,0,0-.21-.93.71.71,0,0,0-.71-.43.79.79,0,0,0-.69.32,1.81,1.81,0,0,0-.28.82,7.89,7.89,0,0,0-.06,1v12.1Z"/><path d="M664.76,456.81c-3.4,0-5.09-1.72-5.09-5.16v-1.36h4.13v2a1.51,1.51,0,0,0,.23.91.8.8,0,0,0,.73.34c.6,0,.89-.45.89-1.35a2.51,2.51,0,0,0-.47-1.68,6.94,6.94,0,0,0-1.14-1.07l-2.19-1.69a6.36,6.36,0,0,1-1.58-1.69,4.85,4.85,0,0,1-.53-2.49,4.06,4.06,0,0,1,.7-2.45,4.18,4.18,0,0,1,1.87-1.43,6.76,6.76,0,0,1,2.52-.47q5,0,5,5v.32h-4.24v-.65a2.81,2.81,0,0,0-.18-1,.68.68,0,0,0-.7-.48c-.58,0-.87.3-.87.92a1.7,1.7,0,0,0,.74,1.45l2.54,1.86a7.91,7.91,0,0,1,2,2,5.49,5.49,0,0,1,.81,3.15,4.78,4.78,0,0,1-1.38,3.7A5.36,5.36,0,0,1,664.76,456.81Z"/></g><g id="Condensation"><g id="Lac"><path class="cls-6" d="M879.86,357s29.84-40.55,98.5-34c14.88,1.41,24.1,12.75,61.65,19.13s31.89,14.88,32.6,22.68-18.42,22-48.19,19.84-21.9.29-37.55,7.79-46.07,9.21-63.78.71C878.44,400.2,872.78,365.47,879.86,357Z"/><path class="cls-3" d="M895.33,357.59s24.89-33.82,82.16-28.37c12.41,1.18,20.1,10.64,51.43,16s26.6,12.41,27.19,18.92-15.37,18.32-40.2,16.55-18.27.24-31.33,6.5-38.42,7.68-53.19.59C894.15,393.65,889.42,364.69,895.33,357.59Z"/></g><g id="Flèches_courbés" data-name="Flèches courbés"><path id="Flèche_courbé" data-name="Flèche courbé" class="cls-7" d="M977.82,304.19c-3.54-5-7.21-10.24-8.38-15.07-1.67-6.85,3.75-12.74,7.7-17a33.14,33.14,0,0,0,3.5-4.19q.35-.56.75-1.17c3.06-4.74,8.19-12.67,1.44-21.11s-13.38-17.26-13.93-24.32c-.5-6.53,2.59-10.57,9.27-16.65,6.5-5.9,7.15-11.19,7.74-20,.52-7.92-6.66-20.32-8.34-23.1-.11-.18-.73-5.11-.73-5.32v-13h4a.72.72,0,0,0,.57-1.14l-5.11-6.8a.66.66,0,0,0-1.13,0L970,142a.71.71,0,0,0,.57,1.14h4v11.9c0,.57,0,4.19,0,4.54l.57,2.83a12.89,12.89,0,0,0,1.7,3.4c2.12,3.62,7.25,12,6.8,18.63-.56,8.49-1.13,13.17-7,18.51-6.06,5.5-10.63,10.35-10,18.49.59,7.7,7.45,16.85,14.42,25.56,5.73,7.17,1.33,14-1.58,18.46l-.77,1.21a31,31,0,0,1-3.24,3.86c-4.3,4.67-10.19,11.07-8.23,19.11,1.27,5.24,5.06,10.63,8.72,15.83s7.25,10.3,7.12,13.9v.11c.75,12.25-8.84,20.5-10.17,21.58l-.15.1c-1.06.59-4.43,3.32-6,14.53a1.17,1.17,0,0,0,.6,1.22,1.14,1.14,0,0,0,1.64-.86c1.57-11.2,4.86-12.91,4.85-12.91l.15-.05.13-.1c.5-.38,12.07-9.3,11.22-23.59C985.47,315.07,981.75,309.78,977.82,304.19Z"/><path id="Flèche_courbé-2" data-name="Flèche courbé" class="cls-7" d="M1019.2,304.19c-3.55-5-7.21-10.24-8.38-15.07-1.67-6.85,3.74-12.74,7.7-17a32.12,32.12,0,0,0,3.49-4.19c.23-.37.49-.76.75-1.17,3.07-4.74,8.2-12.67,1.44-21.11s-13.38-17.26-13.92-24.32c-.5-6.53,2.59-10.57,9.27-16.65,6.49-5.9,7.14-11.19,7.73-20,.53-7.92-6.65-20.32-8.33-23.1-.11-.18-.73-5.11-.73-5.32v-13h4a.71.71,0,0,0,.57-1.14l-5.1-6.8a.66.66,0,0,0-1.13,0l-5.1,6.8a.71.71,0,0,0,.56,1.14h4v11.9c0,.57-.05,4.19,0,4.54l.57,2.83a12.89,12.89,0,0,0,1.7,3.4c2.11,3.62,7.24,12,6.8,18.63-.57,8.49-1.13,13.17-7,18.51-6,5.5-10.63,10.35-10,18.49.59,7.7,7.44,16.85,14.41,25.56,5.73,7.17,1.34,14-1.57,18.46l-.77,1.21a31.88,31.88,0,0,1-3.24,3.86c-4.3,4.67-10.19,11.07-8.24,19.11,1.28,5.24,5.07,10.63,8.73,15.83s7.25,10.3,7.11,13.9v.11c.75,12.25-8.84,20.5-10.17,21.58l-.14.1c-1.06.59-4.43,3.32-6,14.53a1.15,1.15,0,0,0,.6,1.22,1.13,1.13,0,0,0,1.63-.86c1.57-11.2,4.86-12.91,4.86-12.91l.15-.05.13-.1c.49-.38,12.06-9.3,11.22-23.59C1026.85,315.07,1023.13,309.78,1019.2,304.19Z"/><path id="Flèche_courbé-3" data-name="Flèche courbé" class="cls-7" d="M938.14,304.19c-3.54-5-7.2-10.24-8.38-15.07-1.66-6.85,3.75-12.74,7.71-17a32.12,32.12,0,0,0,3.49-4.19q.35-.56.75-1.17c3.06-4.74,8.19-12.67,1.44-21.11s-13.38-17.26-13.92-24.32c-.51-6.53,2.58-10.57,9.26-16.65,6.5-5.9,7.15-11.19,7.74-20,.53-7.92-6.66-20.32-8.34-23.1-.1-.18-.72-5.11-.72-5.32v-13h4a.71.71,0,0,0,.57-1.14l-5.1-6.8a.67.67,0,0,0-1.14,0l-5.1,6.8a.71.71,0,0,0,.57,1.14h4v11.9c0,.57,0,4.19,0,4.54l.56,2.83a13.24,13.24,0,0,0,1.71,3.4c2.11,3.62,7.24,12,6.8,18.63-.57,8.49-1.14,13.17-7,18.51-6.05,5.5-10.63,10.35-10,18.49.59,7.7,7.44,16.85,14.41,25.56,5.73,7.17,1.34,14-1.57,18.46-.28.43-.54.83-.77,1.21a31.88,31.88,0,0,1-3.24,3.86c-4.3,4.67-10.19,11.07-8.24,19.11,1.28,5.24,5.07,10.63,8.73,15.83s7.24,10.3,7.11,13.9v.11c.75,12.25-8.84,20.5-10.17,21.58l-.15.1c-1.05.59-4.43,3.32-6,14.53a1.15,1.15,0,0,0,.6,1.22,1.13,1.13,0,0,0,1.63-.86c1.57-11.2,4.86-12.91,4.85-12.91l.16-.05.13-.1c.49-.38,12.06-9.3,11.22-23.59C945.79,315.07,942.08,309.78,938.14,304.19Z"/></g><g id="Groupe_de_nuages" data-name="Groupe de nuages"><path id="Nuage-3" data-name="Nuage" class="cls-2" d="M953.81,97.31s15.69,3,11.93,13.91-18.8,6.72-18.8,6.72-5.06,4.68-11.44,5.25-12.09-3.54-12.09-3.54a24.24,24.24,0,0,1-14.87,2.74c-9-1-11.77-3.65-11.77-3.65s-19.44,3.31-19.44-7.52,16.34-9,16.34-9a14.42,14.42,0,0,1,9-8.1,25.5,25.5,0,0,1,13.72,0s5.07-9.34,18.63-9.34,18.8,12.54,18.8,12.54Z"/><path id="Nuage-4" data-name="Nuage" class="cls-6" d="M1049.85,100.77s8,1.5,6.05,7-9.53,3.41-9.53,3.41a11.12,11.12,0,0,1-5.8,2.65,10.32,10.32,0,0,1-6.13-1.79,12.3,12.3,0,0,1-7.54,1.39c-4.55-.52-6-1.85-6-1.85s-9.86,1.68-9.86-3.81,8.28-4.57,8.28-4.57a7.33,7.33,0,0,1,4.56-4.1,12.89,12.89,0,0,1,7,0s2.57-4.74,9.44-4.74,9.53,6.36,9.53,6.36Z"/><path id="Nuage-5" data-name="Nuage" class="cls-6" d="M979,41.86s15.8,3,12,14-18.92,6.78-18.92,6.78-5.11,4.7-11.53,5.28-12.18-3.56-12.18-3.56a24.43,24.43,0,0,1-15,2.75c-9.05-1-11.85-3.67-11.85-3.67S902,66.77,902,55.86s16.46-9.06,16.46-9.06a14.55,14.55,0,0,1,9-8.16,25.68,25.68,0,0,1,13.83,0s5.1-9.41,18.76-9.41S979,41.86,979,41.86Z"/><path id="Nuage-6" data-name="Nuage" class="cls-2" d="M1040.27,45.33s23.52,4.44,17.88,20.84S1030,76.25,1030,76.25s-7.59,7-17.14,7.86-18.13-5.29-18.13-5.29-8.82,5.63-22.29,4.1-17.64-5.47-17.64-5.47-29.14,5-29.14-11.28,24.49-13.49,24.49-13.49A21.61,21.61,0,0,1,963.6,40.55c10.29-3.25,20.58,0,20.58,0s7.59-14,27.92-14,28.17,18.79,28.17,18.79Z"/></g><g id="Textes"><path d="M1053.46,315.05V294.86h8.08v3.9h-4v3.94h3.81v3.79h-3.81v4.63h4.23v3.93Z"/><path d="M1065.25,315.05l-2.76-17.21h4.12l1,11.5,1.12-11.5h4.1L1070,315.05Z"/><path d="M1077,315.23a3.21,3.21,0,0,1-2.18-.66,3.38,3.38,0,0,1-1-1.82,11.66,11.66,0,0,1-.28-2.63,9.18,9.18,0,0,1,.31-2.58,3.41,3.41,0,0,1,1.07-1.64,6.25,6.25,0,0,1,2.07-1.09l2.54-.87v-1.77c0-.93-.3-1.39-.9-1.39s-.83.38-.83,1.13v1h-4a1.63,1.63,0,0,1,0-.24v-.32a4.68,4.68,0,0,1,1.21-3.65,5.69,5.69,0,0,1,3.83-1.07,5.92,5.92,0,0,1,2.47.49,3.94,3.94,0,0,1,1.73,1.44,4.16,4.16,0,0,1,.63,2.35v13.11h-4.08v-2a3.17,3.17,0,0,1-1,1.65A2.39,2.39,0,0,1,1077,315.23Zm1.62-3.18a.7.7,0,0,0,.69-.43,2.32,2.32,0,0,0,.18-.92v-4.79a3.64,3.64,0,0,0-1.32.86,2.25,2.25,0,0,0-.47,1.54v2.21C1077.72,311.54,1078,312.05,1078.64,312.05Z"/><path d="M1085.25,317.92V297.84h4.17v1.84a3.53,3.53,0,0,1,1-1.49,3.07,3.07,0,0,1,1.92-.53,2.5,2.5,0,0,1,2.38,1.23,6.42,6.42,0,0,1,.7,3.21v8.47a7.12,7.12,0,0,1-.38,2.38,3.44,3.44,0,0,1-1.17,1.67,3.3,3.3,0,0,1-2.08.61,2.57,2.57,0,0,1-2.42-2v4.7Zm5.15-5.89a.72.72,0,0,0,.77-.64,7.85,7.85,0,0,0,.13-1.58v-6.72a7.82,7.82,0,0,0-.13-1.59.72.72,0,0,0-.77-.64.76.76,0,0,0-.82.65,6.52,6.52,0,0,0-.16,1.58v6.72a6.57,6.57,0,0,0,.16,1.58A.75.75,0,0,0,1090.4,312Z"/><path d="M1102,315.23c-3.43,0-5.14-1.77-5.14-5.33V303a5.44,5.44,0,0,1,1.36-3.89,5.65,5.65,0,0,1,7.56,0,5.45,5.45,0,0,1,1.37,3.89v6.9C1107.18,313.46,1105.46,315.23,1102,315.23Zm0-3.16a.82.82,0,0,0,.74-.37,1.83,1.83,0,0,0,.22-.95v-8.41q0-1.5-1-1.5c-.64,0-1,.5-1,1.5v8.41a1.83,1.83,0,0,0,.23.95A.8.8,0,0,0,1102,312.07Z"/><path d="M1108.69,315.05V297.84h4.18v1.92a3,3,0,0,1,1.05-1.56,3.16,3.16,0,0,1,1.91-.56v3.43a7.21,7.21,0,0,0-1.21.11,6.22,6.22,0,0,0-1.22.3c-.36.12-.53.26-.53.41v13.16Z"/><path d="M1120,315.23a3.22,3.22,0,0,1-2.19-.66,3.37,3.37,0,0,1-1-1.82,11.11,11.11,0,0,1-.28-2.63,8.82,8.82,0,0,1,.31-2.58,3.47,3.47,0,0,1,1.06-1.64,6.25,6.25,0,0,1,2.07-1.09l2.55-.87v-1.77c0-.93-.3-1.39-.91-1.39s-.82.38-.82,1.13v1h-4a1.44,1.44,0,0,1,0-.24v-.32a4.71,4.71,0,0,1,1.21-3.65,5.74,5.74,0,0,1,3.84-1.07,5.92,5.92,0,0,1,2.47.49,3.91,3.91,0,0,1,1.72,1.44,4.09,4.09,0,0,1,.64,2.35v13.11h-4.08v-2a3.17,3.17,0,0,1-1,1.65A2.39,2.39,0,0,1,1120,315.23Zm1.62-3.18a.68.68,0,0,0,.68-.43,2.17,2.17,0,0,0,.19-.92v-4.79a3.56,3.56,0,0,0-1.32.86,2.2,2.2,0,0,0-.47,1.54v2.21C1120.67,311.54,1121,312.05,1121.59,312.05Z"/><path d="M1131.73,315.23a2.84,2.84,0,0,1-2.25-.7,3.4,3.4,0,0,1-.58-2.16V301.64h-1.15v-3.13h1.15v-3.65h4v3.65h1.15v3.13h-1.15v9.76a1,1,0,0,0,.13.6.69.69,0,0,0,.53.17,2.43,2.43,0,0,0,.49,0v2.79a6.89,6.89,0,0,1-.86.18A7.93,7.93,0,0,1,1131.73,315.23Z"/><path d="M1135.34,296.79v-3.42h4.11v3.42Zm0,18.26V297.84h4.11v17.21Z"/><path d="M1146.08,315.23c-3.43,0-5.14-1.77-5.14-5.33V303a5.44,5.44,0,0,1,1.36-3.89,5.65,5.65,0,0,1,7.56,0,5.45,5.45,0,0,1,1.37,3.89v6.9C1151.23,313.46,1149.51,315.23,1146.08,315.23Zm0-3.16a.82.82,0,0,0,.74-.37,1.83,1.83,0,0,0,.22-.95v-8.41q0-1.5-1-1.5c-.65,0-1,.5-1,1.5v8.41a1.83,1.83,0,0,0,.23.95A.8.8,0,0,0,1146.08,312.07Z"/><path d="M1152.74,315.05V297.84h4.11V300a3.63,3.63,0,0,1,.85-1.68,2.21,2.21,0,0,1,1.74-.7,3,3,0,0,1,2.6,1.1,5,5,0,0,1,.81,3v13.27h-4V302.2a2.11,2.11,0,0,0-.21-.93.72.72,0,0,0-.71-.43.77.77,0,0,0-.69.33,1.73,1.73,0,0,0-.29.81c0,.32-.05.65-.05,1v12.1Z"/><path d="M729.33,83.44a4.72,4.72,0,0,1-3.53-1.36,5.22,5.22,0,0,1-1.33-3.82V69a7.41,7.41,0,0,1,1.16-4.5,4.43,4.43,0,0,1,3.79-1.56,5.76,5.76,0,0,1,2.55.53A4,4,0,0,1,733.73,65a5,5,0,0,1,.65,2.65v3.48h-4v-3a2.18,2.18,0,0,0-.23-1.22.81.81,0,0,0-.71-.31.76.76,0,0,0-.76.4,2.57,2.57,0,0,0-.19,1.09V78.2a2,2,0,0,0,.25,1.18.81.81,0,0,0,.7.35.74.74,0,0,0,.73-.43,2.48,2.48,0,0,0,.21-1.1V74.57h4.06v3.82a4.93,4.93,0,0,1-1.34,3.86A5.41,5.41,0,0,1,729.33,83.44Z"/><path d="M740.7,83.44c-3.43,0-5.14-1.77-5.14-5.33v-6.9a5.44,5.44,0,0,1,1.36-3.89,5.65,5.65,0,0,1,7.56,0,5.45,5.45,0,0,1,1.37,3.89v6.9C745.85,81.67,744.13,83.44,740.7,83.44Zm0-3.16a.82.82,0,0,0,.74-.37,1.83,1.83,0,0,0,.22-1V70.55q0-1.5-1-1.5c-.64,0-1,.5-1,1.5V79a1.83,1.83,0,0,0,.23,1A.8.8,0,0,0,740.7,80.28Z"/><path d="M747.36,83.26V66.05h4.11v2.2a3.72,3.72,0,0,1,.85-1.68,2.21,2.21,0,0,1,1.74-.7,3,3,0,0,1,2.6,1.1,5,5,0,0,1,.81,3V83.26h-4.05V70.41a2.11,2.11,0,0,0-.21-.93.72.72,0,0,0-.71-.43.78.78,0,0,0-.69.33,1.66,1.66,0,0,0-.28.81,8,8,0,0,0-.06,1v12.1Z"/><path d="M762.46,83.44a3.59,3.59,0,0,1-1.9-.43,2.68,2.68,0,0,1-1-1.21,5.79,5.79,0,0,1-.45-1.8,21.64,21.64,0,0,1-.11-2.21V70.31a6.42,6.42,0,0,1,.7-3.21,2.54,2.54,0,0,1,2.4-1.23,3.07,3.07,0,0,1,1.92.53,3.6,3.6,0,0,1,1,1.49V63.07h4.17V83.26H765V81.44a3.82,3.82,0,0,1-.92,1.47A2.33,2.33,0,0,1,762.46,83.44ZM764,80.23a.75.75,0,0,0,.78-.47,4.58,4.58,0,0,0,.21-1.68V70.84a4.06,4.06,0,0,0-.18-1.2.76.76,0,0,0-.79-.59.79.79,0,0,0-.84.56,4.35,4.35,0,0,0-.17,1.23v7.24C763,79.51,763.37,80.23,764,80.23Z"/><path d="M775.59,83.44a5.4,5.4,0,0,1-2.92-.68,3.76,3.76,0,0,1-1.56-2,9,9,0,0,1-.47-3.12V70.73A4.67,4.67,0,0,1,772,67.1a5.49,5.49,0,0,1,3.79-1.23q5,0,5,4.86V72c0,1.51,0,2.53,0,3.05h-6v3.32a6.58,6.58,0,0,0,.06.9,1.54,1.54,0,0,0,.26.73.74.74,0,0,0,.65.29.75.75,0,0,0,.8-.56,5.23,5.23,0,0,0,.16-1.45V76.62h4.08v1a9.63,9.63,0,0,1-.47,3.23,3.68,3.68,0,0,1-1.61,2A6.21,6.21,0,0,1,775.59,83.44ZM774.72,73h1.95V70.68a2.92,2.92,0,0,0-.23-1.34.74.74,0,0,0-.69-.41.87.87,0,0,0-.76.39,2.52,2.52,0,0,0-.27,1.36Z"/><path d="M782.24,83.26V66.05h4.11v2.2a3.64,3.64,0,0,1,.86-1.68,2.17,2.17,0,0,1,1.73-.7,3,3,0,0,1,2.6,1.1,5,5,0,0,1,.81,3V83.26H788.3V70.41a2.11,2.11,0,0,0-.21-.93.71.71,0,0,0-.71-.43.78.78,0,0,0-.69.33,1.77,1.77,0,0,0-.28.81,8,8,0,0,0-.06,1v12.1Z"/><path d="M798.67,83.44q-5.08,0-5.09-5.16V76.92h4.13v2a1.51,1.51,0,0,0,.23.91.8.8,0,0,0,.73.34q.9,0,.9-1.35a2.61,2.61,0,0,0-.47-1.68A8,8,0,0,0,798,76.09l-2.19-1.68a6.49,6.49,0,0,1-1.57-1.7,4.84,4.84,0,0,1-.54-2.49,4,4,0,0,1,.7-2.44,4.26,4.26,0,0,1,1.87-1.44,6.76,6.76,0,0,1,2.52-.47q5,0,5,5v.32H799.5v-.65a2.81,2.81,0,0,0-.18-1,.68.68,0,0,0-.69-.48c-.59,0-.88.3-.88.92a1.68,1.68,0,0,0,.74,1.45L801,73.28a8.46,8.46,0,0,1,2,2,5.57,5.57,0,0,1,.8,3.15,4.78,4.78,0,0,1-1.38,3.7A5.36,5.36,0,0,1,798.67,83.44Z"/><path d="M809.82,83.44q-5.09,0-5.09-5.16V76.92h4.13v2a1.51,1.51,0,0,0,.23.91.8.8,0,0,0,.73.34q.9,0,.9-1.35a2.61,2.61,0,0,0-.47-1.68,8,8,0,0,0-1.15-1.07l-2.19-1.68a6.32,6.32,0,0,1-1.57-1.7,4.84,4.84,0,0,1-.54-2.49,4,4,0,0,1,.7-2.44,4.26,4.26,0,0,1,1.87-1.44,6.76,6.76,0,0,1,2.52-.47q5,0,5,5v.32h-4.24v-.65a2.81,2.81,0,0,0-.18-1,.68.68,0,0,0-.7-.48c-.58,0-.87.3-.87.92a1.68,1.68,0,0,0,.74,1.45l2.54,1.86a8.24,8.24,0,0,1,2,2,5.49,5.49,0,0,1,.81,3.15,4.78,4.78,0,0,1-1.38,3.7A5.36,5.36,0,0,1,809.82,83.44Z"/><path d="M819.39,83.44a3.22,3.22,0,0,1-2.19-.66,3.37,3.37,0,0,1-1-1.82,11.11,11.11,0,0,1-.28-2.63,8.82,8.82,0,0,1,.31-2.58,3.47,3.47,0,0,1,1.06-1.64A6.25,6.25,0,0,1,819.34,73l2.55-.87V70.38c0-.93-.3-1.39-.91-1.39s-.82.38-.82,1.13v1h-4c0-.06,0-.14,0-.24v-.32a4.71,4.71,0,0,1,1.21-3.65,5.74,5.74,0,0,1,3.84-1.07,5.92,5.92,0,0,1,2.47.49,3.91,3.91,0,0,1,1.72,1.44,4.09,4.09,0,0,1,.64,2.35V83.26H822v-2a3.17,3.17,0,0,1-1,1.65A2.39,2.39,0,0,1,819.39,83.44ZM821,80.26a.69.69,0,0,0,.69-.43,2.33,2.33,0,0,0,.19-.92V74.12a3.56,3.56,0,0,0-1.32.86,2.2,2.2,0,0,0-.47,1.54v2.21C820.09,79.75,820.39,80.26,821,80.26Z"/><path d="M831.14,83.44a2.83,2.83,0,0,1-2.24-.7,3.4,3.4,0,0,1-.58-2.16V69.85h-1.16V66.72h1.16V63.07h4v3.65h1.16v3.13h-1.16v9.76a1,1,0,0,0,.14.6.67.67,0,0,0,.53.17,2.43,2.43,0,0,0,.49,0v2.79a7.39,7.39,0,0,1-.86.18A8,8,0,0,1,831.14,83.44Z"/><path d="M834.76,65V61.58h4.1V65Zm0,18.26V66.05h4.1V83.26Z"/><path d="M845.49,83.44c-3.42,0-5.13-1.77-5.13-5.33v-6.9a5.44,5.44,0,0,1,1.36-3.89,5.65,5.65,0,0,1,7.56,0,5.45,5.45,0,0,1,1.37,3.89v6.9C850.65,81.67,848.93,83.44,845.49,83.44Zm0-3.16a.79.79,0,0,0,.74-.37,1.83,1.83,0,0,0,.23-1V70.55c0-1-.32-1.5-1-1.5s-1,.5-1,1.5V79a1.93,1.93,0,0,0,.22,1A.82.82,0,0,0,845.49,80.28Z"/><path d="M852.16,83.26V66.05h4.11v2.2a3.63,3.63,0,0,1,.85-1.68,2.21,2.21,0,0,1,1.74-.7,3,3,0,0,1,2.6,1.1,5,5,0,0,1,.81,3V83.26h-4V70.41a2.11,2.11,0,0,0-.21-.93.73.73,0,0,0-.71-.43.78.78,0,0,0-.7.33,1.77,1.77,0,0,0-.28.81,8,8,0,0,0-.05,1v12.1Z"/></g></g><g id="Cercle_de_flèche" data-name="Cercle de flèche"><path id="Flèche-7" data-name="Flèche" d="M896.88,243c-1.29.21-32.14,5.26-75.91,27.62-38.91,19.87-95.35,57.66-146.7,125.66l-3.92-2.49a4.71,4.71,0,0,0-7.22,4.19l.63,13.54a4.7,4.7,0,0,0,6.5,4.13l12.52-5.2a4.71,4.71,0,0,0,.72-8.32l-4.12-2.61c50.5-66.73,105.89-103.86,144.08-123.4,43-22,74-27.12,74.36-27.16Z"/><path id="Flèches" d="M677.3,807.57a3,3,0,0,0-4.76-2.16l-4.27,3.05c-35.37-60-50-121-50.16-121.62l-5.87,1.38c.15.64,15.06,62.75,51.11,123.77l-5.7,4.08a3,3,0,0,0,.51,5.2l16.67,7.56a3,3,0,0,0,4.25-3Z"/><path id="Flèche-8" data-name="Flèche" d="M1186.65,937.45l-15.59,2.33a4.05,4.05,0,0,0-2.57,6.53l3.57,4.49c-45.32,33.66-106.25,46.85-150,52a512,512,0,0,1-88.25,2.84l-.46,6c.19,0,10.23.77,26.48.77a548.73,548.73,0,0,0,62.81-3.61c44.59-5.21,106.76-18.7,153.19-53.26l2.49,3.13a4,4,0,0,0,6.94-1L1191,943A4.06,4.06,0,0,0,1186.65,937.45Z"/><path id="flèche-9" data-name="flèche" d="M1371.75,591.5l-8.53-14.78a3.12,3.12,0,0,0-5.41,0l-8.53,14.78a3.12,3.12,0,0,0,2.7,4.68h6c4.61,82.1-20.34,143.72-20.6,144.36l5.57,2.3c.27-.65,25.67-63.28,21.07-146.66h5A3.12,3.12,0,0,0,1371.75,591.5Z"/><path id="flèche-10" data-name="flèche" d="M1210.44,294.34l4.17-5.87a3.19,3.19,0,0,0-2.3-5l-18.53-1.75a3.19,3.19,0,0,0-3.2,4.5l7.75,16.93a3.19,3.19,0,0,0,5.5.52l3.39-4.77c57.6,41.06,86.54,79.83,86.84,80.23l4.49-3.3C1298.24,375.39,1268.84,336,1210.44,294.34Z"/></g><path d="M899.67,622.8a12.24,12.24,0,0,1-9.17-3.55q-3.46-3.54-3.47-9.92v-24.2q0-7.64,3-11.68t9.85-4.06a15.44,15.44,0,0,1,6.63,1.37,10.49,10.49,0,0,1,4.57,4.1,12.9,12.9,0,0,1,1.67,6.87v9.06H902.35V583a5.77,5.77,0,0,0-.6-3.17,2.11,2.11,0,0,0-1.84-.82,2,2,0,0,0-2,1.06,6.5,6.5,0,0,0-.51,2.81v26.26a5.55,5.55,0,0,0,.64,3.07,2.12,2.12,0,0,0,1.84.89,1.94,1.94,0,0,0,1.89-1.1,6.36,6.36,0,0,0,.55-2.86v-9.45H912.9v9.93q0,6.92-3.49,10T899.67,622.8Z"/><path d="M915.35,629.77V623h5.12c.78,0,1.16-.27,1.16-.81a4.41,4.41,0,0,0-.09-.86l-7-43.72h10.22l3,32.9,3.52-32.9h10.28l-8.28,47a7.11,7.11,0,0,1-1.72,3.83,5.64,5.64,0,0,1-4.15,1.29Z"/><path d="M957.79,622.8q-7.51,0-10.66-3.84T944,607.66V593.89a31,31,0,0,1,1.19-9.33,9.75,9.75,0,0,1,4.17-5.57q3-1.85,8.29-1.85a16.18,16.18,0,0,1,6.63,1.31,10.69,10.69,0,0,1,4.63,3.85,10.89,10.89,0,0,1,1.7,6.2v6.82H959.72v-6.26a6.91,6.91,0,0,0-.44-2.61,1.88,1.88,0,0,0-1.94-1.05q-2.62,0-2.62,3.72v21.67a5.38,5.38,0,0,0,.59,2.52,2.06,2.06,0,0,0,2,1.15,2,2,0,0,0,2-1.12,5.83,5.83,0,0,0,.55-2.61v-7.51H970.6V611a11.7,11.7,0,0,1-1.65,6.33,10.81,10.81,0,0,1-4.55,4A15,15,0,0,1,957.79,622.8Z"/><path d="M974.33,622.32V569.87h10.85v52.45Z"/><path d="M1002,622.8a14.15,14.15,0,0,1-7.6-1.79,9.93,9.93,0,0,1-4-5.15,24,24,0,0,1-1.22-8.11v-18q0-6.22,3.58-9.44t9.83-3.2q12.87,0,12.88,12.64V593q0,5.9-.12,7.92h-15.5v8.65a18.15,18.15,0,0,0,.15,2.34,4.2,4.2,0,0,0,.67,1.89,1.9,1.9,0,0,0,1.68.74,1.93,1.93,0,0,0,2.09-1.44,13.86,13.86,0,0,0,.42-3.77v-4.29h10.61v2.53a24.75,24.75,0,0,1-1.24,8.39,9.51,9.51,0,0,1-4.17,5.1A15.94,15.94,0,0,1,1002,622.8Zm-2.26-27.15h5.07v-6a7.4,7.4,0,0,0-.6-3.47,1.92,1.92,0,0,0-1.79-1.06,2.28,2.28,0,0,0-2,1,6.47,6.47,0,0,0-.7,3.52Z"/><path d="M1042.37,622.8a9.28,9.28,0,0,1-4.92-1.13,6.94,6.94,0,0,1-2.71-3.13,15.28,15.28,0,0,1-1.18-4.68,54.69,54.69,0,0,1-.28-5.75V588.67a16.68,16.68,0,0,1,1.83-8.34q1.83-3.2,6.22-3.19a7.82,7.82,0,0,1,5,1.39,8.8,8.8,0,0,1,2.69,3.86V569.87h10.85v52.45H1049v-4.74a9.84,9.84,0,0,1-2.36,3.82A6,6,0,0,1,1042.37,622.8Zm4.08-8.34a2,2,0,0,0,2-1.23,12.47,12.47,0,0,0,.52-4.38v-18.8a10.67,10.67,0,0,0-.46-3.12,2,2,0,0,0-2-1.53,2,2,0,0,0-2.17,1.46,10.74,10.74,0,0,0-.45,3.19v18.8Q1043.89,614.46,1046.45,614.46Z"/><path d="M1076.49,622.8a14.13,14.13,0,0,1-7.6-1.79,9.93,9.93,0,0,1-4.05-5.15,24,24,0,0,1-1.22-8.11v-18q0-6.22,3.58-9.44t9.83-3.2q12.87,0,12.88,12.64V593q0,5.9-.12,7.92h-15.5v8.65a18.15,18.15,0,0,0,.15,2.34,4.2,4.2,0,0,0,.67,1.89,1.9,1.9,0,0,0,1.68.74,1.94,1.94,0,0,0,2.09-1.44,13.86,13.86,0,0,0,.42-3.77v-4.29h10.61v2.53a24.75,24.75,0,0,1-1.24,8.39,9.51,9.51,0,0,1-4.17,5.1A15.94,15.94,0,0,1,1076.49,622.8Zm-2.26-27.15h5.07v-6a7.4,7.4,0,0,0-.6-3.47,1.92,1.92,0,0,0-1.79-1.06,2.28,2.28,0,0,0-2,1,6.47,6.47,0,0,0-.7,3.52Z"/><path d="M931,695.57V643.11h10.85v52.46Z"/><path d="M947.29,658.49l2-7h-3.78v-8.88h11.14v8.61l-3,7.3Z"/><path d="M972.81,696.05a14.1,14.1,0,0,1-7.6-1.79,9.88,9.88,0,0,1-4.06-5.16,24,24,0,0,1-1.22-8.11V663q0-6.22,3.58-9.43t9.83-3.2q12.88,0,12.88,12.63v3.25q0,5.91-.12,7.93H970.6v8.64a17.92,17.92,0,0,0,.15,2.34,4.12,4.12,0,0,0,.67,1.89,1.91,1.91,0,0,0,1.68.75,1.93,1.93,0,0,0,2.09-1.45,13.86,13.86,0,0,0,.42-3.77v-4.29h10.61v2.54a24.55,24.55,0,0,1-1.24,8.39,9.4,9.4,0,0,1-4.17,5.09A15.92,15.92,0,0,1,972.81,696.05Zm-2.27-27.16h5.07v-6a7.43,7.43,0,0,0-.6-3.47,1.94,1.94,0,0,0-1.79-1.06,2.27,2.27,0,0,0-2,1,6.53,6.53,0,0,0-.7,3.51Z"/><path d="M998.23,696.05a8.33,8.33,0,0,1-5.68-1.73,8.91,8.91,0,0,1-2.67-4.74,30,30,0,0,1-.71-6.83,23.43,23.43,0,0,1,.8-6.69,9,9,0,0,1,2.76-4.27,16.29,16.29,0,0,1,5.38-2.84l6.62-2.26V662.1c0-2.4-.79-3.61-2.36-3.61s-2.14,1-2.14,2.92v2.69H989.85a5.16,5.16,0,0,1,0-.61v-.85q0-6.67,3.15-9.47t10-2.78a15.64,15.64,0,0,1,6.41,1.26,10.4,10.4,0,0,1,4.48,3.74,10.78,10.78,0,0,1,1.66,6.11v34.07h-10.61v-5.31a8.35,8.35,0,0,1-2.57,4.3A6.21,6.21,0,0,1,998.23,696.05Zm4.2-8.29a1.78,1.78,0,0,0,1.79-1.1,5.93,5.93,0,0,0,.48-2.39V671.82a9,9,0,0,0-3.43,2.25,5.72,5.72,0,0,0-1.22,4v5.76Q1000.05,687.76,1002.43,687.76Z"/><path d="M1028.21,696.05a8.71,8.71,0,0,1-5.47-1.49,7.52,7.52,0,0,1-2.58-4.16,25.65,25.65,0,0,1-.68-6.25V650.86h10.73v32a11.37,11.37,0,0,0,.42,3.74c.27.71.93,1.06,2,1.06a2,2,0,0,0,2.1-1.49,14,14,0,0,0,.44-3.84V650.86h10.64v44.71H1035.1V690.8a10.79,10.79,0,0,1-2.43,3.9A6.3,6.3,0,0,1,1028.21,696.05Z"/></g></svg>