<svg id="Calque_1" data-name="Calque 1" xmlns="http://www.w3.org/2000/svg" viewBox="0 0 543.88 490.79"><defs><style>.cls-1{fill:#ffedda;}.cls-2{fill:#e24761;}.cls-3{fill:#ffb830;}.cls-4{fill:#ffbd52;}.cls-5{fill:#3db2ff;}.cls-6{fill:#fff;}.cls-7{font-size:24.62px;font-family:Sarabun-Regular, Sarabun;}.cls-8{letter-spacing:-0.02em;}.cls-9{letter-spacing:0.02em;}</style></defs><ellipse class="cls-1" cx="271.94" cy="245.4" rx="271.94" ry="245.4"/><rect class="cls-2" x="159.32" y="138.75" width="93.31" height="112.22"/><rect class="cls-2" x="222.45" y="175.41" width="144.59" height="75.56"/><rect class="cls-3" x="183.75" y="181.52" width="20.06" height="16.29"/><rect class="cls-3" x="183.75" y="212.07" width="20.06" height="18.33"/><rect class="cls-3" x="283.54" y="210.18" width="24.44" height="18.33"/><rect class="cls-3" x="322.23" y="210.18" width="24.44" height="18.33"/><path class="cls-3" d="M653.32,390.05H674.1V358.43c-.08-4.79-2.67-8.94-6.56-10.52-3-1.23-7.95-1.32-10.41,1.88a7.79,7.79,0,0,0-1.36,5.43h0Z" transform="translate(-410.92 -139.08)"/><rect class="cls-4" x="218.01" y="79.69" width="19.25" height="59.06"/><rect class="cls-4" x="260.4" y="51.18" width="23.14" height="124.23"/><polygon class="cls-4" points="307.98 175.41 307.98 41 334.45 41 346.67 175.41 307.98 175.41"/><g id="Calque_4" data-name="Calque 4"><path class="cls-5" d="M645.16,208.33s-6.6,10.53-6.6,14.47,3.64,6.42,6.6,6.42,6.58-2.69,6.58-6.29S646.82,210.62,645.16,208.33Z" transform="translate(-410.92 -139.08)"/><path class="cls-6" d="M644.92,228.18h-.22a.24.24,0,0,1-.23-.26.24.24,0,0,1,.25-.22h0a6.14,6.14,0,0,0,4-1.31A4.53,4.53,0,0,0,650.1,223a.24.24,0,1,1,.48,0,5,5,0,0,1-1.53,3.69,6.38,6.38,0,0,1-4.13,1.44Z" transform="translate(-410.92 -139.08)"/></g><g id="Calque_4-2" data-name="Calque 4"><path class="cls-5" d="M663.56,241.93S657,252.46,657,256.4s3.64,6.42,6.6,6.42,6.58-2.69,6.58-6.29S665.22,244.22,663.56,241.93Z" transform="translate(-410.92 -139.08)"/><path class="cls-6" d="M663.32,261.78h-.23a.23.23,0,0,1-.22-.25.24.24,0,0,1,.25-.23h0a6.14,6.14,0,0,0,4-1.31,4.52,4.52,0,0,0,1.38-3.34.24.24,0,0,1,.25-.23.23.23,0,0,1,.23.25,5,5,0,0,1-1.53,3.68,6.4,6.4,0,0,1-4.13,1.44Z" transform="translate(-410.92 -139.08)"/></g><g id="Calque_4-3" data-name="Calque 4"><path class="cls-5" d="M648.19,258.75s-6.6,10.53-6.6,14.47,3.64,6.43,6.6,6.43,6.59-2.7,6.59-6.29S649.85,261,648.19,258.75Z" transform="translate(-410.92 -139.08)"/><path class="cls-6" d="M648,278.6h-.22a.23.23,0,0,1-.23-.25.24.24,0,0,1,.26-.23h0a6.09,6.09,0,0,0,4-1.31,4.55,4.55,0,0,0,1.37-3.34.25.25,0,0,1,.25-.23.23.23,0,0,1,.23.25,5,5,0,0,1-1.53,3.68A6.38,6.38,0,0,1,648,278.6Z" transform="translate(-410.92 -139.08)"/></g><g id="Calque_4-4" data-name="Calque 4"><path class="cls-5" d="M682.22,183.85s-6.6,10.52-6.6,14.47,3.64,6.42,6.6,6.42,6.58-2.69,6.58-6.29S683.88,186.14,682.22,183.85Z" transform="translate(-410.92 -139.08)"/><path class="cls-6" d="M682,203.69h-.23a.24.24,0,0,1-.22-.26.23.23,0,0,1,.25-.22h0a6.12,6.12,0,0,0,4-1.32,4.51,4.51,0,0,0,1.38-3.33.24.24,0,1,1,.48,0,5,5,0,0,1-1.53,3.68,6.34,6.34,0,0,1-4.13,1.44Z" transform="translate(-410.92 -139.08)"/></g><g id="Calque_4-5" data-name="Calque 4"><path class="cls-5" d="M695.4,208.33s-6.6,10.53-6.6,14.47,3.64,6.42,6.6,6.42,6.58-2.69,6.58-6.29S697.06,210.62,695.4,208.33Z" transform="translate(-410.92 -139.08)"/><path class="cls-6" d="M695.16,228.18h-.23a.24.24,0,0,1-.22-.26.24.24,0,0,1,.25-.22h0a6.14,6.14,0,0,0,4-1.31,4.53,4.53,0,0,0,1.38-3.34.24.24,0,1,1,.48,0,5,5,0,0,1-1.53,3.69,6.4,6.4,0,0,1-4.13,1.44Z" transform="translate(-410.92 -139.08)"/></g><g id="Calque_4-6" data-name="Calque 4"><path class="cls-5" d="M702.67,169.64s-6.59,10.52-6.59,14.47,3.64,6.42,6.59,6.42,6.59-2.69,6.59-6.29S704.34,171.93,702.67,169.64Z" transform="translate(-410.92 -139.08)"/><path class="cls-6" d="M702.43,189.48h-.22a.25.25,0,0,1-.23-.26.26.26,0,0,1,.26-.23h0a6,6,0,0,0,4-1.31,4.47,4.47,0,0,0,1.37-3.33.25.25,0,1,1,.49,0,5,5,0,0,1-1.54,3.68,6.33,6.33,0,0,1-4.13,1.44Z" transform="translate(-410.92 -139.08)"/></g><g id="Calque_4-7" data-name="Calque 4"><path class="cls-5" d="M731.4,169.37s-6.59,10.53-6.59,14.47,3.64,6.42,6.59,6.42S738,187.57,738,184,733.07,171.66,731.4,169.37Z" transform="translate(-410.92 -139.08)"/><path class="cls-6" d="M731.16,189.22h-.22a.24.24,0,0,1,0-.48h0a6.14,6.14,0,0,0,4-1.31,4.52,4.52,0,0,0,1.38-3.34.24.24,0,1,1,.48,0,5,5,0,0,1-1.53,3.68,6.41,6.41,0,0,1-4.14,1.44Z" transform="translate(-410.92 -139.08)"/></g><g id="Calque_4-8" data-name="Calque 4"><path class="cls-5" d="M763.31,204.6s-6.6,10.52-6.6,14.47,3.64,6.42,6.6,6.42,6.58-2.69,6.58-6.29S765,206.89,763.31,204.6Z" transform="translate(-410.92 -139.08)"/><path class="cls-6" d="M763.07,224.44h-.22a.24.24,0,1,1,0-.48h0a6.14,6.14,0,0,0,4-1.32,4.54,4.54,0,0,0,1.37-3.33.24.24,0,1,1,.48,0A5,5,0,0,1,767.2,223a6.33,6.33,0,0,1-4.13,1.44Z" transform="translate(-410.92 -139.08)"/></g><g id="Calque_4-9" data-name="Calque 4"><path class="cls-5" d="M702.67,282.27s-6.59,10.53-6.59,14.48,3.64,6.42,6.59,6.42,6.59-2.69,6.59-6.29S704.34,284.57,702.67,282.27Z" transform="translate(-410.92 -139.08)"/><path class="cls-6" d="M702.43,302.12h-.22a.25.25,0,0,1,0-.49h0a6.09,6.09,0,0,0,4-1.31,4.47,4.47,0,0,0,1.37-3.34.25.25,0,0,1,.25-.23.25.25,0,0,1,.24.25,5,5,0,0,1-1.54,3.68,6.38,6.38,0,0,1-4.13,1.44Z" transform="translate(-410.92 -139.08)"/></g><g id="Calque_4-10" data-name="Calque 4"><path class="cls-5" d="M750.81,169.64s-6.59,10.52-6.59,14.47,3.64,6.42,6.59,6.42,6.59-2.69,6.59-6.29S752.48,171.93,750.81,169.64Z" transform="translate(-410.92 -139.08)"/><path class="cls-6" d="M750.57,189.48h-.22a.25.25,0,0,1-.23-.26.26.26,0,0,1,.26-.23h0a6,6,0,0,0,4-1.31,4.47,4.47,0,0,0,1.37-3.33.25.25,0,1,1,.49,0A5,5,0,0,1,754.7,188a6.33,6.33,0,0,1-4.13,1.44Z" transform="translate(-410.92 -139.08)"/></g><g id="Calque_4-11" data-name="Calque 4"><path class="cls-5" d="M764,267.39s-6.59,10.52-6.59,14.47,3.64,6.42,6.59,6.42,6.59-2.69,6.59-6.29S765.66,269.68,764,267.39Z" transform="translate(-410.92 -139.08)"/><path class="cls-6" d="M763.75,287.23h-.22a.25.25,0,0,1-.23-.26.24.24,0,0,1,.26-.22h0a6.13,6.13,0,0,0,4-1.32,4.51,4.51,0,0,0,1.38-3.33.24.24,0,0,1,.24-.24.25.25,0,0,1,.24.25,5,5,0,0,1-1.54,3.68,6.33,6.33,0,0,1-4.13,1.44Z" transform="translate(-410.92 -139.08)"/></g><text class="cls-7" transform="translate(110.56 363.16) scale(0.97 1)"><tspan class="cls-8">L</tspan><tspan class="cls-9" x="13" y="0">e</tspan><tspan x="26.24" y="0">s usag</tspan><tspan class="cls-9" x="92.26" y="0">e</tspan><tspan x="105.51" y="0">s industrie</tspan><tspan class="cls-8" x="215.12" y="0">l</tspan><tspan x="221.79" y="0">s sont à 4%</tspan></text></svg>