<svg id="Calque_1" data-name="Calque 1" xmlns="http://www.w3.org/2000/svg" viewBox="0 0 533.34 411.1"><defs><style>.cls-1{fill:#ffb852;}.cls-2{fill:#3db2ff;}.cls-3{fill:#ffedda;}.cls-4{fill:#e24761;}.cls-5{font-size:29.23px;font-family:Sarabun-Regular, Sarabun;}.cls-6{letter-spacing:-0.06em;}.cls-7{letter-spacing:0.02em;}.cls-8{letter-spacing:-0.02em;}.cls-9{letter-spacing:-0.03em;}.cls-10{fill:#fff;}</style></defs><rect class="cls-1" width="533.34" height="411.1"/><path class="cls-2" d="M603.11,264.23H614V248.38s.49-4.68,3.88-5.61,3.87-7.49,0-7.49-9.48,0-9.85,6.55S603.11,264.23,603.11,264.23Z" transform="translate(-412.58 -178.93)"/><polygon class="cls-3" points="254.01 79.27 266.26 79.27 349.24 79.27 349.24 59.63 262.18 59.63 254.01 79.27"/><path class="cls-2" d="M655.71,317.13l23.13-58.93h83V397.11h-185V336.77s4.08-12.62,17.68-16.83S655.71,317.13,655.71,317.13Z" transform="translate(-412.58 -178.93)"/><path class="cls-4" d="M655.71,317.13s-10.88,36.48,0,40.69,43.53,0,43.53,0l62.58,1.87V258.2h-83Z" transform="translate(-412.58 -178.93)"/><polygon class="cls-3" points="281.22 98.92 264.9 138.2 331.55 138.2 331.55 98.92 281.22 98.92"/><path class="cls-3" d="M598.57,317.13l19,.16V277.84s2.72-12.62-9.52-13.56-8.61,12.16-9.52,13.56S598.57,317.13,598.57,317.13Z" transform="translate(-412.58 -178.93)"/><ellipse class="cls-3" cx="208.97" cy="214.96" rx="32.25" ry="33.26"/><ellipse class="cls-3" cx="325.99" cy="202.33" rx="43.13" ry="44.48"/><ellipse class="cls-2" cx="325.99" cy="202.33" rx="26.75" ry="27.59"/><text class="cls-5" transform="translate(42.67 284.77) scale(0.97 1)"><tspan class="cls-6">L</tspan><tspan x="14.26" y="0">’agriculture </tspan><tspan class="cls-7" x="170.47" y="0">e</tspan><tspan x="186.2" y="0">st la première activité </tspan><tspan x="-28.76" y="66.65">consommatrice d’eau a</tspan><tspan class="cls-8" x="268.54" y="66.65">v</tspan><tspan x="281.96" y="66.65">ec 45 % du </tspan><tspan class="cls-9" x="429.86" y="66.65">t</tspan><tspan x="440" y="66.65">otal</tspan></text><g id="Calque_4" data-name="Calque 4"><path class="cls-2" d="M511,197.85s-6.61,10.88-6.61,15a6.8,6.8,0,0,0,6.61,6.64c3,0,6.6-2.78,6.6-6.5S512.67,200.22,511,197.85Z" transform="translate(-412.58 -178.93)"/><path class="cls-10" d="M510.76,218.36h-.22a.24.24,0,0,1-.23-.26.25.25,0,0,1,.26-.24h0a6,6,0,0,0,4-1.35,4.76,4.76,0,0,0,1.37-3.45.25.25,0,0,1,.25-.24.25.25,0,0,1,.24.26,5.22,5.22,0,0,1-1.54,3.8,6.24,6.24,0,0,1-4.14,1.49Z" transform="translate(-412.58 -178.93)"/></g><g id="Calque_4-2" data-name="Calque 4"><path class="cls-2" d="M840.27,333.78s-6.61,10.88-6.61,15a6.8,6.8,0,0,0,6.61,6.64c3,0,6.6-2.78,6.6-6.5S841.93,336.15,840.27,333.78Z" transform="translate(-412.58 -178.93)"/><path class="cls-10" d="M840,354.3h-.23a.24.24,0,0,1-.22-.26.24.24,0,0,1,.25-.24h0a6,6,0,0,0,4-1.35,4.76,4.76,0,0,0,1.38-3.45.24.24,0,1,1,.48,0,5.22,5.22,0,0,1-1.53,3.81A6.31,6.31,0,0,1,840,354.3Z" transform="translate(-412.58 -178.93)"/></g><g id="Calque_4-3" data-name="Calque 4"><path class="cls-2" d="M520,386.31s-6.61,10.88-6.61,14.95A6.8,6.8,0,0,0,520,407.9c3,0,6.6-2.78,6.6-6.5S521.65,388.68,520,386.31Z" transform="translate(-412.58 -178.93)"/><path class="cls-10" d="M519.74,406.82h-.22a.26.26,0,0,1-.23-.27.24.24,0,0,1,.26-.23h0a6.06,6.06,0,0,0,4-1.36,4.76,4.76,0,0,0,1.37-3.45.25.25,0,0,1,.25-.24.25.25,0,0,1,.24.26,5.22,5.22,0,0,1-1.54,3.8,6.24,6.24,0,0,1-4.14,1.49Z" transform="translate(-412.58 -178.93)"/></g><g id="Calque_4-4" data-name="Calque 4"><path class="cls-2" d="M546.81,253.44s-6.61,10.88-6.61,14.95a6.8,6.8,0,0,0,6.61,6.64c3,0,6.6-2.78,6.6-6.5S548.48,255.8,546.81,253.44Z" transform="translate(-412.58 -178.93)"/><path class="cls-10" d="M546.57,274h-.22a.24.24,0,0,1-.23-.26.25.25,0,0,1,.25-.24h0a6,6,0,0,0,4-1.35,4.76,4.76,0,0,0,1.38-3.45.24.24,0,1,1,.48,0,5.22,5.22,0,0,1-1.53,3.81,6.26,6.26,0,0,1-4.14,1.49Z" transform="translate(-412.58 -178.93)"/></g><g id="Calque_4-5" data-name="Calque 4"><path class="cls-2" d="M846.87,280s-6.61,10.88-6.61,15a6.8,6.8,0,0,0,6.61,6.64c3,0,6.6-2.79,6.6-6.5S848.54,282.33,846.87,280Z" transform="translate(-412.58 -178.93)"/><path class="cls-10" d="M846.63,300.47h-.22a.25.25,0,0,1,0-.5h0a6,6,0,0,0,4-1.35,4.76,4.76,0,0,0,1.37-3.46.26.26,0,0,1,.25-.24.25.25,0,0,1,.24.26,5.24,5.24,0,0,1-1.54,3.81,6.27,6.27,0,0,1-4.14,1.48Z" transform="translate(-412.58 -178.93)"/></g><g id="Calque_4-6" data-name="Calque 4"><path class="cls-2" d="M650.88,197.85s-6.61,10.88-6.61,15a6.8,6.8,0,0,0,6.61,6.64c3,0,6.6-2.78,6.6-6.5S652.54,200.22,650.88,197.85Z" transform="translate(-412.58 -178.93)"/><path class="cls-10" d="M650.64,218.36h-.23a.23.23,0,0,1-.22-.26.25.25,0,0,1,.25-.24h0a5.94,5.94,0,0,0,4-1.35,4.76,4.76,0,0,0,1.38-3.45.25.25,0,0,1,.25-.24.24.24,0,0,1,.23.26,5.21,5.21,0,0,1-1.53,3.8,6.26,6.26,0,0,1-4.14,1.49Z" transform="translate(-412.58 -178.93)"/></g><g id="Calque_4-7" data-name="Calque 4"><path class="cls-2" d="M771.93,202s-6.61,10.88-6.61,15a6.79,6.79,0,0,0,6.61,6.63c3,0,6.6-2.78,6.6-6.5S773.6,204.38,771.93,202Z" transform="translate(-412.58 -178.93)"/><path class="cls-10" d="M771.69,222.52h-.22a.25.25,0,0,1-.23-.27.24.24,0,0,1,.25-.23h0a6,6,0,0,0,4-1.36,4.73,4.73,0,0,0,1.38-3.45.25.25,0,0,1,.25-.24.25.25,0,0,1,.23.26,5.25,5.25,0,0,1-1.53,3.81,6.29,6.29,0,0,1-4.14,1.48Z" transform="translate(-412.58 -178.93)"/></g><g id="Calque_4-8" data-name="Calque 4"><path class="cls-2" d="M504.4,306.33s-6.61,10.88-6.61,15a6.8,6.8,0,0,0,6.61,6.64c3,0,6.6-2.79,6.6-6.5S506.07,308.7,504.4,306.33Z" transform="translate(-412.58 -178.93)"/><path class="cls-10" d="M504.16,326.85h-.22a.25.25,0,0,1,0-.5h0a6,6,0,0,0,4-1.35,4.76,4.76,0,0,0,1.38-3.45.25.25,0,0,1,.25-.25.25.25,0,0,1,.23.26,5.22,5.22,0,0,1-1.53,3.81,6.29,6.29,0,0,1-4.14,1.48Z" transform="translate(-412.58 -178.93)"/></g><g id="Calque_4-9" data-name="Calque 4"><path class="cls-2" d="M580.94,197.85s-6.61,10.88-6.61,15a6.8,6.8,0,0,0,6.61,6.64c3,0,6.6-2.78,6.6-6.5S582.61,200.22,580.94,197.85Z" transform="translate(-412.58 -178.93)"/><path class="cls-10" d="M580.7,218.36h-.22a.23.23,0,0,1-.23-.26.25.25,0,0,1,.26-.24h0a5.93,5.93,0,0,0,4-1.35,4.76,4.76,0,0,0,1.38-3.45.25.25,0,0,1,.25-.24.25.25,0,0,1,.24.26,5.26,5.26,0,0,1-1.54,3.8,6.24,6.24,0,0,1-4.14,1.49Z" transform="translate(-412.58 -178.93)"/></g><g id="Calque_4-10" data-name="Calque 4"><path class="cls-2" d="M794.91,343.5s-6.61,10.88-6.61,15a6.79,6.79,0,0,0,6.61,6.63c3,0,6.6-2.78,6.6-6.5S796.58,345.87,794.91,343.5Z" transform="translate(-412.58 -178.93)"/><path class="cls-10" d="M794.67,364h-.22a.25.25,0,0,1-.23-.27.24.24,0,0,1,.25-.23h0a6,6,0,0,0,4-1.36,4.75,4.75,0,0,0,1.38-3.45.25.25,0,0,1,.25-.24.24.24,0,0,1,.23.26,5.21,5.21,0,0,1-1.53,3.8,6.26,6.26,0,0,1-4.14,1.49Z" transform="translate(-412.58 -178.93)"/></g><g id="Calque_4-11" data-name="Calque 4"><path class="cls-2" d="M711.82,191.21s-6.61,10.88-6.61,15a6.8,6.8,0,0,0,6.61,6.64c3,0,6.6-2.78,6.6-6.5S713.48,193.58,711.82,191.21Z" transform="translate(-412.58 -178.93)"/><path class="cls-10" d="M711.58,211.73h-.23a.24.24,0,0,1-.22-.26.24.24,0,0,1,.25-.24h0a6,6,0,0,0,4-1.35,4.76,4.76,0,0,0,1.38-3.45.24.24,0,1,1,.48,0,5.22,5.22,0,0,1-1.53,3.81,6.31,6.31,0,0,1-4.14,1.49Z" transform="translate(-412.58 -178.93)"/></g><g id="Calque_4-12" data-name="Calque 4"><path class="cls-2" d="M560.63,313.27s-6.61,10.88-6.61,15a6.8,6.8,0,0,0,6.61,6.64c3,0,6.6-2.79,6.6-6.5S562.29,315.64,560.63,313.27Z" transform="translate(-412.58 -178.93)"/><path class="cls-10" d="M560.39,333.78h-.23a.25.25,0,0,1-.22-.27.24.24,0,0,1,.25-.23h0a6,6,0,0,0,4-1.36,4.73,4.73,0,0,0,1.38-3.45.25.25,0,0,1,.25-.24.25.25,0,0,1,.23.26,5.24,5.24,0,0,1-1.53,3.81,6.29,6.29,0,0,1-4.14,1.48Z" transform="translate(-412.58 -178.93)"/></g><g id="Calque_4-13" data-name="Calque 4"><path class="cls-2" d="M815,212.81s-6.61,10.88-6.61,14.95A6.8,6.8,0,0,0,815,234.4c3,0,6.6-2.78,6.6-6.5S816.67,215.18,815,212.81Z" transform="translate(-412.58 -178.93)"/><path class="cls-10" d="M814.76,233.32h-.22a.24.24,0,0,1-.23-.26.25.25,0,0,1,.26-.24h0a6,6,0,0,0,4-1.35A4.76,4.76,0,0,0,820,228a.25.25,0,0,1,.25-.24.25.25,0,0,1,.24.26,5.22,5.22,0,0,1-1.54,3.8,6.24,6.24,0,0,1-4.14,1.49Z" transform="translate(-412.58 -178.93)"/></g><g id="Calque_4-14" data-name="Calque 4"><path class="cls-2" d="M864.45,227.76s-6.61,10.88-6.61,15a6.79,6.79,0,0,0,6.61,6.63c3,0,6.6-2.78,6.6-6.5S866.11,230.13,864.45,227.76Z" transform="translate(-412.58 -178.93)"/><path class="cls-10" d="M864.21,248.27H864a.25.25,0,0,1-.22-.27.23.23,0,0,1,.25-.23h0a6,6,0,0,0,4-1.36A4.73,4.73,0,0,0,869.4,243a.24.24,0,1,1,.48,0,5.22,5.22,0,0,1-1.54,3.8,6.24,6.24,0,0,1-4.13,1.49Z" transform="translate(-412.58 -178.93)"/></g><g id="Calque_4-15" data-name="Calque 4"><path class="cls-2" d="M481.72,234.7s-6.6,10.88-6.6,15a6.79,6.79,0,0,0,6.6,6.63c3,0,6.6-2.78,6.6-6.5S483.39,237.07,481.72,234.7Z" transform="translate(-412.58 -178.93)"/><path class="cls-10" d="M481.48,255.21h-.22a.26.26,0,0,1-.23-.27.25.25,0,0,1,.26-.23h0a6,6,0,0,0,4-1.36,4.75,4.75,0,0,0,1.38-3.45.24.24,0,1,1,.48,0,5.22,5.22,0,0,1-1.54,3.8,6.24,6.24,0,0,1-4.14,1.49Z" transform="translate(-412.58 -178.93)"/></g><g id="Calque_4-16" data-name="Calque 4"><path class="cls-2" d="M788.3,264.23s-6.6,10.88-6.6,15a6.79,6.79,0,0,0,6.6,6.64c3,0,6.6-2.79,6.6-6.5S790,266.6,788.3,264.23Z" transform="translate(-412.58 -178.93)"/><path class="cls-10" d="M788.06,284.74h-.22a.26.26,0,0,1-.23-.27.25.25,0,0,1,.26-.23h0a6,6,0,0,0,4-1.36,4.73,4.73,0,0,0,1.38-3.45.25.25,0,0,1,.25-.24.25.25,0,0,1,.23.26,5.24,5.24,0,0,1-1.54,3.81,6.27,6.27,0,0,1-4.14,1.48Z" transform="translate(-412.58 -178.93)"/></g><g id="Calque_4-17" data-name="Calque 4"><path class="cls-2" d="M821.6,393.25S815,404.13,815,408.2a6.79,6.79,0,0,0,6.6,6.64c3,0,6.6-2.78,6.6-6.5S823.27,395.62,821.6,393.25Z" transform="translate(-412.58 -178.93)"/><path class="cls-10" d="M821.36,413.76h-.22a.25.25,0,0,1,0-.49h0a6,6,0,0,0,4-1.36,4.76,4.76,0,0,0,1.38-3.45.25.25,0,0,1,.25-.24.24.24,0,0,1,.23.26,5.22,5.22,0,0,1-1.54,3.8,6.24,6.24,0,0,1-4.14,1.49Z" transform="translate(-412.58 -178.93)"/></g><g id="Calque_4-18" data-name="Calque 4"><path class="cls-2" d="M644.27,267.05s-6.6,10.88-6.6,14.95a6.79,6.79,0,0,0,6.6,6.64c3,0,6.6-2.78,6.6-6.5S645.94,269.42,644.27,267.05Z" transform="translate(-412.58 -178.93)"/><path class="cls-10" d="M644,287.56h-.22a.25.25,0,0,1-.23-.26.26.26,0,0,1,.26-.24h0a6,6,0,0,0,4-1.35,4.72,4.72,0,0,0,1.37-3.45.24.24,0,0,1,.25-.24.25.25,0,0,1,.24.26,5.22,5.22,0,0,1-1.54,3.8,6.24,6.24,0,0,1-4.14,1.49Z" transform="translate(-412.58 -178.93)"/></g><g id="Calque_4-19" data-name="Calque 4"><path class="cls-2" d="M475.12,344.58s-6.61,10.88-6.61,15a6.79,6.79,0,0,0,6.61,6.63c3,0,6.6-2.78,6.6-6.5S476.79,347,475.12,344.58Z" transform="translate(-412.58 -178.93)"/><path class="cls-10" d="M474.88,365.09h-.22a.25.25,0,0,1,0-.5h0a6,6,0,0,0,4-1.36,4.72,4.72,0,0,0,1.37-3.45.26.26,0,0,1,.25-.24.25.25,0,0,1,.24.26,5.26,5.26,0,0,1-1.54,3.81,6.27,6.27,0,0,1-4.14,1.48Z" transform="translate(-412.58 -178.93)"/></g></svg>