<?xml version="1.0" encoding="utf-8"?>
<!-- Generator: Adobe Illustrator 24.3.0, SVG Export Plug-In . SVG Version: 6.00 Build 0)  -->
<svg version="1.1" id="Calque_1" xmlns="http://www.w3.org/2000/svg" xmlns:xlink="http://www.w3.org/1999/xlink" x="0px" y="0px"
	 viewBox="0 0 1920 1080" style="enable-background:new 0 0 1920 1080;" xml:space="preserve">
<style type="text/css">
	.st0{fill:#FFEDDA;}
	.st1{fill:#E24761;}
	.st2{fill:#FFB830;}
	.st3{fill:#FFBD52;}
	.st4{fill:#3DB2FF;}
	.st5{fill:#FFFFFF;}
	.st6{fill:none;}
	.st7{font-family:'Sarabun-Regular';}
	.st8{font-size:25.519px;}
	.st9{fill:#66C8FF;}
	.st10{font-size:23.7822px;}
	.st11{fill:#FF2442;}
	.st12{fill:#FFB852;}
	.st13{font-size:33.2716px;}
	.st14{fill:#E54560;}
	.st15{fill:#FFBC50;}
	.st16{font-size:27.386px;}
</style>
<g>
	<g>
		<ellipse class="st0" cx="461.5" cy="816.9" rx="281.9" ry="254.4"/>
		<g>
			<g>
				<rect x="344.7" y="706.3" class="st1" width="96.7" height="116.3"/>
				<rect x="410.2" y="744.3" class="st1" width="149.9" height="78.3"/>
				<rect x="370.1" y="750.6" class="st2" width="20.8" height="16.9"/>
				<rect x="370.1" y="782.3" class="st2" width="20.8" height="19"/>
				<rect x="473.5" y="780.4" class="st2" width="25.3" height="19"/>
				<rect x="513.6" y="780.4" class="st2" width="25.3" height="19"/>
				<path class="st2" d="M430.9,822.6h21.5v-32.8c-0.1-5-2.8-9.3-6.8-10.9c-3.2-1.3-8.2-1.4-10.8,1.9c-1.6,2.1-1.5,4.6-1.4,5.6
					c0,0,2.5-36.1,0,0C430.9,822.6,430.9,822.6,430.9,822.6z"/>
				<rect x="405.6" y="645.1" class="st3" width="20" height="61.2"/>
				<rect x="449.5" y="615.5" class="st3" width="24" height="128.8"/>
				<polygon class="st3" points="498.8,744.3 498.8,605 526.3,605 539,744.3 				"/>
			</g>
			<g id="Calque_4_22_">
				<g>
					<path class="st4" d="M422.4,634.3c0,0-6.8,10.9-6.8,15c0,4.1,3.8,6.7,6.8,6.7s6.8-2.8,6.8-6.5
						C429.2,645.7,424.1,636.6,422.4,634.3z"/>
					<path class="st5" d="M422.1,654.8c-0.1,0-0.2,0-0.2,0c-0.1,0-0.2-0.1-0.2-0.3c0-0.1,0.1-0.2,0.3-0.2l0,0c0,0,2.5,0.1,4.1-1.4
						c0.9-0.8,1.4-2,1.4-3.5c0-0.1,0.1-0.2,0.3-0.2c0.1,0,0.2,0.1,0.2,0.3c-0.1,1.6-0.6,2.9-1.6,3.8
						C424.9,654.7,422.8,654.8,422.1,654.8L422.1,654.8z"/>
				</g>
			</g>
			<g id="Calque_4_23_">
				<g>
					<path class="st4" d="M441.5,669.1c0,0-6.8,10.9-6.8,15c0,4.1,3.8,6.7,6.8,6.7s6.8-2.8,6.8-6.5S443.2,671.5,441.5,669.1z"/>
					<path class="st5" d="M441.2,689.7c-0.1,0-0.2,0-0.2,0c-0.1,0-0.2-0.1-0.2-0.3c0-0.1,0.1-0.2,0.3-0.2l0,0c0,0,2.5,0.1,4.1-1.4
						c0.9-0.8,1.4-2,1.4-3.5c0-0.1,0.1-0.2,0.3-0.2c0.1,0,0.2,0.1,0.2,0.3c-0.1,1.6-0.6,2.9-1.6,3.8
						C444,689.5,441.9,689.7,441.2,689.7L441.2,689.7z"/>
				</g>
			</g>
			<g id="Calque_4_24_">
				<g>
					<path class="st4" d="M425.5,686.5c0,0-6.8,10.9-6.8,15s3.8,6.7,6.8,6.7c3.1,0,6.8-2.8,6.8-6.5
						C432.4,697.9,427.3,688.9,425.5,686.5z"/>
					<path class="st5" d="M425.3,707.1c-0.1,0-0.2,0-0.2,0c-0.1,0-0.2-0.1-0.2-0.3c0-0.1,0.1-0.2,0.3-0.2l0,0c0,0,2.5,0.1,4.1-1.4
						c0.9-0.8,1.4-2,1.4-3.5c0-0.1,0.1-0.2,0.3-0.2c0.1,0,0.2,0.1,0.2,0.3c-0.1,1.6-0.6,2.9-1.6,3.8
						C428.1,707,426,707.1,425.3,707.1L425.3,707.1z"/>
				</g>
			</g>
			<g id="Calque_4_25_">
				<g>
					<path class="st4" d="M460.8,608.9c0,0-6.8,10.9-6.8,15c0,4.1,3.8,6.7,6.8,6.7c3.1,0,6.8-2.8,6.8-6.5S462.5,611.3,460.8,608.9z"
						/>
					<path class="st5" d="M460.6,629.5c-0.1,0-0.2,0-0.2,0c-0.1,0-0.2-0.1-0.2-0.3c0-0.1,0.1-0.2,0.3-0.2l0,0c0,0,2.5,0.1,4.1-1.4
						c0.9-0.8,1.4-2,1.4-3.5c0-0.1,0.1-0.2,0.3-0.2c0.1,0,0.2,0.1,0.2,0.3c-0.1,1.6-0.6,2.9-1.6,3.8
						C463.3,629.3,461.3,629.5,460.6,629.5L460.6,629.5z"/>
				</g>
			</g>
			<g id="Calque_4_26_">
				<g>
					<path class="st4" d="M474.5,634.3c0,0-6.8,10.9-6.8,15c0,4.1,3.8,6.7,6.8,6.7s6.8-2.8,6.8-6.5
						C481.3,645.7,476.2,636.6,474.5,634.3z"/>
					<path class="st5" d="M474.2,654.8c-0.1,0-0.2,0-0.2,0c-0.1,0-0.2-0.1-0.2-0.3c0-0.1,0.1-0.2,0.3-0.2l0,0c0,0,2.5,0.1,4.1-1.4
						c0.9-0.8,1.4-2,1.4-3.5c0-0.1,0.1-0.2,0.3-0.2c0.1,0,0.2,0.1,0.2,0.3c-0.1,1.6-0.6,2.9-1.6,3.8
						C477,654.7,474.9,654.8,474.2,654.8L474.2,654.8z"/>
				</g>
			</g>
			<g id="Calque_4_27_">
				<g>
					<path class="st4" d="M482,594.1c0,0-6.8,10.9-6.8,15s3.8,6.7,6.8,6.7c3.1,0,6.8-2.8,6.8-6.5S483.7,596.5,482,594.1z"/>
					<path class="st5" d="M481.8,614.7c-0.1,0-0.2,0-0.2,0c-0.1,0-0.2-0.1-0.2-0.3c0-0.1,0.1-0.2,0.3-0.2l0,0c0,0,2.5,0.1,4.1-1.4
						c0.9-0.8,1.4-2,1.4-3.5c0-0.1,0.1-0.2,0.3-0.2c0.1,0,0.2,0.1,0.2,0.3c-0.1,1.6-0.6,2.9-1.6,3.8
						C484.5,614.6,482.5,614.7,481.8,614.7L481.8,614.7z"/>
				</g>
			</g>
			<g id="Calque_4_28_">
				<g>
					<path class="st4" d="M511.8,593.9c0,0-6.8,10.9-6.8,15c0,4.1,3.8,6.7,6.8,6.7s6.8-2.8,6.8-6.5S513.5,596.2,511.8,593.9z"/>
					<path class="st5" d="M511.6,614.4c-0.1,0-0.2,0-0.2,0c-0.1,0-0.2-0.1-0.2-0.3c0-0.1,0.1-0.2,0.3-0.2l0,0c0,0,2.5,0.1,4.1-1.4
						c0.9-0.8,1.4-2,1.4-3.5c0-0.1,0.1-0.2,0.3-0.2c0.1,0,0.2,0.1,0.2,0.3c-0.1,1.6-0.6,2.9-1.6,3.8
						C514.3,614.3,512.2,614.4,511.6,614.4L511.6,614.4z"/>
				</g>
			</g>
			<g id="Calque_4_29_">
				<g>
					<path class="st4" d="M544.9,630.4c0,0-6.8,10.9-6.8,15s3.8,6.7,6.8,6.7s6.8-2.8,6.8-6.5S546.6,632.8,544.9,630.4z"/>
					<path class="st5" d="M544.6,651c-0.1,0-0.2,0-0.2,0c-0.1,0-0.2-0.1-0.2-0.3c0-0.1,0.1-0.2,0.3-0.2l0,0c0,0,2.5,0.1,4.1-1.4
						c0.9-0.8,1.4-2,1.4-3.5c0-0.1,0.1-0.2,0.3-0.2c0.1,0,0.2,0.1,0.2,0.3c-0.1,1.6-0.6,2.9-1.6,3.8
						C547.4,650.8,545.3,651,544.6,651L544.6,651z"/>
				</g>
			</g>
			<g id="Calque_4_30_">
				<g>
					<path class="st4" d="M482,710.9c0,0-6.8,10.9-6.8,15c0,4.1,3.8,6.7,6.8,6.7c3.1,0,6.8-2.8,6.8-6.5
						C488.8,722.3,483.7,713.3,482,710.9z"/>
					<path class="st5" d="M481.8,731.5c-0.1,0-0.2,0-0.2,0c-0.1,0-0.2-0.1-0.2-0.3c0-0.1,0.1-0.2,0.3-0.2l0,0c0,0,2.5,0.1,4.1-1.4
						c0.9-0.8,1.4-2,1.4-3.5c0-0.1,0.1-0.2,0.3-0.2c0.1,0,0.2,0.1,0.2,0.3c-0.1,1.6-0.6,2.9-1.6,3.8
						C484.5,731.4,482.5,731.5,481.8,731.5L481.8,731.5z"/>
				</g>
			</g>
			<g id="Calque_4_31_">
				<g>
					<path class="st4" d="M531.9,594.1c0,0-6.8,10.9-6.8,15s3.8,6.7,6.8,6.7c3.1,0,6.8-2.8,6.8-6.5S533.6,596.5,531.9,594.1z"/>
					<path class="st5" d="M531.7,614.7c-0.1,0-0.2,0-0.2,0c-0.1,0-0.2-0.1-0.2-0.3c0-0.1,0.1-0.2,0.3-0.2l0,0c0,0,2.5,0.1,4.1-1.4
						c0.9-0.8,1.4-2,1.4-3.5c0-0.1,0.1-0.2,0.3-0.2c0.1,0,0.2,0.1,0.2,0.3c-0.1,1.6-0.6,2.9-1.6,3.8
						C534.5,614.6,532.4,614.7,531.7,614.7L531.7,614.7z"/>
				</g>
			</g>
			<g id="Calque_4_32_">
				<g>
					<path class="st4" d="M545.6,695.5c0,0-6.8,10.9-6.8,15c0,4.1,3.8,6.7,6.8,6.7s6.8-2.8,6.8-6.5
						C552.4,706.9,547.3,697.9,545.6,695.5z"/>
					<path class="st5" d="M545.3,716.1c-0.1,0-0.2,0-0.2,0c-0.1,0-0.2-0.1-0.2-0.3c0-0.1,0.1-0.2,0.3-0.2l0,0c0,0,2.5,0.1,4.1-1.4
						c0.9-0.8,1.4-2,1.4-3.5c0-0.1,0.1-0.2,0.3-0.2c0.1,0,0.2,0.1,0.2,0.3c-0.1,1.6-0.6,2.9-1.6,3.8
						C548.1,715.9,546,716.1,545.3,716.1L545.3,716.1z"/>
				</g>
			</g>
		</g>
	</g>
	<rect x="268.7" y="920" class="st6" width="397.9" height="35.5"/>
	<text transform="matrix(0.9696 0 0 1 294.1856 938.9487)" class="st7 st8">Les usages industriels sont à 4%</text>
</g>
<polygon class="st9" points="1269.6,1037.1 1132.3,799.4 1269.6,561.6 1544.2,561.6 1681.5,799.4 1544.2,1037.1 "/>
<rect x="1241.3" y="911.9" class="st6" width="346.7" height="70.4"/>
<text transform="matrix(0.9696 0 0 1 1247.9174 929.5878)"><tspan x="0" y="0" class="st7 st10">Les refroidissement des centrales </tspan><tspan x="50.8" y="52.7" class="st7 st10">électriques sont à 30 %</tspan></text>
<g>
	<polygon class="st3" points="1371.7,721.6 1360.3,713.9 1356.7,705.7 1360.3,697.5 1354.1,688.7 1356.7,683.5 1365,683.5 
		1362.9,662.9 1371.7,653.7 1389.2,653.7 1395,648 1409.8,651.6 1419.1,641.3 1431.9,641.3 1439.7,641.3 1457.2,641.3 1457.2,645.4 
		1463.9,649.5 1472.6,651.6 1475.2,664 1465.9,674.8 1451.4,675.3 1444.3,672.2 1444.3,678.4 1451.4,680.7 1451.4,691.8 1444.3,698 
		1429.6,689.7 1420.6,695.9 1421.1,701.6 1405.1,704.7 1410.8,706.2 1421.6,709.3 1420.1,715 1423.7,717 1423.2,720.1 	"/>
	<polygon class="st11" points="1343.8,833 1444.3,833 1440.3,819.7 1438.2,812.5 1427.3,775.8 1422.7,753.4 1421.9,737.9 
		1429.6,718.6 1360.8,718.6 1368.6,740.2 1365.5,764.2 1357.8,789.7 1352.5,812 1350.4,816.9 	"/>
	<polyline class="st4" points="1352.5,812 1438.2,812.5 1439.7,817.4 1350.4,816.9 1352.5,812 	"/>
	<polyline class="st4" points="1362,775.8 1360.3,781.3 1428.9,781.3 1427.3,775.8 1362,775.8 	"/>
	<polyline class="st4" points="1363.4,725.7 1426.8,725.7 1429.6,718.6 1360.8,718.6 1363.4,725.7 	"/>
</g>
<g>
	<polygon class="st3" points="1290.5,736.5 1276.8,727.3 1272.5,717.3 1276.8,707.4 1269.3,696.8 1272.5,690.5 1282.4,690.5 
		1279.9,665.6 1290.5,654.4 1311.7,654.4 1318.8,647.5 1336.6,651.9 1347.8,639.4 1363.4,639.4 1372.8,639.4 1394,639.4 1394,644.4 
		1402.1,649.4 1412.6,651.9 1415.8,666.9 1404.5,679.9 1387,680.6 1378.4,676.8 1378.4,684.3 1387,687.1 1387,700.5 1378.4,708 
		1360.6,698 1349.7,705.5 1350.3,712.3 1331,716.1 1337.9,717.9 1351,721.7 1349.1,728.5 1353.5,731 1352.8,734.8 	"/>
	<polygon class="st11" points="1256.9,871.3 1378.4,871.3 1373.6,855.2 1371,846.5 1357.8,802.1 1352.2,775 1351.3,756.3 
		1360.6,732.9 1277.4,732.9 1286.8,759.1 1283,788.1 1273.7,818.9 1267.3,845.9 1264.8,851.9 	"/>
	<polyline class="st4" points="1267.3,845.9 1371,846.5 1372.8,852.4 1264.8,851.9 1267.3,845.9 	"/>
	<polyline class="st4" points="1278.8,802.1 1276.8,808.8 1359.8,808.8 1357.8,802.1 1278.8,802.1 	"/>
	<polyline class="st4" points="1280.5,741.5 1357.2,741.5 1360.6,732.9 1277.4,732.9 1280.5,741.5 	"/>
</g>
<g>
	<polygon class="st3" points="1451.8,738.4 1438.1,729.2 1433.7,719.2 1438.1,709.2 1430.6,698.6 1433.7,692.4 1443.7,692.4 
		1441.2,667.5 1451.8,656.3 1473,656.3 1480.1,649.4 1497.9,653.8 1509.1,641.3 1524.7,641.3 1534,641.3 1555.2,641.3 1555.2,646.3 
		1563.3,651.3 1573.9,653.8 1577,668.7 1565.8,681.8 1548.3,682.4 1539.6,678.7 1539.6,686.2 1548.3,689 1548.3,702.4 1539.6,709.8 
		1521.9,699.9 1511,707.3 1511.6,714.2 1492.3,717.9 1499.1,719.8 1512.2,723.5 1510.4,730.4 1514.7,732.9 1514.1,736.6 	"/>
	<polygon class="st11" points="1418.1,873.1 1539.6,873.1 1534.9,857 1532.3,848.4 1519.1,804 1513.5,776.9 1512.5,758.2 
		1521.9,734.8 1438.7,734.8 1448.1,761 1444.3,789.9 1435,820.8 1428.6,847.7 1426.1,853.8 	"/>
	<polyline class="st4" points="1428.6,847.7 1532.3,848.4 1534,854.2 1426.1,853.8 1428.6,847.7 	"/>
	<polyline class="st4" points="1440.1,804 1438.1,810.6 1521.1,810.6 1519.1,804 1440.1,804 	"/>
	<polyline class="st4" points="1441.8,743.4 1518.5,743.4 1521.9,734.8 1438.7,734.8 1441.8,743.4 	"/>
</g>
<g>
	<rect x="153.1" y="65.5" class="st12" width="607.1" height="467.9"/>
	<g>
		<path class="st4" d="M370,162.6h12.4v-18c0,0,0.6-5.3,4.4-6.4c3.8-1.1,4.4-8.5,0-8.5s-10.8,0-11.2,7.5
			C375.2,144.5,370,162.6,370,162.6z"/>
		<polygon class="st0" points="442.3,155.7 456.2,155.7 550.7,155.7 550.7,133.4 451.6,133.4 		"/>
		<path class="st4" d="M429.9,222.8l26.3-67.1h94.5v158.1H340.1v-68.7c0,0,4.6-14.4,20.1-19.2S429.9,222.8,429.9,222.8z"/>
		<path class="st1" d="M429.9,222.8c0,0-12.4,41.5,0,46.3c12.4,4.8,49.6,0,49.6,0l71.2,2.1V155.7h-94.5L429.9,222.8z"/>
		<polygon class="st0" points="473.2,178.1 454.7,222.8 530.5,222.8 530.5,178.1 		"/>
		<path class="st0" d="M364.8,222.8l21.7,0.2v-44.9c0,0,3.1-14.4-10.8-15.4c-13.9-1.1-9.8,13.8-10.8,15.4S364.8,222.8,364.8,222.8z"
			/>
		<ellipse class="st0" cx="391" cy="310.2" rx="36.7" ry="37.9"/>
		<ellipse class="st0" cx="524.2" cy="295.8" rx="49.1" ry="50.6"/>
		<ellipse class="st4" cx="524.2" cy="295.8" rx="30.5" ry="31.4"/>
	</g>
	<rect x="164.8" y="364.9" class="st6" width="583.7" height="100.6"/>
	<text transform="matrix(0.9696 0 0 1 201.0633 389.6098)"><tspan x="0" y="0" class="st7 st13">L’agriculture est la première activité </tspan><tspan x="-32.9" y="75.9" class="st7 st13">consommatrice d’eau avec 45 % du total</tspan></text>
	<g id="Calque_4">
		<g>
			<path class="st4" d="M265.2,87c0,0-7.5,12.4-7.5,17s4.2,7.6,7.5,7.6s7.5-3.2,7.5-7.4S267.1,89.7,265.2,87z"/>
			<path class="st5" d="M264.9,110.4c-0.1,0-0.2,0-0.3,0c-0.2,0-0.3-0.1-0.3-0.3c0-0.2,0.1-0.3,0.3-0.3l0,0c0,0,2.8,0.1,4.6-1.5
				c1-0.9,1.5-2.3,1.6-3.9c0-0.2,0.1-0.3,0.3-0.3c0.2,0,0.3,0.1,0.3,0.3c-0.1,1.8-0.6,3.3-1.7,4.3
				C268,110.2,265.7,110.4,264.9,110.4L264.9,110.4z"/>
		</g>
	</g>
	<g id="Calque_4_1_">
		<g>
			<path class="st4" d="M640,241.7c0,0-7.5,12.4-7.5,17c0,4.6,4.2,7.6,7.5,7.6s7.5-3.2,7.5-7.4C647.5,254.7,641.9,244.4,640,241.7z"
				/>
			<path class="st5" d="M639.7,265.1c-0.1,0-0.2,0-0.3,0c-0.2,0-0.3-0.1-0.3-0.3c0-0.2,0.1-0.3,0.3-0.3l0,0c0,0,2.8,0.1,4.6-1.5
				c1-0.9,1.5-2.3,1.6-3.9c0-0.2,0.1-0.3,0.3-0.3c0.2,0,0.3,0.1,0.3,0.3c-0.1,1.8-0.6,3.3-1.7,4.3
				C642.7,265,640.4,265.1,639.7,265.1L639.7,265.1z"/>
		</g>
	</g>
	<g id="Calque_4_2_">
		<g>
			<path class="st4" d="M275.4,301.5c0,0-7.5,12.4-7.5,17s4.2,7.6,7.5,7.6s7.5-3.2,7.5-7.4S277.3,304.2,275.4,301.5z"/>
			<path class="st5" d="M275.1,324.9c-0.1,0-0.2,0-0.3,0c-0.2,0-0.3-0.1-0.3-0.3c0-0.2,0.1-0.3,0.3-0.3l0,0c0,0,2.8,0.1,4.6-1.5
				c1-0.9,1.5-2.3,1.6-3.9c0-0.2,0.1-0.3,0.3-0.3c0.2,0,0.3,0.1,0.3,0.3c-0.1,1.8-0.6,3.3-1.7,4.3
				C278.2,324.7,275.9,324.9,275.1,324.9L275.1,324.9z"/>
		</g>
	</g>
	<g id="Calque_4_3_">
		<g>
			<path class="st4" d="M305.9,150.3c0,0-7.5,12.4-7.5,17s4.2,7.6,7.5,7.6s7.5-3.2,7.5-7.4S307.8,153,305.9,150.3z"/>
			<path class="st5" d="M305.7,173.6c-0.1,0-0.2,0-0.3,0c-0.2,0-0.3-0.1-0.3-0.3c0-0.2,0.1-0.3,0.3-0.3l0,0c0,0,2.8,0.1,4.6-1.5
				c1-0.9,1.5-2.3,1.6-3.9c0-0.2,0.1-0.3,0.3-0.3c0.2,0,0.3,0.1,0.3,0.3c-0.1,1.8-0.6,3.3-1.7,4.3
				C308.7,173.5,306.4,173.6,305.7,173.6L305.7,173.6z"/>
		</g>
	</g>
	<g id="Calque_4_4_">
		<g>
			<path class="st4" d="M647.5,180.5c0,0-7.5,12.4-7.5,17s4.2,7.6,7.5,7.6s7.5-3.2,7.5-7.4S649.4,183.2,647.5,180.5z"/>
			<path class="st5" d="M647.2,203.8c-0.1,0-0.2,0-0.3,0c-0.2,0-0.3-0.1-0.3-0.3c0-0.2,0.1-0.3,0.3-0.3l0,0c0,0,2.8,0.1,4.6-1.5
				c1-0.9,1.5-2.3,1.6-3.9c0-0.2,0.1-0.3,0.3-0.3c0.2,0,0.3,0.1,0.3,0.3c-0.1,1.8-0.6,3.3-1.7,4.3
				C650.3,203.7,648,203.8,647.2,203.8L647.2,203.8z"/>
		</g>
	</g>
	<g id="Calque_4_5_">
		<g>
			<path class="st4" d="M424.4,87c0,0-7.5,12.4-7.5,17s4.2,7.6,7.5,7.6c3.4,0,7.5-3.2,7.5-7.4S426.3,89.7,424.4,87z"/>
			<path class="st5" d="M424.1,110.4c-0.1,0-0.2,0-0.3,0c-0.2,0-0.3-0.1-0.3-0.3c0-0.2,0.1-0.3,0.3-0.3l0,0c0,0,2.8,0.1,4.6-1.5
				c1-0.9,1.5-2.3,1.6-3.9c0-0.2,0.1-0.3,0.3-0.3c0.2,0,0.3,0.1,0.3,0.3c-0.1,1.8-0.6,3.3-1.7,4.3
				C427.2,110.2,424.9,110.4,424.1,110.4L424.1,110.4z"/>
		</g>
	</g>
	<g id="Calque_4_6_">
		<g>
			<path class="st4" d="M562.2,91.8c0,0-7.5,12.4-7.5,17s4.2,7.6,7.5,7.6s7.5-3.2,7.5-7.4S564.1,94.5,562.2,91.8z"/>
			<path class="st5" d="M561.9,115.1c-0.1,0-0.2,0-0.3,0c-0.2,0-0.3-0.1-0.3-0.3c0-0.2,0.1-0.3,0.3-0.3l0,0c0,0,2.8,0.1,4.6-1.5
				c1-0.9,1.5-2.3,1.6-3.9c0-0.2,0.1-0.3,0.3-0.3c0.2,0,0.3,0.1,0.3,0.3c-0.1,1.8-0.6,3.3-1.7,4.3C565,115,562.7,115.1,561.9,115.1
				L561.9,115.1z"/>
		</g>
	</g>
	<g id="Calque_4_7_">
		<g>
			<path class="st4" d="M257.7,210.5c0,0-7.5,12.4-7.5,17s4.2,7.6,7.5,7.6s7.5-3.2,7.5-7.4S259.6,213.2,257.7,210.5z"/>
			<path class="st5" d="M257.4,233.8c-0.1,0-0.2,0-0.3,0c-0.2,0-0.3-0.1-0.3-0.3c0-0.2,0.1-0.3,0.3-0.3l0,0c0,0,2.8,0.1,4.6-1.5
				c1-0.9,1.5-2.3,1.6-3.9c0-0.2,0.1-0.3,0.3-0.3c0.2,0,0.3,0.1,0.3,0.3c-0.1,1.8-0.6,3.3-1.7,4.3
				C260.4,233.7,258.1,233.8,257.4,233.8L257.4,233.8z"/>
		</g>
	</g>
	<g id="Calque_4_8_">
		<g>
			<path class="st4" d="M344.8,87c0,0-7.5,12.4-7.5,17s4.2,7.6,7.5,7.6s7.5-3.2,7.5-7.4S346.7,89.7,344.8,87z"/>
			<path class="st5" d="M344.5,110.4c-0.1,0-0.2,0-0.3,0c-0.2,0-0.3-0.1-0.3-0.3c0-0.2,0.1-0.3,0.3-0.3l0,0c0,0,2.8,0.1,4.6-1.5
				c1-0.9,1.5-2.3,1.6-3.9c0-0.2,0.1-0.3,0.3-0.3c0.2,0,0.3,0.1,0.3,0.3c-0.1,1.8-0.6,3.3-1.7,4.3
				C347.6,110.2,345.3,110.4,344.5,110.4L344.5,110.4z"/>
		</g>
	</g>
	<g id="Calque_4_9_">
		<g>
			<path class="st4" d="M588.3,252.8c0,0-7.5,12.4-7.5,17s4.2,7.6,7.5,7.6c3.4,0,7.5-3.2,7.5-7.4S590.2,255.5,588.3,252.8z"/>
			<path class="st5" d="M588.1,276.1c-0.1,0-0.2,0-0.3,0c-0.2,0-0.3-0.1-0.3-0.3c0-0.2,0.1-0.3,0.3-0.3l0,0c0,0,2.8,0.1,4.6-1.5
				c1-0.9,1.5-2.3,1.6-3.9c0-0.2,0.1-0.3,0.3-0.3c0.2,0,0.3,0.1,0.3,0.3c-0.1,1.8-0.6,3.3-1.7,4.3
				C591.1,276,588.8,276.1,588.1,276.1L588.1,276.1z"/>
		</g>
	</g>
	<g id="Calque_4_10_">
		<g>
			<path class="st4" d="M493.7,79.5c0,0-7.5,12.4-7.5,17s4.2,7.6,7.5,7.6s7.5-3.2,7.5-7.4S495.6,82.2,493.7,79.5z"/>
			<path class="st5" d="M493.5,102.8c-0.1,0-0.2,0-0.3,0c-0.2,0-0.3-0.1-0.3-0.3c0-0.2,0.1-0.3,0.3-0.3l0,0c0,0,2.8,0.1,4.6-1.5
				c1-0.9,1.5-2.3,1.6-3.9c0-0.2,0.1-0.3,0.3-0.3c0.2,0,0.3,0.1,0.3,0.3c-0.1,1.8-0.6,3.3-1.7,4.3
				C496.5,102.7,494.2,102.8,493.5,102.8L493.5,102.8z"/>
		</g>
	</g>
	<g id="Calque_4_11_">
		<g>
			<path class="st4" d="M321.7,218.4c0,0-7.5,12.4-7.5,17s4.2,7.6,7.5,7.6s7.5-3.2,7.5-7.4S323.6,221.1,321.7,218.4z"/>
			<path class="st5" d="M321.4,241.7c-0.1,0-0.2,0-0.3,0c-0.2,0-0.3-0.1-0.3-0.3c0-0.2,0.1-0.3,0.3-0.3l0,0c0,0,2.8,0.1,4.6-1.5
				c1-0.9,1.5-2.3,1.6-3.9c0-0.2,0.1-0.3,0.3-0.3c0.2,0,0.3,0.1,0.3,0.3c-0.1,1.8-0.6,3.3-1.7,4.3
				C324.4,241.6,322.1,241.7,321.4,241.7L321.4,241.7z"/>
		</g>
	</g>
	<g id="Calque_4_12_">
		<g>
			<path class="st4" d="M611.2,104c0,0-7.5,12.4-7.5,17s4.2,7.6,7.5,7.6s7.5-3.2,7.5-7.4C618.7,117,613.1,106.7,611.2,104z"/>
			<path class="st5" d="M610.9,127.4c-0.1,0-0.2,0-0.3,0c-0.2,0-0.3-0.1-0.3-0.3c0-0.2,0.1-0.3,0.3-0.3l0,0c0,0,2.8,0.1,4.6-1.5
				c1-0.9,1.5-2.3,1.6-3.9c0-0.2,0.1-0.3,0.3-0.3c0.2,0,0.3,0.1,0.3,0.3c-0.1,1.8-0.6,3.3-1.7,4.3
				C614,127.3,611.7,127.4,610.9,127.4L610.9,127.4z"/>
		</g>
	</g>
	<g id="Calque_4_13_">
		<g>
			<path class="st4" d="M667.5,121.1c0,0-7.5,12.4-7.5,17s4.2,7.6,7.5,7.6s7.5-3.2,7.5-7.4S669.4,123.8,667.5,121.1z"/>
			<path class="st5" d="M667.2,144.4c-0.1,0-0.2,0-0.3,0c-0.2,0-0.3-0.1-0.3-0.3c0-0.2,0.1-0.3,0.3-0.3l0,0c0,0,2.8,0.1,4.6-1.5
				c1-0.9,1.5-2.3,1.6-3.9c0-0.2,0.1-0.3,0.3-0.3c0.2,0,0.3,0.1,0.3,0.3c-0.1,1.8-0.6,3.3-1.7,4.3
				C670.3,144.3,668,144.4,667.2,144.4L667.2,144.4z"/>
		</g>
	</g>
	<g id="Calque_4_14_">
		<g>
			<path class="st4" d="M231.8,129c0,0-7.5,12.4-7.5,17s4.2,7.6,7.5,7.6s7.5-3.2,7.5-7.4S233.7,131.7,231.8,129z"/>
			<path class="st5" d="M231.6,152.3c-0.1,0-0.2,0-0.3,0c-0.2,0-0.3-0.1-0.3-0.3c0-0.2,0.1-0.3,0.3-0.3l0,0c0,0,2.8,0.1,4.6-1.5
				c1-0.9,1.5-2.3,1.6-3.9c0-0.2,0.1-0.3,0.3-0.3c0.2,0,0.3,0.1,0.3,0.3c-0.1,1.8-0.6,3.3-1.7,4.3
				C234.6,152.2,232.3,152.3,231.6,152.3L231.6,152.3z"/>
		</g>
	</g>
	<g id="Calque_4_15_">
		<g>
			<path class="st4" d="M580.8,162.6c0,0-7.5,12.4-7.5,17s4.2,7.6,7.5,7.6s7.5-3.2,7.5-7.4S582.7,165.3,580.8,162.6z"/>
			<path class="st5" d="M580.5,185.9c-0.1,0-0.2,0-0.3,0c-0.2,0-0.3-0.1-0.3-0.3c0-0.2,0.1-0.3,0.3-0.3l0,0c0,0,2.8,0.1,4.6-1.5
				c1-0.9,1.5-2.3,1.6-3.9c0-0.2,0.1-0.3,0.3-0.3c0.2,0,0.3,0.1,0.3,0.3c-0.1,1.8-0.6,3.3-1.7,4.3
				C583.6,185.8,581.3,185.9,580.5,185.9L580.5,185.9z"/>
		</g>
	</g>
	<g id="Calque_4_16_">
		<g>
			<path class="st4" d="M618.7,309.4c0,0-7.5,12.4-7.5,17s4.2,7.6,7.5,7.6s7.5-3.2,7.5-7.4S620.6,312.1,618.7,309.4z"/>
			<path class="st5" d="M618.4,332.8c-0.1,0-0.2,0-0.3,0c-0.2,0-0.3-0.1-0.3-0.3c0-0.2,0.1-0.3,0.3-0.3l0,0c0,0,2.8,0.1,4.6-1.5
				c1-0.9,1.5-2.3,1.6-3.9c0-0.2,0.1-0.3,0.3-0.3c0.2,0,0.3,0.1,0.3,0.3c-0.1,1.8-0.6,3.3-1.7,4.3
				C621.5,332.6,619.2,332.8,618.4,332.8L618.4,332.8z"/>
		</g>
	</g>
	<g id="Calque_4_17_">
		<g>
			<path class="st4" d="M416.9,165.8c0,0-7.5,12.4-7.5,17s4.2,7.6,7.5,7.6c3.4,0,7.5-3.2,7.5-7.4S418.8,168.5,416.9,165.8z"/>
			<path class="st5" d="M416.6,189.1c-0.1,0-0.2,0-0.3,0c-0.2,0-0.3-0.1-0.3-0.3c0-0.2,0.1-0.3,0.3-0.3l0,0c0,0,2.8,0.1,4.6-1.5
				c1-0.9,1.5-2.3,1.6-3.9c0-0.2,0.1-0.3,0.3-0.3c0.2,0,0.3,0.1,0.3,0.3c-0.1,1.8-0.6,3.3-1.7,4.3
				C419.7,189,417.4,189.1,416.6,189.1L416.6,189.1z"/>
		</g>
	</g>
	<g id="Calque_4_18_">
		<g>
			<path class="st4" d="M224.3,254c0,0-7.5,12.4-7.5,17s4.2,7.6,7.5,7.6c3.4,0,7.5-3.2,7.5-7.4S226.2,256.7,224.3,254z"/>
			<path class="st5" d="M224.1,277.4c-0.1,0-0.2,0-0.3,0c-0.2,0-0.3-0.1-0.3-0.3c0-0.2,0.1-0.3,0.3-0.3l0,0c0,0,2.8,0.1,4.6-1.5
				c1-0.9,1.5-2.3,1.6-3.9c0-0.2,0.1-0.3,0.3-0.3c0.2,0,0.3,0.1,0.3,0.3c-0.1,1.8-0.6,3.3-1.7,4.3
				C227.1,277.2,224.8,277.4,224.1,277.4L224.1,277.4z"/>
		</g>
	</g>
</g>
<path class="st14" d="M1716.7,520.8h-602.2c-6.6,0-12-5.4-12-12V94.3c0-6.6,5.4-12,12-12h602.2c6.6,0,12,5.4,12,12v414.5
	C1728.7,515.4,1723.3,520.8,1716.7,520.8z"/>
<g>
	<g id="Calque_4_20_">
		<g>
			<path class="st4" d="M1512.5,315.2c0,0-16.5,26.1-16.5,35.9s9.1,16,16.5,16c7.4,0,16.4-6.7,16.4-15.6
				C1528.9,342.5,1516.6,320.9,1512.5,315.2z"/>
			<path class="st5" d="M1511.9,364.5c-0.3,0-0.5,0-0.6,0c-0.3,0-0.6-0.3-0.6-0.6c0-0.3,0.3-0.6,0.6-0.6l0,0c0.1,0,6.1,0.3,10-3.3
				c2.2-2,3.3-4.8,3.4-8.3c0-0.3,0.3-0.6,0.6-0.6c0.3,0,0.6,0.3,0.6,0.6c-0.1,3.9-1.4,7-3.8,9.1
				C1518.6,364.2,1513.5,364.5,1511.9,364.5L1511.9,364.5z"/>
		</g>
	</g>
	<g>
		<path class="st0" d="M1291.1,192.5v55.9h60.8h92.6c0,0,40.5,2.8,37.6,16.8c-2.9,14,0.1,39.1,0.1,39.1h57.8v-55.9
			c0,0,2.9-36.3-46.3-55.9C1444.5,173,1291.1,192.5,1291.1,192.5z"/>
		<path class="st15" d="M1435.4,287.5h-57.1c-6.6,0-12-5.4-12-12v-96.1c0-6.6,5.4-12,12-12h57.1c6.6,0,12,5.4,12,12v96.1
			C1447.4,282.1,1442,287.5,1435.4,287.5z"/>
		<rect x="1396.6" y="141.3" class="st0" width="19" height="31"/>
		<ellipse class="st3" cx="1374.3" cy="127.7" rx="31.8" ry="13.7"/>
		<ellipse class="st3" cx="1438.7" cy="127.7" rx="31.8" ry="13.7"/>
	</g>
</g>
<rect x="1198" y="398" class="st6" width="435.1" height="38.1"/>
<text transform="matrix(1.0051 0 0 1 1266.1827 418.362)" class="st7 st16">L’eau potable est à 21 %</text>
</svg>
