<svg id="Calque_1" data-name="Calque 1" xmlns="http://www.w3.org/2000/svg" viewBox="0 0 553.67 401.86"><defs><style>.cls-1{fill:#e54560;}.cls-2{fill:#3db2ff;}.cls-3{fill:#fff;}.cls-4{fill:#ffedda;}.cls-5{fill:#ffbc50;}.cls-6{fill:#ffbd52;}.cls-7{font-size:25.1px;font-family:Sarabun-Regular, Sarabun;}.cls-8{letter-spacing:-0.06em;}.cls-9{letter-spacing:-0.03em;}.cls-10{letter-spacing:0.02em;}</style></defs><rect class="cls-1" width="553.67" height="401.86" rx="12"/><g id="Calque_4" data-name="Calque 4"><path class="cls-2" d="M768.51,397S754,421,754,429.93s8,14.62,14.55,14.62,14.54-6.13,14.54-14.32S772.19,402.21,768.51,397Z" transform="translate(-406.03 -183.55)"/><path class="cls-3" d="M768,442.17h-.49a.54.54,0,0,1-.5-.58.53.53,0,0,1,.56-.52h0c.05,0,5.36.28,8.83-3a10.44,10.44,0,0,0,3-7.6.54.54,0,1,1,1.07,0,11.49,11.49,0,0,1-3.39,8.38c-3.2,3-7.64,3.28-9.11,3.28Z" transform="translate(-406.03 -183.55)"/></g><path class="cls-4" d="M572.79,284.56v51.19H708.45s35.83,2.56,33.27,15.36.13,35.84.13,35.84h51.06v-51.2s2.56-33.27-40.95-51.19S572.79,284.56,572.79,284.56Z" transform="translate(-406.03 -183.55)"/><rect class="cls-5" x="233.31" y="77.98" width="71.67" height="110.06" rx="12"/><rect class="cls-4" x="260.04" y="54.09" width="16.79" height="28.44"/><ellipse class="cls-6" cx="240.35" cy="41.57" rx="28.09" ry="12.51"/><ellipse class="cls-6" cx="297.23" cy="41.57" rx="28.09" ry="12.51"/><text class="cls-7" transform="translate(145.58 308.01) scale(0.97 1)"><tspan class="cls-8">L</tspan><tspan x="12.25" y="0">’eau potab</tspan><tspan class="cls-9" x="130.22" y="0">l</tspan><tspan x="136.77" y="0">e </tspan><tspan class="cls-10" x="155.87" y="0">e</tspan><tspan x="169.37" y="0">st à 21 %</tspan></text></svg>