<svg xmlns="http://www.w3.org/2000/svg" viewBox="0 0 1843.75 1023.44"><defs><style>.cls-1{fill:silver;}.cls-2{fill:#9f9f9f;}.cls-3{fill:#ffecd9;}.cls-4{fill:#d7c9bb;}.cls-5{fill:#3db1ff;}.cls-6{font-size:24px;}.cls-12,.cls-6,.cls-8{fill:#005377;}.cls-12,.cls-13,.cls-19,.cls-22,.cls-6,.cls-8{font-family:Anton-Regular, Anton;}.cls-7{font-size:19.2px;}.cls-8{font-size:20.94px;}.cls-9{fill:#2db1ff;}.cls-10{fill:#ffedda;}.cls-11{fill:#344e82;}.cls-12{font-size:36.68px;}.cls-13{font-size:60px;}.cls-13,.cls-14,.cls-22{fill:#ffb830;}.cls-15{fill:#c1c1c1;}.cls-16{fill:#00c2ef;}.cls-17{fill:#969696;opacity:0.67;}.cls-18{fill:#23a2b7;}.cls-19{font-size:36.56px;fill:#636363;}.cls-20{letter-spacing:-0.02em;}.cls-21,.cls-27{letter-spacing:0em;}.cls-22{font-size:64.19px;}.cls-23{fill:#3db2ff;}.cls-24{fill:#898989;}.cls-25{fill:#2db2ff;}.cls-26,.cls-27{fill:#ff2442;}.cls-26{letter-spacing:0em;}.cls-28{fill:#ffdda6;}</style></defs><g id="Calque_2" data-name="Calque 2"><path class="cls-1" d="M544.29,1013.66h-.69l.07,66.55H179.8v-64.89l-35-2.93v67.82H15.93V962.83s4.26-64.66,53.72-126.42c43-53.75,110.15-63.19,110.15-63.19H528.93a107.08,107.08,0,0,1,15.36,2.34Z" transform="translate(-15.93 -56.76)"/><path class="cls-1" d="M352.07,726.58a150.22,150.22,0,1,0-131.78-78.09A150.1,150.1,0,0,0,352.07,726.58Z" transform="translate(-15.93 -56.76)"/><rect class="cls-1" x="573.39" y="718.89" width="125.06" height="378.35" rx="62.53" transform="translate(-474.57 1027.12) rotate(-64.12)"/><path class="cls-2" d="M489.12,783.46s17.89,48.63,46.8,63.77S646.49,945,655.66,945.87,680,966.21,691,968s34.87-42.74,34.87-42.74l-75.05-87.65L619.15,817l-60.49-34.92s-14.38-12-43.73-8.86S489.12,783.46,489.12,783.46Z" transform="translate(-15.93 -56.76)"/><rect class="cls-1" x="646.06" y="683.15" width="125.06" height="351.76" rx="62.53" transform="translate(-313.41 324.94) rotate(-25.1)"/><path class="cls-2" d="M592.19,773.29l113.09,227.17s15.55,21.84,32.32,23.43,46.61,11.36,6.2-43.46S632.49,818.31,626.43,800.87,606.74,745.64,596.2,747,592.19,773.29,592.19,773.29Z" transform="translate(-15.93 -56.76)"/><g id="verre_d_eau" data-name="verre d eau"><path class="cls-3" d="M634.9,573.84l75.6,169.25S712,759,672.18,782.54s-54.09,15.15-54.09,15.15L505.62,648.26c2.58,2.28,15.3,6.27,74.33-31.09,23.91-15,37.65-25.06,45.42-31.88l.1-.08C634,577.88,635.2,574.82,634.9,573.84Z" transform="translate(-15.93 -56.76)"/><path class="cls-3" d="M505,647.45l.05.07Z" transform="translate(-15.93 -56.76)"/><path class="cls-3" d="M580,617.17c-59,37.36-71.75,33.38-74.33,31.09h0l-.52-.7c1,1.15,11.12,9.48,74.86-30.39Z" transform="translate(-15.93 -56.76)"/><path class="cls-3" d="M634.9,573.84c.31,1-.87,4-9.43,11.37C632.29,579.22,634.47,575.78,634.9,573.84Z" transform="translate(-15.93 -56.76)"/><path class="cls-4" d="M634.83,573.7a.33.33,0,0,1,0,.12h0c.31,1-.87,4-9.42,11.37l-.1.08c-7.74,6.63-21.45,16.72-45.42,31.89-59,37.36-71.75,33.38-74.33,31.09h0a2,2,0,0,1-.61-.81s-4.48-7.53,64.36-48.2c53-31.29,63.85-27.94,65.22-25.77a.5.5,0,0,1,.24.22Z" transform="translate(-15.93 -56.76)"/><path class="cls-5" d="M591.08,630.05h0l-3.16,2c-56.42,35.21-65.43,28.5-66.37,27.47l12.2,16,4.65-2.75c-4,2.66-4.65,2.75-4.65,2.75l84.61,111.22s12.43,7,47.84-14,34.4-34.62,34.4-34.62S612.41,620.59,591.08,630ZM571.6,647" transform="translate(-15.93 -56.76)"/></g><text class="cls-6" transform="translate(577.86 657.13) rotate(-30.9)"> <tspan class="cls-7" x="5.63" y="0">de l’eau </tspan><tspan class="cls-7"><tspan x="-1.49" y="23.04">sur Terre</tspan></tspan></text><text class="cls-8" transform="translate(594.71 712.12) rotate(-30.9)">est potable</text><text class="cls-6" transform="translate(564.08 623.38) rotate(-30.9)">2,5%</text></g><g id="Calque_3" data-name="Calque 3"><path class="cls-9" d="M1215.33,261.8a65.66,65.66,0,0,0-6.9-2.38v-54.9H577q-1.2,6.53-2.14,13.15-1.7,11.88-2.5,24-.63,9.36-.71,18.86c0,.92,0,1.85,0,2.77q0,9.27.52,18.41.58,10.39,1.82,20.62c19.26,159.35,155,282.84,319.52,282.84,151.83,0,279.1-105.12,313-246.55.69-2.9,1.35-5.8,2-8.72q1.92-9.1,3.31-18.39a324.59,324.59,0,0,0,3.59-48.21Z" transform="translate(-15.93 -56.76)"/><path class="cls-10" d="M1214.9,246.55a33.26,33.26,0,0,1-6.47,1.61,66.13,66.13,0,0,1-8.42.68c-21.67.53-66.43,8-104.89,6.39s-55.24,6.39-151-8.52-69.23-18.64-146.85-12.25-65,13.84-121,12.78c-26.48-.5-65-2.8-103.93-5.53q.79-12.15,2.5-24,.93-6.61,2.14-13.15,2.65-14.39,6.57-28.3c19.5,2.06,38.39,3.52,55,4.9,12.26,1,33.94,1.29,56.32,1.21,5.33,0,10.71-.06,16-.11l3.4,0c5.59-.06,11-.13,16.26-.21,23.42-.36,41.58-.86,41.58-.86s30.77-7.12,53.85-7.51,20.28,5.08,58,8.73,32.87,7.38,67.13,4.19,59.44-9.83,76.22,1.21c7.83,5.14,14.14,11.49,20.41,16.78,7.18,6.07,14.32,10.76,23.65,10.76,17.48,0,8.39,4.26,43.35,4.8s66.44,1.06,73.43-2.67c3.54-1.89,5.47-7.47,9-12.89a25.16,25.16,0,0,1,10.87-9.9,318.66,318.66,0,0,1,5.82,37.07C1214.28,236.62,1214.64,241.57,1214.9,246.55Z" transform="translate(-15.93 -56.76)"/><path class="cls-11" d="M1215.33,263.34a324.59,324.59,0,0,1-3.59,48.21c-1.1-.62-2.2-1.31-3.31-2-21.16-14-45.89-45.48-123.49-22.4-95.43,28.4-116.92,33.46-173.67,28.95s-99.73-18.38-138.42-18.38-46.43,3.3-100.59,2.64c-39.5-.48-74.87-16.06-100.14-18.57q-.52-9.13-.52-18.41c0-.92,0-1.85,0-2.77q.07-9.49.71-18.86.79-12.15,2.5-24l5.45.1c76.51,1.32,127.35-14.06,172.86-4.72s55,9.5,104,4.8,73.08-19.61,95.43-3.24S981.77,233,1031.64,233s104.89-5.94,121.22,0,0,2,44.71,0c3.75-.17,7.38-.42,10.86-.73,1.83-.16,3.61-.34,5.36-.54.49,4.93.85,9.88,1.11,14.86s.4,10.14.43,15.25Z" transform="translate(-15.93 -56.76)"/><text class="cls-12" transform="translate(700.97 341.21)">99,3% de l’eau potable<tspan x="-37" y="88.03">se trouve sous la surface de </tspan><tspan x="100.15" y="132.04">la planète</tspan></text><text class="cls-13" transform="translate(988.6 55.78)">0,7%</text><rect class="cls-14" x="1068.67" y="156.19" width="69.07" height="9.24" rx="4.62" transform="translate(674.94 -931.76) rotate(60)"/></g><g id="Calque_4" data-name="Calque 4"><path class="cls-15" d="M1979.87,750.38" transform="translate(-15.93 -56.76)"/><path class="cls-15" d="M1979.87,750.38Z" transform="translate(-15.93 -56.76)"/><path class="cls-15" d="M1979.87,750.38Z" transform="translate(-15.93 -56.76)"/><path class="cls-16" d="M1525.59,966.87c-7.07,9.83-42.85,26-65.72,27.38s-66.73-21.8-109.18-31.77-35.49,8.76-70.43-3.55-27.14-17.71-29.81-18c0,0-2.12-12,.78-20.42,1-2.84,6.62-5.41,14.41-7.7a6.88,6.88,0,0,0-.16,1.17s29.2,6.31,32.84,0,4.4,1.28,10.61-4.16a26.91,26.91,0,0,0,5.74-6.71l2.43-.41a78.15,78.15,0,0,1,16.68-.54c.75,2.5.72,4.36-1.26,4.84-5.51,1.36-5.58,6.91-5.58,6.91s29.2,6.3,32.85,0,4.39,1.28,10.6-4.17c.94-.83,1.76-1.61,2.45-2.35h0c9.49,1.77,17.78,3.59,22.91,4.76,15.39,3.53,48.94,3.11,63.23,2.48s6.18,6.23,21.54,11.54,36.82,3.17,56.72,23.25S1532.68,957,1525.59,966.87Z" transform="translate(-15.93 -56.76)"/><path class="cls-17" d="M1019.6,899.75s29.2,6.3,32.85,0,4.38,1.28,10.6-4.17,6.51-9,7.69-10.25,3.25-4.39,3.25-5.88,3.26-5.6,3.26-5.6-.59-12.54-4.14-12.22-5-4.81-14.5-4.49-18-1.92-21.6,1.29-7.1,11.53-7.1,11.53-7.71-4.14-8.25,2.7,9,18.83,3.52,20.18S1019.6,899.75,1019.6,899.75Z" transform="translate(-15.93 -56.76)"/><path class="cls-17" d="M1199.06,914s29.21,6.3,32.85,0,4.39,1.28,10.6-4.16,6.51-9,7.69-10.25,3.26-4.4,3.26-5.88,3.25-5.61,3.25-5.61-.59-12.54-4.14-12.22-5-4.8-14.5-4.48-18-1.93-21.6,1.28-7.09,11.53-7.09,11.53-7.71-4.14-8.26,2.7,9,18.83,3.52,20.18S1199.06,914,1199.06,914Z" transform="translate(-15.93 -56.76)"/><path class="cls-18" d="M1314.67,903.12a26.91,26.91,0,0,1-5.74,6.71c-6.21,5.44-7-2.14-10.61,4.16s-32.84,0-32.84,0a6.88,6.88,0,0,1,.16-1.17C1279.92,908.6,1301.46,905.34,1314.67,903.12Z" transform="translate(-15.93 -56.76)"/><path class="cls-17" d="M1323.12,888.09s-3.25,4.12-3.25,5.6-2.06,4.6-3.25,5.89a28.44,28.44,0,0,0-1.95,3.54c-13.21,2.22-34.75,5.48-49,9.7a7.11,7.11,0,0,1,5.42-5.74c5.51-1.35-4.07-13.34-3.52-20.18s8.25-2.7,8.25-2.7,3.56-8.33,7.1-11.53,12.14-1,21.6-1.29,10.94,4.82,14.5,4.49S1323.12,888.09,1323.12,888.09Z" transform="translate(-15.93 -56.76)"/><path class="cls-18" d="M1372.84,907.4c-.69.74-1.51,1.52-2.45,2.35-6.21,5.45-7-2.13-10.6,4.17s-32.85,0-32.85,0,.07-5.55,5.58-6.91c2-.48,2-2.34,1.26-4.84C1345.94,902.83,1360.41,905.08,1372.84,907.4Z" transform="translate(-15.93 -56.76)"/><path class="cls-17" d="M1384.58,888s-3.25,4.12-3.25,5.61-2.06,4.6-3.25,5.88c-1,1.09-1.37,3.79-5.23,7.9h0c-12.43-2.32-26.9-4.57-39.06-5.23-1.32-4.46-5.13-11-4.78-15.35.55-6.84,8.25-2.69,8.25-2.69s3.56-8.33,7.1-11.54,12.14-1,21.6-1.28,10.94,4.81,14.5,4.49S1384.58,888,1384.58,888Z" transform="translate(-15.93 -56.76)"/><path class="cls-17" d="M1393.16,913.92s29.21,6.3,32.85,0,4.39,1.28,10.6-4.17,6.51-9,7.69-10.25,3.25-4.39,3.25-5.88,3.26-5.61,3.26-5.61-.59-12.53-4.14-12.21-5-4.81-14.5-4.49-18.05-1.92-21.6,1.29-7.1,11.53-7.1,11.53-7.7-4.14-8.25,2.7,9,18.83,3.52,20.18S1393.16,913.92,1393.16,913.92Z" transform="translate(-15.93 -56.76)"/><path class="cls-17" d="M1227,806.78s29.21,6.3,32.85,0,4.39,1.28,10.6-4.16,6.51-9,7.69-10.25,3.26-4.39,3.26-5.88,3.25-5.61,3.25-5.61-.59-12.54-4.14-12.22-5-4.8-14.5-4.48-18-1.92-21.59,1.28-7.1,11.53-7.1,11.53-7.71-4.14-8.26,2.7,9,18.83,3.53,20.19S1227,806.78,1227,806.78Z" transform="translate(-15.93 -56.76)"/><path class="cls-17" d="M1296,806.78s29.21,6.3,32.85,0,4.39,1.28,10.6-4.16,6.51-9,7.69-10.25,3.26-4.39,3.26-5.88,3.25-5.61,3.25-5.61-.59-12.54-4.14-12.22-5-4.8-14.5-4.48-18-1.92-21.6,1.28-7.09,11.53-7.09,11.53-7.71-4.14-8.26,2.7,9,18.83,3.52,20.19S1296,806.78,1296,806.78Z" transform="translate(-15.93 -56.76)"/><path class="cls-17" d="M1364.41,806.78s29.21,6.3,32.85,0,4.39,1.28,10.6-4.16,6.51-9,7.69-10.25,3.26-4.39,3.26-5.88,3.25-5.61,3.25-5.61-.59-12.54-4.14-12.22-5-4.8-14.49-4.48-18.06-1.92-21.6,1.28-7.1,11.53-7.1,11.53-7.71-4.14-8.26,2.7,9,18.83,3.53,20.19S1364.41,806.78,1364.41,806.78Z" transform="translate(-15.93 -56.76)"/><text class="cls-19" transform="translate(1492.73 714.02)"><tspan class="cls-20">T<tspan class="cls-21" x="13.78" y="0">andis que la ressource</tspan></tspan><tspan x="0" y="43.88">à diminuer de</tspan></text><text class="cls-22" transform="translate(1534.27 835.31)">40%</text><path class="cls-15" d="M1091,817.06" transform="translate(-15.93 -56.76)"/><path class="cls-15" d="M1091,817.06Z" transform="translate(-15.93 -56.76)"/><path class="cls-15" d="M1091,817.06Z" transform="translate(-15.93 -56.76)"/><path class="cls-23" d="M1036.37,902.87s26.23,1.86,26.4-15.22c0,0,.84-3.48-2.08-5V880s1.71-1.19,1.82-2.26v-2s.1-2.9-1.69-4v-3.33s3.69-4.89-.34-7.3v-4.07a7.83,7.83,0,0,0,1.92-1.77v-4.62a2,2,0,0,0-1.5-1.14V846s2.36-1.43,2-3.69v-9.22s.94-9.57-15.49-12.45a13.47,13.47,0,0,1-6.41-12s.53,0,.53-.31.54-7.29,0-7.87c-.74-.78-11.82-1-11.82,0s-.56,7.73.26,7.89c.57.12.54.29.54.29,0,.28,1.91,11.06-14.76,14.9,0,0-7,1.5-7,16.33,0,0-1,5.67,2.54,6.09v3.62s-1.75,1-2,1.78-.95,5.6,2.42,6.27v3.54s-3.37.33-2.75,5.37c0,0,1.17,1.88,1.75,1.88v3.08s-1.87,0-1.87,5.42a3.14,3.14,0,0,0,1.87,2.75v2.54s-2.86,1.13-2.14,6.42S1010.66,902.87,1036.37,902.87Z" transform="translate(-15.93 -56.76)"/><path class="cls-24" d="M1011.5,847.35a.55.55,0,0,1-.25-.1v1.63a171.48,171.48,0,0,0,24.76,1.63,187.64,187.64,0,0,0,24.94-1.63v-1.6l-.2.07A185.75,185.75,0,0,1,1011.5,847.35Z" transform="translate(-15.93 -56.76)"/><path class="cls-24" d="M1060.32,858.46a179.16,179.16,0,0,1-48.36,0,.45.45,0,0,1-.25-.11V860a165.61,165.61,0,0,0,24.33,1.63,181.08,181.08,0,0,0,24.49-1.63v-1.6S1060.5,858.43,1060.32,858.46Z" transform="translate(-15.93 -56.76)"/><path class="cls-24" d="M1060.66,869.43a189.15,189.15,0,0,1-49.7,0,.54.54,0,0,1-.25-.09V871a171.78,171.78,0,0,0,25,1.64,189.32,189.32,0,0,0,25.16-1.64v-1.61S1060.83,869.41,1060.66,869.43Z" transform="translate(-15.93 -56.76)"/><path class="cls-24" d="M1060.53,880.62a188.16,188.16,0,0,1-49.57,0,.76.76,0,0,1-.25-.08v1.61a173.74,173.74,0,0,0,24.92,1.63,190,190,0,0,0,25.1-1.63v-1.57Z" transform="translate(-15.93 -56.76)"/><path class="cls-23" d="M1241.6,811.5s26.23,1.85,26.4-15.22c0,0,.84-3.48-2.08-5.06v-2.55s1.71-1.2,1.83-2.27v-2s.09-2.9-1.7-4v-3.34s3.7-4.88-.33-7.29v-4.08a7.73,7.73,0,0,0,1.92-1.76v-4.62a2.07,2.07,0,0,0-1.5-1.15v-3.59s2.35-1.43,2-3.7v-9.21s.94-9.57-15.49-12.45a13.49,13.49,0,0,1-6.4-12s.52,0,.52-.32.55-7.28,0-7.87c-.74-.78-11.82-1-11.82,0s-.56,7.74.26,7.9c.58.11.54.29.54.29,0,.27,1.92,11.06-14.75,14.89,0,0-7,1.5-7,16.34,0,0-1,5.67,2.55,6.08v3.63s-1.75,1-2,1.78-1,5.59,2.42,6.26v3.54s-3.38.34-2.75,5.38c0,0,1.16,1.88,1.75,1.88v3.08s-1.88,0-1.88,5.42a3.15,3.15,0,0,0,1.88,2.75v2.54s-2.87,1.13-2.15,6.42S1215.89,811.5,1241.6,811.5Z" transform="translate(-15.93 -56.76)"/><path class="cls-24" d="M1216.72,756a.72.72,0,0,1-.25-.1v1.62a168.69,168.69,0,0,0,24.75,1.64,187.25,187.25,0,0,0,24.92-1.63v-1.6l-.2.06A186.31,186.31,0,0,1,1216.72,756Z" transform="translate(-15.93 -56.76)"/><path class="cls-24" d="M1265.51,767.08a179.58,179.58,0,0,1-48.32,0,.51.51,0,0,1-.26-.12v1.64a162.86,162.86,0,0,0,24.31,1.64,180.74,180.74,0,0,0,24.48-1.63V767S1265.7,767.06,1265.51,767.08Z" transform="translate(-15.93 -56.76)"/><path class="cls-24" d="M1265.86,778.06a189,189,0,0,1-49.68,0,.49.49,0,0,1-.25-.1v1.63a174.48,174.48,0,0,0,25,1.63,190.85,190.85,0,0,0,25.15-1.63V778S1266,778,1265.86,778.06Z" transform="translate(-15.93 -56.76)"/><path class="cls-24" d="M1265.72,789.24a188.71,188.71,0,0,1-49.54,0,.63.63,0,0,1-.25-.09v1.61a170.75,170.75,0,0,0,24.91,1.64,189.89,189.89,0,0,0,25.09-1.63V789.2Z" transform="translate(-15.93 -56.76)"/><path class="cls-23" d="M1311.13,811.5s26.23,1.85,26.4-15.22c0,0,.84-3.48-2.08-5.06v-2.55s1.71-1.2,1.83-2.27v-2s.09-2.9-1.7-4v-3.34s3.7-4.88-.33-7.29v-4.08a7.73,7.73,0,0,0,1.92-1.76v-4.62a2.07,2.07,0,0,0-1.5-1.15v-3.59s2.35-1.43,2-3.7v-9.21s.94-9.57-15.49-12.45a13.49,13.49,0,0,1-6.4-12s.52,0,.52-.32.55-7.28,0-7.87c-.74-.78-11.82-1-11.82,0s-.56,7.74.26,7.9c.57.11.54.29.54.29,0,.27,1.92,11.06-14.75,14.89,0,0-7,1.5-7,16.34,0,0-1,5.67,2.55,6.08v3.63s-1.75,1-2,1.78-1,5.59,2.42,6.26v3.54s-3.38.34-2.76,5.38c0,0,1.17,1.88,1.76,1.88v3.08s-1.88,0-1.88,5.42a3.15,3.15,0,0,0,1.88,2.75v2.54s-2.87,1.13-2.15,6.42S1285.42,811.5,1311.13,811.5Z" transform="translate(-15.93 -56.76)"/><path class="cls-24" d="M1286.26,756a.72.72,0,0,1-.25-.1v1.62a168.69,168.69,0,0,0,24.75,1.64,187.25,187.25,0,0,0,24.92-1.63v-1.6l-.2.06A186.31,186.31,0,0,1,1286.26,756Z" transform="translate(-15.93 -56.76)"/><path class="cls-24" d="M1335.05,767.08a179.58,179.58,0,0,1-48.32,0,.51.51,0,0,1-.26-.12v1.64a162.86,162.86,0,0,0,24.31,1.64,180.74,180.74,0,0,0,24.48-1.63V767S1335.24,767.06,1335.05,767.08Z" transform="translate(-15.93 -56.76)"/><path class="cls-24" d="M1335.4,778.06a189,189,0,0,1-49.68,0,.49.49,0,0,1-.25-.1v1.63a174.48,174.48,0,0,0,25,1.63,190.85,190.85,0,0,0,25.15-1.63V778S1335.57,778,1335.4,778.06Z" transform="translate(-15.93 -56.76)"/><path class="cls-24" d="M1335.26,789.24a188.73,188.73,0,0,1-49.54,0,.63.63,0,0,1-.25-.09v1.61a170.75,170.75,0,0,0,24.91,1.64,189.89,189.89,0,0,0,25.09-1.63V789.2Z" transform="translate(-15.93 -56.76)"/><path class="cls-23" d="M1380.66,811.5s26.23,1.85,26.4-15.22c0,0,.84-3.48-2.08-5.06v-2.55s1.71-1.2,1.83-2.27v-2s.09-2.9-1.7-4v-3.34s3.7-4.88-.33-7.29v-4.08a7.73,7.73,0,0,0,1.92-1.76v-4.62a2.07,2.07,0,0,0-1.5-1.15v-3.59s2.35-1.43,2-3.7v-9.21s.94-9.57-15.49-12.45a13.49,13.49,0,0,1-6.4-12s.52,0,.52-.32.55-7.28,0-7.87c-.74-.78-11.82-1-11.82,0s-.56,7.74.26,7.9c.57.11.54.29.54.29,0,.27,1.92,11.06-14.75,14.89,0,0-7,1.5-7,16.34,0,0-1,5.67,2.55,6.08v3.63s-1.75,1-2,1.78-1,5.59,2.42,6.26v3.54s-3.38.34-2.76,5.38c0,0,1.17,1.88,1.75,1.88v3.08s-1.87,0-1.87,5.42a3.15,3.15,0,0,0,1.87,2.75v2.54s-2.86,1.13-2.14,6.42S1355,811.5,1380.66,811.5Z" transform="translate(-15.93 -56.76)"/><path class="cls-24" d="M1355.88,756a.72.72,0,0,1-.25-.1v1.62a168.52,168.52,0,0,0,24.75,1.64,187.35,187.35,0,0,0,24.92-1.63v-1.6l-.2.06A186.31,186.31,0,0,1,1355.88,756Z" transform="translate(-15.93 -56.76)"/><path class="cls-24" d="M1404.67,767.08a179.67,179.67,0,0,1-48.33,0,.51.51,0,0,1-.25-.12v1.64a162.53,162.53,0,0,0,24.31,1.64,180.84,180.84,0,0,0,24.48-1.63V767S1404.86,767.06,1404.67,767.08Z" transform="translate(-15.93 -56.76)"/><path class="cls-24" d="M1405,778.06a189,189,0,0,1-49.68,0,.48.48,0,0,1-.24-.1v1.63a174.48,174.48,0,0,0,25,1.63,190.85,190.85,0,0,0,25.15-1.63V778S1405.18,778,1405,778.06Z" transform="translate(-15.93 -56.76)"/><path class="cls-24" d="M1404.88,789.24a188.82,188.82,0,0,1-49.55,0,.62.62,0,0,1-.24-.09v1.61a170.75,170.75,0,0,0,24.91,1.64,189.74,189.74,0,0,0,25.08-1.63V789.2Z" transform="translate(-15.93 -56.76)"/><path class="cls-25" d="M1215,918s26.23,1.85,26.4-15.22c0,0,.84-3.48-2.08-5.06v-2.55s1.71-1.2,1.82-2.27v-2s.1-2.9-1.69-4v-3.33s3.69-4.88-.34-7.29v-4.08a7.73,7.73,0,0,0,1.92-1.76v-4.62a2.07,2.07,0,0,0-1.5-1.15v-3.59s2.36-1.43,2-3.7v-9.21s.94-9.57-15.49-12.45a13.49,13.49,0,0,1-6.41-12s.53,0,.53-.32.54-7.29,0-7.87c-.74-.78-11.82-1-11.82,0s-.56,7.74.26,7.9c.57.11.54.29.54.29,0,.27,1.91,11.06-14.76,14.89,0,0-7,1.5-7,16.34,0,0-1,5.67,2.54,6.08v3.63s-1.75,1-2,1.78-1,5.59,2.42,6.26v3.54s-3.37.34-2.75,5.38c0,0,1.17,1.88,1.75,1.88v3.08s-1.87,0-1.87,5.42a3.15,3.15,0,0,0,1.87,2.75v2.54s-2.86,1.13-2.14,6.42S1189.3,918,1215,918Z" transform="translate(-15.93 -56.76)"/><path class="cls-24" d="M1190.22,862.52a.62.62,0,0,1-.24-.1V864a168.52,168.52,0,0,0,24.75,1.64,187.46,187.46,0,0,0,24.92-1.63v-1.6l-.21.06A186.33,186.33,0,0,1,1190.22,862.52Z" transform="translate(-15.93 -56.76)"/><path class="cls-24" d="M1239,873.62a179.67,179.67,0,0,1-48.33,0,.51.51,0,0,1-.26-.12v1.64a162.92,162.92,0,0,0,24.32,1.64,180.94,180.94,0,0,0,24.48-1.63v-1.6S1239.2,873.6,1239,873.62Z" transform="translate(-15.93 -56.76)"/><path class="cls-24" d="M1239.36,884.6a189,189,0,0,1-49.68,0,.49.49,0,0,1-.25-.1v1.63a174.48,174.48,0,0,0,25,1.63,190.75,190.75,0,0,0,25.15-1.63v-1.62S1239.53,884.57,1239.36,884.6Z" transform="translate(-15.93 -56.76)"/><path class="cls-24" d="M1239.23,895.78a188,188,0,0,1-49.55,0,.55.55,0,0,1-.25-.08v1.61a170.81,170.81,0,0,0,24.92,1.64,189.74,189.74,0,0,0,25.08-1.63v-1.58Z" transform="translate(-15.93 -56.76)"/><path class="cls-25" d="M1279.68,918s26.23,1.85,26.4-15.22c0,0,.84-3.48-2.08-5.06v-2.55s1.71-1.2,1.82-2.27v-2s.1-2.9-1.69-4v-3.33s3.69-4.88-.34-7.29v-4.08a7.73,7.73,0,0,0,1.92-1.76v-4.62a2.07,2.07,0,0,0-1.5-1.15v-3.59s2.36-1.43,2-3.7v-9.21s.94-9.57-15.49-12.45a13.49,13.49,0,0,1-6.41-12s.53,0,.53-.32.54-7.29,0-7.87c-.74-.78-11.82-1-11.82,0s-.56,7.74.26,7.9c.57.11.54.29.54.29,0,.27,1.91,11.06-14.76,14.89,0,0-7,1.5-7,16.34,0,0-1,5.67,2.54,6.08v3.63s-1.75,1-2,1.78-.95,5.59,2.42,6.26v3.54s-3.37.34-2.75,5.38c0,0,1.17,1.88,1.75,1.88v3.08s-1.87,0-1.87,5.42a3.15,3.15,0,0,0,1.87,2.75v2.54s-2.86,1.13-2.14,6.42S1254,918,1279.68,918Z" transform="translate(-15.93 -56.76)"/><path class="cls-24" d="M1254.77,862.52a.72.72,0,0,1-.25-.1V864a168.52,168.52,0,0,0,24.75,1.64,187.46,187.46,0,0,0,24.92-1.63v-1.6l-.2.06A186.28,186.28,0,0,1,1254.77,862.52Z" transform="translate(-15.93 -56.76)"/><path class="cls-24" d="M1303.56,873.62a179.67,179.67,0,0,1-48.33,0,.45.45,0,0,1-.25-.12v1.64a162.53,162.53,0,0,0,24.31,1.64,180.84,180.84,0,0,0,24.48-1.63v-1.6S1303.75,873.6,1303.56,873.62Z" transform="translate(-15.93 -56.76)"/><path class="cls-24" d="M1303.9,884.6a189,189,0,0,1-49.68,0,.48.48,0,0,1-.24-.1v1.63a174.24,174.24,0,0,0,25,1.63,190.89,190.89,0,0,0,25.16-1.63v-1.62S1304.07,884.57,1303.9,884.6Z" transform="translate(-15.93 -56.76)"/><path class="cls-24" d="M1303.77,895.78a188,188,0,0,1-49.55,0,.47.47,0,0,1-.24-.08v1.61a170.75,170.75,0,0,0,24.91,1.64,189.74,189.74,0,0,0,25.08-1.63v-1.58Z" transform="translate(-15.93 -56.76)"/><path class="cls-25" d="M1344.35,918s26.23,1.85,26.4-15.22c0,0,.84-3.48-2.08-5.06v-2.55s1.71-1.2,1.82-2.27v-2s.1-2.9-1.69-4v-3.33s3.69-4.88-.34-7.29v-4.08a7.73,7.73,0,0,0,1.92-1.76v-4.62a2.07,2.07,0,0,0-1.5-1.15v-3.59s2.36-1.43,2-3.7v-9.21s.94-9.57-15.49-12.45a13.49,13.49,0,0,1-6.41-12s.52,0,.52-.32.55-7.29,0-7.87c-.73-.78-11.81-1-11.81,0s-.56,7.74.26,7.9c.57.11.54.29.54.29,0,.27,1.91,11.06-14.76,14.89,0,0-7,1.5-7,16.34,0,0-1,5.67,2.54,6.08v3.63s-1.75,1-2,1.78-1,5.59,2.42,6.26v3.54s-3.37.34-2.75,5.38c0,0,1.17,1.88,1.75,1.88v3.08s-1.87,0-1.87,5.42a3.15,3.15,0,0,0,1.87,2.75v2.54s-2.86,1.13-2.14,6.42S1318.64,918,1344.35,918Z" transform="translate(-15.93 -56.76)"/><path class="cls-24" d="M1319.56,862.52a.62.62,0,0,1-.24-.1V864a168.36,168.36,0,0,0,24.75,1.64,187.46,187.46,0,0,0,24.92-1.63v-1.6l-.21.06A186.31,186.31,0,0,1,1319.56,862.52Z" transform="translate(-15.93 -56.76)"/><path class="cls-24" d="M1368.36,873.62a179.67,179.67,0,0,1-48.33,0,.51.51,0,0,1-.26-.12v1.64a162.92,162.92,0,0,0,24.32,1.64,180.7,180.7,0,0,0,24.47-1.63v-1.6S1368.54,873.6,1368.36,873.62Z" transform="translate(-15.93 -56.76)"/><path class="cls-24" d="M1368.7,884.6a189,189,0,0,1-49.68,0,.49.49,0,0,1-.25-.1v1.63a174.48,174.48,0,0,0,25,1.63,190.85,190.85,0,0,0,25.15-1.63v-1.62S1368.87,884.57,1368.7,884.6Z" transform="translate(-15.93 -56.76)"/><path class="cls-24" d="M1368.57,895.78a188,188,0,0,1-49.55,0,.55.55,0,0,1-.25-.08v1.61a170.81,170.81,0,0,0,24.92,1.64,189.74,189.74,0,0,0,25.08-1.63v-1.58Z" transform="translate(-15.93 -56.76)"/><path class="cls-25" d="M1409,918s26.23,1.85,26.39-15.22c0,0,.85-3.48-2.07-5.06v-2.55s1.71-1.2,1.82-2.27v-2s.1-2.9-1.69-4v-3.33s3.69-4.88-.34-7.29v-4.08a7.73,7.73,0,0,0,1.92-1.76v-4.62a2.07,2.07,0,0,0-1.5-1.15v-3.59s2.36-1.43,2-3.7v-9.21s.94-9.57-15.49-12.45a13.49,13.49,0,0,1-6.41-12s.52,0,.52-.32.55-7.29,0-7.87c-.73-.78-11.81-1-11.81,0s-.56,7.74.26,7.9c.57.11.54.29.54.29,0,.27,1.91,11.06-14.76,14.89,0,0-7,1.5-7,16.34,0,0-1,5.67,2.54,6.08v3.63s-1.75,1-2,1.78-1,5.59,2.42,6.26v3.54s-3.38.34-2.75,5.38c0,0,1.17,1.88,1.75,1.88v3.08s-1.88,0-1.88,5.42a3.17,3.17,0,0,0,1.88,2.75v2.54s-2.87,1.13-2.14,6.42S1383.3,918,1409,918Z" transform="translate(-15.93 -56.76)"/><path class="cls-24" d="M1384.21,862.52a.62.62,0,0,1-.24-.1V864a168.36,168.36,0,0,0,24.75,1.64,187.46,187.46,0,0,0,24.92-1.63v-1.6l-.21.06A186.31,186.31,0,0,1,1384.21,862.52Z" transform="translate(-15.93 -56.76)"/><path class="cls-24" d="M1433,873.62a179.67,179.67,0,0,1-48.33,0,.51.51,0,0,1-.26-.12v1.64a162.92,162.92,0,0,0,24.32,1.64,180.94,180.94,0,0,0,24.48-1.63v-1.6S1433.19,873.6,1433,873.62Z" transform="translate(-15.93 -56.76)"/><path class="cls-24" d="M1433.35,884.6a189,189,0,0,1-49.68,0,.49.49,0,0,1-.25-.1v1.63a174.48,174.48,0,0,0,25,1.63,190.75,190.75,0,0,0,25.15-1.63v-1.62S1433.52,884.57,1433.35,884.6Z" transform="translate(-15.93 -56.76)"/><path class="cls-24" d="M1433.22,895.78a188,188,0,0,1-49.55,0,.55.55,0,0,1-.25-.08v1.61a170.81,170.81,0,0,0,24.92,1.64,189.74,189.74,0,0,0,25.08-1.63v-1.58Z" transform="translate(-15.93 -56.76)"/><text class="cls-19" transform="translate(922.06 640.14)">La consomation mondiale en eau à été <tspan class="cls-14"><tspan x="0" y="43.88">multipliée par </tspan><tspan class="cls-26" x="212.91" y="43.88">7</tspan><tspan x="230.98" y="43.88"> </tspan><tspan x="0" y="87.75">en </tspan><tspan class="cls-27" x="44.65" y="87.75">1</tspan><tspan x="56.74" y="87.75" xml:space="preserve"> siècle</tspan></tspan></text><path class="cls-17" d="M1674.33,1031.25s72.49,15.64,81.53,0,10.89,3.18,26.3-10.33,16.16-22.26,19.09-25.44,8.08-10.9,8.08-14.59,8.08-13.93,8.08-13.93-1.47-31.11-10.28-30.31-12.48-11.93-36-11.13-44.8-4.77-53.6,3.18-17.61,28.62-17.61,28.62S1680.8,947,1679.45,964s22.41,46.74,8.74,50.1S1674.33,1031.25,1674.33,1031.25Z" transform="translate(-15.93 -56.76)"/><path class="cls-28" d="M1853.19,1013.39c-.43,42.38-66,37.78-66,37.78a191.92,191.92,0,0,1-28-1.8h-.09c-37.34-5.53-40-22.54-41.46-33.42-1.82-13.14,5.35-15.93,5.35-15.93v-6.31c-.16-.06-.32-.11-.47-.18-4-1.75-4.22-6.65-4.22-6.65,0-13.44,4.69-13.44,4.69-13.44v-7.66a1.08,1.08,0,0,1-.38-.08l-.06,0,0,0c-1.54-.74-3.91-4.52-3.91-4.52-1.56-12.51,6.88-13.34,6.88-13.34V939l-.47-.11c-7.9-2-6.09-13.49-5.58-15.45s4.9-4.41,4.9-4.41v-9c-9-1-6.35-15.11-6.35-15.11,0-36.82,17.6-40.54,17.6-40.54,41.69-9.51,37-36.28,36.9-37,0,0,.08-.43-1.35-.71-2.06-.4-.65-17.18-.65-19.59,0-1.82,15.7-2,24.25-1.15h0c2.78.28,4.79.66,5.24,1.14,1.37,1.43,0,18.78,0,19.53s-1.3.77-1.3.77c0,21.43,16,29.71,16,29.71,41.09,7.15,38.74,30.9,38.74,30.9v22.88c1,5.61-4.94,9.17-4.94,9.17V919a5.1,5.1,0,0,1,3.75,2.84V933.3c-.93,1.8-4.8,4.38-4.8,4.38v10.11c10.07,6,.84,18.12.84,18.12v8.26c4.48,2.65,4.24,9.85,4.24,9.85v4.86c-.3,2.66-4.57,5.63-4.57,5.63v6.33C1855.29,1004.75,1853.19,1013.39,1853.19,1013.39Z" transform="translate(-15.93 -56.76)"/><path class="cls-23" d="M1853.19,1013.39c-.42,42.38-66,37.78-66,37.78a192.17,192.17,0,0,1-28-1.8h-.08c-37.34-5.53-40-22.54-41.47-33.42-1.81-13.14,5.36-15.93,5.36-15.93v-6.31c-.17-.06-.32-.11-.47-.18-4-1.75-4.22-6.65-4.22-6.65,0-13.44,4.69-13.44,4.69-13.44v-7.66a1.08,1.08,0,0,1-.38-.08l-.06,0,0,0c-1.54-.74-3.91-4.52-3.91-4.52-1.56-12.51,6.88-13.34,6.88-13.34V939l-.47-.11c-4-1-5.48-4.39-5.94-7.76,24.46,3.45,76.07,8.26,133.2-1.16v3.33c-.93,1.8-4.79,4.38-4.79,4.38v10.11c10.06,6,.82,18.12.82,18.12v8.26c4.49,2.65,4.25,9.85,4.25,9.85v4.86c-.3,2.66-4.57,5.63-4.57,5.63v6.33C1855.29,1004.75,1853.19,1013.39,1853.19,1013.39Z" transform="translate(-15.93 -56.76)"/><path class="cls-24" d="M1848.54,912.53v4l-2.83.36a473,473,0,0,1-59.64,3.69c-34,0-58-3.44-61.58-4l-.47-.07v-4a1.45,1.45,0,0,0,.47.2.76.76,0,0,0,.16,0c.54.09,55,8.78,121.06.3l2.32-.31Z" transform="translate(-15.93 -56.76)"/><path class="cls-24" d="M1847.49,940.11v4l-2.84.38a459,459,0,0,1-58.53,3.67c-33.36,0-56.91-3.43-60.48-4l-.47-.07V940a1.24,1.24,0,0,0,.64.29c.54.09,54,8.77,118.84.3l2.31-.31C1847.43,940.21,1847.49,940.11,1847.49,940.11Z" transform="translate(-15.93 -56.76)"/><path class="cls-24" d="M1848.32,967.29v4l-2.82.36a482.22,482.22,0,0,1-60.22,3.69c-34.3,0-58.51-3.43-62.14-4l-.47-.07v-4l0,0,.07,0a1.29,1.29,0,0,0,.38.15l.15,0c.55.09,55.56,8.78,122.21.3l2.31-.3C1848.24,967.45,1848.32,967.29,1848.32,967.29Z" transform="translate(-15.93 -56.76)"/><path class="cls-24" d="M1848,995.16v3.91l-2.82.36a481.48,481.48,0,0,1-60.06,3.69c-34.2,0-58.36-3.44-62-4l-.47-.08v-4a1.65,1.65,0,0,0,.62.2c.55.09,55.54,8.79,122.09.27l2.11-.28A2.58,2.58,0,0,0,1848,995.16Z" transform="translate(-15.93 -56.76)"/></g></svg>