<?xml version="1.0" encoding="utf-8"?>
<!-- Generator: Adobe Illustrator 24.3.0, SVG Export Plug-In . SVG Version: 6.00 Build 0)  -->
<svg version="1.1" id="Calque_2_1_" xmlns="http://www.w3.org/2000/svg" xmlns:xlink="http://www.w3.org/1999/xlink" x="0px"
	 y="0px" viewBox="0 0 1920 7352" style="enable-background:new 0 0 1920 7352;" xml:space="preserve">
<style type="text/css">
	.st0{fill:#3DB2FF;}
	.st1{fill:#3295CC;}
	.st2{fill:#5AC4FF;}
	.st3{fill:#0085BF;}
</style>
<path class="st0" d="M1003.1,0c0,0-43.3,0-362.9,172.5C527,233.7-238.4,678.1,484.7,898.3c879.2,267.7,1185.9,1104.3-17.3,1607
	c-819.3,342.3-1259.9,580.4-1241.8,744.3c4,36.5,39,116.1,974,344.3c535.4,130.7,814.1,153.6,881.3,276.5
	c161.1,294.7-250.3,820-328.3,915.8c-335,411.5-624.3,400.3-752.5,754.1c-58.1,160.3-13.7,205.3,0,628.3
	C28,7033-145.8,7165,0.1,7351.9c137.3,175.8,301.6,72.3,1443.7,181.8c357.6,34.3,466.8,56.4,570.2-25.9
	c257.5-204.9,221.7-860.3-94-1270.1c-353.4-458.6-908-415.3-942.8-717.1c-11.3-97.8,42.4-142,380.2-561.6
	c492.1-611.3,608.2-795.9,562.7-985c-34.9-144.9-130.7-238.1-165.2-267.8c-316.6-272.6-666.3-80.5-1010.9-337
	c-91.3-67.9-201.4-149.9-233.3-276.5C365.4,2516.1,2053.3,1841.9,1920,1313c-81.5-323.1-682.3-363.5-836.9-772.4
	c-36.1-95.5-35.1-215.5,23.7-376.7C1305.8-381.3,467.4-803.3,1003.1,0z"/>
<path class="st0" d="M2739.7,3550.8"/>
<path class="st0" d="M2601.5,6039.1"/>
<path class="st1" d="M1754.9,3706.2c-316.6-272.6-666.3-80.5-1010.9-337c-91.3-67.9-201.4-149.9-233.3-276.5
	C365.4,2516.1,2053.3,1841.9,1920,1313c-81.5-323.1-682.3-363.5-836.9-772.4c-36.1-95.5-35.1-215.5,23.7-376.7
	c199-545.2-639.4-967.2-103.7-163.9c0,0-43.3,0-362.9,172.5C527,233.7-238.4,678.1,484.7,898.3c879.2,267.7,1185.9,1104.3-17.3,1607
	c-819.3,342.3-1259.9,580.4-1241.8,744.3"/>
<path class="st2" d="M729.2,210.9c26.1-2.7,52.2,10.7,64.3,35.6c15.6,31.8,2.6,70.3-29.2,86.1c-78.8,38.8-144.1,123.1-144.7,124
	c-21.6,28.1-61.9,33.5-90,12.1c-28.1-21.4-33.6-61.7-12.2-90c3.4-4.4,83.7-109,190.2-161.4C714.6,213.7,721.8,211.7,729.2,210.9z"/>
<path class="st2" d="M1719,1585.7c-15.8,0-31.5-6.7-42.4-19.7c-19.8-23.4-16.8-58.3,6.5-78.2c36-30.3,52.5-60.8,50.3-92.8
	c-4.9-74.4-101.4-152-138.3-175.6c-25.8-16.5-33.3-50.7-16.8-76.5c16.5-25.8,50.6-33.4,76.5-16.9c18.3,11.6,179.6,118.2,189.3,261.4
	c3.2,47.4-9.7,117.9-89.4,185.3C1744.3,1581.4,1731.6,1585.7,1719,1585.7L1719,1585.7z"/>
<path class="st3" d="M296.2,3537.7c-6.5,0-13.2-2-18.8-6.1c-104.2-76.3-132-167.5-136.9-230.6c-5.4-68.4,14.5-119.1,15.4-121.2
	c6.5-16.4,25.2-24.4,41.5-17.8c16.4,6.5,24.3,25.1,17.8,41.4c-2.7,6.9-59.6,159.9,99.9,276.7c14.2,10.5,17.3,30.4,6.9,44.6
	C315.7,3533.2,306,3537.8,296.2,3537.7L296.2,3537.7z"/>
<path class="st3" d="M507.8,3536.2c-4.3,0-8.7-0.9-12.9-2.7c-119.9-53-161.8-135.2-163.5-138.6c-7.8-15.8-1.4-35,14.5-42.8
	c15.7-7.8,34.8-1.4,42.7,14.2c0.7,1.4,35.3,66,132.2,108.8c16.1,7.1,23.5,26,16.3,42.2C531.8,3529.1,520.1,3536.2,507.8,3536.2
	L507.8,3536.2z"/>
<path class="st3" d="M1736.5,7039.9l-351.3-401.3c-11-12.6-9.8-31.6,2.8-42.7c12.5-11,31.6-9.8,42.7,2.8l351.3,401.3
	c11,12.6,9.8,31.6-2.8,42.7c-6.9,6-15.6,8.4-24,7.2C1748.1,7048.9,1741.5,7045.6,1736.5,7039.9z"/>
<path class="st3" d="M179.1,6066.3c-11.3-1.5-21.2-9.5-24.8-21.1c-3.3-10.8-79.5-266.2,63.4-454.7c10.1-13.3,29.1-16,42.4-5.9
	c13.3,10.1,15.9,29,5.9,42.4c-124,163.5-54.5,398.1-53.8,400.4l0,0c4.8,16-4.1,32.9-20.1,37.8
	C187.7,6066.5,183.3,6066.8,179.1,6066.3L179.1,6066.3z"/>
<path class="st3" d="M26.2,5745.1c-1.7-0.2-3.4-0.6-5.1-1.2c-15.9-5.1-24.7-22.1-19.7-38c112.2-352.6,474.7-426.1,490.1-429
	c16.5-3.2,32.2,7.5,35.4,23.9c3.2,16.4-7.5,32.2-23.9,35.4c-3.4,0.7-342.8,70.2-443.8,388C54.6,5738.5,40.5,5747,26.2,5745.1
	L26.2,5745.1z"/>
<path class="st3" d="M1203.3,6698.6c-6.8-0.9-13.3-4.1-18.3-9.6c-256.6-282.5-340.6-538.6-344.1-549.4c-5.1-15.9,3.7-32.8,19.6-38
	c16-5.1,32.9,3.6,38.1,19.5c0.8,2.5,84.1,255,331.3,527.2c11.3,12.3,10.3,31.5-2,42.7C1220.9,6697.2,1211.8,6699.7,1203.3,6698.6
	L1203.3,6698.6z"/>
<path class="st3" d="M677.8,6544.5c-7.8-1.1-15.2-5.1-20.2-11.9c-168-226.1-211.8-409.2-213.5-416.9c-3.8-16.2,6.4-32.5,22.6-36.3
	c16.2-3.8,32.5,6.4,36.3,22.6c0.4,1.7,42.6,178.4,203.2,394.5c9.9,13.4,7.2,32.3-6.3,42.3C693.2,6543.7,685.2,6545.5,677.8,6544.5
	L677.8,6544.5z"/>
</svg>
