<?xml version="1.0" encoding="UTF-8"?><svg id="Calque_2" xmlns="http://www.w3.org/2000/svg" viewBox="0 0 347.69 489.97"><defs><style>.cls-1{fill:#0085bf;}.cls-2{fill:#5ac4ff;}</style></defs><g id="proche"><path class="cls-2" d="m241.74,478.59c-33.29,13.81-179.79,12.09-207.61,9.9-8.45-.66-16.28-4.86-22.39-11.15-18.23-18.77-14.68-49.62,6.8-64.58l113.3-78.9s54.81-39.5,36.89-78.78c-2.67-5.87-6.79-10.95-11.78-15.03-11.99-9.78-47.67-43.65-31.32-88.97,16.97-47.02,58.87-39.65,82.47-48.97,6.44-2.54,11.51-6.32,14.35-12.78,2.69-6.11.12-12.92-41.23-31.33-4.23-1.89-7.97-4.76-10.82-8.42-9.7-12.45-23.01-40.45,43.68-49.47,9.17-1.24,13.34,8.69-.63,15.21-13.96,6.52-1.52,27.59,30.73,37.24,37.97,11.35,43.66,34.79,43.59,45.1-.05,8.72-4.1,27.44-63.45,52.65-19.89,8.45-29.02,31.5-5.76,51.07,3.24,2.72,7.1,5.37,11.65,7.91,37.24,20.77,110.79,42.18,116.99,121,6.21,78.82-47.37,124.2-105.46,148.3Z"/></g><g id="loin"><path class="cls-1" d="m287.77,97.66c-.05,8.72-4.1,27.44-63.45,52.65-19.89,8.45-29.02,31.5-5.76,51.07-2.01-1.2-3.99-2.57-5.95-4.13-28.39-22.6-34.03-41.69-32.82-55.17,1.61-17.97,24.78-35.9,33.92-42.76,3.57-2.68,6.79-5.55,8.74-9.99,2.69-6.11.12-12.92-41.23-31.33-4.23-1.89-7.97-4.76-10.82-8.42-9.7-12.45-23.01-40.45,43.68-49.47,9.17-1.24,13.34,8.69-.63,15.21-13.96,6.52-1.52,27.59,30.73,37.24,37.97,11.35,43.66,34.79,43.59,45.1Z"/></g><g id="traits"><path class="cls-1" d="m61.48,459.81c-1.12,0-2.23-.47-3.02-1.38-1.45-1.67-1.27-4.19.4-5.64l53.25-46.28c1.67-1.45,4.2-1.27,5.64.4,1.45,1.67,1.27,4.19-.4,5.64l-53.25,46.28c-.76.66-1.69.98-2.62.98Z"/><path class="cls-1" d="m285.68,359.19c-.56,0-1.14-.12-1.68-.37-2-.93-2.87-3.3-1.95-5.31h0c.14-.29,13.45-29.79.14-53.44-1.08-1.93-.4-4.36,1.53-5.45s4.36-.4,5.45,1.53c15.34,27.27.77,59.37.14,60.73-.68,1.46-2.12,2.32-3.63,2.32Z"/><path class="cls-1" d="m311.48,319.85c-1.91,0-3.6-1.37-3.94-3.32-7.54-43.46-50.76-58.67-51.2-58.82-2.09-.71-3.21-2.98-2.5-5.07s2.97-3.21,5.07-2.5c1.96.66,48.14,16.8,56.52,65.02.38,2.18-1.08,4.25-3.26,4.63-.23.04-.46.06-.69.06Z"/><path class="cls-1" d="m155.71,212.13c-.82,0-1.65-.25-2.36-.77-13.05-9.56-16.53-20.98-17.14-28.88-.67-8.57,1.82-14.92,1.93-15.18.82-2.05,3.15-3.05,5.2-2.23,2.05.82,3.04,3.14,2.23,5.19-.34.87-7.46,20.02,12.51,34.65,1.78,1.31,2.17,3.81.86,5.59-.78,1.07-2,1.64-3.23,1.64Z"/><path class="cls-1" d="m180.87,212.13c-.54,0-1.09-.11-1.61-.34-15.02-6.64-20.26-16.93-20.47-17.36-.98-1.98-.17-4.38,1.81-5.36,1.97-.98,4.36-.18,5.35,1.78.09.18,4.42,8.26,16.55,13.62,2.02.89,2.94,3.25,2.04,5.28-.66,1.49-2.13,2.38-3.66,2.38Z"/><path class="cls-1" d="m140.1,423.67c-1.14,0-2.28-.49-3.07-1.43-1.42-1.69-1.2-4.22.5-5.63,37.28-31.23,52.73-62.83,52.88-63.14.96-1.99,3.34-2.83,5.34-1.87,1.99.96,2.83,3.34,1.88,5.33-.65,1.35-16.26,33.4-54.96,65.82-.75.63-1.66.93-2.57.93Z"/><path class="cls-1" d="m211.75,412.92c-1.01,0-2.02-.38-2.8-1.14-1.58-1.55-1.6-4.08-.06-5.66,24.92-25.43,33.63-47.83,33.71-48.05.79-2.06,3.1-3.1,5.16-2.31,2.06.79,3.1,3.1,2.31,5.16-.37.98-9.4,24.19-35.47,50.8-.78.8-1.82,1.2-2.86,1.2Z"/><path class="cls-2" d="m246.34,111.51c-1.63,0-3.16-1-3.75-2.62-.76-2.07.3-4.37,2.37-5.14,5.13-1.89,9.72-6.68,9.76-6.73,1.52-1.6,4.05-1.67,5.65-.16s1.68,4.04.17,5.65c-.24.25-5.89,6.2-12.82,8.75-.46.17-.92.25-1.38.25Z"/><path class="cls-2" d="m266.01,109.9c-1.14,0-2.27-.48-3.06-1.42-1.43-1.69-1.21-4.21.47-5.64,2.6-2.19,3.79-4.39,3.63-6.7-.35-5.37-7.32-10.97-9.98-12.67-1.86-1.19-2.4-3.66-1.21-5.52,1.19-1.86,3.65-2.41,5.52-1.22,1.32.84,12.96,8.53,13.66,18.86.23,3.42-.7,8.51-6.45,13.37-.75.63-1.67.94-2.58.94Z"/></g></svg>